<svg width="122" height="32" viewBox="0 0 122 32" fill="none" xmlns="http://www.w3.org/2000/svg">
<g clip-path="url(#clip0_815_8916)">
<path d="M107.561 30.4955C107.399 30.667 107.237 30.819 107.063 30.9937C106.785 31.2495 106.435 31.4134 106.061 31.4632C105.687 31.513 105.307 31.4462 104.972 31.272C104.911 31.2494 104.849 31.2235 104.83 31.162C104.877 31.107 104.928 31.0552 104.982 31.0067C105.684 30.3013 106.386 29.5863 107.098 28.8841C107.312 28.678 107.499 28.4453 107.655 28.1917C107.677 28.1594 107.693 28.14 107.713 28.14C107.732 28.14 107.748 28.1626 107.774 28.2047C107.906 28.4 107.996 28.6202 108.04 28.8518C108.099 29.1441 108.087 29.4464 108.003 29.7328C107.92 30.0192 107.768 30.2809 107.561 30.4955V30.4955Z" fill="#B5F456"/>
<path d="M107.422 26.8554C107.427 27.1275 107.378 27.398 107.276 27.6505C107.174 27.9029 107.022 28.1322 106.83 28.3244C106.034 29.1365 105.234 29.9421 104.425 30.7349C104.274 30.8856 104.093 31.0047 103.895 31.0852C103.697 31.1657 103.484 31.2061 103.27 31.204C102.829 31.2106 102.402 31.0433 102.083 30.7381C101.853 30.5051 101.623 30.2884 101.407 30.0586C101.098 29.7451 100.925 29.3226 100.925 28.8825C100.925 28.4424 101.098 28.0199 101.407 27.7064L102.529 26.5771L103.778 25.3282C104.045 25.0575 104.381 24.8651 104.749 24.7717C105.027 24.6999 105.317 24.6852 105.6 24.7284C105.884 24.7715 106.156 24.8717 106.4 25.0229C106.644 25.1741 106.855 25.3731 107.02 25.608C107.185 25.8428 107.301 26.1087 107.36 26.3895C107.396 26.5423 107.417 26.6984 107.422 26.8554V26.8554Z" fill="#B5F456"/>
<path d="M103.355 24.8946C102.565 25.6938 101.769 26.4833 100.983 27.2728C100.667 27.5831 100.242 27.7573 99.7986 27.7581C99.3583 27.7582 98.9359 27.5837 98.6241 27.2728C98.4073 27.0528 98.1776 26.836 97.9608 26.6063C97.648 26.2922 97.4724 25.8669 97.4724 25.4237C97.4724 24.9804 97.648 24.5552 97.9608 24.2411L100.32 21.8758C100.753 21.4649 101.261 21.2578 102.131 21.2578C102.843 21.2578 103.778 21.9988 103.93 23.0536C103.994 23.3842 103.975 23.7254 103.874 24.0467C103.774 24.368 103.595 24.6594 103.355 24.8946V24.8946Z" fill="#B5F456"/>
<path d="M97.0904 16.5015C97.0947 16.7805 97.0428 17.0575 96.9377 17.316C96.8327 17.5745 96.6766 17.8092 96.4788 18.0061L94.1168 20.368C93.8014 20.6832 93.3737 20.8602 92.9278 20.8602C92.4818 20.8602 92.0542 20.6832 91.7387 20.368L91.0916 19.7209C90.7804 19.406 90.6058 18.9811 90.6058 18.5383C90.6058 18.0956 90.7804 17.6706 91.0916 17.3557C91.8746 16.5565 92.6738 15.767 93.46 14.9808C93.6527 14.7858 93.8826 14.6315 94.1361 14.527C94.3895 14.4225 94.6613 14.37 94.9355 14.3725H94.9775C95.2568 14.3707 95.5337 14.4247 95.7919 14.5313C96.0501 14.6379 96.2844 14.7949 96.4812 14.9932C96.6779 15.1914 96.8331 15.427 96.9378 15.686C97.0424 15.945 97.0942 16.2222 97.0904 16.5015V16.5015Z" fill="#B5F456"/>
<path d="M99.9442 21.4261C99.763 21.6332 99.5559 21.8144 99.3618 22.0085L97.5854 23.7913C97.3722 24.0241 97.0955 24.1895 96.7895 24.2669C96.6451 24.2997 96.4975 24.3171 96.3494 24.3187C95.9381 24.3181 95.5424 24.1607 95.2429 23.8787C94.9873 23.636 94.7349 23.3933 94.4922 23.1377C94.2019 22.8184 94.0432 22.401 94.048 21.9694C94.0528 21.5379 94.2207 21.1241 94.5181 20.8113C94.9873 20.3357 95.4467 19.8762 95.9191 19.4038L96.3883 18.9314L96.851 18.4429C97.1455 18.1406 97.5244 17.9342 97.9381 17.8508C98.0911 17.8108 98.2493 17.7945 98.4073 17.8022H98.4332C98.9202 17.806 99.3909 17.9783 99.7654 18.2897C100.14 18.6011 100.395 19.0324 100.488 19.5106C100.567 19.8498 100.558 20.2035 100.463 20.5385C100.368 20.8735 100.189 21.1789 99.9442 21.4261V21.4261Z" fill="#B5F456"/>
<path d="M121.141 10.6775C121.002 13.0666 119.952 15.3113 118.206 16.948C118.188 16.958 118.172 16.97 118.157 16.9836C118.134 16.9778 118.113 16.9674 118.094 16.9529C118.075 16.9385 118.059 16.9203 118.047 16.8995C116.54 15.4176 108.441 7.28332 108.282 7.07625C108.344 6.97918 108.441 6.92094 108.512 6.82387C108.546 6.78711 108.57 6.74208 108.581 6.69322C108.593 6.64437 108.591 6.59339 108.577 6.54533C108.563 6.49727 108.536 6.45381 108.499 6.41924C108.463 6.38467 108.418 6.36019 108.37 6.34824C108.343 6.34383 108.316 6.34383 108.289 6.34824C108.224 6.35282 108.162 6.37902 108.114 6.42266C108.053 6.47119 108.004 6.53267 107.943 6.5812L104.102 10.4316C103.997 10.5405 103.883 10.6411 103.762 10.7325C103.474 10.9407 103.138 11.0735 102.785 11.1187C102.433 11.164 102.074 11.1204 101.743 10.9917C101.411 10.8631 101.117 10.6536 100.887 10.3823C100.657 10.1109 100.499 9.7864 100.426 9.43823C100.327 9.01641 100.383 8.57292 100.585 8.18929C100.786 7.79487 101.047 7.43367 101.358 7.11831C101.659 6.79475 101.973 6.50031 102.277 6.1994C103.193 5.27726 104.102 4.36806 105.008 3.44591C105.538 2.90688 106.131 2.43425 106.775 2.03843C107.751 1.42522 108.835 1.00151 109.968 0.789491C110.34 0.714478 110.718 0.666895 111.097 0.647125H112.32C113.601 0.71666 114.853 1.05628 115.993 1.64369C117.639 2.48227 119.004 3.78463 119.919 5.39C120.834 6.99538 121.258 8.83349 121.141 10.6775Z" fill="#B5F456"/>
<path d="M117.575 19.8018C117.407 19.983 117.251 20.1545 117.057 20.3228C116.721 20.6424 116.275 20.8208 115.812 20.821C115.326 20.8215 114.861 20.6295 114.517 20.2872L114.278 20.0445C111.752 17.5099 109.223 14.9722 106.69 12.4311C106.634 12.3698 106.574 12.3125 106.509 12.2597C106.456 12.2196 106.391 12.197 106.325 12.195C106.268 12.1953 106.212 12.212 106.165 12.2432C106.117 12.2744 106.08 12.3186 106.057 12.3706C106.034 12.4226 106.027 12.4801 106.036 12.5362C106.045 12.5923 106.07 12.6446 106.108 12.6868C106.157 12.745 106.228 12.8065 106.289 12.868L113.925 20.5298C114 20.6043 114.084 20.6754 114.155 20.7596C114.47 21.0993 114.644 21.5454 114.644 22.0085C114.644 22.4716 114.47 22.9177 114.155 23.2574C113.948 23.4775 113.744 23.6813 113.524 23.9046C113.22 24.2026 112.811 24.3689 112.385 24.3672C112.168 24.3675 111.953 24.3247 111.752 24.2414C111.552 24.1581 111.37 24.0359 111.217 23.8819C111.149 23.8075 111.071 23.7363 110.987 23.6489L103.254 15.8835C103.196 15.824 103.134 15.7678 103.07 15.7153C103.02 15.6784 102.96 15.6591 102.898 15.6603C102.839 15.6581 102.782 15.6777 102.736 15.7153C102.69 15.7482 102.654 15.7945 102.633 15.8482C102.613 15.9019 102.61 15.9605 102.623 16.0162C102.636 16.0673 102.661 16.1141 102.698 16.1521L102.889 16.3462L110.657 24.144C110.797 24.2777 110.921 24.4276 111.026 24.5905C111.205 24.8671 111.316 25.1819 111.35 25.5094C111.367 25.7297 111.334 25.9511 111.253 26.1565C111.157 26.3987 111.012 26.6189 110.829 26.8036C110.651 26.9848 110.47 27.179 110.285 27.3505C110.109 27.5236 109.901 27.6602 109.672 27.7524C109.444 27.8446 109.199 27.8906 108.952 27.8876C108.856 27.8924 108.76 27.8924 108.664 27.8876C108.452 27.8582 108.249 27.7796 108.072 27.6578C108.024 27.627 107.987 27.5832 107.963 27.5316C107.94 27.48 107.931 27.4228 107.939 27.3666C107.939 27.2566 107.981 27.1596 107.988 27.0431C108.062 26.7058 108.028 26.3537 107.891 26.0368C107.739 25.616 107.491 25.2367 107.166 24.9292C106.842 24.6218 106.449 24.395 106.021 24.2669C105.785 24.1921 105.54 24.1539 105.293 24.1537C105.171 24.1539 105.05 24.1636 104.93 24.1828C104.859 24.1828 104.798 24.1828 104.726 24.2055C104.568 24.2055 104.497 24.1343 104.497 23.9628C104.5 23.9019 104.507 23.8413 104.519 23.7816C104.604 23.1243 104.446 22.4587 104.074 21.9096C103.703 21.3604 103.145 20.9654 102.504 20.7984C102.28 20.7371 102.049 20.7055 101.818 20.7046C101.682 20.7054 101.547 20.7173 101.413 20.7401C101.397 20.7368 101.381 20.7368 101.365 20.7401L101.274 20.7078C101.096 20.7078 101.028 20.6043 101.06 20.3842C101.154 19.8238 101.07 19.2483 100.821 18.7375C100.572 18.2268 100.171 17.806 99.6724 17.5337C99.2747 17.3196 98.8298 17.2084 98.3782 17.2101C98.2321 17.2104 98.0862 17.2201 97.9414 17.2392C97.9122 17.2392 97.8831 17.2554 97.8572 17.2554H97.8346C97.8058 17.2558 97.7773 17.2506 97.7506 17.2399C97.724 17.2291 97.6997 17.2132 97.6792 17.1931C97.6587 17.1729 97.6425 17.1489 97.6314 17.1223C97.6203 17.0958 97.6146 17.0674 97.6146 17.0386C97.6077 16.9936 97.6077 16.9478 97.6146 16.9027C97.6729 16.5344 97.6544 16.1581 97.5603 15.7973C97.4662 15.4364 97.2985 15.099 97.0677 14.8061C97.0095 14.7317 96.9513 14.6637 96.8898 14.599C96.7076 14.4086 96.4982 14.2461 96.2686 14.1169C96.1941 14.0748 96.1165 14.036 96.0388 14.0004C95.877 13.931 95.7091 13.8769 95.5373 13.8386L95.2655 13.7901C95.1486 13.7746 95.0308 13.767 94.9128 13.7674C94.2315 13.7673 93.5755 14.0264 93.0783 14.4922C92.9327 14.6249 92.8 14.7575 92.6673 14.8934L90.7098 16.8574C90.6354 16.9286 90.603 16.9642 90.5707 16.9642C90.5383 16.9642 90.5027 16.9286 90.4315 16.8574C89.4644 15.9146 88.7113 14.7749 88.2233 13.5154C87.7354 12.2559 87.5241 10.9063 87.6036 9.55794C87.6515 8.47242 87.8925 7.40412 88.3155 6.40324C89.0991 4.52308 90.4733 2.94898 92.2305 1.91871C93.1496 1.36493 94.1614 0.982341 95.217 0.789491C95.6075 0.711996 96.0034 0.664403 96.4012 0.647125H97.6599C98.6858 0.701337 99.6948 0.931162 100.643 1.3266C101.872 1.83406 102.98 2.59477 103.895 3.55916C103.921 3.58181 103.93 3.60769 103.956 3.63034C103.895 3.69182 103.84 3.75329 103.778 3.81153C102.7 4.87928 101.635 5.94702 100.585 7.01477C100.229 7.35955 99.9736 7.79466 99.8461 8.27348C99.7186 8.7523 99.7238 9.25679 99.8611 9.73289C99.9984 10.209 100.263 10.6388 100.626 10.9761C100.988 11.3135 101.436 11.5458 101.921 11.6481C102.124 11.6916 102.331 11.7133 102.539 11.7128C102.894 11.7138 103.245 11.6419 103.57 11.5017C103.896 11.3614 104.189 11.1558 104.432 10.8975C105.506 9.82973 106.558 8.76199 107.632 7.69748C107.693 7.636 107.745 7.53893 107.813 7.53893C107.881 7.53893 107.959 7.64894 108.02 7.70719C111.161 10.8436 114.297 13.9907 117.429 17.1486C117.517 17.2328 117.601 17.3169 117.685 17.414C117.961 17.757 118.102 18.189 118.082 18.6287C118.061 19.0685 117.881 19.4856 117.575 19.8018V19.8018Z" fill="#B5F456"/>
<path d="M14.8351 1.42688H19.915V16.9577C19.9581 18.5542 19.532 20.1282 18.6895 21.4849C17.847 22.8416 16.625 23.9214 15.1749 24.5905C13.5408 25.3458 11.7556 25.7177 9.95586 25.6776C8.1529 25.7182 6.3645 25.3464 4.72714 24.5905C3.27582 23.9233 2.05335 22.8432 1.21257 21.485C0.371787 20.1269 -0.0499974 18.551 -5.48317e-05 16.9545V1.42365H5.07982V16.5241C5.06308 17.3711 5.26833 18.2078 5.67517 18.9508C6.07924 19.6569 6.6734 20.2354 7.39004 20.6204C8.17935 21.0389 9.06268 21.2483 9.95586 21.2287C10.8503 21.2502 11.7351 21.0407 12.5249 20.6204C13.2429 20.2383 13.8367 19.6591 14.2365 18.9508C14.6499 18.2098 14.8598 17.3726 14.8448 16.5241L14.8351 1.42688Z" fill="white"/>
<path d="M28.9942 14.9711V25.325H23.9984V7.40628H28.7612V10.5707H28.9715C29.3503 9.54603 30.0551 8.67412 30.9776 8.08899C31.9991 7.45057 33.1871 7.12964 34.3911 7.16685C35.5349 7.14013 36.6649 7.42177 37.6623 7.98221C38.5972 8.53392 39.3515 9.34556 39.8334 10.3183C40.3742 11.4377 40.6393 12.6703 40.6067 13.9131V25.3379H35.611V14.8061C35.611 13.7081 35.3295 12.8529 34.7665 12.2403C34.4638 11.9238 34.0964 11.6764 33.6893 11.515C33.2822 11.3536 32.845 11.282 32.4077 11.3052C31.7863 11.2922 31.172 11.4405 30.6249 11.7355C30.111 12.03 29.6948 12.4687 29.4277 12.9974C29.1313 13.6125 28.9828 14.2884 28.9942 14.9711V14.9711Z" fill="white"/>
<path d="M44.5444 25.3379V7.40625H49.5402V25.3379H44.5444ZM47.052 5.09281C46.3441 5.10693 45.6589 4.84328 45.143 4.35833C44.8951 4.13498 44.697 3.86198 44.5616 3.55705C44.4261 3.25213 44.3563 2.92212 44.3568 2.58846C44.3543 2.25544 44.4233 1.92577 44.5589 1.6216C44.6945 1.31744 44.8937 1.04584 45.143 0.825061C45.6558 0.333889 46.342 0.0652456 47.052 0.0776398C47.4016 0.0684485 47.7496 0.128305 48.0761 0.253781C48.4026 0.379258 48.7011 0.567892 48.9545 0.808884C49.2084 1.03 49.4111 1.3037 49.5485 1.61101C49.6859 1.91831 49.7549 2.25185 49.7505 2.58846C49.7528 2.9257 49.683 3.25954 49.5457 3.56759C49.4084 3.87563 49.2069 4.15076 48.9545 4.37451C48.4396 4.85498 47.756 5.11308 47.052 5.09281V5.09281Z" fill="white"/>
<path d="M63.2299 7.40626V11.1401H52.1124V7.40626H63.2299ZM54.6556 25.3379V6.10878C54.6129 4.98105 54.8768 3.86286 55.4192 2.87319C55.9129 2.03005 56.6476 1.35394 57.5288 0.931839C58.4798 0.489885 59.5185 0.268664 60.567 0.284721C61.2708 0.279399 61.9737 0.337879 62.6669 0.459443C63.314 0.575924 63.7832 0.682698 64.0971 0.783002L63.2073 4.52982C62.968 4.45818 62.725 4.39985 62.4793 4.35509C62.1935 4.30034 61.9031 4.27325 61.6121 4.2742C60.8744 4.2742 60.3621 4.44461 60.0752 4.78543C59.7629 5.18802 59.6087 5.69094 59.6416 6.19938V25.3379H54.6556Z" fill="white"/>
<path d="M69.3679 32.0615C68.7704 32.0652 68.1737 32.0154 67.5851 31.9127C67.1195 31.8405 66.6628 31.719 66.2229 31.5503L67.3489 27.8261C67.8608 27.994 68.393 28.092 68.9311 28.1173C69.3664 28.1473 69.7994 28.0336 70.1639 27.7937C70.5658 27.495 70.8654 27.079 71.0213 26.603L71.3125 25.8459L64.8413 7.40305H70.0959L73.8265 20.5719H74.0142L77.7772 7.40305H83.0674L76.0753 27.276C75.7675 28.1894 75.3033 29.0422 74.7034 29.7966C74.1286 30.5238 73.3827 31.0974 72.5323 31.4661C71.5321 31.8881 70.4531 32.0911 69.3679 32.0615V32.0615Z" fill="white"/>
</g>
<defs>
<clipPath id="clip0_815_8916">
<rect width="121.746" height="32" fill="white"/>
</clipPath>
</defs>
</svg>
