<svg width="32" height="28" viewBox="0 0 32 28" fill="none" xmlns="http://www.w3.org/2000/svg">
<g id="Group 269">
<path id="Vector" d="M18.886 27.1067C18.7391 27.2624 18.5922 27.4005 18.4335 27.5592C18.1816 27.7914 17.8641 27.9402 17.5245 27.9854C17.1848 28.0306 16.8395 27.97 16.5355 27.8118C16.4797 27.7913 16.4239 27.7678 16.4062 27.7119C16.4492 27.662 16.4954 27.6149 16.5443 27.5709C17.1819 26.9304 17.8195 26.2811 18.4658 25.6435C18.6604 25.4564 18.8303 25.2451 18.9712 25.0148C18.9918 24.9854 19.0065 24.9678 19.0241 24.9678C19.0417 24.9678 19.0564 24.9883 19.0799 25.0265C19.1994 25.2039 19.2814 25.4039 19.3208 25.6142C19.3749 25.8795 19.3636 26.1541 19.2878 26.4142C19.2121 26.6742 19.0742 26.9119 18.886 27.1067Z" fill="#B5F456"/>
<path id="Vector_2" d="M18.7599 23.804C18.765 24.0512 18.7199 24.2968 18.6275 24.526C18.5351 24.7553 18.3973 24.9634 18.2222 25.1379C17.4994 25.8754 16.7737 26.607 16.0392 27.3268C15.9012 27.4637 15.7375 27.5718 15.5575 27.6449C15.3774 27.7181 15.1846 27.7547 14.9903 27.7528C14.5907 27.7533 14.2067 27.5972 13.9209 27.318C13.7123 27.1065 13.5036 26.9096 13.3068 26.701C13.0263 26.4163 12.8691 26.0327 12.8691 25.633C12.8691 25.2334 13.0263 24.8497 13.3068 24.565L14.3263 23.5396L15.4604 22.4055C15.7026 22.1597 16.0074 21.985 16.3418 21.9002C16.5942 21.835 16.8571 21.8216 17.1148 21.8608C17.3725 21.9 17.6196 21.991 17.8411 22.1283C18.0627 22.2656 18.2541 22.4463 18.404 22.6596C18.5538 22.8728 18.6589 23.1142 18.7129 23.3692C18.7435 23.5121 18.7593 23.6579 18.7599 23.804Z" fill="#B5F456"/>
<path id="Vector_3" d="M15.0659 22.0212C14.349 22.7469 13.6262 23.4638 12.9123 24.1806C12.6251 24.4624 12.2392 24.6206 11.8369 24.6214C11.4371 24.6214 11.0535 24.4629 10.7704 24.1806C10.5735 23.9809 10.3649 23.784 10.1681 23.5754C9.88407 23.2902 9.72461 22.904 9.72461 22.5015C9.72461 22.099 9.88407 21.7129 10.1681 21.4277L12.3099 19.2799C12.7036 18.9068 13.1649 18.7188 13.9553 18.7188C14.6016 18.7188 15.4508 19.3916 15.5888 20.3494C15.6467 20.6496 15.6293 20.9594 15.538 21.2512C15.4467 21.5429 15.2845 21.8075 15.0659 22.0212Z" fill="#B5F456"/>
<path id="Vector_4" d="M9.37852 14.4021C9.38246 14.6554 9.33532 14.907 9.23991 15.1417C9.14451 15.3764 9.00279 15.5895 8.82321 15.7683L6.67842 17.9131C6.39194 18.1993 6.00358 18.36 5.59866 18.36C5.19375 18.36 4.80539 18.1993 4.51892 17.9131L3.93131 17.3255C3.64871 17.0395 3.49023 16.6537 3.49023 16.2516C3.49023 15.8496 3.64871 15.4637 3.93131 15.1777C4.64232 14.452 5.36803 13.7351 6.08199 13.0212C6.25697 12.8441 6.46572 12.704 6.69586 12.6091C6.92599 12.5143 7.17283 12.4666 7.42175 12.4688H7.45995C7.71358 12.4672 7.96498 12.5163 8.19944 12.613C8.43389 12.7098 8.64667 12.8524 8.82534 13.0324C9.004 13.2125 9.14496 13.4263 9.23994 13.6615C9.33493 13.8967 9.38204 14.1485 9.37852 14.4021Z" fill="#B5F456"/>
<path id="Vector_5" d="M11.9704 18.8626C11.8059 19.0507 11.6178 19.2152 11.4415 19.3915L9.82853 21.0104C9.63338 21.2175 9.38229 21.3634 9.10576 21.4305C8.97461 21.4603 8.84066 21.4761 8.70618 21.4775C8.33261 21.4769 7.9733 21.334 7.70135 21.0779C7.46924 20.8576 7.24008 20.6372 7.01972 20.4051C6.75608 20.1151 6.61195 19.7361 6.61631 19.3443C6.62067 18.9524 6.77319 18.5767 7.04322 18.2926C7.46924 17.8607 7.88646 17.4435 8.31542 17.0146L8.74143 16.5856L9.16158 16.1655C9.42941 15.892 9.77344 15.7057 10.1488 15.6307C10.2877 15.5945 10.4314 15.5796 10.5748 15.5867H10.5983C11.0406 15.5901 11.468 15.7465 11.8081 16.0293C12.1481 16.312 12.3799 16.7038 12.464 17.138C12.533 17.4438 12.5239 17.762 12.4377 18.0634C12.3514 18.3648 12.1907 18.6396 11.9704 18.8626Z" fill="#B5F456"/>
<path id="Vector_6" d="M31.2164 9.11688C31.0908 11.2863 30.1368 13.3246 28.5515 14.8109C28.5357 14.82 28.5209 14.8308 28.5074 14.8432C28.4865 14.8379 28.4668 14.8285 28.4496 14.8153C28.4324 14.8022 28.4181 14.7857 28.4076 14.7668C27.0384 13.4212 19.6844 6.03482 19.5404 5.84679C19.5962 5.75865 19.6844 5.70576 19.749 5.61762C19.78 5.58424 19.8018 5.54335 19.8121 5.49898C19.8224 5.45462 19.821 5.40833 19.8079 5.36469C19.7949 5.32105 19.7706 5.28158 19.7376 5.25019C19.7046 5.2188 19.664 5.19658 19.6197 5.18572C19.5954 5.18172 19.5706 5.18172 19.5463 5.18572C19.4873 5.18988 19.4315 5.21367 19.3876 5.25329C19.3318 5.29737 19.2877 5.35319 19.2319 5.39726L15.7444 8.8877C15.6488 8.9866 15.5456 9.07796 15.4359 9.16095C15.1741 9.35001 14.8692 9.47059 14.5489 9.51171C14.2286 9.55283 13.9031 9.51318 13.602 9.39637C13.301 9.27957 13.0339 9.08932 12.8251 8.84294C12.6164 8.59655 12.4725 8.30187 12.4068 7.98571C12.3166 7.60268 12.3677 7.19997 12.5507 6.85161C12.7357 6.50176 12.9725 6.18182 13.2529 5.90261C13.5262 5.6088 13.8112 5.34144 14.0873 5.06819C14.9188 4.23084 15.7444 3.40524 16.5671 2.56789C17.0467 2.07016 17.5854 1.63305 18.1713 1.26631C19.0581 0.709486 20.0419 0.324741 21.0712 0.132214C21.4141 0.0623935 21.7617 0.0182001 22.1112 0H23.2218C24.3848 0.0631413 25.5212 0.371533 26.5566 0.90493C28.0555 1.66801 29.2975 2.85431 30.1284 4.31672C30.9594 5.77912 31.3428 7.45328 31.2311 9.13157L31.2164 9.11688Z" fill="#B5F456"/>
<path id="Vector_7" d="M27.9794 17.3935C27.8266 17.558 27.6855 17.7137 27.5093 17.8665C27.2042 18.1568 26.7992 18.3187 26.3781 18.319C25.9376 18.3194 25.5149 18.145 25.2029 17.8342L24.9854 17.6138C22.6918 15.3123 20.3952 13.0089 18.0956 10.7034C18.0445 10.6478 17.9895 10.5957 17.9311 10.5477C17.8827 10.5113 17.8242 10.4908 17.7636 10.489C17.712 10.4893 17.6616 10.5045 17.6185 10.5328C17.5754 10.5611 17.5413 10.6013 17.5205 10.6485C17.4997 10.6957 17.493 10.7479 17.5012 10.7989C17.5094 10.8498 17.5322 10.8973 17.5668 10.9355C17.6109 10.9884 17.6755 11.0443 17.7313 11.1001L24.6652 18.0575C24.7328 18.125 24.8092 18.1897 24.8738 18.2661C25.1596 18.5746 25.3184 18.9796 25.3184 19.4002C25.3184 19.8207 25.1596 20.2258 24.8738 20.5343C24.6858 20.7341 24.5007 20.9192 24.3009 21.1219C24.0248 21.3926 23.6533 21.5435 23.2667 21.542C23.0695 21.5423 22.8743 21.5034 22.6923 21.4278C22.5102 21.3521 22.3449 21.2412 22.206 21.1013C22.1443 21.0337 22.0738 20.9691 21.9974 20.8898L14.9754 13.8384C14.9225 13.7843 14.8666 13.7333 14.8079 13.6856C14.763 13.6521 14.7082 13.6346 14.6522 13.6356C14.5988 13.6337 14.5465 13.6514 14.5053 13.6856C14.4626 13.7155 14.43 13.7576 14.4116 13.8063C14.3933 13.8551 14.3901 13.9082 14.4025 13.9588C14.4137 14.0052 14.437 14.0478 14.47 14.0822L14.6434 14.2585L21.6977 21.3393C21.8224 21.4583 21.9328 21.5914 22.0268 21.7359C22.189 21.9871 22.2896 22.273 22.3206 22.5704C22.3344 22.7655 22.3042 22.9613 22.2325 23.1433C22.1453 23.3632 22.0144 23.5631 21.8476 23.7309C21.686 23.8954 21.5214 24.0717 21.354 24.2274C21.1944 24.3847 21.0053 24.5087 20.7975 24.5924C20.5898 24.6762 20.3675 24.7179 20.1435 24.7152C20.0564 24.7195 19.9691 24.7195 19.882 24.7152C19.689 24.6885 19.5048 24.6171 19.3443 24.5066C19.3011 24.4785 19.2669 24.4388 19.2455 24.3919C19.2242 24.3451 19.2167 24.2931 19.2239 24.2421C19.2239 24.1422 19.2621 24.0541 19.2679 23.9483C19.3355 23.6421 19.3046 23.3223 19.1798 23.0346C19.0423 22.6525 18.817 22.308 18.522 22.0289C18.227 21.7497 17.8707 21.5437 17.4816 21.4274C17.2678 21.3595 17.0448 21.3248 16.8205 21.3246C16.7103 21.3248 16.6003 21.3336 16.4914 21.3511C16.4268 21.3511 16.371 21.3511 16.3063 21.3716C16.1624 21.3716 16.0977 21.307 16.0977 21.1513C16.1004 21.096 16.1073 21.041 16.1183 20.9867C16.1961 20.3905 16.054 19.7865 15.7188 19.2874C15.3835 18.7883 14.878 18.4284 14.2967 18.2749C14.0937 18.2192 13.8843 18.1905 13.6738 18.1897C13.5507 18.1905 13.4279 18.2013 13.3066 18.222C13.292 18.219 13.277 18.219 13.2625 18.222H13.1832C13.0216 18.222 12.9599 18.128 12.9892 17.9282C13.0744 17.4188 12.9988 16.8956 12.7729 16.4312C12.547 15.9668 12.1821 15.5843 11.7288 15.3368C11.3677 15.1424 10.9637 15.0414 10.5536 15.043C10.4209 15.0432 10.2884 15.052 10.1569 15.0694C10.1305 15.0694 10.104 15.0694 10.0805 15.0694H10.06C10.0339 15.0698 10.008 15.065 9.98374 15.0553C9.95952 15.0456 9.93747 15.0311 9.91888 15.0128C9.90029 14.9945 9.88552 14.9727 9.87545 14.9486C9.86537 14.9245 9.86018 14.8987 9.86019 14.8726C9.85398 14.8317 9.85398 14.7901 9.86019 14.7492C9.91022 14.4167 9.89145 14.0774 9.80503 13.7525C9.71861 13.4275 9.56638 13.1237 9.35778 12.86C9.30489 12.7924 9.25201 12.7307 9.19619 12.672C9.03073 12.499 8.84064 12.3515 8.63207 12.2342C8.56449 12.196 8.49398 12.1607 8.42347 12.1284C8.27655 12.0654 8.12409 12.0162 7.96806 11.9815L7.72126 11.9374C7.6151 11.9234 7.5081 11.9165 7.40101 11.9169C6.78228 11.9167 6.18667 12.152 5.73512 12.575C5.60291 12.6955 5.48244 12.8159 5.36198 12.9393L3.58444 14.7227C3.51687 14.7874 3.48749 14.8197 3.45811 14.8197C3.42873 14.8197 3.3964 14.7874 3.33176 14.7227C2.45351 13.8666 1.76966 12.8316 1.3266 11.688C0.883534 10.5443 0.691622 9.31877 0.763881 8.09442C0.811961 7.10781 1.03583 6.1377 1.42495 5.22979C2.13656 3.5225 3.38442 2.09314 4.98003 1.15761C5.8146 0.654745 6.73339 0.307331 7.69188 0.132214C8.04258 0.0614467 8.39812 0.0172499 8.75547 0H9.89838C10.83 0.0492271 11.7463 0.25792 12.6073 0.616998C13.7241 1.08125 14.7303 1.77608 15.5601 2.65603C15.5836 2.67659 15.5924 2.7001 15.6159 2.72067C15.5601 2.77649 15.5101 2.83231 15.4543 2.8852C14.4749 3.86456 13.5083 4.83413 12.5544 5.7939C12.2353 6.10724 12.0068 6.50107 11.8932 6.93367C11.7796 7.36627 11.7852 7.82154 11.9092 8.25125C12.0333 8.68096 12.2713 9.06912 12.5979 9.37461C12.9246 9.68009 13.3278 9.89154 13.7649 9.98655C13.9493 10.026 14.1375 10.0457 14.3261 10.0453C14.648 10.0462 14.9667 9.98091 15.2623 9.85355C15.558 9.72619 15.8243 9.53945 16.0449 9.30491C17.0203 8.33534 17.9752 7.36578 18.9506 6.39915C19.0064 6.34332 19.0535 6.25518 19.1152 6.25518C19.1769 6.25518 19.2474 6.35508 19.3032 6.40796C22.1571 9.25986 25.006 12.1196 27.8501 14.9872C27.9294 15.0636 28.0058 15.1399 28.0822 15.2281C28.3315 15.5397 28.4587 15.9316 28.4397 16.3302C28.4208 16.7288 28.2571 17.1069 27.9794 17.3935Z" fill="#B5F456"/>
</g>
</svg>
