<svg width="105" height="32" viewBox="0 0 105 32" fill="none" xmlns="http://www.w3.org/2000/svg">
<g clip-path="url(#clip0_815_8824)">
<path d="M1.10962 30.4771V25.3537H2.8461C3.13348 25.3444 3.41889 25.4044 3.67827 25.5284C3.89096 25.6327 4.06699 25.7991 4.18313 26.0056C4.29813 26.2164 4.35644 26.4534 4.35234 26.6935C4.3582 26.8842 4.32124 27.0738 4.24415 27.2483C4.17788 27.3927 4.07686 27.5185 3.95012 27.6144C3.82575 27.7081 3.68447 27.7768 3.53403 27.8169V27.8585C3.70774 27.8722 3.87453 27.9325 4.01669 28.0333C4.18013 28.1433 4.31283 28.2932 4.40227 28.4688C4.5071 28.6767 4.55858 28.9074 4.55206 29.1401C4.55628 29.3823 4.49698 29.6214 4.38008 29.8336C4.25442 30.0424 4.06885 30.2087 3.84748 30.3107C3.56067 30.4346 3.24991 30.4934 2.93764 30.4827L1.10962 30.4771ZM1.58119 30.0583H2.94041C3.25802 30.08 3.57211 29.9809 3.81974 29.7809C3.91085 29.6973 3.98281 29.5951 4.03069 29.4811C4.07857 29.3672 4.10124 29.2442 4.09714 29.1207C4.09923 28.9319 4.04835 28.7463 3.95029 28.585C3.85222 28.4237 3.7109 28.2931 3.54235 28.2081C3.35641 28.1123 3.14948 28.0647 2.94041 28.0694H1.55345L1.58119 30.0583ZM1.58119 27.6671H2.89048C3.07565 27.6706 3.25874 27.6277 3.42307 27.5423C3.57116 27.463 3.69414 27.3438 3.77814 27.1983C3.86617 27.0448 3.9112 26.8704 3.90851 26.6935C3.91157 26.5697 3.88844 26.4466 3.84063 26.3324C3.79283 26.2181 3.72143 26.1153 3.63112 26.0305C3.40959 25.8439 3.12387 25.7513 2.835 25.7725H1.57841L1.58119 27.6671Z" fill="#6200EE"/>
<path d="M6.67403 30.5659C6.45403 30.5673 6.23635 30.5209 6.03603 30.43C5.84955 30.3417 5.69043 30.2046 5.57556 30.0333C5.45736 29.8451 5.39842 29.6257 5.40635 29.4036C5.40111 29.2371 5.43834 29.0719 5.51453 28.9237C5.58824 28.793 5.69304 28.6825 5.81966 28.6019C5.9666 28.514 6.12541 28.4477 6.29123 28.405C6.48718 28.3541 6.68647 28.317 6.88762 28.294L7.44241 28.2219C7.56189 28.2119 7.6785 28.1799 7.78637 28.1276C7.82454 28.1078 7.85614 28.0773 7.87731 28.0399C7.89849 28.0025 7.90834 27.9597 7.90565 27.9168V27.828C7.91076 27.7143 7.89248 27.6007 7.85192 27.4943C7.81136 27.3879 7.7494 27.2909 7.66987 27.2094C7.48409 27.0475 7.24173 26.9657 6.99581 26.982C6.75494 26.9714 6.51667 27.0354 6.31342 27.165C6.15233 27.2699 6.02513 27.4193 5.94726 27.595L5.52285 27.4424C5.59874 27.2473 5.7228 27.0746 5.88346 26.9404C6.03544 26.8132 6.21203 26.7187 6.40219 26.663C6.74045 26.5624 7.09927 26.5528 7.44241 26.6352C7.60297 26.6732 7.75463 26.742 7.88901 26.8377C8.03336 26.9363 8.14914 27.0712 8.22465 27.2288C8.31674 27.4275 8.36047 27.6452 8.35226 27.8641V30.4743H7.90011V29.8668H7.87237C7.81112 29.989 7.73056 30.1005 7.63381 30.1969C7.51913 30.3087 7.3846 30.3981 7.23714 30.4605C7.05827 30.5325 6.86686 30.5684 6.67403 30.5659V30.5659ZM6.73506 30.1581C6.9519 30.1636 7.16603 30.1089 7.35364 30C7.52756 29.9014 7.67065 29.7564 7.76696 29.5811C7.86414 29.4045 7.91385 29.2057 7.9112 29.0042V28.4494C7.8609 28.4881 7.80337 28.5164 7.74199 28.5326C7.66432 28.5576 7.57556 28.5797 7.4646 28.6019L7.16224 28.6491L6.88485 28.6824C6.69603 28.7043 6.51006 28.7461 6.33006 28.8072C6.19384 28.8533 6.07228 28.9346 5.97778 29.043C5.89174 29.1505 5.84741 29.2854 5.85295 29.423C5.8454 29.5292 5.86454 29.6356 5.90863 29.7325C5.95272 29.8294 6.02035 29.9137 6.10538 29.9778C6.28931 30.1064 6.51094 30.1699 6.73506 30.1581V30.1581Z" fill="#6200EE"/>
<path d="M9.98612 28.0749V30.4771H9.53674V26.6297H9.98612V27.2316H10.025C10.1162 27.0349 10.264 26.8698 10.4494 26.7573C10.6655 26.6321 10.9127 26.5706 11.1623 26.5797C11.3998 26.5741 11.6347 26.6295 11.8446 26.7406C12.0436 26.8471 12.2046 27.0129 12.3051 27.215C12.4231 27.4535 12.4802 27.7174 12.4716 27.9834V30.4799H12.0111V28.0166C12.0167 27.8801 11.9951 27.7438 11.9475 27.6156C11.8998 27.4875 11.8272 27.3702 11.7337 27.2705C11.6411 27.1773 11.5302 27.1046 11.4079 27.0568C11.2856 27.009 11.1547 26.9873 11.0236 26.9931C10.8307 26.9866 10.6395 27.0306 10.4688 27.1207C10.3122 27.2103 10.1828 27.3406 10.0943 27.4979C10.0103 27.6781 9.97307 27.8765 9.98612 28.0749V28.0749Z" fill="#6200EE"/>
<path d="M15.0263 30.5576C14.7296 30.5635 14.4386 30.4762 14.1941 30.3079C13.9481 30.1307 13.7561 29.8887 13.6393 29.6089C13.5001 29.2791 13.4321 28.9237 13.4396 28.5659C13.4314 28.2098 13.4995 27.856 13.6393 27.5284C13.7556 27.2491 13.9478 27.0079 14.1941 26.8322C14.4389 26.6646 14.7297 26.5773 15.0263 26.5825C15.2287 26.5755 15.4297 26.6184 15.6116 26.7073C15.7573 26.7803 15.8852 26.8845 15.9861 27.0125C16.0727 27.1219 16.1463 27.241 16.2052 27.3675H16.2441V25.3537H16.6934V30.4771H16.2663V29.7642H16.2136C16.1531 29.8922 16.0786 30.0131 15.9916 30.1248C15.888 30.253 15.7585 30.3579 15.6116 30.4327C15.4298 30.5219 15.2287 30.5648 15.0263 30.5576ZM15.079 30.1498C15.3085 30.1568 15.5336 30.0854 15.717 29.9473C15.9 29.8033 16.0393 29.6112 16.1192 29.3925C16.306 28.862 16.306 28.2836 16.1192 27.7531C16.0395 27.5343 15.9002 27.3421 15.717 27.1983C15.5283 27.0626 15.3017 26.9897 15.0693 26.9897C14.8369 26.9897 14.6103 27.0626 14.4216 27.1983C14.2405 27.3441 14.1016 27.5356 14.0194 27.7531C13.8362 28.2738 13.8362 28.8413 14.0194 29.362C14.1013 29.5866 14.241 29.7856 14.4244 29.939C14.6114 30.0833 14.8429 30.1578 15.079 30.1498V30.1498Z" fill="#6200EE"/>
<path d="M19.7504 25.7725V25.3537H23.4813V25.7725H21.8502V30.4882H21.3814V25.7725H19.7504Z" fill="#6200EE"/>
<path d="M25.3869 30.5576C25.0734 30.5635 24.7652 30.4756 24.502 30.3051C24.244 30.13 24.0379 29.8885 23.9056 29.6061C23.7556 29.2822 23.6816 28.9283 23.6893 28.5714C23.6818 28.2128 23.7558 27.8571 23.9056 27.5312C24.0364 27.2478 24.2427 27.0059 24.502 26.8322C24.7652 26.6617 25.0734 26.5738 25.3869 26.5797C25.6997 26.5726 26.0073 26.6607 26.269 26.8322C26.5291 27.0058 26.7364 27.2476 26.8682 27.5312C27.0118 27.8577 27.0859 28.2106 27.0859 28.5673C27.0859 28.924 27.0118 29.2768 26.8682 29.6033C26.7355 29.8872 26.5273 30.129 26.2662 30.3024C26.0056 30.4743 25.6991 30.5633 25.3869 30.5576V30.5576ZM25.3869 30.1498C25.6324 30.1574 25.8731 30.0811 26.0693 29.9334C26.26 29.7856 26.406 29.5878 26.4909 29.362C26.687 28.8541 26.687 28.2915 26.4909 27.7836C26.4069 27.5564 26.2632 27.3562 26.0748 27.2039C25.8757 27.063 25.6378 26.9873 25.3938 26.9873C25.1499 26.9873 24.912 27.063 24.7128 27.2039C24.5229 27.3565 24.3765 27.5565 24.2884 27.7836C24.095 28.292 24.095 28.8536 24.2884 29.362C24.3754 29.5875 24.5221 29.785 24.7128 29.9334C24.9067 30.0795 25.1442 30.1557 25.3869 30.1498V30.1498Z" fill="#6200EE"/>
<path d="M29.5423 32C29.3072 32.0048 29.0729 31.971 28.8488 31.9001C28.6652 31.8406 28.4948 31.7465 28.3467 31.6228C28.2178 31.5132 28.1106 31.3806 28.0305 31.2316L28.3994 30.9903C28.4607 31.0915 28.5343 31.1847 28.6185 31.2677C28.7238 31.3691 28.8483 31.4483 28.9847 31.5007C29.1621 31.5664 29.3504 31.5975 29.5395 31.5922C29.8384 31.6088 30.1334 31.5183 30.3717 31.337C30.4824 31.2385 30.5686 31.1154 30.6235 30.9777C30.6784 30.84 30.7004 30.6914 30.6879 30.5437V29.681H30.6491C30.5902 29.8071 30.5147 29.9247 30.4244 30.0305C30.3182 30.1494 30.1876 30.244 30.0416 30.3079C29.8599 30.391 29.6615 30.4309 29.4618 30.4244C29.1682 30.4309 28.8791 30.3518 28.6296 30.197C28.3871 30.0361 28.1948 29.8102 28.0749 29.5451C27.9313 29.2273 27.8611 28.8812 27.8696 28.5326C27.8622 28.1802 27.9303 27.8302 28.0693 27.5062C28.1865 27.2289 28.3786 26.9898 28.6241 26.8155C28.8692 26.6489 29.16 26.5626 29.4563 26.5687C29.6596 26.5614 29.8615 26.6043 30.0443 26.6935C30.1901 26.7665 30.3179 26.8706 30.4188 26.9986C30.5061 27.1086 30.5815 27.2277 30.6435 27.3537H30.6879V26.6297H31.1234V30.5714C31.1348 30.8542 31.0624 31.1341 30.9154 31.3759C30.7809 31.583 30.5878 31.7453 30.3606 31.8419C30.1011 31.9489 29.8229 32.0027 29.5423 32V32ZM29.5117 30.0305C29.7366 30.0371 29.9581 29.9752 30.147 29.853C30.3292 29.7239 30.4699 29.5447 30.552 29.337C30.6517 29.0828 30.6998 28.8112 30.6934 28.5381C30.6978 28.2655 30.6507 27.9945 30.5547 27.7393C30.4761 27.5199 30.3366 27.3274 30.1525 27.1845C29.9682 27.046 29.7422 26.9746 29.5117 26.982C29.2739 26.9703 29.0395 27.0419 28.8488 27.1845C28.665 27.3277 28.5256 27.5201 28.4466 27.7393C28.3525 27.9892 28.3064 28.2545 28.3106 28.5215C28.3054 28.7877 28.3515 29.0523 28.4466 29.301C28.53 29.5101 28.6703 29.6917 28.8516 29.8252C29.0441 29.9622 29.2754 30.0342 29.5117 30.0305V30.0305Z" fill="#6200EE"/>
<path d="M33.8807 30.5576C33.5515 30.566 33.227 30.4793 32.9458 30.3079C32.681 30.1367 32.4695 29.8944 32.3356 29.6089C32.1947 29.2836 32.1221 28.9329 32.1221 28.5784C32.1221 28.2239 32.1947 27.8732 32.3356 27.5479C32.4653 27.2616 32.6717 27.0167 32.932 26.8405C33.193 26.6669 33.5007 26.5769 33.8141 26.5825C34.0211 26.5813 34.2264 26.6199 34.4188 26.6963C34.619 26.7726 34.8006 26.8908 34.9514 27.043C35.1143 27.2109 35.2401 27.4113 35.3203 27.6311C35.4149 27.8981 35.4609 28.18 35.4562 28.4632V28.6824H32.4299V28.294H34.9902C34.9939 28.0634 34.9426 27.8351 34.8404 27.6283C34.7476 27.4359 34.6036 27.2728 34.4243 27.1567C34.2428 27.0394 34.0302 26.9795 33.8141 26.9847C33.5837 26.9808 33.3578 27.0487 33.1678 27.1789C32.9808 27.312 32.8309 27.4905 32.7323 27.6976C32.6282 27.917 32.5742 28.1567 32.5741 28.3994V28.6325C32.568 28.908 32.622 29.1816 32.7323 29.4341C32.8307 29.6495 32.9885 29.8323 33.1872 29.9612C33.3963 30.0897 33.638 30.1552 33.8834 30.1498C34.0476 30.1538 34.2108 30.1246 34.3633 30.0638C34.4941 30.0126 34.613 29.9352 34.7128 29.8363C34.8051 29.7463 34.8787 29.6388 34.9292 29.5201L35.3536 29.656C35.294 29.8238 35.1995 29.977 35.0762 30.1054C34.9348 30.248 34.7659 30.3603 34.5797 30.4355C34.3569 30.5217 34.1194 30.5631 33.8807 30.5576V30.5576Z" fill="#6200EE"/>
<path d="M37.9529 26.6297V27.0153H36.111V26.6297H37.9529ZM36.6879 25.7087H37.1373V29.4674C37.1304 29.5993 37.1592 29.7305 37.2205 29.8474C37.2713 29.9319 37.3468 29.9988 37.4369 30.0388C37.525 30.0748 37.6191 30.0937 37.7143 30.0943C37.765 30.099 37.8161 30.099 37.8669 30.0943L37.975 30.0694L38.0721 30.4743C38.0196 30.4929 37.9659 30.5078 37.9112 30.5187C37.8336 30.5343 37.7546 30.5418 37.6755 30.5409C37.5104 30.5408 37.3474 30.5038 37.1983 30.4327C37.0483 30.3613 36.92 30.2512 36.8266 30.1137C36.726 29.9558 36.6757 29.7711 36.6824 29.5839L36.6879 25.7087Z" fill="#6200EE"/>
<path d="M39.5007 28.0749V30.4771H39.0541V25.3537H39.5007V27.2372H39.5395C39.629 27.0402 39.776 26.8748 39.9612 26.7628C40.1809 26.6366 40.4319 26.5751 40.6851 26.5853C40.924 26.5801 41.1604 26.6344 41.3731 26.7434C41.5711 26.8521 41.7323 27.0172 41.8363 27.2177C41.9543 27.4572 42.0114 27.7221 42.0028 27.9889V30.4854H41.5506V28.0166C41.5569 27.88 41.5355 27.7435 41.4879 27.6153C41.4402 27.4871 41.3672 27.3698 41.2732 27.2704C41.1805 27.1768 41.0691 27.1038 40.9463 27.056C40.8234 27.0082 40.692 26.9868 40.5603 26.9931C40.3676 26.9882 40.1768 27.0321 40.0055 27.1207C39.8453 27.2084 39.7128 27.339 39.6227 27.4979C39.5328 27.6764 39.4907 27.8752 39.5007 28.0749V28.0749Z" fill="#6200EE"/>
<path d="M44.7406 30.5576C44.4115 30.566 44.0869 30.4793 43.8058 30.3079C43.541 30.1366 43.3295 29.8944 43.1956 29.6089C43.0547 29.2836 42.9821 28.9328 42.9821 28.5784C42.9821 28.2239 43.0547 27.8731 43.1956 27.5478C43.3253 27.2615 43.5317 27.0167 43.792 26.8405C44.0526 26.666 44.3605 26.576 44.6741 26.5825C44.8811 26.5813 45.0864 26.6199 45.2788 26.6962C45.4755 26.773 45.6534 26.8913 45.8003 27.043C45.9648 27.2102 46.0915 27.4107 46.172 27.6311C46.2665 27.8981 46.3126 28.18 46.3079 28.4632V28.6824H43.2899V28.294H45.8502C45.8544 28.063 45.802 27.8344 45.6977 27.6283C45.6067 27.4356 45.4635 27.2722 45.2843 27.1567C45.0944 27.0406 44.8754 26.9809 44.6528 26.9849C44.4302 26.9888 44.2134 27.0561 44.0277 27.1789C43.8401 27.3108 43.6893 27.4884 43.5895 27.6949C43.4855 27.9142 43.4314 28.1539 43.4314 28.3967V28.6297C43.4252 28.9052 43.4792 29.1788 43.5895 29.4313C43.6871 29.6472 43.8451 29.8302 44.0444 29.9584C44.2534 30.0872 44.4952 30.1527 44.7406 30.147C44.9048 30.1511 45.068 30.1218 45.2205 30.061C45.3513 30.0098 45.4702 29.9324 45.57 29.8336C45.6623 29.7435 45.7359 29.636 45.7864 29.5173L46.2108 29.6533C46.1512 29.821 46.0567 29.9742 45.9334 30.1026C45.7915 30.2446 45.6227 30.3568 45.4369 30.4327C45.2152 30.5195 44.9787 30.5619 44.7406 30.5576Z" fill="#6200EE"/>
<path d="M47.2926 30.4771V26.6297H47.7281V27.2178H47.7614C47.8398 27.0219 47.9813 26.8579 48.1636 26.7517C48.3589 26.6298 48.5853 26.5672 48.8155 26.5714H48.9403H49.0513V27.0236L48.9459 27.0069C48.8913 27.0039 48.8367 27.0039 48.7822 27.0069C48.5949 27.0034 48.4098 27.0473 48.2441 27.1345C48.0924 27.2152 47.9651 27.3349 47.8751 27.4813C47.7844 27.6349 47.7374 27.8105 47.7392 27.9889V30.4854L47.2926 30.4771Z" fill="#6200EE"/>
<path d="M90.7239 27.4341C90.3991 27.4361 90.0785 27.36 89.7891 27.2122C89.6556 27.1628 89.5411 27.0725 89.4618 26.9542C89.1776 27.1155 88.8565 27.2006 88.5298 27.2011C88.0196 27.2026 87.5294 27.0033 87.165 26.6463L86.9736 26.4549C86.8377 26.3218 86.6962 26.1775 86.5769 26.0555C86.339 25.81 86.1701 25.506 86.0873 25.1743C86.0045 24.8426 86.0107 24.495 86.1054 24.1664C85.7735 24.2658 85.421 24.2731 85.0853 24.1876C84.7496 24.1021 84.4435 23.927 84.1997 23.681L84.0083 23.4924C83.8779 23.3648 83.7475 23.2344 83.6255 23.104C83.3844 22.8605 83.2129 22.5569 83.129 22.2246C83.0451 21.8924 83.0518 21.5438 83.1484 21.215H83.0929C82.9329 21.253 82.7691 21.2725 82.6047 21.2732C82.1243 21.2725 81.6621 21.089 81.312 20.7601C81.0901 20.5465 80.8654 20.3329 80.649 20.1026C80.4216 19.8571 80.2615 19.557 80.1842 19.2314C80.1069 18.9057 80.1151 18.5656 80.208 18.2441C80.033 18.2945 79.8519 18.3207 79.6699 18.3218C79.4157 18.3247 79.1634 18.2771 78.9277 18.1819C78.692 18.0867 78.4776 17.9457 78.2968 17.767L77.742 17.2122C77.4526 16.9161 77.2645 16.5359 77.2047 16.1263C77.1449 15.7166 77.2164 15.2985 77.4091 14.932C77.3257 14.8833 77.25 14.8226 77.1844 14.7517C76.3063 13.8942 75.6228 12.8579 75.1801 11.7131C74.7374 10.5683 74.5459 9.34175 74.6185 8.1165C74.6643 7.12758 74.885 6.15459 75.2704 5.24272C75.9835 3.53386 77.2312 2.10216 78.8266 1.16227C79.666 0.657571 80.5898 0.308913 81.5534 0.133148C81.9127 0.0601761 82.2772 0.0156553 82.6435 0L83.7253 0C84.6703 0.0470801 85.6002 0.256325 86.4743 0.618585C87.5895 1.0824 88.595 1.77509 89.4258 2.65187C89.4524 2.67643 89.4758 2.70441 89.4951 2.73509L89.6699 2.56311C90.1463 2.07016 90.681 1.63702 91.2621 1.27323C92.1511 0.712307 93.1385 0.325417 94.1719 0.133148C94.5248 0.061025 94.8828 0.0165075 95.2427 0L96.294 0C97.4709 0.0593524 98.6217 0.368563 99.6699 0.907073C100.781 1.47237 101.756 2.2725 102.527 3.25201C103.298 4.23153 103.847 5.367 104.136 6.57975C104.335 7.41772 104.41 8.28038 104.358 9.14008C104.229 11.3132 103.272 13.3542 101.684 14.8433L101.526 14.9792C101.7 15.351 101.759 15.7668 101.694 16.1725C101.629 16.5781 101.444 16.9549 101.162 17.2538C101.01 17.4175 100.857 17.57 100.693 17.7254C100.31 18.0835 99.8037 18.2819 99.2787 18.2802C99.0787 18.2798 98.8797 18.2508 98.6879 18.1942C98.7922 18.5427 98.8035 18.9124 98.7208 19.2666C98.6381 19.6209 98.4642 19.9473 98.2163 20.2136C98.036 20.405 97.8529 20.5881 97.6615 20.7684C97.306 21.1124 96.8304 21.3045 96.3356 21.3037C96.1708 21.3033 96.0068 21.2818 95.8474 21.2399C95.9017 21.4 95.938 21.5656 95.9556 21.7337C95.9797 21.997 95.9407 22.2624 95.8418 22.5076C95.7367 22.7806 95.575 23.0282 95.3675 23.2344L95.2177 23.3897C95.1095 23.5007 94.9986 23.6117 94.8904 23.7115C94.6936 23.9043 94.4608 24.0565 94.2052 24.1593C93.9496 24.2621 93.6763 24.3135 93.4008 24.3107C93.3016 24.3106 93.2025 24.305 93.104 24.294H93.0346C93.0671 24.3845 93.093 24.4772 93.1123 24.5714C93.1796 24.9016 93.1658 25.2433 93.0721 25.567C92.9784 25.8907 92.8075 26.1868 92.5742 26.43C92.4299 26.5853 92.2746 26.7406 92.122 26.8821C91.7439 27.2384 91.2435 27.436 90.7239 27.4341V27.4341Z" fill="#6200EE"/>
<path d="M103.958 6.62135C103.675 5.4344 103.137 4.32322 102.382 3.3648C101.626 2.40637 100.672 1.62361 99.5839 1.07072C98.5666 0.547426 97.4502 0.244937 96.3079 0.183069H95.2482C94.8977 0.198773 94.5489 0.242368 94.2052 0.313443C93.1945 0.498593 92.2285 0.875206 91.3592 1.42301C90.7894 1.77888 90.265 2.2027 89.7975 2.68515L89.4979 2.98751L89.3509 2.83771C89.3339 2.81436 89.3143 2.79296 89.2926 2.77391C88.4812 1.91386 87.4972 1.23512 86.405 0.782236C85.558 0.431254 84.6575 0.22677 83.742 0.177521H82.6629C82.305 0.192578 81.9488 0.236174 81.5977 0.307895C80.6568 0.480925 79.7548 0.822015 78.9348 1.31483C77.3707 2.23422 76.1479 3.63712 75.4507 5.31206C75.0722 6.20512 74.8562 7.15859 74.8127 8.12759C74.7411 9.32785 74.9289 10.5295 75.3636 11.6505C75.7982 12.7716 76.4694 13.7859 77.3315 14.6241C77.3721 14.677 77.4236 14.7207 77.4824 14.7523C77.5412 14.7839 77.6061 14.8026 77.6726 14.8072C77.6929 14.805 77.7126 14.7994 77.7309 14.7906C77.4796 15.1284 77.3571 15.5448 77.3856 15.9649C77.4141 16.3849 77.5916 16.781 77.8862 17.0818L78.1858 17.3842L78.4382 17.6366C78.7117 17.9107 79.0682 18.0865 79.452 18.1367C79.8359 18.1869 80.2256 18.1086 80.5603 17.914C80.3743 18.2404 80.2967 18.6174 80.3385 18.9908C80.3804 19.3641 80.5396 19.7146 80.7933 19.9917C81.0097 20.2164 81.2316 20.4299 81.448 20.638C81.7647 20.9365 82.1833 21.1032 82.6186 21.104C82.7689 21.1024 82.9186 21.0848 83.0652 21.0513C83.218 21.0156 83.3647 20.9577 83.5007 20.8793C83.3111 21.2116 83.2356 21.5968 83.2857 21.976C83.3358 22.3552 83.5087 22.7076 83.778 22.9792C83.9001 23.1068 84.0277 23.2344 84.1553 23.362L84.3495 23.5534C84.5101 23.7158 84.7016 23.8446 84.9125 23.9322C85.1235 24.0199 85.3499 24.0646 85.5783 24.0638C85.8952 24.0626 86.2059 23.9753 86.4771 23.8114C86.281 24.1434 86.1995 24.5307 86.2451 24.9137C86.2907 25.2966 86.4609 25.6539 86.7295 25.9306C86.8543 26.0638 86.9875 26.208 87.1206 26.3245L87.3148 26.5159C87.6432 26.841 88.0871 27.0226 88.5492 27.0208C88.9122 27.0203 89.2657 26.9047 89.5589 26.6907L89.595 26.7822C89.6221 26.8473 89.6629 26.9057 89.7146 26.9536C89.7663 27.0014 89.8276 27.0376 89.8946 27.0596C90.2379 27.2314 90.6254 27.2945 91.0055 27.2405C91.3856 27.1864 91.7403 27.0179 92.0222 26.7573C92.1719 26.6186 92.3245 26.466 92.4632 26.3162C92.6729 26.0901 92.8246 25.8165 92.9053 25.5189C92.986 25.2213 92.9933 24.9085 92.9265 24.6075C92.8795 24.3867 92.7931 24.1762 92.6713 23.9861C92.8106 24.0598 92.9617 24.1086 93.1179 24.1304C93.2099 24.1414 93.3025 24.1469 93.3953 24.147C93.6481 24.1491 93.8988 24.1012 94.1331 24.006C94.3673 23.9108 94.5804 23.7701 94.76 23.5922C94.8654 23.4951 94.9736 23.3842 95.0818 23.2732L95.2344 23.1179C95.4249 22.9345 95.5751 22.7134 95.6754 22.4688C95.764 22.2499 95.8001 22.0134 95.7808 21.7781C95.7509 21.4766 95.6563 21.1852 95.5034 20.9237C95.7582 21.0651 96.0443 21.1404 96.3356 21.1428C96.7832 21.1442 97.2135 20.9699 97.5339 20.6574C97.7253 20.4771 97.9056 20.2968 98.0887 20.1026C98.3661 19.8065 98.5409 19.429 98.5874 19.0259C98.6338 18.6229 98.5495 18.2155 98.3467 17.8641C98.6315 18.0291 98.9551 18.1153 99.2843 18.1137C99.7626 18.1135 100.223 17.9309 100.571 17.6033C100.735 17.4508 100.885 17.301 101.035 17.1401C101.308 16.8525 101.483 16.485 101.533 16.0913C101.582 15.6975 101.505 15.2982 101.312 14.9514L101.562 14.7101C103.116 13.2531 104.052 11.2556 104.177 9.12898C104.229 8.28686 104.155 7.44177 103.958 6.62135V6.62135Z" fill="#6200EE"/>
<path d="M93.4092 23.9889C93.3211 23.9888 93.2331 23.9832 93.1457 23.9723C92.9381 23.9466 92.74 23.8704 92.5687 23.7503C92.5034 23.7086 92.4515 23.6491 92.4191 23.5788C92.3866 23.5085 92.375 23.4304 92.3856 23.3537C92.3856 23.301 92.3995 23.2538 92.4078 23.2067C92.4161 23.1595 92.4217 23.1234 92.4272 23.0818C92.4864 22.8191 92.4612 22.5444 92.3551 22.2968C92.2325 21.9579 92.0325 21.6523 91.771 21.4043C91.5095 21.1563 91.1937 20.9728 90.8489 20.8682C90.6629 20.8106 90.4694 20.7807 90.2746 20.7795C90.1818 20.7805 90.0891 20.7879 89.9973 20.8017L89.8142 20.8211C89.7644 20.8276 89.7138 20.8228 89.6662 20.807C89.6186 20.7912 89.5751 20.7649 89.5391 20.7299C89.5031 20.695 89.4754 20.6523 89.4582 20.6052C89.441 20.558 89.4347 20.5076 89.4397 20.4577C89.4414 20.3941 89.4497 20.3309 89.4647 20.2691C89.5274 19.7454 89.3985 19.2167 89.1018 18.7808C88.805 18.3448 88.3604 18.031 87.8502 17.8974C87.6694 17.8482 87.4829 17.823 87.2955 17.8225C87.1876 17.8222 87.0799 17.8315 86.9737 17.8502C86.9264 17.8619 86.8781 17.8684 86.8294 17.8696C86.778 17.8741 86.7262 17.8667 86.6781 17.848C86.63 17.8292 86.5868 17.7996 86.552 17.7614C86.5154 17.7119 86.4899 17.655 86.4775 17.5946C86.465 17.5343 86.4658 17.4719 86.4799 17.4119C86.5352 17.0999 86.5213 16.7795 86.439 16.4735C86.3567 16.1675 86.2081 15.8834 86.0038 15.6412C85.7995 15.399 85.5444 15.2047 85.2566 15.0721C84.9688 14.9395 84.6553 14.8718 84.3384 14.8738C84.2206 14.8739 84.1029 14.8823 83.9862 14.8987C83.9538 14.9012 83.9214 14.9012 83.8891 14.8987H83.8641H83.8197C83.7401 14.8859 83.668 14.8444 83.6169 14.7821C83.5658 14.7198 83.5393 14.6409 83.5423 14.5603C83.5395 14.5051 83.546 14.4497 83.5617 14.3967C83.6044 14.1031 83.5862 13.8038 83.5084 13.5176C83.4307 13.2313 83.2949 12.964 83.1096 12.7323C82.9343 12.5089 82.7162 12.3226 82.468 12.1845C82.2199 12.0464 81.9467 11.9591 81.6644 11.9279C81.5723 11.917 81.4797 11.9114 81.387 11.9112C80.8409 11.9097 80.3149 12.1171 79.9168 12.491C79.8086 12.5936 79.706 12.6935 79.6061 12.7961L77.8946 14.5132C77.8114 14.5964 77.7559 14.6519 77.6616 14.6519C77.5673 14.6519 77.5146 14.5964 77.4425 14.527C76.595 13.7041 75.9347 12.7083 75.5063 11.6074C75.0779 10.5065 74.8915 9.32633 74.9598 8.14701C75.0033 7.19915 75.2146 6.26652 75.5839 5.3925C76.2676 3.74391 77.4678 2.36169 79.0042 1.45353C79.8081 0.971198 80.6923 0.637623 81.6145 0.468787C81.9537 0.399998 82.2978 0.357339 82.6436 0.341187H83.7254C84.626 0.386547 85.5119 0.587383 86.344 0.934806C87.4192 1.38124 88.388 2.04952 89.1873 2.89597L89.2344 2.95422L89.3482 3.06518L86.3468 6.08044C86.088 6.33966 85.8974 6.65891 85.792 7.0097C85.7046 7.30216 85.6792 7.60962 85.7174 7.91244C85.7556 8.21527 85.8566 8.50679 86.0139 8.76837C86.1653 9.02344 86.368 9.24436 86.6091 9.41719C86.8502 9.59002 87.1245 9.71101 87.4147 9.77253C87.58 9.80596 87.7482 9.82361 87.9168 9.82524C88.1997 9.8249 88.4795 9.76665 88.7391 9.65406C88.9986 9.54148 89.2323 9.37694 89.4258 9.17059L90.7989 7.80027C91.2538 7.34257 91.7088 6.88488 92.172 6.42718C92.2441 6.33564 92.3163 6.24687 92.4494 6.24687C92.502 6.25046 92.553 6.2664 92.5983 6.29339C92.6436 6.32037 92.6819 6.35766 92.7102 6.40221L100.788 14.5354C100.863 14.6103 100.938 14.6852 101.013 14.7711C101.275 15.095 101.41 15.5035 101.392 15.9199C101.374 16.3363 101.205 16.7317 100.915 17.0319C100.768 17.19 100.621 17.3398 100.463 17.4868C100.138 17.7938 99.7051 17.9618 99.2576 17.9551C98.8101 17.9483 98.3829 17.7674 98.0666 17.4508L91.3537 10.7157C91.3147 10.6697 91.271 10.6278 91.2233 10.5908L91.1568 10.5603C91.1365 10.5608 91.1169 10.5678 91.1009 10.5803C91.0849 10.5928 91.0734 10.6101 91.068 10.6297C91.068 10.6519 91.0541 10.6713 91.0985 10.7295C91.1232 10.7584 91.1501 10.7853 91.1789 10.81L97.8364 17.4924C97.8835 17.5395 97.9362 17.5895 97.9806 17.6422C98.2739 17.9645 98.4352 18.3853 98.4327 18.821C98.4301 19.2568 98.2638 19.6756 97.9667 19.9944C97.7892 20.1831 97.6089 20.3634 97.412 20.5492C97.1173 20.8314 96.7239 20.9871 96.3159 20.983C95.9079 20.9788 95.5177 20.8152 95.2289 20.527L88.4022 13.6671C88.3523 13.62 88.3052 13.5728 88.258 13.534H88.1637C88.148 13.5454 88.1363 13.5614 88.1303 13.5799C88.1243 13.5983 88.1244 13.6182 88.1304 13.6366L88.233 13.7531L94.9875 20.527C95.1136 20.6489 95.2253 20.7848 95.3204 20.932C95.4872 21.189 95.5908 21.4817 95.6228 21.7864C95.6396 21.9942 95.6082 22.203 95.5312 22.3967C95.4485 22.6306 95.3171 22.8442 95.1457 23.0236L94.9875 23.1845C94.8849 23.2899 94.7795 23.398 94.6769 23.4951C94.5088 23.6572 94.3101 23.7844 94.0925 23.8691C93.8749 23.9539 93.6426 23.9946 93.4092 23.9889V23.9889Z" fill="#B5F456"/>
<path d="M101.268 14.6685C101.227 14.6607 101.188 14.6436 101.154 14.6187C101.12 14.5937 101.093 14.5614 101.074 14.5243C99.8558 13.3398 92.8516 6.30235 92.7074 6.1165L92.6408 6.02773L92.6991 5.93619C92.7359 5.88165 92.7787 5.8314 92.8267 5.7864C92.8546 5.76166 92.8806 5.73476 92.9044 5.70596C92.9177 5.69407 92.9274 5.67863 92.9323 5.66144C92.9372 5.64425 92.9371 5.62602 92.9321 5.60887C92.9265 5.59374 92.9173 5.58024 92.9051 5.56958C92.893 5.55893 92.8785 5.55146 92.8627 5.54784L92.7879 5.57281C92.7662 5.58983 92.7458 5.60837 92.7268 5.62829C92.7018 5.65696 92.6739 5.68299 92.6436 5.70596L89.3621 9.00138C89.266 9.10194 89.1621 9.1947 89.0514 9.27877C88.7127 9.51968 88.3075 9.64955 87.8919 9.65048C87.4343 9.64934 86.9912 9.49028 86.6374 9.20017C86.2836 8.91005 86.0409 8.50669 85.9501 8.05825C85.857 7.66123 85.9091 7.24398 86.0971 6.8821C86.2793 6.53779 86.5132 6.22345 86.7906 5.95006C86.9626 5.76976 87.1401 5.59223 87.3177 5.41747L87.5784 5.15949C88.3634 4.36893 89.1429 3.58945 89.9168 2.80166C90.3758 2.32744 90.8909 1.91104 91.4508 1.56171C92.2987 1.02657 93.2397 0.655801 94.2247 0.468787C94.5576 0.400849 94.8951 0.358193 95.2345 0.341187H96.2858C97.4084 0.40094 98.5058 0.696791 99.5063 1.20943C100.575 1.75203 101.513 2.52022 102.255 3.46086C102.997 4.4015 103.526 5.49216 103.806 6.65741C103.997 7.46269 104.068 8.29182 104.017 9.11789C103.894 11.2043 102.976 13.1641 101.451 14.5936L101.39 14.6546L101.268 14.6685Z" fill="#B5F456"/>
<path d="M82.6047 20.9431C82.2144 20.9417 81.839 20.7931 81.5534 20.527C81.3287 20.3135 81.1123 20.1054 80.9015 19.8835C80.6214 19.5806 80.4678 19.1821 80.4719 18.7695C80.476 18.357 80.6376 17.9616 80.9237 17.6644L82.9265 15.6588C83.1999 15.3755 83.553 15.182 83.939 15.104C84.081 15.0672 84.2279 15.0522 84.3745 15.0596C84.8332 15.0577 85.2783 15.216 85.6328 15.5072C85.9873 15.7984 86.229 16.2043 86.3162 16.6546C86.3878 16.9683 86.3791 17.2949 86.2908 17.6043C86.2026 17.9137 86.0376 18.1957 85.8114 18.4244C85.7087 18.5409 85.5922 18.6519 85.4785 18.7656L85.3093 18.9265L83.7725 20.4549C83.5672 20.6719 83.3031 20.8242 83.0125 20.8932C82.8789 20.9255 82.7421 20.9423 82.6047 20.9431V20.9431Z" fill="#B5F456"/>
<path d="M88.5298 26.8599C88.1144 26.8582 87.7161 26.6939 87.4203 26.4022L87.2261 26.2108C87.0929 26.0804 86.9626 25.9501 86.8377 25.8141C86.5496 25.5166 86.3885 25.1187 86.3885 24.7046C86.3885 24.2904 86.5496 23.8925 86.8377 23.595L88.871 21.5562C89.0548 21.3711 89.2735 21.2243 89.5145 21.1243C89.7554 21.0243 90.0138 20.9731 90.2746 20.9736C90.7276 20.976 91.1664 21.132 91.5192 21.4162C91.8719 21.7004 92.1177 22.096 92.2164 22.5381C92.246 22.6861 92.2608 22.8366 92.2608 22.9875C92.2658 23.2416 92.2193 23.494 92.1239 23.7296C92.0285 23.9651 91.8864 24.1788 91.706 24.3578C91.0236 25.0541 90.3384 25.7448 89.645 26.4272C89.3447 26.7126 88.944 26.8681 88.5298 26.8599V26.8599Z" fill="#B5F456"/>
<path d="M85.5589 23.9029C85.3525 23.903 85.1481 23.8621 84.9577 23.7826C84.7672 23.703 84.5944 23.5865 84.4493 23.4397L84.2607 23.2538C84.1331 23.1262 84 22.9958 83.8751 22.8627C83.5789 22.5644 83.4126 22.161 83.4126 21.7406C83.4126 21.3202 83.5789 20.9169 83.8751 20.6186L85.8946 18.5853C86.1181 18.3811 86.3811 18.2248 86.6674 18.1261C86.9536 18.0273 87.257 17.9882 87.5589 18.0111C88.2468 18.0111 89.1123 18.6962 89.2593 19.6754C89.3177 19.9836 89.2988 20.3015 89.2044 20.6006C89.11 20.8997 88.9431 21.1708 88.7184 21.3897C88.2552 21.8613 87.7864 22.3301 87.3314 22.7961L86.699 23.4286C86.5498 23.5792 86.3722 23.6987 86.1765 23.7801C85.9808 23.8615 85.7709 23.9033 85.5589 23.9029V23.9029Z" fill="#B5F456"/>
<path d="M79.6699 17.9917C79.4598 17.9926 79.2516 17.952 79.0574 17.872C78.8631 17.792 78.6866 17.6743 78.5381 17.5256L77.9834 16.9709C77.6879 16.6705 77.5223 16.266 77.5223 15.8447C77.5223 15.4233 77.6879 15.0188 77.9834 14.7184C78.4161 14.2802 78.8544 13.8419 79.2899 13.4064L80.0139 12.6824C80.1959 12.5014 80.4125 12.359 80.6508 12.2636C80.8891 12.1683 81.1442 12.122 81.4008 12.1276C81.6642 12.1209 81.9262 12.1673 82.1712 12.264C82.4163 12.3608 82.6393 12.506 82.827 12.6908C83.0147 12.8757 83.1632 13.0964 83.2637 13.34C83.3642 13.5835 83.4146 13.8447 83.4119 14.1082C83.4142 14.3661 83.3645 14.6217 83.2658 14.86C83.1672 15.0983 83.0216 15.3143 82.8377 15.4951L80.8155 17.5229C80.6656 17.6737 80.487 17.7929 80.2902 17.8734C80.0935 17.9539 79.8825 17.9941 79.6699 17.9917V17.9917Z" fill="#B5F456"/>
<path d="M90.724 27.0929C90.4451 27.0929 90.1703 27.0263 89.9223 26.8987C89.8786 26.8846 89.8382 26.8615 89.8038 26.8309C89.7695 26.8003 89.7418 26.763 89.7226 26.7212L89.6865 26.6269L89.7586 26.552C89.804 26.4995 89.8531 26.4504 89.9057 26.405L90.527 25.7781C90.9181 25.3842 91.3093 24.9875 91.7059 24.5964C91.8799 24.4324 92.0311 24.2458 92.1553 24.0416C92.1738 24.0067 92.2007 23.9769 92.2337 23.9551C92.2666 23.9333 92.3046 23.9201 92.3439 23.9168C92.3849 23.9196 92.4243 23.9335 92.458 23.957C92.4917 23.9804 92.5184 24.0125 92.5353 24.0499C92.6557 24.2277 92.7396 24.4276 92.7822 24.638C92.8406 24.9161 92.8297 25.2043 92.7503 25.4771C92.671 25.75 92.5257 25.9991 92.3273 26.2025C92.1914 26.3495 92.0499 26.4993 91.8946 26.6352C91.5774 26.9322 91.1584 27.096 90.724 27.0929V27.0929Z" fill="#B5F456"/>
<path d="M103.958 6.62135C103.675 5.4344 103.137 4.32322 102.382 3.3648C101.626 2.40637 100.672 1.62361 99.5839 1.07072C98.5666 0.547426 97.4502 0.244937 96.3079 0.183069H95.2482C94.8977 0.198773 94.5489 0.242368 94.2052 0.313443C93.1945 0.498593 92.2285 0.875206 91.3592 1.42301C90.7894 1.77888 90.265 2.2027 89.7975 2.68515L89.4979 2.98751L89.3509 2.83771C89.3339 2.81436 89.3143 2.79296 89.2926 2.77391C88.4812 1.91386 87.4972 1.23512 86.405 0.782236C85.558 0.431254 84.6575 0.22677 83.742 0.177521H82.6629C82.305 0.192578 81.9488 0.236174 81.5977 0.307895C80.6568 0.480925 79.7548 0.822015 78.9348 1.31483C77.3707 2.23422 76.1479 3.63712 75.4507 5.31206C75.0722 6.20512 74.8562 7.15859 74.8127 8.12759C74.7411 9.32785 74.9289 10.5295 75.3636 11.6505C75.7982 12.7716 76.4694 13.7859 77.3315 14.6241C77.3721 14.677 77.4236 14.7207 77.4824 14.7523C77.5412 14.7839 77.6061 14.8026 77.6726 14.8072C77.6929 14.805 77.7126 14.7994 77.7309 14.7906C77.4796 15.1284 77.3571 15.5448 77.3856 15.9649C77.4141 16.3849 77.5916 16.781 77.8862 17.0818L78.1858 17.3842L78.4382 17.6366C78.7117 17.9107 79.0682 18.0865 79.452 18.1367C79.8359 18.1869 80.2256 18.1086 80.5603 17.914C80.3743 18.2404 80.2967 18.6174 80.3385 18.9908C80.3804 19.3641 80.5396 19.7146 80.7933 19.9917C81.0097 20.2164 81.2316 20.4299 81.448 20.638C81.7647 20.9365 82.1833 21.1032 82.6186 21.104C82.7689 21.1024 82.9186 21.0848 83.0652 21.0513C83.218 21.0156 83.3647 20.9577 83.5007 20.8793C83.3111 21.2116 83.2356 21.5968 83.2857 21.976C83.3358 22.3552 83.5087 22.7076 83.778 22.9792C83.9001 23.1068 84.0277 23.2344 84.1553 23.362L84.3495 23.5534C84.5101 23.7158 84.7016 23.8446 84.9125 23.9322C85.1235 24.0199 85.3499 24.0646 85.5783 24.0638C85.8952 24.0626 86.2059 23.9753 86.4771 23.8114C86.281 24.1434 86.1995 24.5307 86.2451 24.9137C86.2907 25.2966 86.4609 25.6539 86.7295 25.9306C86.8543 26.0638 86.9875 26.208 87.1206 26.3245L87.3148 26.5159C87.6432 26.841 88.0871 27.0226 88.5492 27.0208C88.9122 27.0203 89.2657 26.9047 89.5589 26.6907L89.595 26.7822C89.6221 26.8473 89.6629 26.9057 89.7146 26.9536C89.7663 27.0014 89.8276 27.0376 89.8946 27.0596C90.2379 27.2314 90.6254 27.2945 91.0055 27.2405C91.3856 27.1864 91.7403 27.0179 92.0222 26.7573C92.1719 26.6186 92.3245 26.466 92.4632 26.3162C92.6729 26.0901 92.8246 25.8165 92.9053 25.5189C92.986 25.2213 92.9933 24.9085 92.9265 24.6075C92.8795 24.3867 92.7931 24.1762 92.6713 23.9861C92.8106 24.0598 92.9617 24.1086 93.1179 24.1304C93.2099 24.1414 93.3025 24.1469 93.3953 24.147C93.6481 24.1491 93.8988 24.1012 94.1331 24.006C94.3673 23.9108 94.5804 23.7701 94.76 23.5922C94.8654 23.4951 94.9736 23.3842 95.0818 23.2732L95.2344 23.1179C95.4249 22.9345 95.5751 22.7134 95.6754 22.4688C95.764 22.2499 95.8001 22.0134 95.7808 21.7781C95.7509 21.4766 95.6563 21.1852 95.5034 20.9237C95.7582 21.0651 96.0443 21.1404 96.3356 21.1428C96.7832 21.1442 97.2135 20.9699 97.5339 20.6574C97.7253 20.4771 97.9056 20.2968 98.0887 20.1026C98.3661 19.8065 98.5409 19.429 98.5874 19.0259C98.6338 18.6229 98.5495 18.2155 98.3467 17.8641C98.6315 18.0291 98.9551 18.1153 99.2843 18.1137C99.7626 18.1135 100.223 17.9309 100.571 17.6033C100.735 17.4508 100.885 17.301 101.035 17.1401C101.308 16.8525 101.483 16.485 101.533 16.0913C101.582 15.6975 101.505 15.2982 101.312 14.9514L101.562 14.7101C103.116 13.2531 104.052 11.2556 104.177 9.12898C104.229 8.28686 104.155 7.44177 103.958 6.62135V6.62135ZM79.6699 17.8336C79.4803 17.8339 79.2926 17.7969 79.1174 17.7245C78.9423 17.6522 78.7831 17.5459 78.6491 17.4119L78.0943 16.8571C77.8275 16.5871 77.6779 16.2228 77.6779 15.8433C77.6779 15.4637 77.8275 15.0994 78.0943 14.8294C78.7683 14.1415 79.4535 13.4674 80.1248 12.7906C80.2905 12.6243 80.4878 12.4928 80.705 12.4037C80.9222 12.3146 81.155 12.2698 81.3897 12.2718H81.4285C81.6679 12.27 81.9052 12.3158 82.1267 12.4066C82.3481 12.4975 82.5493 12.6315 82.7184 12.8009C82.8875 12.9702 83.0212 13.1716 83.1117 13.3932C83.2022 13.6148 83.2477 13.8522 83.2455 14.0915C83.249 14.3308 83.2039 14.5683 83.1128 14.7895C83.0218 15.0108 82.8866 15.2112 82.7156 15.3786C82.0407 16.0555 81.3675 16.7314 80.6962 17.4064C80.562 17.542 80.4021 17.6497 80.2259 17.723C80.0497 17.7964 79.8607 17.8339 79.6699 17.8336ZM83.2011 15.2566C83.1211 15.3808 83.0281 15.4961 82.9237 15.6005C83.0281 15.4961 83.1211 15.3808 83.2011 15.2566V15.2566ZM82.9792 20.7295C82.8565 20.759 82.7308 20.7739 82.6047 20.7739C82.251 20.7741 81.9107 20.6391 81.6532 20.3967C81.4369 20.1886 81.2177 19.9806 81.0124 19.7642C80.763 19.4903 80.6263 19.1322 80.6299 18.7618C80.6335 18.3913 80.7771 18.036 81.0319 17.767L82.233 16.5631L83.0319 15.7614C83.2849 15.5036 83.6097 15.3277 83.9639 15.2566C84.096 15.2222 84.2326 15.2082 84.3689 15.215H84.3911C84.8084 15.2195 85.2114 15.368 85.5318 15.6354C85.8522 15.9028 86.0705 16.2726 86.1498 16.6824C86.2144 16.9707 86.2056 17.2706 86.1242 17.5546C86.0428 17.8386 85.8913 18.0976 85.6837 18.3079C85.5284 18.4854 85.3536 18.6408 85.1872 18.8072L83.6643 20.3356C83.48 20.5337 83.2419 20.6735 82.9792 20.7379V20.7295ZM83.9251 14.9376C84.066 14.905 84.2104 14.8901 84.355 14.8932C84.2101 14.8928 84.0656 14.9105 83.9251 14.9459V14.9376ZM85.5589 23.7365C85.3721 23.7368 85.1871 23.7 85.0147 23.6281C84.8423 23.5562 84.6859 23.4506 84.5548 23.3176C84.3689 23.1318 84.1719 22.9431 83.9861 22.7462C83.8527 22.6134 83.7469 22.4557 83.6747 22.2819C83.6025 22.1082 83.5653 21.9219 83.5653 21.7337C83.5653 21.5455 83.6025 21.3592 83.6747 21.1855C83.7469 21.0117 83.8527 20.8539 83.9861 20.7212C84.6592 20.0444 85.3324 19.3685 86.0055 18.6935C86.38 18.3384 86.8127 18.1637 87.5589 18.1637C88.1719 18.1637 88.9681 18.7961 89.104 19.7004C89.1573 19.9845 89.1399 20.2773 89.0533 20.553C88.9667 20.8288 88.8136 21.079 88.6075 21.2815C87.9334 21.9667 87.2482 22.6435 86.5742 23.3176C86.3058 23.5889 85.9406 23.7426 85.5589 23.7448V23.7365ZM89.5173 26.2913C89.3871 26.4196 89.2329 26.521 89.0634 26.5896C88.8939 26.6581 88.7126 26.6925 88.5298 26.6907C88.1514 26.6925 87.7876 26.545 87.5173 26.2802C87.3204 26.0832 87.1234 25.8974 86.9376 25.6976C86.6743 25.4286 86.5268 25.0671 86.5268 24.6907C86.5268 24.3143 86.6743 23.9528 86.9376 23.6838L87.9029 22.7157L88.9681 21.6449C89.3121 21.3039 89.7763 21.1116 90.2607 21.1096C90.6776 21.1116 91.0814 21.2551 91.4059 21.5167C91.7305 21.7782 91.9566 22.1423 92.0471 22.5492C92.0746 22.6862 92.0877 22.8256 92.086 22.9653C92.0917 23.1983 92.0496 23.4301 91.9623 23.6462C91.875 23.8623 91.7443 24.0582 91.5783 24.2219C90.8959 24.9246 90.2089 25.6172 89.5173 26.2996V26.2913ZM92.2108 26.0832C92.0776 26.2302 91.9334 26.3606 91.7864 26.5104C91.4985 26.7798 91.1183 26.9287 90.724 26.9265C90.47 26.9271 90.2197 26.8662 89.9944 26.7489C89.9445 26.7268 89.8918 26.7073 89.8696 26.6546C89.9121 26.6075 89.9575 26.5631 90.0055 26.5215C90.6047 25.9168 91.2066 25.3037 91.8197 24.7018C92.0033 24.5257 92.1628 24.3261 92.294 24.1082C92.3134 24.0777 92.3301 24.0638 92.3439 24.0638C92.3578 24.0638 92.3772 24.0804 92.3994 24.1193C92.5123 24.2868 92.5897 24.4756 92.6269 24.6741C92.6791 24.9263 92.6685 25.1876 92.596 25.4348C92.5234 25.682 92.3911 25.9075 92.2108 26.0915V26.0832ZM100.81 16.9154C100.666 17.0707 100.519 17.2177 100.363 17.362C100.068 17.6399 99.6756 17.7921 99.2698 17.7865C98.864 17.7808 98.4763 17.6176 98.1886 17.3315L97.9805 17.1234L91.4674 10.6047C91.4204 10.5508 91.3684 10.5016 91.312 10.4577C91.268 10.4221 91.2133 10.4026 91.1567 10.4022C91.1025 10.4028 91.05 10.4205 91.0066 10.453C90.9632 10.4854 90.9313 10.5307 90.9154 10.5825C90.9027 10.6234 90.9009 10.6669 90.9101 10.7088C90.9194 10.7506 90.9393 10.7893 90.9681 10.8211C91.017 10.8765 91.0688 10.9293 91.1234 10.9792L97.6726 17.5478C97.7337 17.6089 97.8058 17.6727 97.8696 17.7448C98.14 18.0358 98.2903 18.4183 98.2903 18.8155C98.2903 19.2128 98.14 19.5953 97.8696 19.8863C97.6948 20.0721 97.5173 20.2496 97.3315 20.441C97.0641 20.6973 96.7069 20.8385 96.3366 20.8344C95.9663 20.8302 95.6124 20.681 95.3509 20.4189L95.1539 20.2219L88.5242 13.5645C88.4753 13.5126 88.4234 13.4635 88.3689 13.4175C88.3243 13.3886 88.2723 13.3732 88.2191 13.3731C88.1684 13.3725 88.1189 13.388 88.0776 13.4175C88.0381 13.4468 88.0083 13.4874 87.992 13.5338C87.9757 13.5803 87.9736 13.6306 87.9861 13.6782C87.995 13.7212 88.0162 13.7607 88.0471 13.7919C88.0998 13.8447 88.1609 13.9084 88.2136 13.9584L94.871 20.6546C94.9888 20.7659 95.093 20.8907 95.1817 21.0263C95.3344 21.2647 95.4293 21.5354 95.4591 21.8169C95.4745 22.0013 95.446 22.1867 95.3758 22.3578C95.294 22.565 95.1713 22.7537 95.0152 22.9126C94.8599 23.068 94.7045 23.2344 94.5492 23.3786C94.3978 23.5277 94.2184 23.6454 94.0213 23.725C93.8242 23.8045 93.6133 23.8442 93.4008 23.8419C93.3201 23.8417 93.2395 23.8361 93.1595 23.8252C92.9765 23.8028 92.8021 23.7351 92.6518 23.6283C92.6098 23.6031 92.5764 23.5658 92.556 23.5212C92.5357 23.4766 92.5295 23.4269 92.5381 23.3786C92.5381 23.2871 92.5686 23.2039 92.5797 23.1012C92.6409 22.8119 92.6118 22.5108 92.4965 22.2385C92.3656 21.8779 92.1522 21.5529 91.8733 21.2895C91.5945 21.026 91.2579 20.8314 90.8904 20.7212C90.6895 20.6573 90.4799 20.6245 90.269 20.6241C90.1649 20.6229 90.0609 20.6312 89.9584 20.6491C89.8946 20.6491 89.8446 20.6491 89.7808 20.6685C89.6477 20.6685 89.5839 20.6075 89.5839 20.4605C89.5858 20.408 89.5933 20.356 89.6061 20.3051C89.6765 19.7429 89.5403 19.1743 89.223 18.7049C88.9056 18.2355 88.4286 17.8973 87.8807 17.7531C87.69 17.7006 87.4932 17.6735 87.2954 17.6727C87.1792 17.6724 87.0633 17.6816 86.9487 17.7004C86.9351 17.6963 86.9206 17.6963 86.907 17.7004C86.8812 17.7031 86.8552 17.7031 86.8294 17.7004C86.6796 17.7004 86.6213 17.6144 86.6491 17.423C86.7286 16.9422 86.6565 16.4486 86.4427 16.0107C86.229 15.5728 85.8842 15.2123 85.4563 14.9792C85.1154 14.7954 84.7339 14.7001 84.3467 14.7018C84.2214 14.7028 84.0963 14.712 83.9722 14.7295C83.9473 14.7295 83.9223 14.7295 83.8973 14.7295H83.8779C83.8533 14.7295 83.8289 14.7246 83.8061 14.7151C83.7834 14.7056 83.7628 14.6917 83.7455 14.6741C83.7282 14.6566 83.7146 14.6357 83.7054 14.6129C83.6962 14.59 83.6917 14.5655 83.6921 14.5409C83.686 14.5032 83.686 14.4648 83.6921 14.4272C83.7392 14.1128 83.7214 13.7921 83.6398 13.4849C83.5583 13.1776 83.4146 12.8904 83.2177 12.6408C83.0317 12.3992 82.7991 12.1974 82.5337 12.0474C82.2683 11.8973 81.9755 11.8019 81.6726 11.767C81.5722 11.756 81.4713 11.7504 81.3703 11.7503C80.7863 11.751 80.2242 11.973 79.7975 12.3717C79.6726 12.4854 79.5617 12.5992 79.4452 12.7129C78.8904 13.2677 78.331 13.8289 77.767 14.3967C77.7059 14.4605 77.6782 14.491 77.6477 14.491C77.6172 14.491 77.5922 14.4605 77.5284 14.3967C76.6994 13.5888 76.0539 12.6121 75.6356 11.5328C75.2173 10.4536 75.036 9.29696 75.104 8.14146C75.1491 7.20994 75.3605 6.294 75.7281 5.43688C76.3982 3.8239 77.5768 2.47391 79.0846 1.59222C79.8717 1.11584 80.7395 0.787718 81.6449 0.624123C81.9806 0.556613 82.3209 0.514882 82.6629 0.499296H83.7392C84.6197 0.545785 85.4856 0.742811 86.2995 1.08182C87.3535 1.51976 88.3034 2.17475 89.0873 3.00415L89.1373 3.06795L88.9819 3.22329C88.0721 4.14793 87.1604 5.0624 86.2468 5.9667C85.9666 6.24459 85.7598 6.58773 85.6449 6.96532C85.5526 7.27376 85.5247 7.5979 85.563 7.91758C85.6014 8.23725 85.7051 8.54562 85.8677 8.8235C86.0303 9.10138 86.2484 9.34283 86.5083 9.53282C86.7682 9.72281 87.0645 9.85728 87.3786 9.92787C87.5548 9.96367 87.7341 9.98225 87.914 9.98335C88.2174 9.98379 88.5178 9.92198 88.7964 9.80175C89.0751 9.68151 89.3261 9.50541 89.5339 9.28432C90.4577 8.36892 91.3564 7.45353 92.2801 6.53813C92.3328 6.4882 92.3717 6.40498 92.4355 6.40498C92.4993 6.40498 92.5603 6.49652 92.6102 6.54923C95.3046 9.24178 97.9953 11.9408 100.682 14.6463C100.754 14.7212 100.827 14.7933 100.899 14.8766C101.132 15.1715 101.251 15.5411 101.234 15.9169C101.216 16.2928 101.062 16.6495 100.802 16.9209L100.81 16.9154ZM103.861 9.10679C103.742 11.1546 102.84 13.0783 101.343 14.4799L101.301 14.5132C101.281 14.509 101.262 14.5 101.246 14.487C101.23 14.4739 101.217 14.4572 101.209 14.4383C99.914 13.1706 92.9708 6.19694 92.8377 6.01941C92.8995 5.94296 92.9652 5.86981 93.0346 5.80027C93.0632 5.76853 93.0831 5.72993 93.0923 5.68824C93.1014 5.64654 93.0997 5.60317 93.0871 5.56237C93.0745 5.52156 93.0516 5.48472 93.0205 5.45543C92.9894 5.42615 92.9513 5.40542 92.9098 5.39527C92.8878 5.3915 92.8653 5.3915 92.8432 5.39527C92.7865 5.39791 92.7324 5.4205 92.6907 5.45907C92.6407 5.50068 92.5991 5.55339 92.5464 5.595L89.2482 8.87655C89.1638 8.97163 89.071 9.0589 88.9708 9.1373C88.7237 9.3158 88.4358 9.42964 88.1334 9.46846C87.831 9.50729 87.5236 9.46985 87.2394 9.35957C86.9552 9.24929 86.703 9.06967 86.5059 8.83706C86.3088 8.60444 86.173 8.32622 86.1109 8.02773C86.0249 7.66643 86.0722 7.28623 86.2441 6.95699C86.419 6.62771 86.6425 6.32661 86.907 6.06379C87.1678 5.7864 87.4369 5.53397 87.6948 5.27322C88.4826 4.48265 89.2593 3.70318 90.036 2.91538C90.4866 2.44988 90.9913 2.04011 91.5395 1.69486C92.3753 1.16827 93.3034 0.80494 94.2746 0.624123C94.5992 0.55783 94.9284 0.516103 95.2593 0.499296H96.3051C97.4002 0.56007 98.4702 0.851198 99.4452 1.35367C100.49 1.88804 101.407 2.64223 102.133 3.56444C102.859 4.48665 103.376 5.55504 103.65 6.69624C103.837 7.48524 103.908 8.29742 103.858 9.10679H103.861Z" fill="#6200EE"/>
<path d="M12.7184 1.17059H17.0735V14.4854C17.1105 15.8541 16.7452 17.2035 16.0228 18.3667C15.3005 19.5298 14.2529 20.4555 13.0097 21.0291C11.6088 21.6767 10.0783 21.9955 8.53536 21.9612C6.98965 21.996 5.45642 21.6772 4.05269 21.0291C2.80845 20.4572 1.7604 19.5311 1.03959 18.3668C0.318774 17.2024 -0.042828 15.8514 -1.1432e-05 14.4827V1.16782H4.35505V14.1137C4.3407 14.8399 4.51666 15.5571 4.86545 16.1942C5.21187 16.7995 5.72125 17.2954 6.33563 17.6255C7.01232 17.9843 7.76962 18.1638 8.53536 18.147C9.30215 18.1654 10.0607 17.9858 10.7379 17.6255C11.3534 17.298 11.8625 16.8014 12.2053 16.1942C12.5596 15.5589 12.7395 14.8411 12.7268 14.1137L12.7184 1.17059Z" fill="#6200EE"/>
<path d="M24.8572 12.7823V21.6588H20.5742V6.29682H24.6574V9.00694H24.8377C25.1644 8.13177 25.7684 7.38749 26.5576 6.88767C27.4335 6.3412 28.4523 6.06791 29.4841 6.10264C30.4641 6.07819 31.4328 6.31771 32.2885 6.79613C33.0905 7.26848 33.7374 7.96449 34.1498 8.7989C34.6137 9.7585 34.841 10.8153 34.8128 11.8807V21.6699H30.5298V12.6408C30.5298 11.7004 30.2941 10.9764 29.8058 10.4383C29.5459 10.1678 29.2307 9.95638 28.8818 9.81853C28.5328 9.68068 28.1583 9.61958 27.7837 9.6394C27.2509 9.62828 26.7243 9.75539 26.2552 10.0083C25.819 10.2644 25.4671 10.6424 25.2427 11.0957C24.9846 11.6202 24.8526 12.1977 24.8572 12.7823V12.7823Z" fill="#6200EE"/>
<path d="M38.1887 21.6699V6.29681H42.4716V21.6699H38.1887ZM40.3385 4.31346C39.7318 4.32409 39.1449 4.09827 38.7018 3.68377C38.4876 3.49074 38.3167 3.25444 38.2005 2.99049C38.0843 2.72655 38.0255 2.44095 38.0278 2.15257C38.0254 1.86701 38.0843 1.58426 38.2006 1.32344C38.3169 1.06263 38.4878 0.829824 38.7018 0.640779C39.1415 0.219689 39.7298 -0.0106235 40.3385 2.32756e-06C40.6392 -0.00603902 40.9381 0.0474675 41.218 0.15744C41.4979 0.267413 41.7534 0.43168 41.9695 0.640779C42.1857 0.828581 42.3586 1.06095 42.4763 1.32191C42.5941 1.58288 42.654 1.86626 42.6519 2.15257C42.6539 2.44169 42.5941 2.7279 42.4764 2.99199C42.3587 3.25608 42.1859 3.49195 41.9695 3.68377C41.5295 4.09946 40.9437 4.3256 40.3385 4.31346V4.31346Z" fill="#6200EE"/>
<path d="M54.2081 6.29681V9.49792H44.6769V6.29681H54.2081ZM46.8572 21.6699V5.18447C46.8206 4.21765 47.0468 3.259 47.5118 2.41054C47.9351 1.68771 48.565 1.10806 49.3204 0.746189C50.1358 0.367294 51.0262 0.177638 51.9251 0.191404C52.5285 0.186842 53.1311 0.236977 53.7254 0.341196C54.1385 0.412935 54.5477 0.505518 54.9515 0.618588L54.1887 3.82247C53.9836 3.76106 53.7752 3.71105 53.5645 3.67268C53.3195 3.62574 53.0706 3.60252 52.8211 3.60333C52.1887 3.60333 51.7495 3.74942 51.5035 4.04161C51.2319 4.39114 51.0994 4.82897 51.1318 5.27046V21.6699H46.8572Z" fill="#6200EE"/>
<path d="M59.4702 27.4341C58.9578 27.4378 58.4461 27.3942 57.9418 27.3037C57.5424 27.2439 57.1509 27.1407 56.7739 26.9958L57.7393 23.8114C58.1784 23.954 58.6345 24.038 59.0957 24.061C59.4689 24.0867 59.8402 23.9893 60.1526 23.7836C60.4966 23.5269 60.7532 23.1705 60.8877 22.7628L61.1373 22.1137L55.5895 6.30236H60.0943L63.301 17.5867H63.4619L66.688 6.29681H71.2233L65.2205 23.3315C64.9566 24.1145 64.5587 24.8457 64.0444 25.4924C63.5517 26.1158 62.9122 26.6076 62.1831 26.9237C61.3256 27.2855 60.4006 27.4595 59.4702 27.4341V27.4341Z" fill="#6200EE"/>
</g>
<defs>
<clipPath id="clip0_815_8824">
<rect width="104.369" height="32" fill="white"/>
</clipPath>
</defs>
</svg>
