<svg width="105" height="32" viewBox="0 0 105 32" fill="none" xmlns="http://www.w3.org/2000/svg">
<g clip-path="url(#clip0_815_8891)">
<path d="M1.10962 30.4771V25.3537H2.8461C3.13348 25.3444 3.41889 25.4044 3.67827 25.5284C3.89096 25.6327 4.06699 25.7991 4.18313 26.0056C4.29813 26.2164 4.35644 26.4534 4.35234 26.6935C4.3582 26.8842 4.32124 27.0738 4.24415 27.2483C4.17788 27.3927 4.07686 27.5185 3.95012 27.6144C3.82575 27.7081 3.68447 27.7768 3.53403 27.8169V27.8585C3.70774 27.8722 3.87453 27.9325 4.01669 28.0333C4.18013 28.1433 4.31283 28.2932 4.40227 28.4688C4.5071 28.6767 4.55858 28.9074 4.55206 29.1401C4.55628 29.3823 4.49698 29.6214 4.38008 29.8336C4.25442 30.0424 4.06885 30.2087 3.84748 30.3107C3.56067 30.4346 3.24991 30.4934 2.93764 30.4827L1.10962 30.4771ZM1.58119 30.0583H2.94041C3.25802 30.08 3.57211 29.9809 3.81974 29.7809C3.91085 29.6973 3.98281 29.5951 4.03069 29.4811C4.07857 29.3672 4.10124 29.2442 4.09714 29.1207C4.09923 28.9319 4.04835 28.7463 3.95029 28.585C3.85222 28.4237 3.7109 28.2931 3.54235 28.2081C3.35641 28.1123 3.14948 28.0647 2.94041 28.0694H1.55345L1.58119 30.0583ZM1.58119 27.6671H2.89048C3.07565 27.6706 3.25874 27.6277 3.42307 27.5423C3.57116 27.463 3.69414 27.3438 3.77814 27.1983C3.86617 27.0448 3.9112 26.8704 3.90851 26.6935C3.91157 26.5697 3.88844 26.4466 3.84063 26.3324C3.79283 26.2181 3.72143 26.1153 3.63112 26.0305C3.40959 25.8439 3.12387 25.7513 2.835 25.7725H1.57841L1.58119 27.6671Z" fill="white"/>
<path d="M6.67403 30.5659C6.45403 30.5673 6.23635 30.5209 6.03603 30.43C5.84955 30.3417 5.69043 30.2046 5.57556 30.0333C5.45736 29.8451 5.39842 29.6257 5.40635 29.4036C5.40111 29.2371 5.43834 29.0719 5.51453 28.9237C5.58824 28.793 5.69304 28.6825 5.81966 28.6019C5.9666 28.514 6.12541 28.4477 6.29123 28.405C6.48718 28.3541 6.68647 28.317 6.88762 28.294L7.44241 28.2219C7.56189 28.2119 7.6785 28.1799 7.78637 28.1276C7.82454 28.1078 7.85614 28.0773 7.87731 28.0399C7.89849 28.0025 7.90834 27.9597 7.90565 27.9168V27.828C7.91076 27.7143 7.89248 27.6007 7.85192 27.4943C7.81136 27.3879 7.7494 27.2909 7.66987 27.2094C7.48409 27.0475 7.24173 26.9657 6.99581 26.982C6.75494 26.9714 6.51667 27.0354 6.31342 27.165C6.15233 27.2699 6.02513 27.4193 5.94726 27.595L5.52285 27.4424C5.59874 27.2473 5.7228 27.0746 5.88346 26.9404C6.03544 26.8132 6.21203 26.7187 6.40219 26.663C6.74045 26.5624 7.09927 26.5528 7.44241 26.6352C7.60297 26.6732 7.75463 26.742 7.88901 26.8377C8.03336 26.9363 8.14914 27.0712 8.22465 27.2288C8.31674 27.4275 8.36047 27.6452 8.35226 27.8641V30.4743H7.90011V29.8668H7.87237C7.81112 29.989 7.73056 30.1005 7.63381 30.1969C7.51913 30.3087 7.3846 30.3981 7.23714 30.4605C7.05827 30.5325 6.86686 30.5684 6.67403 30.5659V30.5659ZM6.73506 30.1581C6.9519 30.1636 7.16603 30.1089 7.35364 30C7.52756 29.9014 7.67065 29.7564 7.76696 29.5811C7.86414 29.4045 7.91385 29.2057 7.9112 29.0042V28.4494C7.8609 28.4881 7.80337 28.5164 7.74199 28.5326C7.66432 28.5576 7.57556 28.5797 7.4646 28.6019L7.16224 28.6491L6.88485 28.6824C6.69603 28.7043 6.51006 28.7461 6.33006 28.8072C6.19384 28.8533 6.07228 28.9346 5.97778 29.043C5.89174 29.1505 5.84741 29.2854 5.85295 29.423C5.8454 29.5292 5.86454 29.6356 5.90863 29.7325C5.95272 29.8294 6.02035 29.9137 6.10538 29.9778C6.28931 30.1064 6.51094 30.1699 6.73506 30.1581V30.1581Z" fill="white"/>
<path d="M9.98612 28.0749V30.4771H9.53674V26.6297H9.98612V27.2316H10.025C10.1162 27.0349 10.264 26.8698 10.4494 26.7573C10.6655 26.6321 10.9127 26.5706 11.1623 26.5797C11.3998 26.5741 11.6347 26.6295 11.8446 26.7406C12.0436 26.8471 12.2046 27.0129 12.3051 27.215C12.4231 27.4535 12.4802 27.7174 12.4716 27.9834V30.4799H12.0111V28.0166C12.0167 27.8801 11.9951 27.7438 11.9475 27.6156C11.8998 27.4875 11.8272 27.3702 11.7337 27.2705C11.6411 27.1773 11.5302 27.1046 11.4079 27.0568C11.2856 27.009 11.1547 26.9873 11.0236 26.9931C10.8307 26.9866 10.6395 27.0306 10.4688 27.1207C10.3122 27.2103 10.1828 27.3406 10.0943 27.4979C10.0103 27.6781 9.97307 27.8765 9.98612 28.0749V28.0749Z" fill="white"/>
<path d="M15.0263 30.5576C14.7296 30.5635 14.4386 30.4762 14.1941 30.3079C13.9481 30.1307 13.7561 29.8887 13.6393 29.6089C13.5001 29.2791 13.4321 28.9237 13.4396 28.5659C13.4314 28.2098 13.4995 27.856 13.6393 27.5284C13.7556 27.2491 13.9478 27.0079 14.1941 26.8322C14.4389 26.6646 14.7297 26.5773 15.0263 26.5825C15.2287 26.5755 15.4297 26.6184 15.6116 26.7073C15.7573 26.7803 15.8852 26.8845 15.9861 27.0125C16.0727 27.1219 16.1463 27.241 16.2052 27.3675H16.2441V25.3537H16.6934V30.4771H16.2663V29.7642H16.2136C16.1531 29.8922 16.0786 30.0131 15.9916 30.1248C15.888 30.253 15.7585 30.3579 15.6116 30.4327C15.4298 30.5219 15.2287 30.5648 15.0263 30.5576ZM15.079 30.1498C15.3085 30.1568 15.5336 30.0854 15.717 29.9473C15.9 29.8033 16.0393 29.6112 16.1192 29.3925C16.306 28.862 16.306 28.2836 16.1192 27.7531C16.0395 27.5343 15.9002 27.3421 15.717 27.1983C15.5283 27.0626 15.3017 26.9897 15.0693 26.9897C14.8369 26.9897 14.6103 27.0626 14.4216 27.1983C14.2405 27.3441 14.1016 27.5356 14.0194 27.7531C13.8362 28.2738 13.8362 28.8413 14.0194 29.362C14.1013 29.5866 14.241 29.7856 14.4244 29.939C14.6114 30.0833 14.8429 30.1578 15.079 30.1498V30.1498Z" fill="white"/>
<path d="M19.7504 25.7725V25.3537H23.4813V25.7725H21.8502V30.4882H21.3814V25.7725H19.7504Z" fill="white"/>
<path d="M25.3869 30.5576C25.0734 30.5635 24.7652 30.4756 24.502 30.3051C24.244 30.13 24.0379 29.8885 23.9056 29.6061C23.7556 29.2822 23.6816 28.9283 23.6893 28.5714C23.6818 28.2128 23.7558 27.8571 23.9056 27.5312C24.0364 27.2478 24.2427 27.0059 24.502 26.8322C24.7652 26.6617 25.0734 26.5738 25.3869 26.5797C25.6997 26.5726 26.0073 26.6607 26.269 26.8322C26.5291 27.0058 26.7364 27.2476 26.8682 27.5312C27.0118 27.8577 27.0859 28.2106 27.0859 28.5673C27.0859 28.924 27.0118 29.2768 26.8682 29.6033C26.7355 29.8872 26.5273 30.129 26.2662 30.3024C26.0056 30.4743 25.6991 30.5633 25.3869 30.5576V30.5576ZM25.3869 30.1498C25.6324 30.1574 25.8731 30.0811 26.0693 29.9334C26.26 29.7856 26.406 29.5878 26.4909 29.362C26.687 28.8541 26.687 28.2915 26.4909 27.7836C26.4069 27.5564 26.2632 27.3562 26.0748 27.2039C25.8757 27.063 25.6378 26.9873 25.3938 26.9873C25.1499 26.9873 24.912 27.063 24.7128 27.2039C24.5229 27.3565 24.3765 27.5565 24.2884 27.7836C24.095 28.292 24.095 28.8536 24.2884 29.362C24.3754 29.5875 24.5221 29.785 24.7128 29.9334C24.9067 30.0795 25.1442 30.1557 25.3869 30.1498V30.1498Z" fill="white"/>
<path d="M29.5423 32C29.3072 32.0048 29.0729 31.971 28.8488 31.9001C28.6652 31.8406 28.4948 31.7465 28.3467 31.6228C28.2178 31.5132 28.1106 31.3806 28.0305 31.2316L28.3994 30.9903C28.4607 31.0915 28.5343 31.1847 28.6185 31.2677C28.7238 31.3691 28.8483 31.4483 28.9847 31.5007C29.1621 31.5664 29.3504 31.5975 29.5395 31.5922C29.8384 31.6088 30.1334 31.5183 30.3717 31.337C30.4824 31.2385 30.5686 31.1154 30.6235 30.9777C30.6784 30.84 30.7004 30.6914 30.6879 30.5437V29.681H30.6491C30.5902 29.8071 30.5147 29.9247 30.4244 30.0305C30.3182 30.1494 30.1876 30.244 30.0416 30.3079C29.8599 30.391 29.6615 30.4309 29.4618 30.4244C29.1682 30.4309 28.8791 30.3518 28.6296 30.197C28.3871 30.0361 28.1948 29.8102 28.0749 29.5451C27.9313 29.2273 27.8611 28.8812 27.8696 28.5326C27.8622 28.1802 27.9303 27.8302 28.0693 27.5062C28.1865 27.2289 28.3786 26.9898 28.6241 26.8155C28.8692 26.6489 29.16 26.5626 29.4563 26.5687C29.6596 26.5614 29.8615 26.6043 30.0443 26.6935C30.1901 26.7665 30.3179 26.8706 30.4188 26.9986C30.5061 27.1086 30.5815 27.2277 30.6435 27.3537H30.6879V26.6297H31.1234V30.5714C31.1348 30.8542 31.0624 31.1341 30.9154 31.3759C30.7809 31.583 30.5878 31.7453 30.3606 31.8419C30.1011 31.9489 29.8229 32.0027 29.5423 32V32ZM29.5117 30.0305C29.7366 30.0371 29.9581 29.9752 30.147 29.853C30.3292 29.7239 30.4699 29.5447 30.552 29.337C30.6517 29.0828 30.6998 28.8112 30.6934 28.5381C30.6978 28.2655 30.6507 27.9945 30.5547 27.7393C30.4761 27.5199 30.3366 27.3274 30.1525 27.1845C29.9682 27.046 29.7422 26.9746 29.5117 26.982C29.2739 26.9703 29.0395 27.0419 28.8488 27.1845C28.665 27.3277 28.5256 27.5201 28.4466 27.7393C28.3525 27.9892 28.3064 28.2545 28.3106 28.5215C28.3054 28.7877 28.3515 29.0523 28.4466 29.301C28.53 29.5101 28.6703 29.6917 28.8516 29.8252C29.0441 29.9622 29.2754 30.0342 29.5117 30.0305V30.0305Z" fill="white"/>
<path d="M33.8807 30.5576C33.5515 30.566 33.227 30.4793 32.9458 30.3079C32.681 30.1367 32.4695 29.8944 32.3356 29.6089C32.1947 29.2836 32.1221 28.9329 32.1221 28.5784C32.1221 28.2239 32.1947 27.8732 32.3356 27.5479C32.4653 27.2616 32.6717 27.0167 32.932 26.8405C33.193 26.6669 33.5007 26.5769 33.8141 26.5825C34.0211 26.5813 34.2264 26.6199 34.4188 26.6963C34.619 26.7726 34.8006 26.8908 34.9514 27.043C35.1143 27.2109 35.2401 27.4113 35.3203 27.6311C35.4149 27.8981 35.4609 28.18 35.4562 28.4632V28.6824H32.4299V28.294H34.9902C34.9939 28.0634 34.9426 27.8351 34.8404 27.6283C34.7476 27.4359 34.6036 27.2728 34.4243 27.1567C34.2428 27.0394 34.0302 26.9795 33.8141 26.9847C33.5837 26.9808 33.3578 27.0487 33.1678 27.1789C32.9808 27.312 32.8309 27.4905 32.7323 27.6976C32.6282 27.917 32.5742 28.1567 32.5741 28.3994V28.6325C32.568 28.908 32.622 29.1816 32.7323 29.4341C32.8307 29.6495 32.9885 29.8323 33.1872 29.9612C33.3963 30.0897 33.638 30.1552 33.8834 30.1498C34.0476 30.1538 34.2108 30.1246 34.3633 30.0638C34.4941 30.0126 34.613 29.9352 34.7128 29.8363C34.8051 29.7463 34.8787 29.6388 34.9292 29.5201L35.3536 29.656C35.294 29.8238 35.1995 29.977 35.0762 30.1054C34.9348 30.248 34.7659 30.3603 34.5797 30.4355C34.3569 30.5217 34.1194 30.5631 33.8807 30.5576V30.5576Z" fill="white"/>
<path d="M37.9529 26.6297V27.0153H36.111V26.6297H37.9529ZM36.6879 25.7087H37.1373V29.4674C37.1304 29.5993 37.1592 29.7305 37.2205 29.8474C37.2713 29.9319 37.3468 29.9988 37.4369 30.0388C37.525 30.0748 37.6191 30.0937 37.7143 30.0943C37.765 30.099 37.8161 30.099 37.8669 30.0943L37.975 30.0694L38.0721 30.4743C38.0196 30.4929 37.9659 30.5078 37.9112 30.5187C37.8336 30.5343 37.7546 30.5418 37.6755 30.5409C37.5104 30.5408 37.3474 30.5038 37.1983 30.4327C37.0483 30.3613 36.92 30.2512 36.8266 30.1137C36.726 29.9558 36.6757 29.7711 36.6824 29.5839L36.6879 25.7087Z" fill="white"/>
<path d="M39.5007 28.0749V30.4771H39.0541V25.3537H39.5007V27.2372H39.5395C39.629 27.0402 39.776 26.8748 39.9612 26.7628C40.1809 26.6366 40.4319 26.5751 40.6851 26.5853C40.924 26.5801 41.1604 26.6344 41.3731 26.7434C41.5711 26.8521 41.7323 27.0172 41.8363 27.2177C41.9543 27.4572 42.0114 27.7221 42.0028 27.9889V30.4854H41.5506V28.0166C41.5569 27.88 41.5355 27.7435 41.4879 27.6153C41.4402 27.4871 41.3672 27.3698 41.2732 27.2704C41.1805 27.1768 41.0691 27.1038 40.9463 27.056C40.8234 27.0082 40.692 26.9868 40.5603 26.9931C40.3676 26.9882 40.1768 27.0321 40.0055 27.1207C39.8453 27.2084 39.7128 27.339 39.6227 27.4979C39.5328 27.6764 39.4907 27.8752 39.5007 28.0749V28.0749Z" fill="white"/>
<path d="M44.7406 30.5576C44.4115 30.566 44.0869 30.4793 43.8058 30.3079C43.541 30.1366 43.3295 29.8944 43.1956 29.6089C43.0547 29.2836 42.9821 28.9328 42.9821 28.5784C42.9821 28.2239 43.0547 27.8731 43.1956 27.5478C43.3253 27.2615 43.5317 27.0167 43.792 26.8405C44.0526 26.666 44.3605 26.576 44.6741 26.5825C44.8811 26.5813 45.0864 26.6199 45.2788 26.6962C45.4755 26.773 45.6534 26.8913 45.8003 27.043C45.9648 27.2102 46.0915 27.4107 46.172 27.6311C46.2665 27.8981 46.3126 28.18 46.3079 28.4632V28.6824H43.2899V28.294H45.8502C45.8544 28.063 45.802 27.8344 45.6977 27.6283C45.6067 27.4356 45.4635 27.2722 45.2843 27.1567C45.0944 27.0406 44.8754 26.9809 44.6528 26.9849C44.4302 26.9888 44.2134 27.0561 44.0277 27.1789C43.8401 27.3108 43.6893 27.4884 43.5895 27.6949C43.4855 27.9142 43.4314 28.1539 43.4314 28.3967V28.6297C43.4252 28.9052 43.4792 29.1788 43.5895 29.4313C43.6871 29.6472 43.8451 29.8302 44.0444 29.9584C44.2534 30.0872 44.4952 30.1527 44.7406 30.147C44.9048 30.1511 45.068 30.1218 45.2205 30.061C45.3513 30.0098 45.4702 29.9324 45.57 29.8336C45.6623 29.7435 45.7359 29.636 45.7864 29.5173L46.2108 29.6533C46.1512 29.821 46.0567 29.9742 45.9334 30.1026C45.7915 30.2446 45.6227 30.3568 45.4369 30.4327C45.2152 30.5195 44.9787 30.5619 44.7406 30.5576Z" fill="white"/>
<path d="M47.2926 30.4771V26.6297H47.7281V27.2178H47.7614C47.8398 27.0219 47.9813 26.8579 48.1636 26.7517C48.3589 26.6298 48.5853 26.5672 48.8155 26.5714H48.9403H49.0513V27.0236L48.9459 27.0069C48.8913 27.0039 48.8367 27.0039 48.7822 27.0069C48.5949 27.0034 48.4098 27.0473 48.2441 27.1345C48.0924 27.2152 47.9651 27.3349 47.8751 27.4813C47.7844 27.6349 47.7374 27.8105 47.7392 27.9889V30.4854L47.2926 30.4771Z" fill="white"/>
<path d="M92.2136 26.0915C92.0749 26.2385 91.9362 26.3689 91.7865 26.5187C91.5486 26.7379 91.2488 26.8785 90.9282 26.9212C90.6075 26.9639 90.2815 26.9066 89.9945 26.7573C89.9418 26.7379 89.8891 26.7157 89.8724 26.663C89.913 26.6158 89.9566 26.5714 90.0028 26.5298C90.6048 25.9251 91.2067 25.3121 91.817 24.7101C92.0007 24.5334 92.161 24.3339 92.2941 24.1165C92.3135 24.0888 92.3274 24.0721 92.344 24.0721C92.3606 24.0721 92.3745 24.0915 92.3967 24.1276C92.5096 24.2951 92.587 24.4839 92.6242 24.6824C92.6752 24.9329 92.6645 25.1922 92.593 25.4377C92.5215 25.6832 92.3913 25.9076 92.2136 26.0915V26.0915Z" fill="#B5F456"/>
<path d="M92.0943 22.9736C92.0991 23.207 92.0566 23.4388 91.9694 23.6553C91.8821 23.8717 91.752 24.0682 91.5867 24.233C90.9043 24.9293 90.2191 25.62 89.5257 26.2996C89.3954 26.4288 89.2408 26.5309 89.0708 26.5999C88.9008 26.669 88.7188 26.7036 88.5354 26.7018C88.1581 26.7023 87.7956 26.5549 87.5257 26.2913C87.3287 26.0915 87.1318 25.9057 86.9459 25.7087C86.6811 25.4399 86.5327 25.0777 86.5327 24.7004C86.5327 24.3231 86.6811 23.9609 86.9459 23.6921L87.9085 22.724L88.9792 21.6532C89.2078 21.4212 89.4956 21.2562 89.8114 21.1761C90.0496 21.1146 90.2979 21.102 90.5412 21.139C90.7844 21.176 91.0177 21.2619 91.2269 21.3915C91.4361 21.5211 91.6168 21.6917 91.7583 21.8931C91.8997 22.0944 91.9989 22.3224 92.0499 22.5631C92.0789 22.698 92.0938 22.8356 92.0943 22.9736V22.9736Z" fill="#B5F456"/>
<path d="M88.6075 21.2899C87.9307 21.975 87.2483 22.6519 86.5742 23.3287C86.3032 23.5947 85.9388 23.7441 85.559 23.7448C85.1815 23.7449 84.8194 23.5952 84.552 23.3287C84.3662 23.1401 84.1692 22.9542 83.9834 22.7573C83.7152 22.488 83.5647 22.1235 83.5647 21.7434C83.5647 21.3634 83.7152 20.9988 83.9834 20.7296L86.0056 18.7018C86.3773 18.3495 86.8128 18.172 87.559 18.172C88.1692 18.172 88.9709 18.8072 89.1013 19.7115C89.1559 19.9949 89.1395 20.2875 89.0533 20.5629C88.9671 20.8384 88.8139 21.0882 88.6075 21.2899V21.2899Z" fill="#B5F456"/>
<path d="M83.2371 14.0971C83.2409 14.3363 83.1964 14.5738 83.1063 14.7954C83.0162 15.017 82.8824 15.2182 82.7129 15.387L80.6879 17.4119C80.4174 17.6821 80.0508 17.8339 79.6685 17.8339C79.2862 17.8339 78.9195 17.6821 78.6491 17.4119L78.0943 16.8571C77.8275 16.5871 77.6779 16.2228 77.6779 15.8433C77.6779 15.4637 77.8275 15.0994 78.0943 14.8294C78.7656 14.1442 79.4507 13.4674 80.1248 12.7933C80.29 12.6262 80.4871 12.4939 80.7044 12.4043C80.9216 12.3147 81.1547 12.2697 81.3897 12.2718H81.4258C81.6652 12.2703 81.9026 12.3166 82.1239 12.408C82.3453 12.4994 82.5462 12.634 82.7149 12.804C82.8836 12.9739 83.0166 13.1758 83.1063 13.3979C83.196 13.6199 83.2405 13.8576 83.2371 14.0971V14.0971Z" fill="#B5F456"/>
<path d="M85.6838 18.3079C85.5285 18.4854 85.3509 18.6408 85.1845 18.8072L83.6616 20.3356C83.4774 20.5312 83.2403 20.669 82.9792 20.7323C82.8554 20.7604 82.7289 20.7753 82.602 20.7767C82.2493 20.7761 81.9101 20.6412 81.6533 20.3994C81.4342 20.1914 81.2178 19.9834 81.0097 19.7642C80.7608 19.4905 80.6248 19.1326 80.6289 18.7626C80.633 18.3926 80.777 18.0379 81.0319 17.7698C81.4342 17.362 81.8281 16.9681 82.233 16.5631L82.6353 16.1581L83.0319 15.7614C83.2848 15.5033 83.6096 15.3274 83.964 15.2566C84.0952 15.2224 84.2308 15.2083 84.3662 15.215H84.3884C84.8059 15.2183 85.2095 15.3659 85.5306 15.6329C85.8516 15.8998 86.0704 16.2697 86.1498 16.6796C86.215 16.9683 86.2064 17.2688 86.125 17.5533C86.0436 17.8379 85.8918 18.0974 85.6838 18.3079Z" fill="#B5F456"/>
<path d="M103.856 9.10679C103.737 11.155 102.837 13.0794 101.34 14.4827C101.325 14.4912 101.311 14.5015 101.298 14.5132C101.278 14.5082 101.26 14.4993 101.244 14.4868C101.227 14.4744 101.214 14.4589 101.204 14.441C99.9112 13.1706 92.9681 6.19694 92.8322 6.01941C92.8849 5.93619 92.9681 5.88626 93.0291 5.80304C93.0584 5.77153 93.0789 5.73292 93.0887 5.69104C93.0984 5.64915 93.0971 5.60545 93.0847 5.56425C93.0724 5.52305 93.0495 5.48578 93.0183 5.45615C92.9872 5.42651 92.9488 5.40553 92.9071 5.39528C92.8841 5.3915 92.8607 5.3915 92.8377 5.39528C92.782 5.39921 92.7293 5.42167 92.6879 5.45908C92.6352 5.50069 92.5936 5.55339 92.5409 5.595L89.2482 8.89042C89.158 8.98379 89.0606 9.07004 88.957 9.1484C88.7098 9.3269 88.4219 9.44074 88.1195 9.47956C87.8171 9.51838 87.5098 9.48095 87.2256 9.37067C86.9413 9.26039 86.6892 9.08077 86.4921 8.84815C86.295 8.61554 86.1592 8.33732 86.0971 8.03883C86.0119 7.67719 86.0602 7.29698 86.233 6.96809C86.4077 6.63779 86.6312 6.33573 86.896 6.07211C87.1539 5.79472 87.423 5.54229 87.6838 5.28432C88.4688 4.49375 89.2483 3.71428 90.025 2.92371C90.4777 2.45379 90.9864 2.0411 91.5395 1.69486C92.3768 1.16914 93.3056 0.805895 94.2774 0.624125C94.6011 0.558205 94.9294 0.516481 95.2593 0.499298H96.3079C97.4059 0.558912 98.4788 0.850072 99.4563 1.35367C100.871 2.07411 102.044 3.19413 102.829 4.57483C103.613 5.95552 103.975 7.53615 103.87 9.12066L103.856 9.10679Z" fill="#B5F456"/>
<path d="M100.799 16.9209C100.655 17.0763 100.521 17.2233 100.355 17.3675C100.067 17.6416 99.6847 17.7945 99.2871 17.7947C98.8712 17.7951 98.4721 17.6305 98.1775 17.337L97.9722 17.129C95.8067 14.9561 93.6384 12.7813 91.4674 10.6047C91.4191 10.5521 91.3672 10.503 91.312 10.4577C91.2663 10.4233 91.2111 10.404 91.1539 10.4022C91.1052 10.4025 91.0576 10.4169 91.0169 10.4436C90.9762 10.4703 90.944 10.5082 90.9244 10.5528C90.9048 10.5974 90.8984 10.6467 90.9062 10.6948C90.9139 10.7429 90.9354 10.7877 90.9681 10.8238C91.0097 10.8738 91.0707 10.9265 91.1234 10.9792L97.6699 17.5478C97.7337 17.6116 97.8058 17.6727 97.8668 17.7448C98.1366 18.0361 98.2866 18.4185 98.2866 18.8155C98.2866 19.2126 98.1366 19.595 97.8668 19.8863C97.6893 20.0749 97.5145 20.2496 97.3259 20.441C97.0653 20.6966 96.7145 20.8391 96.3495 20.8377C96.1634 20.8379 95.979 20.8013 95.8072 20.7299C95.6353 20.6584 95.4793 20.5537 95.3481 20.4216C95.2899 20.3578 95.2233 20.2968 95.1511 20.2219L88.5215 13.5645C88.4716 13.5134 88.4188 13.4653 88.3634 13.4202C88.3209 13.3887 88.2692 13.3721 88.2163 13.3731C88.1659 13.3712 88.1165 13.388 88.0776 13.4202C88.0373 13.4485 88.0065 13.4882 87.9892 13.5342C87.9719 13.5802 87.9689 13.6304 87.9806 13.6782C87.9912 13.722 88.0132 13.7622 88.0444 13.7947L88.208 13.9612L94.8682 20.6463C94.9859 20.7587 95.0902 20.8844 95.1789 21.0208C95.332 21.2579 95.4271 21.5278 95.4563 21.8086C95.4693 21.9928 95.4408 22.1777 95.3731 22.3495C95.2908 22.5572 95.1672 22.7459 95.0097 22.9043C94.8571 23.0596 94.7018 23.2261 94.5437 23.3731C94.393 23.5215 94.2145 23.6387 94.0183 23.7177C93.8222 23.7967 93.6123 23.8361 93.4008 23.8336C93.3186 23.8377 93.2362 23.8377 93.1539 23.8336C92.9717 23.8084 92.7978 23.741 92.6463 23.6366C92.6055 23.6101 92.5732 23.5726 92.553 23.5284C92.5329 23.4841 92.5258 23.4351 92.5326 23.387C92.5326 23.2926 92.5686 23.2094 92.5742 23.1096C92.6379 22.8204 92.6088 22.5185 92.491 22.2469C92.3611 21.8861 92.1484 21.5609 91.8699 21.2973C91.5914 21.0338 91.255 20.8393 90.8876 20.7295C90.6858 20.6654 90.4753 20.6326 90.2635 20.6324C90.1594 20.6326 90.0556 20.6409 89.9528 20.6574C89.8918 20.6574 89.8391 20.6574 89.7781 20.6768C89.6421 20.6768 89.5811 20.6158 89.5811 20.4688C89.5837 20.4166 89.5901 20.3647 89.6005 20.3134C89.6739 19.7506 89.5398 19.1802 89.2233 18.709C88.9068 18.2378 88.4295 17.898 87.8807 17.7531C87.6891 17.7005 87.4913 17.6735 87.2926 17.6727C87.1764 17.6734 87.0604 17.6836 86.9459 17.7032C86.9322 17.7003 86.918 17.7003 86.9043 17.7032H86.8294C86.6768 17.7032 86.6186 17.6144 86.6463 17.4258C86.7267 16.9449 86.6553 16.4509 86.442 16.0124C86.2288 15.574 85.8842 15.2128 85.4563 14.9792C85.1153 14.7956 84.7339 14.7003 84.3467 14.7018C84.2215 14.702 84.0964 14.7103 83.9722 14.7268C83.9473 14.7268 83.9223 14.7268 83.9001 14.7268H83.8807C83.8561 14.7271 83.8316 14.7226 83.8087 14.7134C83.7858 14.7042 83.765 14.6906 83.7475 14.6733C83.7299 14.656 83.716 14.6354 83.7065 14.6127C83.697 14.5899 83.6921 14.5655 83.6921 14.5409C83.6862 14.5023 83.6862 14.463 83.6921 14.4244C83.7393 14.1105 83.7216 13.7902 83.64 13.4834C83.5584 13.1766 83.4147 12.8898 83.2177 12.6408C83.1678 12.577 83.1179 12.5187 83.0652 12.4632C82.909 12.3 82.7295 12.1607 82.5326 12.0499C82.4688 12.0139 82.4022 11.9806 82.3356 11.9501C82.1969 11.8906 82.053 11.8442 81.9057 11.8114L81.6726 11.7698C81.5724 11.7565 81.4714 11.75 81.3703 11.7503C80.7861 11.7502 80.2238 11.9723 79.7975 12.3717C79.6727 12.4854 79.5589 12.5992 79.4452 12.7157L77.767 14.3994C77.7032 14.4605 77.6754 14.491 77.6477 14.491C77.6199 14.491 77.5894 14.4605 77.5284 14.3994C76.6992 13.5912 76.0536 12.614 75.6353 11.5342C75.217 10.4545 75.0358 9.2974 75.104 8.14146C75.1494 7.20997 75.3607 6.29407 75.7281 5.43689C76.4 3.82499 77.5781 2.47549 79.0846 1.59222C79.8725 1.11746 80.74 0.789458 81.6449 0.624125C81.976 0.557312 82.3117 0.515584 82.6491 0.499298H83.7281C84.6077 0.545775 85.4728 0.742807 86.2857 1.08182C87.3401 1.52013 88.2901 2.17614 89.0735 3.00693C89.0957 3.02634 89.104 3.04854 89.1262 3.06795C89.0735 3.12066 89.0263 3.17336 88.9736 3.22329C88.049 4.14793 87.1364 5.06333 86.2358 5.96948C85.9344 6.26531 85.7187 6.63713 85.6115 7.04556C85.5043 7.45399 85.5095 7.88382 85.6266 8.28953C85.7437 8.69523 85.9684 9.0617 86.2769 9.35012C86.5853 9.63854 86.966 9.83817 87.3786 9.92787C87.5528 9.9651 87.7304 9.9837 87.9084 9.98335C88.2124 9.98417 88.5132 9.92255 88.7924 9.8023C89.0715 9.68206 89.323 9.50575 89.5312 9.28432C90.4521 8.36892 91.3536 7.45353 92.2746 6.54091C92.3273 6.4882 92.3717 6.40498 92.4299 6.40498C92.4882 6.40498 92.5548 6.4993 92.6075 6.54923C95.3019 9.24179 97.9917 11.9417 100.677 14.6491C100.752 14.7212 100.824 14.7933 100.896 14.8766C101.131 15.1707 101.251 15.5407 101.234 15.9171C101.216 16.2934 101.061 16.6504 100.799 16.9209V16.9209Z" fill="#B5F456"/>
<path d="M12.7184 1.17059H17.0735V14.4854C17.1105 15.8541 16.7452 17.2035 16.0228 18.3667C15.3005 19.5298 14.2529 20.4555 13.0097 21.0291C11.6088 21.6767 10.0783 21.9955 8.53536 21.9612C6.98965 21.996 5.45642 21.6772 4.05269 21.0291C2.80845 20.4572 1.7604 19.5311 1.03959 18.3668C0.318774 17.2024 -0.042828 15.8514 -1.1432e-05 14.4827V1.16782H4.35505V14.1137C4.3407 14.8399 4.51666 15.5571 4.86545 16.1942C5.21187 16.7995 5.72125 17.2954 6.33563 17.6255C7.01232 17.9843 7.76962 18.1638 8.53536 18.147C9.30215 18.1654 10.0607 17.9858 10.7379 17.6255C11.3534 17.298 11.8625 16.8014 12.2053 16.1942C12.5596 15.5589 12.7395 14.8411 12.7268 14.1137L12.7184 1.17059Z" fill="white"/>
<path d="M24.8572 12.7823V21.6588H20.5742V6.29682H24.6574V9.00694H24.8377C25.1644 8.13177 25.7684 7.38749 26.5576 6.88767C27.4335 6.3412 28.4523 6.06791 29.4841 6.10264C30.4641 6.07819 31.4328 6.31771 32.2885 6.79613C33.0905 7.26848 33.7374 7.96449 34.1498 8.7989C34.6137 9.7585 34.841 10.8153 34.8128 11.8807V21.6699H30.5298V12.6408C30.5298 11.7004 30.2941 10.9764 29.8058 10.4383C29.5459 10.1678 29.2307 9.95638 28.8818 9.81853C28.5328 9.68068 28.1583 9.61958 27.7837 9.6394C27.2509 9.62828 26.7243 9.75539 26.2552 10.0083C25.819 10.2644 25.4671 10.6424 25.2427 11.0957C24.9846 11.6202 24.8526 12.1977 24.8572 12.7823V12.7823Z" fill="white"/>
<path d="M38.1887 21.6699V6.29681H42.4716V21.6699H38.1887ZM40.3385 4.31346C39.7318 4.32409 39.1449 4.09827 38.7018 3.68377C38.4876 3.49074 38.3167 3.25444 38.2005 2.99049C38.0843 2.72655 38.0255 2.44095 38.0278 2.15257C38.0254 1.86701 38.0843 1.58426 38.2006 1.32344C38.3169 1.06263 38.4878 0.829824 38.7018 0.640779C39.1415 0.219689 39.7298 -0.0106235 40.3385 2.32756e-06C40.6392 -0.00603902 40.9381 0.0474675 41.218 0.15744C41.4979 0.267413 41.7534 0.43168 41.9695 0.640779C42.1857 0.828581 42.3586 1.06095 42.4763 1.32191C42.5941 1.58288 42.654 1.86626 42.6519 2.15257C42.6539 2.44169 42.5941 2.7279 42.4764 2.99199C42.3587 3.25608 42.1859 3.49195 41.9695 3.68377C41.5295 4.09946 40.9437 4.3256 40.3385 4.31346V4.31346Z" fill="white"/>
<path d="M54.2081 6.29681V9.49792H44.6769V6.29681H54.2081ZM46.8572 21.6699V5.18447C46.8206 4.21765 47.0468 3.259 47.5118 2.41054C47.9351 1.68771 48.565 1.10806 49.3204 0.746189C50.1358 0.367294 51.0262 0.177638 51.9251 0.191404C52.5285 0.186842 53.1311 0.236977 53.7254 0.341196C54.1385 0.412935 54.5477 0.505518 54.9515 0.618588L54.1887 3.82247C53.9836 3.76106 53.7752 3.71105 53.5645 3.67268C53.3195 3.62574 53.0706 3.60252 52.8211 3.60333C52.1887 3.60333 51.7495 3.74942 51.5035 4.04161C51.2319 4.39114 51.0994 4.82897 51.1318 5.27046V21.6699H46.8572Z" fill="white"/>
<path d="M59.4702 27.4341C58.9578 27.4378 58.4461 27.3942 57.9418 27.3037C57.5424 27.2439 57.1509 27.1407 56.7739 26.9958L57.7393 23.8114C58.1784 23.954 58.6345 24.038 59.0957 24.061C59.4689 24.0867 59.8402 23.9893 60.1526 23.7836C60.4966 23.5269 60.7532 23.1705 60.8877 22.7628L61.1373 22.1137L55.5895 6.30236H60.0943L63.301 17.5867H63.4619L66.688 6.29681H71.2233L65.2205 23.3315C64.9566 24.1145 64.5587 24.8457 64.0444 25.4924C63.5517 26.1158 62.9122 26.6076 62.1831 26.9237C61.3256 27.2855 60.4006 27.4595 59.4702 27.4341V27.4341Z" fill="white"/>
</g>
<defs>
<clipPath id="clip0_815_8891">
<rect width="104.369" height="32" fill="white"/>
</clipPath>
</defs>
</svg>
