<svg width="240" height="241" viewBox="0 0 240 241" fill="none" xmlns="http://www.w3.org/2000/svg">
<path d="M195.416 39.7407C234.172 74.7616 251.914 130.08 231.353 178.674C211.631 225.286 160.166 244.084 110.801 239.721C62.5077 235.452 18.538 206.634 5.62617 158.723C-8.81068 105.153 4.00416 44.0086 50.2454 15.0191C96.5153 -13.9882 154.728 2.97348 195.416 39.7407Z" fill="url(#paint0_linear_7307_27010)"/>
<path d="M56.3222 72.2398C45.1068 80.1321 36.3836 101.316 57.568 106.033C78.7525 110.749 84.4993 140.833 73.9993 154.833C59.5681 168.511 39.9992 177.332 39.9992 177.332" stroke="#7C2BF1" stroke-miterlimit="10" stroke-dasharray="10 10"/>
<path d="M73.2148 215.112V203.481H117.599L121.374 214.5L73.2148 215.112Z" fill="#CBAAF9"/>
<path d="M195.501 167.815C192.622 151.141 182.427 136.22 165.863 130.879C161.626 129.521 157.293 128.481 152.901 127.767V127.79C152.672 129.174 152.13 130.488 151.315 131.63C149.589 133.995 147.21 135.938 144.455 136.95C141.643 137.991 138.159 138.126 135.549 136.489C133.978 135.505 132.454 133.773 132.178 131.904C131.864 129.798 132.937 127.804 134.448 126.412C121.649 126.516 116.884 130.63 107.089 135.119C107.423 136.519 101.885 139.405 99.5385 141.853C97.1917 144.302 85.2455 155.225 86.6825 156.628C88.4748 154.852 81.2897 163.905 82.6012 161.749C83.8558 162.16 91.678 162.719 92.4983 163.754C93.3184 164.788 101.057 162.438 101.171 163.754L109.946 162.668C110.452 167.445 119.524 164.541 115.659 166.749C111.195 169.316 107.999 171.885 103.11 173.483C101.093 174.144 95.1368 168.459 93.0085 167.769C90.0047 173.478 91.9741 173.246 91.7575 173.141C89.6353 172.1 87.7906 171.28 86.6825 169.286C83.5257 163.623 81.0646 179.477 79.6729 173.141C70.5921 177.426 69.8085 174.067 69.2351 172.463L61.5828 161.137C61.1493 162.797 58.5869 160.925 58.9299 162.607C59.2732 164.288 64.1044 182.124 65.1539 183.482C66.2032 184.84 57.8472 161.851 59.3877 162.607C60.9283 163.362 62.6217 163.755 64.3376 163.754H98.5426L114.08 203.607L118.484 214.919H143.636C141.596 214.919 140.48 214.421 139.669 213.608C138.833 212.771 138.362 211.637 138.359 210.454C138.359 208.005 140.369 205.997 143.636 205.997H143.867C143.62 205.997 143.383 205.974 143.137 205.952C143.29 205.935 143.441 205.91 143.592 205.876C143.43 205.873 143.268 205.86 143.108 205.84C144.581 205.666 145.947 204.979 146.966 203.901C147.984 202.822 148.592 201.419 148.681 199.938C148.685 199.861 148.685 199.784 148.681 199.708V199.589C148.646 198.071 148.065 196.616 147.046 195.49C146.026 194.364 144.636 193.643 143.128 193.457C143.3 193.443 143.463 193.429 143.628 193.429C143.479 193.392 143.314 193.369 143.159 193.347C143.404 193.325 143.651 193.308 143.887 193.308L162.29 193.406L165.675 193.42H169.693C169.879 193.42 170.067 193.42 170.244 193.443L176.213 193.474L180.2 193.496C181.867 193.51 183.46 194.183 184.631 195.369C185.803 196.554 186.457 198.155 186.451 199.822C186.449 200.764 186.23 201.693 185.812 202.538C187.523 202.319 189.109 201.528 190.314 200.293C193.185 197.361 194.422 192.972 195.277 189.07C196.789 182.119 196.699 174.796 195.501 167.815ZM149.007 168.284C145.54 173.62 139.637 173.141 139.637 173.141C139.637 173.141 139.147 173.618 138.004 171.586C136.862 169.553 133.607 168.164 133.607 168.164C133.348 170.204 132.811 173.306 127.485 169.286C122.159 165.266 123.765 159.405 124.22 156.31C124.675 153.214 126.489 152.188 126.489 152.188L128.632 151.057C128.632 151.057 122.434 149.463 122.136 149.404C121.838 149.345 116.319 144.723 121.92 143.503C127.522 142.282 136.253 147.135 137.941 148.094C139.629 149.053 149.491 157.395 149.491 157.395C149.491 157.395 152.493 162.956 149.007 168.284Z" fill="#CBAAF9"/>
<path d="M133.984 154.146C131.841 151.571 125.976 150.112 122.148 149.406C121.505 149.285 120.918 148.958 120.476 148.475C120.034 147.992 119.762 147.378 119.699 146.727C119.655 146.287 119.706 145.843 119.848 145.425C120.076 144.782 120.514 144.236 121.09 143.872C121.666 143.508 122.348 143.347 123.025 143.417C129.555 144.078 136.29 146.133 141.271 150.559C141.271 150.559 165.417 168.986 168.301 170.779C169.491 171.502 170.601 170.649 169.795 169.514L169.542 169.082C168.122 166.646 166.442 164.372 164.532 162.299" stroke="#7C2BF1" stroke-width="1.3436" stroke-miterlimit="10"/>
<path d="M134.331 126.448C104.05 126.713 85.356 158.384 85.356 158.384C81.0661 161.058 86.0414 171.435 83.1113 182.871" stroke="#7C2BF1" stroke-width="1.3436" stroke-miterlimit="10"/>
<path d="M181.598 205.907C181.598 205.907 178.29 205.158 177.411 207.807C176.531 210.455 175.613 214.669 181.937 214.918C188.261 215.167 184.547 213.924 184.182 211.878C183.816 209.831 181.598 205.907 181.598 205.907Z" fill="#CBAAF9"/>
<path d="M131.066 157.508C131.066 157.508 127.497 154.803 124.283 157.545C124.147 157.664 124.029 157.802 123.932 157.953" stroke="#7C2BF1" stroke-width="1.3436" stroke-miterlimit="10"/>
<path d="M130.637 161.446C130.637 161.446 123.86 159.218 123.758 162.965" stroke="#7C2BF1" stroke-width="1.3436" stroke-miterlimit="10"/>
<path opacity="0.54" d="M69.9728 199.612L56.6822 165.562C56.5175 164.903 56.5052 164.216 56.646 163.551C56.787 162.887 57.0776 162.263 57.4956 161.728C57.9137 161.193 58.4481 160.76 59.0587 160.462C59.669 160.164 60.3394 160.01 61.0185 160.01H113.81C114.995 160.01 116.146 160.409 117.077 161.142C118.008 161.876 118.665 162.902 118.942 164.054L133.491 198.096C133.649 198.753 133.655 199.437 133.51 200.096C133.365 200.756 133.073 201.374 132.655 201.904C132.236 202.434 131.704 202.863 131.096 203.158C130.489 203.452 129.822 203.606 129.147 203.606H75.0927C73.9161 203.607 72.7731 203.214 71.8455 202.49C70.9178 201.767 70.2587 200.754 69.9728 199.612Z" fill="white"/>
<path d="M132.841 167.19C132.841 167.19 133.941 168.198 133.523 169.639C133.213 170.706 132.151 171.38 131.101 171.014C127.754 169.857 124.74 167.892 124.005 164.552C123.658 162.86 123.583 161.124 123.783 159.409C123.944 157.82 124.179 156.103 124.713 154.591C125.53 152.269 128.029 150.651 130.456 151.769" stroke="#7C2BF1" stroke-width="1.3436" stroke-miterlimit="10"/>
<path d="M69.9728 199.612L56.6822 165.562C56.5175 164.903 56.5052 164.216 56.646 163.551C56.787 162.887 57.0776 162.263 57.4956 161.728C57.9137 161.193 58.4481 160.76 59.0587 160.462C59.669 160.164 60.3394 160.01 61.0185 160.01H113.81C114.995 160.01 116.146 160.409 117.077 161.142C118.008 161.876 118.665 162.902 118.942 164.054L133.491 198.096C133.649 198.753 133.655 199.437 133.51 200.096C133.365 200.756 133.073 201.374 132.655 201.904C132.236 202.434 131.704 202.863 131.096 203.158C130.489 203.452 129.822 203.606 129.147 203.606H75.0927C73.9161 203.607 72.7731 203.214 71.8455 202.49C70.9178 201.767 70.2587 200.754 69.9728 199.612Z" fill="#C1F672"/>
<path d="M176.148 193.312L185.486 214.92" stroke="#7C2BF1" stroke-width="1.3436" stroke-miterlimit="10"/>
<path d="M196.631 214.81L60.3848 214.81" stroke="#7C2BF1" stroke-width="1.3436" stroke-miterlimit="10"/>
<path d="M133.59 117.394C132.076 118.89 129.815 118.888 128.527 117.504" stroke="#7C2BF1" stroke-width="1.3436" stroke-miterlimit="10"/>
<path d="M116.133 97.5335C116.475 98.9616 117.257 100.246 118.368 101.206C119.479 102.166 120.864 102.753 122.326 102.884C122.448 102.295 122.711 101.744 123.093 101.28C124.726 99.356 125.422 102.966 130.644 100.374C137.88 96.7746 140.626 98.8397 140.626 98.8397C140.867 99.0193 140.831 100.676 140.871 100.978C141.075 102.698 141.259 104.41 141.461 106.129C141.584 107.178 141.704 108.218 141.818 109.259C141.917 109.082 142.026 108.911 142.145 108.747C142.804 106.414 143.981 103.66 146.52 104.845C147.034 105.096 147.481 105.464 147.826 105.921C149.509 108.133 148.234 110.269 146.473 111.851C146.031 112.341 145.538 112.783 145.002 113.167C145.291 113.767 146.475 116.148 146.475 116.157C146.597 116.397 150.734 111.716 151.042 111.206C151.502 109.956 151.749 108.638 151.772 107.306C151.84 101.831 149.611 95.4582 145.177 92.3177C144.077 91.5402 144.428 90.7913 144.361 89.7342C144.356 89.6771 144.334 89.6228 144.298 89.5783C144.262 89.5339 144.213 89.5014 144.158 89.4853C144.103 89.4692 144.044 89.4702 143.99 89.4879C143.935 89.5059 143.888 89.5398 143.853 89.5855C142.463 91.1853 139.023 91.0262 139.023 91.0262C127.081 88.0346 123.067 93.3443 120.657 94.2912C119.674 94.6636 118.591 94.6815 117.596 94.3422C117.537 94.6715 117.39 94.9787 117.169 95.2305C116.949 95.4823 116.664 95.669 116.345 95.7706L116.406 96.3234C116.458 96.7465 116.362 97.1742 116.133 97.5335Z" fill="#C1F672"/>
<path d="M122.335 102.893C120.872 102.761 119.488 102.174 118.377 101.214C117.266 100.254 116.484 98.9699 116.142 97.542C116.008 96.9943 115.923 96.4356 115.889 95.8728L115.983 95.8626C116.111 95.853 116.237 95.8255 116.358 95.781C116.677 95.6793 116.962 95.4926 117.182 95.2408C117.403 94.9892 117.55 94.6819 117.609 94.3525C117.646 94.1699 117.654 93.9824 117.631 93.7975L117.325 91.0957C117.325 91.0957 119.484 92.7017 121.88 91.763C124.276 90.8243 128.298 85.5146 140.246 88.498C140.246 88.498 142.943 88.6571 144.327 87.0573C144.362 87.0116 144.41 86.9777 144.464 86.9599C144.518 86.942 144.577 86.9412 144.632 86.9573C144.687 86.9734 144.736 87.0059 144.772 87.0501C144.808 87.0946 144.83 87.1491 144.835 87.2062C144.906 88.2653 145.298 89.0142 146.4 89.7897C150.834 92.9322 153.063 99.3031 152.993 104.778C152.973 107.049 152.218 109.292 151.053 111.216C150.745 111.726 146.608 116.408 146.486 116.167C146.486 116.167 145.302 113.777 145.013 113.177L144.943 113.045L145.076 112.957C145.568 112.622 146.039 112.256 146.484 111.861C148.243 110.28 149.52 108.143 147.837 105.931C147.492 105.475 147.045 105.106 146.531 104.856C143.984 103.67 142.815 106.425 142.156 108.757C142.028 109.203 141.949 109.662 141.921 110.125C141.89 109.839 141.86 109.563 141.829 109.278C141.715 108.237 141.594 107.196 141.472 106.147C141.268 104.429 141.076 102.717 140.882 100.997C140.852 100.703 140.882 99.0378 140.637 98.8582C140.637 98.8582 137.889 96.7931 130.655 100.393C125.433 102.984 124.737 99.3725 123.104 101.299C122.722 101.763 122.458 102.314 122.337 102.903C122.3 103.092 122.276 103.284 122.266 103.476C122.262 103.501 122.262 103.527 122.266 103.552C122.241 103.974 122.233 104.394 122.223 104.807C122.184 108.784 122.621 112.939 124.182 116.632C126.08 121.109 131.102 125.525 136.324 123.438C137.956 122.783 139.419 121.728 140.758 120.607" stroke="#7C2BF1" stroke-width="1.3436" stroke-miterlimit="10"/>
<path d="M125.907 112.593C126.427 112.419 126.677 111.768 126.467 111.14C126.257 110.512 125.665 110.143 125.146 110.317C124.626 110.491 124.376 111.141 124.586 111.769C124.796 112.398 125.388 112.767 125.907 112.593Z" fill="#7C2BF1"/>
<path d="M133.679 112.344C134.198 112.171 134.449 111.52 134.239 110.892C134.028 110.263 133.437 109.895 132.917 110.069C132.398 110.243 132.147 110.893 132.358 111.521C132.568 112.15 133.159 112.518 133.679 112.344Z" fill="#7C2BF1"/>
<path d="M130.708 113.69C130.708 113.69 128.122 115.157 127.965 113.634C127.916 113.165 127.284 108.568 127.284 108.568C127.284 108.568 125.194 106.353 121.992 107.99" stroke="#7C2BF1" stroke-width="1.3436" stroke-miterlimit="10"/>
<path d="M130.125 107.28C130.125 107.28 134.3 105.195 137.063 108.201" stroke="#7C2BF1" stroke-width="1.3436" stroke-miterlimit="10"/>
<path d="M133.953 123.949L134.433 126.41C132.921 127.804 131.852 129.802 132.164 131.906C132.441 133.771 133.968 135.507 135.533 136.485C138.149 138.117 141.628 137.989 144.444 136.95C147.197 135.93 149.578 133.993 151.305 131.63C152.118 130.488 152.659 129.175 152.888 127.792V127.767" stroke="#7C2BF1" stroke-width="1.3436" stroke-miterlimit="10"/>
<path d="M134.434 126.411L135.368 130.855" stroke="#7C2BF1" stroke-width="1.3436" stroke-miterlimit="10"/>
<path d="M147.651 115.096L149.063 124.473C149.202 125.391 149.666 126.228 150.371 126.833C151.075 127.438 151.973 127.77 152.901 127.768C157.296 128.481 161.632 129.52 165.872 130.878C182.435 136.221 192.63 151.142 195.51 167.814C196.708 174.795 196.797 182.117 195.293 189.059C194.438 192.967 193.202 197.356 190.331 200.282C186.602 204.098 180.881 202.527 176.475 200.803C162.796 195.483 151.42 186.018 141.596 175.183C136.344 169.387 129.557 164.743 129.557 164.743" stroke="#7C2BF1" stroke-width="1.3436" stroke-miterlimit="10"/>
<path d="M180.608 206.02C180.512 206.034 180.404 206.048 180.31 206.071H180.273L165.758 205.995L143.979 205.883C143.895 205.883 143.813 205.883 143.732 205.883C143.57 205.879 143.408 205.867 143.248 205.846C144.724 205.675 146.091 204.988 147.111 203.908C148.13 202.827 148.736 201.422 148.821 199.939C148.825 199.862 148.825 199.785 148.821 199.708V199.59C148.815 198.139 148.309 196.734 147.389 195.612C146.469 194.49 145.19 193.719 143.768 193.429C143.619 193.392 143.456 193.37 143.299 193.347C143.546 193.325 143.791 193.309 144.03 193.309L162.43 193.407L165.817 193.421L170.386 193.443C171.951 193.586 173.406 194.307 174.467 195.466C175.527 196.624 176.118 198.137 176.123 199.708C176.123 200.005 176.1 200.301 176.055 200.594C175.838 202.089 175.091 203.457 173.95 204.448C172.809 205.44 171.351 205.988 169.839 205.995H180.896C180.259 205.995 180.436 205.995 180.608 206.02Z" fill="white"/>
<path d="M151.164 213.609C151.579 214.026 152.072 214.356 152.615 214.581C153.159 214.806 153.741 214.921 154.329 214.919H143.64C141.6 214.919 140.485 214.421 139.673 213.609C138.839 212.771 138.369 211.637 138.365 210.454C138.365 208.005 140.373 205.997 143.64 205.997H154.329C153.447 205.996 152.584 206.256 151.85 206.746C151.115 207.236 150.543 207.932 150.205 208.747C149.867 209.563 149.779 210.46 149.952 211.325C150.124 212.191 150.55 212.985 151.174 213.609H151.164Z" fill="white"/>
<path d="M186.465 199.82C186.462 200.763 186.243 201.692 185.824 202.536C185.525 203.175 185.114 203.754 184.612 204.248C183.783 205.07 182.742 205.644 181.606 205.908C181.137 206.016 180.658 206.071 180.177 206.071C180.275 206.048 180.382 206.034 180.475 206.02C180.304 206.003 180.126 205.997 180.765 205.997H169.707C171.219 205.992 172.679 205.443 173.821 204.451C174.962 203.459 175.71 202.09 175.927 200.594C175.972 200.301 175.994 200.005 175.994 199.708C175.99 198.137 175.399 196.624 174.337 195.465C173.276 194.307 171.821 193.586 170.256 193.443L176.225 193.474L180.212 193.496C181.879 193.51 183.471 194.183 184.643 195.368C185.815 196.553 186.47 198.154 186.465 199.82Z" fill="white"/>
<path d="M186.465 199.82C186.452 201.487 185.78 203.081 184.594 204.254C183.408 205.426 181.806 206.081 180.139 206.074L143.832 205.886C143.589 205.886 143.346 205.868 143.102 205.844C144.632 205.67 146.046 204.941 147.075 203.795C148.104 202.649 148.676 201.165 148.685 199.625C148.692 198.085 148.135 196.595 147.118 195.439C146.101 194.282 144.695 193.538 143.167 193.349C143.409 193.323 143.653 193.311 143.897 193.312L180.204 193.5C181.871 193.511 183.466 194.183 184.64 195.367C185.813 196.551 186.469 198.152 186.465 199.82Z" stroke="#7C2BF1" stroke-width="1.3436" stroke-linecap="square" stroke-linejoin="round"/>
<path d="M175.991 199.706C175.988 201.373 175.324 202.971 174.145 204.149C172.966 205.328 171.369 205.992 169.702 205.995H143.869C143.625 205.994 143.381 205.98 143.139 205.954C144.668 205.773 146.078 205.036 147.101 203.885C148.123 202.733 148.688 201.247 148.688 199.707C148.688 198.167 148.123 196.68 147.101 195.529C146.078 194.377 144.668 193.641 143.139 193.459C143.382 193.437 143.626 193.421 143.869 193.421H169.702C171.368 193.424 172.965 194.088 174.143 195.265C175.322 196.443 175.986 198.04 175.991 199.706Z" stroke="#7C2BF1" stroke-width="1.3436" stroke-linecap="square" stroke-linejoin="round"/>
<path d="M138.365 210.455C138.365 211.041 138.48 211.62 138.704 212.161C138.929 212.701 139.257 213.193 139.671 213.606C140.487 214.422 141.596 214.918 143.638 214.918H180.763C180.125 214.918 180.298 214.906 180.472 214.89C179.385 214.762 178.384 214.24 177.657 213.422C176.93 212.605 176.529 211.549 176.529 210.455C176.529 209.362 176.93 208.306 177.657 207.488C178.384 206.671 179.385 206.149 180.472 206.021C180.298 206.005 180.125 205.992 180.763 205.992H143.638C140.369 205.994 138.365 208.002 138.365 210.455Z" stroke="#7C2BF1" stroke-width="1.3436" stroke-linecap="square" stroke-linejoin="round"/>
<path d="M149.855 210.455C149.858 211.638 150.329 212.772 151.166 213.608C152.002 214.445 153.136 214.916 154.318 214.918H179.955C180.126 214.918 180.3 214.906 180.473 214.89C179.387 214.762 178.385 214.24 177.658 213.422C176.932 212.605 176.53 211.549 176.53 210.455C176.53 209.362 176.932 208.306 177.658 207.488C178.385 206.671 179.387 206.149 180.473 206.021C180.3 206.005 180.126 205.992 179.955 205.992H154.318C153.136 205.996 152.002 206.467 151.166 207.303C150.33 208.139 149.859 209.273 149.855 210.455Z" stroke="#7C2BF1" stroke-width="1.3436" stroke-linecap="square" stroke-linejoin="round"/>
<path d="M59.5645 125.671L59.744 125.722L59.6767 125.983C59.634 125.881 59.5965 125.777 59.5645 125.671Z" fill="#CBAAF9"/>
<path d="M69.9728 199.612L56.6822 165.562C56.5175 164.903 56.5052 164.216 56.646 163.551C56.787 162.887 57.0776 162.263 57.4956 161.728C57.9137 161.193 58.4481 160.76 59.0587 160.462C59.669 160.164 60.3394 160.01 61.0185 160.01H113.81C114.995 160.01 116.146 160.409 117.077 161.142C118.008 161.876 118.665 162.902 118.942 164.054L133.491 198.096C133.649 198.753 133.655 199.437 133.51 200.096C133.365 200.756 133.073 201.374 132.655 201.904C132.236 202.434 131.704 202.863 131.096 203.158C130.489 203.452 129.822 203.606 129.147 203.606H75.0927C73.9161 203.607 72.7731 203.214 71.8455 202.49C70.9178 201.767 70.2587 200.754 69.9728 199.612Z" stroke="#7C2BF1" stroke-width="1.3436" stroke-linecap="square" stroke-linejoin="round"/>
<path d="M71.9179 198.24L59.6557 166.814C59.5041 166.206 59.4931 165.572 59.6233 164.959C59.7535 164.346 60.0216 163.771 60.4075 163.278C60.7932 162.784 61.2864 162.385 61.8494 162.11C62.4126 161.835 63.0309 161.692 63.6574 161.692H112.359C113.452 161.692 114.514 162.06 115.373 162.737C116.232 163.413 116.838 164.359 117.093 165.423L130.519 196.83C130.664 197.436 130.669 198.067 130.535 198.676C130.401 199.284 130.131 199.854 129.745 200.343C129.36 200.832 128.868 201.228 128.307 201.5C127.747 201.772 127.132 201.913 126.509 201.913H76.6399C75.5561 201.914 74.5031 201.553 73.6479 200.888C72.7925 200.223 72.1838 199.291 71.9179 198.24Z" fill="#7C2BF1"/>
<path d="M76.4381 191.207C74.9035 191.192 73.5669 189.954 73.222 188.229C72.5405 184.838 72.3609 179.593 77.3339 178.449C83.5476 177.02 88.3268 183.787 90.6694 188.064C91.4571 189.493 90.5653 191.329 89.0981 191.329L76.4381 191.207Z" fill="white"/>
<path d="M78.4905 175.57C79.8096 174.692 79.83 172.403 78.5356 170.458C77.2415 168.513 75.1229 167.648 73.8036 168.526C72.4844 169.404 72.4642 171.692 73.7583 173.637C75.0527 175.582 77.1713 176.447 78.4905 175.57Z" fill="white"/>
<path d="M108.297 176.406H96.8451C96.3211 176.405 95.8087 176.252 95.3703 175.965C94.932 175.678 94.5865 175.27 94.3759 174.79C94.2947 174.611 94.2598 174.415 94.2749 174.219C94.2898 174.023 94.3541 173.835 94.4616 173.671C94.5692 173.507 94.7165 173.372 94.89 173.28C95.0634 173.188 95.2571 173.142 95.4534 173.145H107.628C107.054 174.11 107.346 175.451 108.297 176.406Z" fill="white"/>
<path d="M115.702 175.226C115.701 175.538 115.577 175.837 115.356 176.058C115.136 176.279 114.837 176.403 114.524 176.403H108.296C107.345 175.45 107.054 174.11 107.627 173.138H113.126C113.65 173.138 114.162 173.29 114.601 173.576C115.039 173.861 115.386 174.268 115.598 174.746C115.664 174.898 115.699 175.061 115.702 175.226Z" fill="#C1F672"/>
<path d="M112.837 176.407C112.804 176.469 112.767 176.529 112.724 176.585C111.908 177.701 110.135 177.809 108.757 176.801C108.595 176.681 108.441 176.549 108.296 176.407C107.345 175.454 107.054 174.113 107.627 173.142C107.659 173.08 107.697 173.02 107.739 172.965C108.555 171.84 110.321 171.74 111.698 172.74C111.864 172.864 112.02 173.001 112.165 173.148C113.108 174.097 113.402 175.43 112.837 176.407Z" fill="white"/>
<path d="M118.581 182.416C118.579 182.728 118.453 183.027 118.231 183.247C118.01 183.468 117.71 183.591 117.397 183.591H105.38C105.96 182.616 105.67 181.285 104.717 180.326H116.006C116.53 180.326 117.042 180.479 117.481 180.766C117.92 181.052 118.266 181.46 118.477 181.94C118.544 182.09 118.579 182.252 118.581 182.416Z" fill="#C1F672"/>
<path d="M105.38 183.592H99.7257C99.2022 183.592 98.6898 183.44 98.2511 183.155C97.8124 182.869 97.4661 182.462 97.2545 181.984C97.1877 181.834 97.1524 181.672 97.1504 181.508C97.1502 181.354 97.1804 181.201 97.2394 181.058C97.2983 180.915 97.3849 180.786 97.494 180.676C97.6032 180.567 97.733 180.481 97.8756 180.422C98.0185 180.363 98.1713 180.333 98.3258 180.333H104.717C105.67 181.286 105.966 182.616 105.38 183.592Z" fill="white"/>
<path d="M105.38 183.591C105.354 183.655 105.319 183.715 105.276 183.77C104.46 184.893 102.693 184.995 101.317 183.993C101.151 183.869 100.994 183.732 100.848 183.585C99.9031 182.632 99.6133 181.301 100.179 180.32C100.211 180.257 100.249 180.197 100.291 180.14C101.107 179.024 102.88 178.916 104.256 179.926C104.42 180.045 104.574 180.176 104.717 180.32C105.67 181.285 105.966 182.615 105.38 183.591Z" fill="white"/>
<path d="M109.386 190.728H102.19C101.667 190.727 101.155 190.575 100.717 190.29C100.278 190.004 99.9315 189.598 99.7191 189.12C99.6381 188.941 99.6036 188.744 99.6187 188.548C99.634 188.352 99.6983 188.163 99.8058 187.998C99.9136 187.834 100.061 187.699 100.234 187.607C100.408 187.514 100.602 187.467 100.799 187.469H108.716C108.149 188.447 108.441 189.775 109.386 190.728Z" fill="#C1F672"/>
<path d="M121.044 189.56C121.042 189.871 120.918 190.168 120.698 190.387C120.477 190.605 120.179 190.728 119.869 190.727H109.384C108.439 189.774 108.147 188.444 108.715 187.462H118.469C118.993 187.462 119.506 187.615 119.945 187.902C120.383 188.188 120.729 188.597 120.94 189.077C121.007 189.229 121.043 189.393 121.044 189.56Z" fill="white"/>
<path d="M113.924 190.727C113.892 190.79 113.854 190.85 113.812 190.907C112.996 192.029 111.231 192.131 109.853 191.129C109.688 191.004 109.532 190.868 109.386 190.721C108.441 189.768 108.149 188.437 108.717 187.456C108.748 187.393 108.785 187.333 108.827 187.276C109.643 186.16 111.416 186.064 112.794 187.062C112.957 187.181 113.112 187.313 113.255 187.456C114.206 188.421 114.496 189.76 113.924 190.727Z" fill="white"/>
<path d="M178.999 125.833C182.322 120.018 208.499 78.8875 169.999 49.8337C160.168 42.4149 136.82 40.1402 130.538 43.398C124.255 46.6558 110.317 59.3816 108.501 65.7807C106.686 72.1798 106.975 77.4183 97.0304 78.8873C89.0748 80.0625 87.4763 69.3328 79.169 65.78C69.0945 61.4715 58.8147 69.3325 54.661 73.4863" stroke="#7C2BF1" stroke-dasharray="8 8"/>
<path d="M108.416 204.195L109.13 214.704" stroke="#7C2BF1" stroke-width="1.22816"/>
<g clip-path="url(#clip0_7307_27010)">
<path d="M26.5137 137.506V157.035C26.5137 157.903 27.2094 158.602 28.0749 158.602H47.4396C48.8315 158.602 49.5443 156.916 48.5597 155.911L29.195 136.4C28.2108 135.395 26.5137 136.093 26.5137 137.506Z" fill="#CBAAF9"/>
<path d="M24.1208 139.277L27.2264 136.178C27.5998 135.82 28.584 136.212 28.9407 136.586L48.2712 156.234C48.5429 156.507 49.0179 157.545 48.4409 158.328L45.929 160.729C45.6405 161.138 45.3181 161.155 44.9615 160.797L24.6639 140.928C24.2566 140.537 23.7135 139.685 24.1208 139.277Z" fill="#CBAAF9"/>
<path d="M45.4537 162.041C45.1313 162.041 44.707 161.939 44.2659 161.496L23.9842 141.643C23.8149 141.49 23 140.639 23 139.652C23 139.243 23.1526 138.851 23.4415 138.579L26.5304 135.48C27.4469 134.595 29.0424 135.276 29.6361 135.889L48.9666 155.536C49.4926 156.047 50.1544 157.631 49.238 158.907L49.1192 159.044L46.6583 161.393C46.2849 161.87 45.8606 162.006 45.5549 162.041H45.4537ZM25.0194 139.771C25.0876 139.907 25.2063 140.077 25.3589 140.23L45.4194 159.878L47.6935 157.716C47.8465 157.427 47.6429 157.001 47.5748 156.933L28.2442 137.285C28.1594 137.2 27.9219 137.098 27.7521 137.047L25.0194 139.771Z" fill="#7C2BF1"/>
<path d="M40.4125 157.92C39.6826 157.92 39.2586 157.426 38.902 156.983C38.8342 156.915 38.7832 156.83 38.6983 156.762L26.9877 144.878L26.9706 144.861C26.3426 144.146 26.0713 143.193 26.241 142.256C26.4108 141.32 26.9706 140.502 27.8194 140.043C28.8207 139.481 30.1783 138.783 30.6198 138.63C30.9083 138.528 31.1629 138.408 31.4008 138.289C31.8929 138.068 32.3511 137.846 32.9281 137.846C34.3706 137.846 35.5417 139.106 38.5796 143.158C40.9218 146.291 43.8577 148.76 46.013 150.581C46.7936 151.245 47.4726 151.807 47.9647 152.284C48.2871 152.607 48.4568 153.033 48.4401 153.51C48.3723 154.633 47.218 155.74 46.7769 156.064L46.6243 156.183L41.4988 157.562C41.1931 157.733 40.8369 157.92 40.4125 157.92Z" fill="#7C2BF1"/>
<path d="M40.4128 158.703C39.3384 158.703 38.7226 157.981 38.3146 157.504L38.2841 157.469C38.2335 157.419 38.176 157.361 38.1334 157.304L26.4038 145.398L26.3947 145.377C25.5855 144.463 25.2506 143.279 25.4588 142.106C25.6693 140.935 26.3867 139.933 27.4268 139.356C28.3079 138.85 29.8204 138.075 30.3335 137.887C30.5116 137.816 30.668 137.747 30.8248 137.678L31.1487 137.536C31.6492 137.316 32.2163 137.065 32.9112 137.065C34.7796 137.065 36.1848 138.692 39.1797 142.687C41.4549 145.736 44.3459 148.168 46.4567 149.944L46.4925 149.974C47.1581 150.528 47.9151 151.167 48.4868 151.703C48.9839 152.186 49.2328 152.842 49.186 153.548C49.0725 155.288 47.2468 156.661 47.2285 156.673L46.9408 156.881L46.6188 156.973L41.7883 158.275L41.7616 158.291C41.3354 158.565 40.8817 158.703 40.4128 158.703ZM32.9112 138.612C32.4945 138.612 32.1322 138.783 31.6732 138.999C31.4357 139.112 31.1666 139.239 30.853 139.357C30.5093 139.472 29.1947 140.152 28.1785 140.714C27.5543 141.058 27.1247 141.658 26.9998 142.36C26.8738 143.067 27.0729 143.786 27.546 144.333L39.2653 156.227C39.3449 156.316 39.4225 156.407 39.4941 156.491C39.8141 156.867 40.0455 157.139 40.4124 157.139C40.6233 157.139 40.8398 157.047 41.1314 156.832L46.2394 155.453L46.2706 155.43C46.792 155.045 47.5825 154.151 47.6244 153.455C47.6392 153.205 47.5593 152.99 47.3926 152.833C46.8989 152.357 46.2142 151.778 45.4215 151.109C43.2627 149.286 40.3059 146.789 37.929 143.615C35.0015 139.687 33.9229 138.612 32.9112 138.612Z" fill="#7C2BF1"/>
<path d="M37.257 156.473C34.7451 156.473 32.1993 155.145 30.4512 152.931C27.5659 149.288 27.6846 144.367 30.7229 141.95C31.8091 141.082 33.1667 140.622 34.6263 140.622C37.1383 140.622 39.6837 141.95 41.4322 144.163C44.3175 147.807 44.1987 152.728 41.1604 155.145C40.0742 156.013 38.7166 156.473 37.257 156.473Z" fill="white"/>
<path d="M37.257 157.254C34.5038 157.254 31.7277 155.82 29.8316 153.417C26.6878 149.449 26.8637 144.034 30.2228 141.344C31.4392 140.371 32.9563 139.857 34.6092 139.857C37.3457 139.857 40.1214 141.292 42.035 143.696C43.5277 145.58 44.3315 147.831 44.2984 150.034C44.2653 152.394 43.3222 154.43 41.6434 155.767C40.427 156.74 38.9099 157.254 37.257 157.254ZM34.6092 141.404C33.3274 141.404 32.1448 141.801 31.1899 142.554C28.5052 144.702 28.4447 149.131 31.0544 152.429C32.6742 154.461 34.9928 155.674 37.257 155.674C38.5389 155.674 39.7214 155.276 40.6763 154.524C43.361 152.376 43.4215 147.946 40.8118 144.649C39.192 142.616 36.873 141.404 34.6092 141.404Z" fill="#7C2BF1"/>
<path d="M26.9878 138.715C26.9878 138.715 29.5336 136.689 31.214 138.715C32.8939 140.741 31.791 141.49 33.9802 142.001C36.1697 142.512 34.9138 144.844 36.2542 145.406C37.5951 145.968 40.2257 144.912 40.2935 147.466C40.3616 150.02 40.7517 149.918 41.7531 150.752C42.7716 151.586 45.2325 149.85 45.47 152.353C45.6907 154.873 45.4019 154.838 46.1147 155.69C47.3878 157.222 44.3666 158.175 42.4488 157.869C40.531 157.58 41.5662 156.899 40.8027 156.269C40.0389 155.639 25.4434 139.362 25.4434 139.362C25.4434 139.362 25.4266 138.936 26.9878 138.715Z" fill="#C1F672"/>
<path d="M43.1965 158.703C42.8912 158.703 42.6024 158.686 42.331 158.635C41.0583 158.431 40.498 158.005 40.3793 157.069C40.3622 156.916 40.3622 156.916 40.3112 156.865C39.5477 156.235 27.3107 142.597 24.8669 139.873L24.6804 139.668L24.6633 139.379C24.6294 138.664 25.3084 138.187 26.666 137.966C27.8371 137.131 30.1789 136.246 31.8086 138.204C32.5721 139.14 32.8267 139.838 33.0136 140.349C33.2172 140.928 33.2511 141.013 34.1508 141.218C35.8989 141.626 36.1197 142.988 36.2552 143.823C36.34 144.402 36.4082 144.589 36.5608 144.657C36.8493 144.776 37.3243 144.793 37.7825 144.81C38.9875 144.861 41.024 144.929 41.0922 147.432C41.1432 149.254 41.2787 149.356 41.8728 149.816C41.9915 149.917 42.1274 150.02 42.28 150.139C42.4159 150.258 42.9419 150.207 43.2814 150.173C44.1811 150.088 46.0647 149.935 46.2683 152.285C46.3364 153.051 46.3532 153.596 46.3699 153.987C46.4038 154.787 46.4038 154.787 46.7261 155.179C47.2525 155.809 47.3712 156.541 47.0146 157.171C46.387 158.244 44.6222 158.703 43.1965 158.703ZM41.9405 156.932C42.0083 156.966 42.1951 157.034 42.5685 157.086C43.9771 157.307 45.5215 156.728 45.6403 156.388C45.6403 156.388 45.6235 156.32 45.5215 156.201C44.8936 155.451 44.8426 155.094 44.8087 154.072C44.7919 153.698 44.7748 153.17 44.7071 152.438C44.6393 151.706 44.5373 151.655 43.4172 151.757C42.7044 151.825 41.9066 151.893 41.2787 151.365C41.1428 151.263 41.024 151.161 40.9224 151.076C39.9549 150.326 39.5987 149.85 39.531 147.483C39.5138 146.546 39.1747 146.445 37.749 146.393C37.1549 146.376 36.5269 146.342 35.9838 146.121C34.9824 145.712 34.8469 144.759 34.7278 144.078C34.5919 143.261 34.5242 142.92 33.8285 142.767C32.233 142.392 31.8935 141.796 31.5711 140.894C31.4014 140.451 31.2317 139.94 30.6375 139.225C29.4664 137.812 27.5829 139.276 27.5147 139.344L27.345 139.481L27.1414 139.515C26.9888 139.532 26.8529 139.566 26.7341 139.583C32.5215 146.036 40.7359 155.144 41.3468 155.672C41.8731 156.098 41.9409 156.609 41.9748 156.881C41.9238 156.881 41.9405 156.898 41.9405 156.932Z" fill="#7C2BF1"/>
<path d="M23.916 140.061V159.589C23.916 160.457 24.6117 161.156 25.4772 161.156H44.842C46.2335 161.156 46.9467 159.47 45.9621 158.466L26.5977 138.954C25.6135 137.966 23.916 138.665 23.916 140.061Z" fill="#CBAAF9"/>
<path d="M25.4774 161.954C24.1868 161.954 23.1367 160.901 23.1367 159.606V140.061C23.1367 139.096 23.7057 138.242 24.5868 137.885C24.8711 137.768 25.1702 137.709 25.4778 137.709C26.1008 137.709 26.7098 137.961 27.1482 138.401L46.5126 157.93C47.1973 158.616 47.3887 159.6 47.0119 160.496C46.6348 161.396 45.8035 161.954 44.8422 161.954H25.4774V161.954ZM25.4941 139.276C25.3682 139.276 25.2665 139.311 25.206 139.332L25.1649 139.348C24.7767 139.543 24.6953 139.852 24.6953 140.077V159.606C24.6953 160.04 25.061 160.407 25.4945 160.407H44.8589C45.0835 160.407 45.3921 160.325 45.5858 159.936C45.6719 159.763 45.7366 159.383 45.4332 159.057L26.0471 139.506C25.8968 139.355 25.7054 139.276 25.4941 139.276Z" fill="#7C2BF1"/>
<path d="M36.7988 143.329C36.7988 143.574 36.9964 143.772 37.2399 143.772C37.4835 143.772 37.6811 143.574 37.6811 143.329C37.6811 143.085 37.4835 142.887 37.2399 142.887C36.9964 142.887 36.7988 143.085 36.7988 143.329Z" fill="white"/>
<path d="M26.293 154.089C26.293 154.569 26.6804 154.958 27.1584 154.958C27.6365 154.958 28.0239 154.569 28.0239 154.089C28.0239 153.779 27.8591 153.493 27.5912 153.338C27.3236 153.183 26.9933 153.183 26.7257 153.338C26.4578 153.493 26.293 153.779 26.293 154.089Z" fill="#CBAAF9"/>
<path d="M28.2109 157.223C28.2109 157.533 28.3757 157.82 28.6437 157.975C28.9112 158.13 29.2416 158.13 29.5092 157.975C29.7771 157.82 29.9419 157.533 29.9419 157.223C29.9419 156.913 29.7771 156.626 29.5092 156.471C29.2416 156.316 28.9112 156.316 28.6437 156.471C28.3757 156.626 28.2109 156.913 28.2109 157.223Z" fill="#CBAAF9"/>
<path d="M36.4258 155.026C36.4258 155.506 36.8132 155.895 37.2913 155.895C37.7693 155.895 38.1567 155.506 38.1567 155.026C38.1567 154.547 37.7693 154.158 37.2913 154.158C36.8132 154.158 36.4258 154.547 36.4258 155.026Z" fill="#CBAAF9"/>
<path d="M26.9375 147.262C26.9375 147.742 27.3253 148.13 27.803 148.13C28.281 148.13 28.6685 147.742 28.6685 147.262C28.6685 146.952 28.5037 146.665 28.2357 146.51C27.9678 146.355 27.6378 146.355 27.3702 146.51C27.1027 146.665 26.9375 146.952 26.9375 147.262Z" fill="#CBAAF9"/>
</g>
<g clip-path="url(#clip1_7307_27010)">
<path d="M81.7777 118.676C81.1881 118.518 80.8437 117.912 81.0025 117.319L82.4584 111.918C82.5344 111.634 82.7192 111.393 82.972 111.247C83.2247 111.1 83.5247 111.059 83.8072 111.135L95.539 114.292C95.8211 114.367 96.061 114.553 96.2066 114.806C96.3521 115.06 96.3914 115.361 96.3154 115.645L94.8584 121.049C94.6997 121.642 94.0947 121.989 93.5096 121.833C93.5038 121.836 81.7777 118.676 81.7777 118.676Z" fill="white"/>
<path d="M83.0535 110.967L96.3457 114.87L94.445 120.933L81.1527 117.03L83.0535 110.967ZM84.0926 110.068C83.5281 109.916 82.9282 109.997 82.4222 110.291C81.9162 110.584 81.5471 111.067 81.3909 111.633L79.9361 117.03C79.6198 118.21 80.3132 119.424 81.4879 119.739L93.2155 122.895L93.2196 122.896C93.7842 123.048 94.3841 122.967 94.8901 122.674C95.3957 122.38 95.7652 121.897 95.9217 121.331L97.3765 115.935C97.6929 114.754 96.9996 113.539 95.8249 113.225L84.0926 110.068Z" fill="#7C2BF1"/>
<path d="M80.9013 116.107L76.3866 119.257L71.7047 136.73L86.856 140.79L91.5379 123.317L95.5377 120.028L80.9013 116.107Z" fill="white"/>
<path d="M86.5689 141.858L71.4177 137.798C70.8285 137.641 70.4835 137.034 70.6412 136.446L75.3231 118.973C75.3913 118.718 75.5431 118.5 75.762 118.348L80.2756 115.202C80.544 115.015 80.8754 114.956 81.1911 115.041L95.8279 118.962C96.2262 119.069 96.5312 119.392 96.619 119.796C96.7056 120.203 96.5571 120.625 96.2376 120.887L92.5128 123.945L87.9227 141.076C87.8466 141.36 87.6618 141.601 87.4091 141.748C87.1502 141.898 86.8514 141.934 86.5689 141.858ZM72.0154 136.446L85.7231 140.04L90.7077 123.945C90.7681 123.72 91.9097 122.915 92.0873 122.766L95.2769 120.102L80.7859 116.204L76.1692 119.796L72.0154 136.446Z" fill="#7C2BF1"/>
<path d="M95.8056 120.02L91.4414 123.671L86.8545 140.79L93.3674 142.535L97.9978 125.254L95.8056 120.02Z" fill="#EFEFEF"/>
<path d="M93.0811 143.608L86.5679 141.863C85.9787 141.705 85.6339 141.098 85.7914 140.51L90.3795 123.387C90.4388 123.166 91.5308 123.388 91.7074 123.243L96.0717 119.591C96.3405 119.368 95.7302 118.86 96.0717 118.947C96.4155 119.025 96.6884 119.268 96.8245 119.591L99.0167 124.825C99.1117 125.051 99.1291 125.302 99.0654 125.54L94.4349 142.821C94.2723 143.413 93.6666 143.765 93.0811 143.608ZM86.9694 140.51L93.2002 142.117L97.9663 125.345L96.3016 121.052L92.4132 124.031L86.9694 140.51Z" fill="#7C2BF1"/>
<path d="M91.4189 123.755L76.2676 119.695L73.94 128.382L89.0913 132.442L91.4189 123.755Z" fill="#CBAAF9"/>
<path d="M88.2183 132.148L73.6165 128.236C73.0486 128.084 72.7209 128.686 72.8786 128.097L75.206 119.411C75.3648 118.819 75.9524 118.467 76.5163 118.618L91.6317 122.914C92.2 123.066 92.5272 123.668 92.3696 124.256L89.5284 132.559C89.3701 133.151 88.7865 132.301 88.2183 132.148ZM74.1222 127.145L88.7668 130.902L90.7769 123.683L76.1323 119.926L74.1222 127.145Z" fill="#7C2BF1"/>
</g>
<path d="M72.9082 203.174V215.418" stroke="#7C2BF1" stroke-width="1.22816"/>
<path d="M25.0737 186.146C25.1808 186.294 25.3237 186.354 25.5022 186.327L35.7879 184.613C35.9174 184.59 36.0179 184.519 36.0893 184.399C36.125 184.336 36.1429 184.267 36.1429 184.191C36.1429 184.142 36.1317 184.088 36.1094 184.03L34.8705 180.997L36.846 179.376C36.9487 179.296 37 179.187 37 179.048C37 178.99 36.9911 178.941 36.9732 178.901C36.942 178.816 36.8895 178.748 36.8158 178.697C36.7422 178.645 36.6607 178.62 36.5714 178.62L34.2344 178.62L27.1429 184.405L33.3371 177.247L32.2522 174.602C32.1897 174.437 32.067 174.347 31.8839 174.334C31.7054 174.325 31.5737 174.396 31.4888 174.548L25.0603 185.691C25.0201 185.758 25 185.829 25 185.905C25 185.994 25.0246 186.075 25.0737 186.146Z" fill="#7C2BF1"/>
<defs>
<linearGradient id="paint0_linear_7307_27010" x1="123.509" y1="0.836304" x2="98.6702" y2="243.186" gradientUnits="userSpaceOnUse">
<stop stop-color="#F0FDDD"/>
<stop offset="0.833164" stop-color="#F0FDDD" stop-opacity="0"/>
</linearGradient>
<clipPath id="clip0_7307_27010">
<rect width="26.6943" height="26.9845" fill="white" transform="translate(23 135.056)"/>
</clipPath>
<clipPath id="clip1_7307_27010">
<rect width="24.6332" height="30.0717" fill="white" transform="translate(78.1367 108.471) rotate(15)"/>
</clipPath>
</defs>
</svg>
