<svg xmlns="http://www.w3.org/2000/svg" width="240" height="240" fill="none"><path fill="url(#a)" d="M195.416 39.407c38.756 35.021 56.498 90.34 35.937 138.934-19.722 46.611-71.187 65.41-120.552 61.046-48.293-4.268-92.263-33.086-105.175-80.997C-8.81 104.82 4.004 43.675 50.246 14.686c46.27-29.008 104.482-12.046 145.17 24.721Z"/><path fill="#7C2BF1" fill-rule="evenodd" d="M36.083 39.226h63.816a4.715 4.715 0 0 1 4.715 4.715v7.085c-.612.07-1.25.161-1.914.279C89.327 54.898 81.322 71.978 83.149 80.7c1.66 7.931 7.271 8.018 9.78 7.64 2.808-.703 3.983.813 4.664 1.69l.092.119c2.908.727-.727 9.812-.727 9.812l-12.086 2.272c-19.683 6.134-29.727 25.623-33.998 36.83H36.083a4.715 4.715 0 0 1-4.715-4.715V43.941a4.715 4.715 0 0 1 4.715-4.715Z" clip-rule="evenodd"/><path stroke="#7C2BF1" stroke-dasharray="10 10" stroke-miterlimit="10" d="M50.123 203.166c-13.105-18.525-17.344-39.469-15.154-60.889M171 111.5c-4 5-12.03 22.721 6.722 33 14.278 7.826 24.567 26.572 0 36s-23.229 22.667-23.229 22.667"/><path stroke="#CBAAF9" stroke-linecap="round" stroke-linejoin="round" d="M101.704 142.279a5 5 0 0 0 1.909-.367m-53.898.367H34.278A5.28 5.28 0 0 1 29 137.012V41.278A5.291 5.291 0 0 1 34.278 36h67.426a5.29 5.29 0 0 1 5.278 5.278V50.9"/><path fill="#F9F5FF" d="M67.928 54.33a2.457 2.457 0 1 0 0-4.913 2.457 2.457 0 0 0 0 4.913ZM61.126 63.212a7.04 7.04 0 0 1 2.02-4.944 6.85 6.85 0 0 1 4.877-2.048 6.85 6.85 0 0 1 4.877 2.048 7.04 7.04 0 0 1 2.02 4.944H61.127Z"/><path fill="#CBAAF9" d="M145.052 119.202c-.189.055-2.6.756-3.549 2.426a2.226 2.226 0 0 0-2.018-1.277h-28.317a2.22 2.22 0 0 0-2.172 1.725l-5.576 23.911a11.898 11.898 0 0 0-1.149-.157l-3.54.157c-.564-.142-1.282.476-1.795.752-.513.274-1.223-.148-1.417.401 1.34 1.099-1.704-.261-1.701 0 0 .593-1.255.109-.85.543.404.434-1.16.715-.568.756l-1.133.756c-5.995 2.822-9.942 6.541-16.03 11.479-5.921-9.273-.364-18.544 3.816-23.536-.538-5.503-3.267-18.28-16.883-17.932 4.69-6.015 10.54-11.17 17.787-14.621 24.823 27.514 53.222 5.019 53.825 4.535a49.925 49.925 0 0 1 11.27 10.086M142.473 198.132v4.755H60.494v-6.735c3.194.189 6.554-.567 9.61-1.945 3.868-1.761 7.209-4.497 10.066-7.619 2.939-3.232 4.552-7.712 6.425-11.609 2.812-5.868 6.537-10.048 12.448-11.818l-.378 1.625a2.237 2.237 0 0 0 1.202 2.514c.302.147.633.223.969.224h28.46c-.567 4.913-2.958 31.748 13.177 30.614"/><path fill="#C1F672" d="M129.309 73.086a31.45 31.45 0 0 1-.986 7.535 6.251 6.251 0 0 1-4.936 4.647c-.048-1.716-.777-3.222-1.89-4.158a27.26 27.26 0 0 0-.044-4.361 36.227 36.227 0 0 0-.31-2.655 9.921 9.921 0 0 0-.311-1.352 4.856 4.856 0 0 0-1.323-1.003c-1.752-.987-5.358-2.035-12.038-.493a7.996 7.996 0 0 0-3.012 1.396.224.224 0 0 0-.053.046c-.603.555-1.37 1.258-2.164 1.623-.822.378-1.68.393-2.4-.501-.019-.019-.028-.036-.045-.055-.378-.493-.739-1.134-1.406-1.26-1.406-.265-2.09 1.134-2.268 2.309-.155 1.087.165 2.045.631 2.957a7.615 7.615 0 0 0 1.512 1.99c.157.152.3.316.43.492a.97.97 0 0 0-.173.047c-.129.043-.255.095-.378.155-1.7.765-2.912 2.683-2.938 4.928 0 .07-2.852.029-3.213 0-1.39-.128-2.76-.529-3.74-1.578-2.777-2.976-2.764-7.392-1.623-10.847 1.081-3.278 2.457-6.48 4.26-9.43 3.906-6.383 9.966-11.092 17.638-11.516a25.443 25.443 0 0 1 5.502.322c.859.135 1.709.325 2.545.567 7.822 3.413 12.786 11.15 12.741 20.195M124.779 145.86c-.924 2.372-3.124 3.728-4.913 3.024-1.79-.705-2.493-3.185-1.571-5.556.923-2.372 3.124-3.731 4.914-3.024 1.789.707 2.494 3.186 1.57 5.558"/><path stroke="#7C2BF1" stroke-miterlimit="10" d="M129.534 167.04s-5.02 34.989 15.057 31.111c19.967-3.861 27.524-85.091-30.272-96.773M82.528 133.356s-16.198 13.661-7.47 27.324"/><path stroke="#7C2BF1" stroke-miterlimit="10" d="M129.898 157.322c-.278.017-.674-.168-.945-.242a28.339 28.339 0 0 1-1.018-.291 18.52 18.52 0 0 1-5.494-2.782c-.378-.27-1.05-.444-1.511-.266a1.522 1.522 0 0 0-.983 1.204c-.142.975.546 1.929 1.296 2.554.89.745 1.814 1.431 2.893 1.877a20.18 20.18 0 0 0 3.213.988c.497.116 1.002.189 1.495.316"/><path stroke="#7C2BF1" stroke-miterlimit="10" d="M136.116 147.855c.204 1.078.353 2.196.251 3.29-.085.926-.418 2.007-1.448 2.232a1.789 1.789 0 0 1-.601.055c-3.877-.229-7.073-1.568-10.722-4.206-3.649-2.639-4.934 3.437-1.601 4.514M122.136 158.232a2.71 2.71 0 0 1-.255-.236c-1.816-1.899-2.145 1.916-.239 3.039l.246.145c.129.055.267.119.403.189.064.017.136.046.202.065 1.723.755 3.558 1.239 5.365 1.732a988.715 988.715 0 0 0-5.365-1.732 9.659 9.659 0 0 1-.457-.203.843.843 0 0 0-.148-.045.201.201 0 0 0-.2.019.281.281 0 0 0-.091.136c-.293.703-.055 1.589.319 2.219.394.665 1.068 1.177 1.733 1.542 1.79 1.003 3.871 1.596 5.879 1.952.373.077.755.102 1.134.073M146.866 171.456s-6.158-10.495-6.844-19.621c-.42-5.648-2.079-6.844-3.266-6.926"/><path stroke="#7C2BF1" stroke-miterlimit="10" d="m134.919 153.376 1.198-5.52.639-2.948 4.736-21.857a2.237 2.237 0 0 0-.445-1.872 2.231 2.231 0 0 0-1.736-.83h-28.32a2.222 2.222 0 0 0-2.171 1.725l-5.576 23.913-4.071 17.448-.378 1.634a2.235 2.235 0 0 0 2.173 2.737h28.458"/><path fill="#CBAAF9" d="M99.808 73.181s1.499-6.355 9.961-7.198 10.582 5.48 10.582 5.48l-.266.637s-11.125-4.463-17.268 1.907c0 0-2.213 1.003-3.009-.822"/><path stroke="#7C2BF1" stroke-miterlimit="10" d="M133.612 109.111s-28.749 23.289-53.833-4.526M78.878 137.133c-.539-5.503-3.266-18.289-16.893-17.931M144.88 119.198s-2.568.707-3.552 2.434M40.55 203.17h122.06"/><path fill="#CBAAF9" d="M121.497 81.117c1.151.968 1.89 2.548 1.89 4.335 0 2.967-2.062 5.367-4.61 5.367a3.888 3.888 0 0 1-.856-.1c2.967-2.268 3.568-9.602 3.568-9.602"/><path stroke="#7C2BF1" stroke-miterlimit="10" d="M104.714 93.094a11.28 11.28 0 0 0 9.259.357c8.349-3.487 8.03-13.763 7.163-19.35a10.78 10.78 0 0 0-.295-1.341v-.01c-.958-3.193-3.458-5.795-6.752-6.534-6.38-1.442-12.214 2.175-14.634 7.045"/><path stroke="#7C2BF1" stroke-miterlimit="10" d="M120.92 72.86s-.026-.038-.081-.1v-.01c-.567-.639-3.849-3.687-13.351-1.497a7.973 7.973 0 0 0-3.067 1.442"/><path stroke="#7C2BF1" stroke-miterlimit="10" d="M95.594 88.34h-4.7c-3.392 0-6.08-3.106-7.25-6.022-1.645-4.101-.592-8.298.888-12.284 1.24-3.335 2.816-6.576 4.889-9.477 4.64-6.49 11.648-10.168 19.702-9.488.714.06 1.425.149 2.133.265 10.815 1.753 18.108 10.796 18.053 21.747a31.497 31.497 0 0 1-.986 7.54 6.267 6.267 0 0 1-4.938 4.647"/><path stroke="#7C2BF1" stroke-miterlimit="10" d="M98.699 80.243a4.042 4.042 0 0 0-.43-.493 7.576 7.576 0 0 1-1.51-1.989c-.468-.912-.787-1.87-.632-2.957.174-1.168.858-2.574 2.268-2.31.667.13 1.022.768 1.406 1.261 1.458 1.89 3.467-.01 4.699-1.15M121.497 81.117c1.151.968 1.89 2.548 1.89 4.335 0 2.967-2.062 5.367-4.61 5.367a3.888 3.888 0 0 1-.856-.1M111.634 84.76c1.032.693 3.525 1.262 3.024-.794-.601-2.436-1.41-7.64 3.543-8.037 0 0 2.181.092 3.258.833M113.499 88.832s-2.494 1.322-3.73-1.314"/><path fill="#7C2BF1" d="M108.441 79.487c-.097.837.23 1.561.731 1.62.501.058.985-.567 1.083-1.41.098-.843-.233-1.56-.732-1.618-.498-.058-.986.567-1.082 1.408ZM116.563 79.98c-.097.835.23 1.561.731 1.62.501.058.985-.567 1.081-1.41.096-.843-.231-1.561-.729-1.618-.499-.056-.987.567-1.083 1.408Z"/><path stroke="#7C2BF1" stroke-miterlimit="10" d="M111.634 76.463s-1.527-2.354-4.987-.12M114.317 93.295v13.062M62.679 171.457s5.384-5.103 12.376-10.772c6.086-4.938 13.386-10.322 19.383-13.141a30.187 30.187 0 0 1 2.235-.945 12.235 12.235 0 0 1 6.571-.601"/><path stroke="#7C2BF1" stroke-miterlimit="10" d="M99.173 163.435c-5.913 1.771-9.637 5.951-12.447 11.818-1.87 3.897-3.487 8.377-6.425 11.609-2.856 3.12-6.197 5.858-10.065 7.619-7.019 3.194-15.66 2.948-20.22-3.996-3.084-4.71-4.298-10.56-4.914-16.063-1.058-9.564 2.283-36.523 16.883-55.222 4.69-6.015 10.541-11.17 17.786-14.621 5.086-2.415 10.834-3.995 17.35-4.443l1.826-9.416M142.603 198.449v4.721M60.624 196.764v6.406"/><path fill="#CBAAF9" d="M104.412 85.453a5.777 5.777 0 0 1-1.414 3.86c-.52.242-1.087.366-1.661.366-2.545 0-4.609-2.4-4.609-5.367a5.766 5.766 0 0 1 1.415-3.86 3.929 3.929 0 0 1 1.662-.366c2.545 0 4.607 2.402 4.607 5.367Z"/><path stroke="#7C2BF1" stroke-miterlimit="10" d="M99.808 90.82c2.543 0 4.604-2.403 4.604-5.367s-2.061-5.367-4.604-5.367c-2.542 0-4.603 2.403-4.603 5.367s2.061 5.367 4.603 5.367Z"/><path fill="#F9F5FF" fill-rule="evenodd" d="M55.267 90.802c0-6.992 5.669-12.66 12.661-12.66 6.993 0 12.662 5.668 12.662 12.66 0 6.993-5.67 12.662-12.662 12.662-6.992 0-12.66-5.67-12.66-12.662Z" clip-rule="evenodd"/><path stroke="#7C2BF1" stroke-linecap="round" stroke-linejoin="round" stroke-width="1.5" d="M71.704 87.497c-.014-1.86-1.567-2.314-2.342-2.309-.775.006-2.321.482-2.308 2.342l.025 3.487m0 0 .016 2.325c.006.775-.448 2.328-2.308 2.341l6.974-.05m-4.682-4.616 2.325-.016m-2.325.016-2.325.017"/><path fill="#7C2BF1" d="M181.31 95.09c.179.129.252.302.219.518l-2.077 12.46a.51.51 0 0 1-.259.365.493.493 0 0 1-.252.065.542.542 0 0 1-.194-.04l-3.675-1.501-1.963 2.393a.479.479 0 0 1-.397.187.434.434 0 0 1-.179-.033.503.503 0 0 1-.247-.191.506.506 0 0 1-.094-.296v-2.831l7.009-8.59-8.671 7.503-3.205-1.314c-.2-.075-.308-.224-.324-.446a.483.483 0 0 1 .259-.479l13.498-7.787a.5.5 0 0 1 .26-.073c.108 0 .206.03.292.09Z"/><path stroke="#7C2BF1" stroke-dasharray="8 8" d="M125.755 96.377c9.827-3.118 29.329-13.152 28.724-28.346-.756-18.992-14.929-25.417-41.763-24.283"/><path fill="#C1F672" stroke="#7C2BF1" stroke-linecap="round" stroke-linejoin="round" stroke-miterlimit="10" d="M207.136 94.093c-.305.438-.678.897-.814 1.065-.874 1.06-1.896 1.97-2.983 2.814-.842.657-1.813.767-2.818.722-1.446-.063-2.806-.495-4.144-1.007-.955-.366-1.871-.812-2.783-1.272-.161-.079-.297-.177-.51-.088-1.559.641-2.955.193-4.118-.842-3.956-3.51-7.859-7.078-11.782-10.624-.274-.248-.552-.491-.789-.78-.734-.913-1.151-1.92-.998-3.11.025-.193-.031-.35-.152-.52a35.19 35.19 0 0 1-2.03-3.07 22.366 22.366 0 0 1-1.191-2.354c-.524-1.23-.945-2.49-.952-3.849-.004-.601.092-1.194.397-1.715A17.645 17.645 0 0 1 174.101 66c.162-.16.387-.364.608-.563.089.985.355 2.105.554 2.858.118.43.207.735.238.83.456 1.44 1.13 2.788 1.902 4.083a29.786 29.786 0 0 0 1.829 2.74c.103.135.205.26.328.372.24-.008.148.001.262-.004 1.045-.101 1.996.17 2.875.757.244.162.458.347.673.541 3.977 3.596 7.955 7.182 11.928 10.782.845.764 1.356 1.723 1.47 2.864.02.217.117.33.291.421.904.469 1.808.929 2.743 1.317 1.109.463 2.232.881 3.41 1.066.211.033.426.07.642.107.268.043.544.077.819.085.467.016.921.02 1.501-.063.58-.072.038-.014.962-.1Z"/><path fill="#C1F672" stroke="#7C2BF1" stroke-linecap="round" stroke-linejoin="round" stroke-miterlimit="10" d="M195.164 72.534a41.551 41.551 0 0 0-2.25-1.826c-.461-.343-.911-.7-1.373-1.042-.466-.339-.953-.663-1.427-.992a45.199 45.199 0 0 0-2.549-1.623 30.782 30.782 0 0 0-5.129-2.487c-1.141-.418-2.308-.725-3.524-.82-.893-.069-1.761.001-2.571.447-.292.168-1.265.923-1.265.923-.109.093-.23.199-.355.31.089.985.355 2.104.554 2.857.619-.005 1.642.231 2.239.406 1.849.543 3.57 1.384 5.247 2.31.977.536 1.914 1.142 2.851 1.749.613.396 1.189.85 1.786 1.274.877.627 1.73 1.29 2.567 1.971.391.32.753.672 1.151.975.58.433 1.106.916 1.636 1.404.622.57 1.21 1.168 1.823 1.747.64.595 1.23 1.236 1.817 1.882a65.754 65.754 0 0 1 2.054 2.355 49.678 49.678 0 0 1 1.839 2.409c.97 1.359 1.87 2.77 2.591 4.284.351.741.673 1.496.917 2.282.073.231.139.581.055.83.268.042.545.076.82.084.467.016.92.02 1.5-.062.586-.052.044.006.964-.084.186-.27.352-.528.421-.714 0 0 .571-1.376.635-1.84.068-1.334-.317-2.578-.806-3.791-.617-1.53-1.447-2.944-2.345-4.328-.629-.966-1.329-1.89-2.025-2.81-.472-.625-1.011-1.203-1.52-1.797-.445-.517-.889-1.036-1.346-1.54a9.311 9.311 0 0 0-.58-.598c-.416-.393-.817-.813-1.221-1.22-1.006-1.026-2.096-1.978-3.181-2.925Zm-5.228-1.515c.418.08.771.506.814.935.028.291-.086.528-.201.773-.581.561-1.094.505-1.587.059a1.051 1.051 0 0 1-.217-1.275c.199-.367.707-.58 1.191-.492Zm-6.089-1.645c-.292-.43-.238-.92.044-1.288.524-.488 1.211-.432 1.571-.04.291.32.4.66.268 1.08-.139.439-.462.678-.883.73-.407.046-.76-.124-1-.482Zm19.2 14.6c.348.522.222 1.039-.268 1.434-.419.335-.997.286-1.439-.18-.349-.366-.319-.978.04-1.375.375-.507 1.209-.567 1.667.12Zm-3.731-3.438c-.173.366-.907.582-1.319.367-.465-.238-.989-.76-.497-1.553.033-.036.075-.073.103-.114.239-.365.92-.521 1.381-.196.529.379.628.875.332 1.496Zm-4.194-4.165c-.431.34-1.233.254-1.536-.31-.24-.441-.256-.828.087-1.29.511-.41 1.04-.462 1.453-.139.522.414.642 1.227-.004 1.74Z"/><path stroke="#7C2BF1" stroke-linecap="round" stroke-linejoin="round" stroke-miterlimit="10" d="M191.108 76.966c.579.433 1.105.916 1.635 1.404.622.57 1.21 1.168 1.823 1.747.64.596 1.231 1.237 1.817 1.883a64.768 64.768 0 0 1 2.054 2.355 48.386 48.386 0 0 1 1.839 2.408c.971 1.36 1.87 2.77 2.591 4.285.352.74.673 1.496.918 2.281.072.232.138.581.055.83-.216-.037-.427-.07-.642-.107-1.182-.18-2.306-.599-3.41-1.066-.94-.393-1.843-.853-2.743-1.317-.174-.092-.267-.2-.291-.421-.11-1.146-.625-2.1-1.47-2.864-3.973-3.6-7.951-7.187-11.929-10.782a5.693 5.693 0 0 0-.672-.542c-.875-.583-1.826-.853-2.876-.757-.112.014-.017.001-.261.005a2.72 2.72 0 0 1-.328-.372c-.668-.877-1.259-1.802-1.83-2.74-.775-1.29-1.449-2.638-1.901-4.084-.027-.09-.121-.4-.238-.83.619-.005 1.642.231 2.239.406 1.849.543 3.57 1.385 5.247 2.311.977.535 1.914 1.141 2.851 1.748.613.396 1.189.85 1.786 1.274.877.627 1.73 1.29 2.566 1.971.409.32.771.672 1.17.974ZM203.047 83.974c.349.522.222 1.039-.268 1.434-.419.335-.997.286-1.439-.18-.349-.366-.319-.978.04-1.375.375-.507 1.209-.567 1.667.12ZM183.847 69.374c-.292-.43-.238-.92.044-1.288.524-.489 1.212-.432 1.571-.04.291.32.4.66.268 1.08-.139.439-.462.677-.883.73-.407.046-.76-.124-1-.482ZM189.936 71.02c.418.078.771.505.814.934.028.291-.087.528-.201.773-.581.561-1.094.505-1.587.059a1.051 1.051 0 0 1-.217-1.275c.199-.367.707-.58 1.191-.492ZM198.975 79.04c.534.383.633.88.337 1.5-.173.366-.907.582-1.319.367-.466-.237-.989-.76-.497-1.552.033-.037.075-.074.103-.114.238-.374.919-.53 1.376-.2ZM195.123 76.371c-.432.34-1.234.254-1.537-.31-.24-.441-.255-.828.087-1.29.511-.41 1.04-.462 1.453-.139.523.414.642 1.227-.003 1.74Z"/><path fill="#7C2BF1" d="M187.762 88.013c.145-.343.065-.7.039-1.048-.04-.542-.126-1.086-.379-1.576-.24-.478-.799-.69-1.24-.457-.283.156-.515.413-.509.765.003.32-.119.438-.433.48-.359.046-.737.447-.784.753-.06.381.141.736.547.97.398.224.84.26 1.284.258.473-.007.963.072 1.413-.146"/><path stroke="#7C2BF1" stroke-linecap="round" stroke-linejoin="round" stroke-miterlimit="10" d="M177.951 79.203c-.129.265-.34.48-.437.767-.378 1.11-.235 2.135.548 3.076.14.168.283.322.438.462 3.763 3.401 7.522 6.807 11.293 10.2 1.116 1 2.607 1.177 3.849.333 1.191-.807 1.497-2.48.863-3.7a3.052 3.052 0 0 0-.677-.861c-2.02-1.818-4.031-3.644-6.042-5.462-1.86-1.681-3.732-3.34-5.563-5.045-.887-.826-2.394-1.043-3.481-.4a3.037 3.037 0 0 0-.757.602"/><defs><linearGradient id="a" x1="123.509" x2="98.67" y1=".503" y2="242.853" gradientUnits="userSpaceOnUse"><stop stop-color="#F0FDDD"/><stop offset=".833" stop-color="#F0FDDD" stop-opacity="0"/></linearGradient></defs></svg>