<svg width="240" height="240" viewBox="0 0 240 240" fill="none" xmlns="http://www.w3.org/2000/svg">
<path d="M195.416 39.4075C234.172 74.4284 251.914 129.747 231.353 178.341C211.631 224.952 160.166 243.751 110.801 239.387C62.5077 235.119 18.538 206.301 5.62617 158.39C-8.81068 104.82 4.00416 43.6753 50.2454 14.6859C96.5153 -14.3215 154.728 2.64023 195.416 39.4075Z" fill="url(#paint0_linear_1864_7385)"/>
<path fill-rule="evenodd" clip-rule="evenodd" d="M36.0826 39.2259H99.899C102.503 39.2259 104.614 41.3368 104.614 43.9408V51.0263C104.002 51.0952 103.364 51.1875 102.7 51.3049C89.3267 54.8975 81.322 71.978 83.1487 80.6999C84.8097 88.6312 90.4202 88.718 92.9298 88.34C95.7374 87.6375 96.9123 89.1525 97.5932 90.0305C97.6249 90.0714 97.6555 90.1109 97.6852 90.1487C100.593 90.8755 96.9584 99.9609 96.9584 99.9609L84.872 102.233C65.189 108.367 55.1446 127.856 50.8742 139.063H36.0826C33.4786 139.063 31.3677 136.952 31.3677 134.348V43.9408C31.3677 41.3368 33.4786 39.2259 36.0826 39.2259Z" fill="#7C2BF1"/>
<path d="M50.1233 203.166C37.018 184.641 32.7793 163.697 34.9695 142.277" stroke="#7C2BF1" stroke-miterlimit="10" stroke-dasharray="10 10"/>
<path d="M171 111.5C167 116.5 158.97 134.221 177.722 144.5C192 152.326 202.289 171.072 177.722 180.5C153.155 189.928 154.493 203.167 154.493 203.167" stroke="#7C2BF1" stroke-miterlimit="10" stroke-dasharray="10 10"/>
<path d="M101.704 142.279C102.358 142.283 103.006 142.158 103.613 141.912M49.7146 142.279H34.278C32.88 142.279 31.539 141.725 30.5494 140.738C29.5597 139.75 29.0025 138.41 29 137.012V41.278C29.0035 39.8793 29.5607 38.5388 30.5498 37.5498C31.5388 36.5607 32.8793 36.0035 34.278 36H101.704C103.103 36.0035 104.443 36.5607 105.432 37.5498C106.421 38.5388 106.979 39.8793 106.982 41.278V50.9" stroke="#CBAAF9" stroke-linecap="round" stroke-linejoin="round"/>
<path d="M67.9283 54.3305C69.2851 54.3305 70.385 53.2306 70.385 51.8738C70.385 50.517 69.2851 49.4171 67.9283 49.4171C66.5715 49.4171 65.4717 50.517 65.4717 51.8738C65.4717 53.2306 66.5715 54.3305 67.9283 54.3305Z" fill="#F9F5FF"/>
<path d="M61.1255 63.2122C61.1255 61.3577 61.8522 59.5792 63.1458 58.2681C64.4392 56.9568 66.1936 56.2202 68.023 56.2202C69.8525 56.2202 71.6067 56.9568 72.9003 58.2681C74.1939 59.5792 74.9206 61.3577 74.9206 63.2122H61.1255Z" fill="#F9F5FF"/>
<path d="M145.052 119.202C144.863 119.257 142.452 119.958 141.503 121.628C141.323 121.246 141.037 120.923 140.68 120.697C140.322 120.47 139.908 120.351 139.485 120.351H111.168C110.664 120.35 110.174 120.52 109.78 120.834C109.385 121.147 109.109 121.585 108.996 122.076L103.42 145.987C103.042 145.913 102.664 145.868 102.271 145.83L98.7312 145.987C98.1667 145.845 97.4488 146.463 96.9359 146.739C96.4228 147.013 95.7132 146.591 95.5186 147.14C96.8584 148.239 93.8152 146.879 93.8178 147.14C93.8178 147.733 92.5629 147.249 92.9675 147.683C93.3722 148.117 91.8085 148.398 92.4005 148.439L91.2667 149.195C85.2724 152.017 81.3248 155.736 75.2379 160.674C69.3155 151.401 74.8732 142.13 79.0533 137.138C78.5147 131.635 75.786 118.858 62.1704 119.206C66.8607 113.191 72.7095 108.036 79.9566 104.585C104.78 132.099 133.179 109.604 133.782 109.12C138.029 111.89 141.829 115.291 145.052 119.206" fill="#CBAAF9"/>
<path d="M142.473 198.132V202.887H60.4941V196.152C63.6878 196.341 67.0478 195.585 70.1035 194.207C73.9718 192.446 77.3128 189.71 80.1701 186.588C83.1086 183.356 84.7225 178.876 86.5952 174.979C89.4071 169.111 93.1318 164.931 99.0429 163.161L98.6649 164.786C98.5892 165.113 98.588 165.453 98.6617 165.781C98.7354 166.108 98.8821 166.415 99.0907 166.678C99.2993 166.941 99.5647 167.154 99.8668 167.3C100.169 167.447 100.5 167.523 100.836 167.524H129.296C128.729 172.437 126.338 199.272 142.473 198.138" fill="#CBAAF9"/>
<path d="M129.309 73.0862C129.286 75.6285 128.955 78.1583 128.323 80.6206C128.034 81.7881 127.415 82.8473 126.539 83.6716C125.664 84.4959 124.569 85.05 123.387 85.2675C123.339 83.5516 122.61 82.0455 121.497 81.1101C121.599 79.6574 121.584 78.1989 121.453 76.7485C121.38 75.7904 121.264 74.8966 121.143 74.0935C121.071 73.6363 120.967 73.1849 120.832 72.7423C120.452 72.3343 120.004 71.9947 119.509 71.7388C117.757 70.7524 114.151 69.7036 107.471 71.2456C106.38 71.4954 105.354 71.9711 104.459 72.6421C104.439 72.6546 104.421 72.6697 104.406 72.6875C103.803 73.2431 103.036 73.9461 102.242 74.3108C101.42 74.6887 100.562 74.7038 99.8424 73.81C99.8235 73.7911 99.814 73.7741 99.797 73.7552C99.4191 73.262 99.0581 72.6213 98.3911 72.4947C96.9851 72.2302 96.301 73.6286 96.1234 74.804C95.9684 75.8906 96.2878 76.8487 96.7545 77.7614C97.1455 78.5035 97.6563 79.1759 98.2663 79.7513C98.423 79.9029 98.5664 80.0671 98.6953 80.2427C98.6367 80.2531 98.5791 80.2689 98.5233 80.2899C98.3941 80.3334 98.2678 80.3851 98.1454 80.4449C96.4446 81.2102 95.2333 83.1283 95.2068 85.3733C95.2068 85.4432 92.3552 85.4016 91.9943 85.3733C90.6034 85.2448 89.2334 84.8442 88.2545 83.7954C85.4766 80.819 85.4898 76.4027 86.6312 72.9483C87.7121 69.6696 89.0879 66.4684 90.8907 63.5185C94.7968 57.135 100.857 52.4257 108.529 52.0024C110.37 51.91 112.214 52.0177 114.031 52.3237C114.89 52.4592 115.74 52.6485 116.576 52.8906C124.398 56.3035 129.362 64.0401 129.317 73.0862" fill="#C1F672"/>
<path d="M124.779 145.86C123.855 148.232 121.655 149.588 119.866 148.884C118.076 148.179 117.373 145.699 118.295 143.328C119.218 140.956 121.419 139.597 123.209 140.304C124.998 141.011 125.703 143.49 124.779 145.862" fill="#C1F672"/>
<path d="M129.534 167.04C129.534 167.04 124.514 202.029 144.591 198.151C164.558 194.29 172.115 113.06 114.319 101.378" stroke="#7C2BF1" stroke-miterlimit="10"/>
<path d="M82.5285 133.356C82.5285 133.356 66.3297 147.017 75.0584 160.68" stroke="#7C2BF1" stroke-miterlimit="10"/>
<path d="M129.898 157.322C129.62 157.339 129.224 157.154 128.953 157.08C128.611 156.989 128.271 156.892 127.935 156.789C125.961 156.175 124.104 155.234 122.441 154.007C122.063 153.737 121.391 153.563 120.93 153.741C120.673 153.835 120.446 153.996 120.273 154.208C120.101 154.42 119.988 154.674 119.947 154.945C119.805 155.92 120.493 156.874 121.243 157.499C122.133 158.244 123.057 158.93 124.136 159.376C125.178 159.794 126.253 160.125 127.349 160.364C127.846 160.48 128.351 160.553 128.844 160.68" stroke="#7C2BF1" stroke-miterlimit="10"/>
<path d="M136.116 147.855C136.32 148.933 136.469 150.051 136.367 151.145C136.282 152.071 135.949 153.152 134.919 153.377C134.724 153.429 134.52 153.448 134.318 153.432C130.441 153.203 127.245 151.864 123.596 149.226C119.947 146.587 118.662 152.663 121.995 153.74" stroke="#7C2BF1" stroke-miterlimit="10"/>
<path d="M122.136 158.232C122.046 158.159 121.961 158.08 121.881 157.996C120.065 156.097 119.736 159.912 121.642 161.035L121.888 161.18C122.017 161.235 122.155 161.299 122.291 161.369C122.355 161.386 122.427 161.415 122.493 161.434C124.216 162.189 126.051 162.673 127.858 163.166C126.07 162.583 124.288 162.008 122.493 161.434C122.338 161.369 122.19 161.305 122.036 161.231C121.988 161.212 121.939 161.196 121.888 161.186C121.856 161.171 121.821 161.165 121.786 161.169C121.75 161.172 121.717 161.185 121.688 161.205C121.645 161.24 121.613 161.288 121.597 161.341C121.304 162.044 121.542 162.93 121.916 163.56C122.31 164.225 122.984 164.737 123.649 165.102C125.439 166.105 127.52 166.698 129.528 167.054C129.901 167.131 130.283 167.156 130.662 167.127" stroke="#7C2BF1" stroke-miterlimit="10"/>
<path d="M146.866 171.456C146.866 171.456 140.708 160.961 140.022 151.835C139.602 146.187 137.943 144.991 136.756 144.909" stroke="#7C2BF1" stroke-miterlimit="10"/>
<path d="M134.919 153.376L136.117 147.856L136.756 144.908L141.492 123.051C141.562 122.725 141.559 122.389 141.482 122.064C141.405 121.741 141.256 121.438 141.047 121.179C140.838 120.92 140.574 120.711 140.273 120.567C139.973 120.423 139.644 120.349 139.311 120.349H110.991C110.488 120.348 109.999 120.518 109.604 120.832C109.21 121.145 108.934 121.583 108.82 122.074L103.244 145.987L99.173 163.435L98.7951 165.069C98.7199 165.397 98.7193 165.736 98.7936 166.064C98.8677 166.391 99.0145 166.698 99.2233 166.96C99.4319 167.223 99.6973 167.436 99.9994 167.582C100.301 167.728 100.633 167.805 100.968 167.806H129.426" stroke="#7C2BF1" stroke-miterlimit="10"/>
<path d="M99.8081 73.1811C99.8081 73.1811 101.307 66.8259 109.769 65.9831C118.231 65.1403 120.351 71.4633 120.351 71.4633L120.085 72.1002C120.085 72.1002 108.96 67.6366 102.817 74.0069C102.817 74.0069 100.604 75.0104 99.8081 73.1849" fill="#CBAAF9"/>
<path d="M133.612 109.111C133.612 109.111 104.863 132.4 79.7788 104.585" stroke="#7C2BF1" stroke-miterlimit="10"/>
<path d="M78.8777 137.133C78.3391 131.63 75.6122 118.844 61.9854 119.202" stroke="#7C2BF1" stroke-miterlimit="10"/>
<path d="M144.88 119.198C144.88 119.198 142.312 119.905 141.328 121.632" stroke="#7C2BF1" stroke-miterlimit="10"/>
<path d="M40.5498 203.17H162.61" stroke="#7C2BF1" stroke-miterlimit="10"/>
<path d="M121.497 81.1174C122.648 82.0849 123.387 83.6647 123.387 85.4524C123.387 88.4193 121.325 90.8193 118.777 90.8193C118.489 90.8178 118.202 90.7841 117.921 90.7191C120.888 88.4514 121.489 81.1174 121.489 81.1174" fill="#CBAAF9"/>
<path d="M104.714 93.0935C106.144 93.8052 107.709 94.205 109.305 94.2666C110.901 94.3282 112.493 94.0501 113.973 93.4506C122.322 89.9641 122.003 79.6877 121.136 74.1016C121.066 73.6485 120.968 73.2002 120.841 72.7599V72.7505C119.883 69.5568 117.383 66.9546 114.089 66.2157C107.709 64.7739 101.875 68.3908 99.4546 73.2607" stroke="#7C2BF1" stroke-miterlimit="10"/>
<path d="M120.92 72.8597C120.92 72.8597 120.894 72.8219 120.839 72.7595V72.7501C120.272 72.1113 116.99 69.0632 107.488 71.2534C106.398 71.5027 105.372 71.9785 104.478 72.6499C104.456 72.662 104.437 72.6773 104.421 72.6953" stroke="#7C2BF1" stroke-miterlimit="10"/>
<path d="M95.5943 88.3404H90.8945C87.5024 88.3404 84.8133 85.2336 83.6436 82.3178C81.9995 78.217 83.0521 74.0199 84.5318 70.0345C85.7714 66.6991 87.3475 63.4582 89.4205 60.5575C94.0617 54.0662 101.069 50.3888 109.123 51.0691C109.837 51.1296 110.548 51.2176 111.256 51.3336C122.071 53.0873 129.364 62.1297 129.309 73.0807C129.286 75.6247 128.955 78.1566 128.323 80.6208C128.032 81.7873 127.412 82.8456 126.536 83.6695C125.661 84.4934 124.567 85.0481 123.385 85.2677" stroke="#7C2BF1" stroke-miterlimit="10"/>
<path d="M98.6989 80.2427C98.5694 80.067 98.426 79.902 98.2699 79.7495C97.6595 79.175 97.1485 78.5032 96.7581 77.7615C96.2913 76.8487 95.972 75.8906 96.1269 74.804C96.3008 73.6362 96.9849 72.2302 98.3946 72.4948C99.0617 72.6233 99.417 73.262 99.8006 73.7552C101.259 75.645 103.268 73.7458 104.5 72.6044" stroke="#7C2BF1" stroke-miterlimit="10"/>
<path d="M121.497 81.1174C122.648 82.0849 123.387 83.6647 123.387 85.4524C123.387 88.4193 121.325 90.8193 118.777 90.8193C118.489 90.8178 118.202 90.7841 117.921 90.7191" stroke="#7C2BF1" stroke-miterlimit="10"/>
<path d="M111.634 84.7595C112.666 85.453 115.159 86.0219 114.658 83.9658C114.057 81.53 113.248 76.3256 118.201 75.9288C118.201 75.9288 120.382 76.0214 121.459 76.7621" stroke="#7C2BF1" stroke-miterlimit="10"/>
<path d="M113.499 88.8316C113.499 88.8316 111.005 90.1544 109.769 87.5182" stroke="#7C2BF1" stroke-miterlimit="10"/>
<path d="M108.441 79.487C108.344 80.3242 108.671 81.048 109.172 81.1065C109.673 81.1651 110.157 80.5396 110.255 79.6968C110.353 78.854 110.022 78.1378 109.523 78.0792C109.025 78.0206 108.537 78.6461 108.441 79.487Z" fill="#7C2BF1"/>
<path d="M116.563 79.98C116.466 80.8153 116.793 81.541 117.294 81.5995C117.795 81.6581 118.279 81.0326 118.375 80.1898C118.471 79.347 118.144 78.6289 117.646 78.5722C117.147 78.5155 116.659 79.1391 116.563 79.98Z" fill="#7C2BF1"/>
<path d="M111.634 76.4635C111.634 76.4635 110.107 74.1089 106.647 76.3426" stroke="#7C2BF1" stroke-miterlimit="10"/>
<path d="M114.317 93.2951V106.357" stroke="#7C2BF1" stroke-miterlimit="10"/>
<path d="M62.6787 171.457C62.6787 171.457 68.0626 166.354 75.0546 160.685C81.1414 155.747 88.4415 150.363 94.4376 147.544C95.2049 147.187 95.9494 146.867 96.6732 146.599C98.4002 145.941 100.254 145.682 102.095 145.843C102.48 145.875 102.864 145.926 103.244 145.998" stroke="#7C2BF1" stroke-miterlimit="10"/>
<path d="M99.1733 163.435C93.2603 165.206 89.5357 169.386 86.7256 175.253C84.8567 179.15 83.2391 183.63 80.3005 186.862C77.4451 189.982 74.1041 192.72 70.2358 194.481C63.2173 197.675 54.5755 197.429 50.0156 190.485C46.9315 185.775 45.7183 179.925 45.1023 174.422C44.044 164.858 47.3851 137.899 61.9852 119.2C66.6755 113.185 72.5262 108.03 79.7714 104.579C84.8567 102.164 90.6053 100.584 97.1211 100.136L98.9466 90.7196" stroke="#7C2BF1" stroke-miterlimit="10"/>
<path d="M142.603 198.449V203.17" stroke="#7C2BF1" stroke-miterlimit="10"/>
<path d="M60.6245 196.764V203.17" stroke="#7C2BF1" stroke-miterlimit="10"/>
<path d="M104.412 85.4531C104.43 86.8698 103.927 88.2437 102.998 89.3138C102.478 89.5546 101.911 89.6789 101.337 89.6786C98.7916 89.6786 96.728 87.2786 96.728 84.3117C96.7097 82.8952 97.2137 81.5215 98.1434 80.4529C98.6637 80.2108 99.2306 80.0857 99.8045 80.0862C102.35 80.0862 104.412 82.4881 104.412 85.4531Z" fill="#CBAAF9"/>
<path d="M99.8085 90.8199C102.351 90.8199 104.412 88.4171 104.412 85.4531C104.412 82.489 102.351 80.0862 99.8085 80.0862C97.266 80.0862 95.2051 82.489 95.2051 85.4531C95.2051 88.4171 97.266 90.8199 99.8085 90.8199Z" stroke="#7C2BF1" stroke-miterlimit="10"/>
<path fill-rule="evenodd" clip-rule="evenodd" d="M55.2671 90.8025C55.2671 83.81 60.9359 78.1412 67.9283 78.1412C74.9208 78.1412 80.5896 83.81 80.5896 90.8025C80.5896 97.7949 74.9208 103.464 67.9283 103.464C60.9359 103.464 55.2671 97.7949 55.2671 90.8025Z" fill="#F9F5FF"/>
<path d="M71.7035 87.4966C71.6903 85.6368 70.1374 85.1828 69.3621 85.1883C68.5868 85.1939 67.0406 85.6699 67.0538 87.5297L67.0786 91.017M67.0786 91.017L67.0952 93.3419C67.1007 94.1172 66.6467 95.67 64.7869 95.6832L71.7614 95.6336M67.0786 91.017L69.4035 91.0005M67.0786 91.017L64.7538 91.0336" stroke="#7C2BF1" stroke-width="1.5" stroke-linecap="round" stroke-linejoin="round"/>
<path d="M181.31 95.0892C181.489 95.219 181.562 95.3921 181.529 95.6084L179.452 108.068C179.425 108.225 179.339 108.347 179.193 108.433C179.117 108.477 179.033 108.498 178.941 108.498C178.882 108.498 178.817 108.485 178.747 108.458L175.072 106.957L173.109 109.35C173.012 109.474 172.879 109.537 172.712 109.537C172.641 109.537 172.582 109.526 172.533 109.504C172.43 109.466 172.348 109.403 172.286 109.313C172.224 109.224 172.192 109.126 172.192 109.017V106.186L179.201 97.5958L170.53 105.099L167.325 103.785C167.125 103.71 167.017 103.561 167.001 103.339C166.99 103.123 167.077 102.963 167.26 102.86L180.758 95.073C180.84 95.0243 180.926 95 181.018 95C181.126 95 181.224 95.0297 181.31 95.0892Z" fill="#7C2BF1"/>
<path d="M125.755 96.3771C135.582 93.2591 155.084 83.2246 154.479 68.0311C153.723 49.0392 139.55 42.6141 112.716 43.748" stroke="#7C2BF1" stroke-dasharray="8 8"/>
<path d="M207.136 94.0927C206.831 94.5308 206.458 94.9899 206.322 95.158C205.448 96.2177 204.426 97.1279 203.339 97.9716C202.497 98.6287 201.526 98.7388 200.521 98.6936C199.075 98.6315 197.715 98.1989 196.377 97.6867C195.422 97.3209 194.506 96.8746 193.594 96.4151C193.433 96.336 193.297 96.2383 193.084 96.3275C191.525 96.9684 190.129 96.5202 188.966 95.4849C185.01 91.9755 181.107 88.4067 177.184 84.8607C176.91 84.613 176.632 84.3699 176.395 84.0811C175.661 83.168 175.244 82.1605 175.397 80.9716C175.422 80.7785 175.366 80.6201 175.245 80.4519C174.515 79.4601 173.835 78.4396 173.215 77.3813C172.772 76.6235 172.375 75.8328 172.024 75.0268C171.5 73.7979 171.079 72.5378 171.072 71.1783C171.068 70.577 171.164 69.9838 171.469 69.4628C172.207 68.2051 173.077 67.0411 174.101 66C174.263 65.8393 174.488 65.6361 174.709 65.4375C174.798 66.4224 175.064 67.5423 175.263 68.2949C175.381 68.7249 175.47 69.0298 175.501 69.1241C175.957 70.5656 176.631 71.9132 177.403 73.208C177.969 74.1514 178.564 75.0715 179.232 75.9487C179.335 76.083 179.437 76.2086 179.56 76.3201C179.8 76.3123 179.708 76.3213 179.822 76.3156C180.867 76.2149 181.818 76.4851 182.697 77.0726C182.941 77.2347 183.155 77.42 183.37 77.614C187.347 81.2095 191.325 84.7964 195.298 88.3964C196.143 89.1601 196.654 90.1194 196.768 91.2599C196.788 91.4769 196.885 91.5896 197.059 91.6811C197.963 92.1497 198.867 92.6097 199.802 92.9984C200.911 93.4611 202.034 93.8794 203.212 94.0641C203.423 94.097 203.638 94.1341 203.854 94.1712C204.122 94.2143 204.398 94.2483 204.673 94.2562C205.14 94.2719 205.594 94.2751 206.174 94.1935C206.754 94.1207 206.212 94.1785 207.136 94.0927Z" fill="#C1F672" stroke="#7C2BF1" stroke-miterlimit="10" stroke-linecap="round" stroke-linejoin="round"/>
<path d="M195.164 72.5337C194.439 71.9034 193.689 71.2918 192.914 70.7077C192.453 70.3649 192.003 70.0084 191.541 69.6656C191.075 69.3273 190.588 69.0032 190.114 68.6741C189.287 68.1013 188.432 67.5691 187.565 67.0507C185.929 66.0698 184.226 65.2274 182.436 64.5637C181.295 64.1462 180.128 63.8389 178.912 63.7434C178.019 63.6752 177.151 63.7452 176.341 64.1914C176.049 64.3587 175.076 65.1139 175.076 65.1139C174.967 65.2065 174.846 65.3129 174.721 65.4238C174.81 66.4087 175.076 67.5285 175.275 68.2812C175.894 68.2761 176.917 68.5122 177.514 68.6869C179.363 69.2299 181.084 70.0714 182.761 70.9979C183.738 71.5327 184.675 72.1391 185.612 72.7456C186.225 73.1418 186.801 73.5965 187.398 74.0197C188.275 74.6466 189.128 75.3097 189.965 75.991C190.356 76.3112 190.718 76.6634 191.116 76.9658C191.696 77.3985 192.222 77.882 192.752 78.3695C193.374 78.9396 193.962 79.5376 194.575 80.1168C195.215 80.7121 195.805 81.3535 196.392 81.9995C197.093 82.7748 197.786 83.5505 198.446 84.3541C199.082 85.137 199.698 85.9427 200.285 86.763C201.255 88.1219 202.155 89.5322 202.876 91.0474C203.227 91.7881 203.549 92.5433 203.793 93.3286C203.866 93.5603 203.932 93.91 203.848 94.1583C204.116 94.2014 204.393 94.2354 204.668 94.2434C205.135 94.259 205.588 94.2623 206.168 94.1807C206.754 94.1293 206.212 94.1872 207.132 94.0972C207.318 93.8263 207.484 93.5694 207.553 93.3829C207.553 93.3829 208.124 92.0073 208.188 91.5421C208.256 90.2093 207.871 88.9647 207.382 87.7516C206.765 86.2224 205.935 84.8085 205.037 83.4242C204.408 82.4579 203.708 81.5343 203.012 80.6149C202.54 79.9893 202.001 79.4107 201.492 78.8175C201.047 78.2995 200.603 77.7814 200.146 77.2771C199.961 77.0685 199.768 76.8691 199.566 76.6787C199.15 76.2857 198.749 75.8657 198.345 75.459C197.339 74.4332 196.249 73.4814 195.164 72.5337ZM189.936 71.0193C190.354 71.0984 190.707 71.5252 190.75 71.9545C190.778 72.2451 190.664 72.4819 190.549 72.7274C189.968 73.2885 189.455 73.2316 188.962 72.7858C188.605 72.4638 188.518 71.9364 188.745 71.5109C188.944 71.1435 189.452 70.9304 189.936 71.0193ZM183.847 69.374C183.555 68.9442 183.609 68.4533 183.891 68.086C184.415 67.5976 185.102 67.6544 185.462 68.046C185.753 68.3669 185.862 68.7057 185.73 69.1264C185.591 69.5649 185.268 69.8036 184.847 69.8553C184.44 69.902 184.087 69.7324 183.847 69.374ZM203.047 83.9736C203.395 84.4965 203.269 85.0128 202.779 85.408C202.36 85.743 201.782 85.6937 201.34 85.2278C200.991 84.8619 201.021 84.2502 201.38 83.8529C201.755 83.3458 202.589 83.2863 203.047 83.9736ZM199.316 80.5356C199.143 80.9017 198.409 81.1175 197.997 80.9029C197.532 80.6649 197.008 80.1422 197.5 79.3502C197.533 79.3137 197.575 79.2767 197.603 79.2361C197.842 78.871 198.523 78.7146 198.984 79.04C199.513 79.4186 199.612 79.9148 199.316 80.5356ZM195.122 76.3713C194.691 76.7113 193.889 76.6254 193.586 76.061C193.346 75.6198 193.33 75.2327 193.673 74.7708C194.184 74.3614 194.713 74.3086 195.126 74.6321C195.648 75.0459 195.768 75.8593 195.122 76.3713Z" fill="#C1F672" stroke="#7C2BF1" stroke-miterlimit="10" stroke-linecap="round" stroke-linejoin="round"/>
<path d="M191.108 76.9662C191.687 77.3989 192.213 77.8824 192.743 78.3699C193.365 78.94 193.953 79.538 194.566 80.1172C195.206 80.7125 195.797 81.3539 196.383 81.9999C197.085 82.7752 197.777 83.5509 198.437 84.3545C199.074 85.1374 199.69 85.9431 200.276 86.7635C201.247 88.1223 202.146 89.5326 202.867 91.0478C203.219 91.7885 203.54 92.5437 203.785 93.329C203.857 93.5607 203.923 93.9104 203.84 94.1587C203.624 94.1217 203.413 94.0887 203.198 94.0516C202.016 93.8716 200.892 93.4532 199.788 92.9859C198.848 92.5931 197.945 92.1332 197.045 91.6686C196.871 91.5772 196.778 91.4685 196.754 91.2475C196.644 90.1024 196.129 89.1477 195.284 88.384C191.311 84.7839 187.333 81.1971 183.355 77.6016C183.141 77.4076 182.927 77.2223 182.683 77.0602C181.808 76.4767 180.857 76.2066 179.807 76.3031C179.695 76.3175 179.79 76.304 179.546 76.3076C179.423 76.1962 179.321 76.0706 179.218 75.9363C178.55 75.059 177.959 74.1344 177.388 73.1956C176.613 71.9053 175.939 70.5577 175.487 69.1117C175.46 69.0215 175.366 68.7124 175.249 68.2825C175.868 68.2774 176.891 68.5135 177.488 68.6882C179.337 69.2312 181.058 70.0727 182.735 70.9992C183.712 71.5339 184.649 72.1404 185.586 72.7469C186.199 73.1431 186.775 73.5978 187.372 74.021C188.249 74.6479 189.102 75.3109 189.938 75.9922C190.347 76.3116 190.709 76.6638 191.108 76.9662Z" stroke="#7C2BF1" stroke-miterlimit="10" stroke-linecap="round" stroke-linejoin="round"/>
<path d="M203.047 83.9736C203.396 84.4965 203.269 85.0128 202.779 85.408C202.36 85.743 201.782 85.6937 201.34 85.2279C200.991 84.862 201.021 84.2502 201.38 83.8529C201.755 83.3458 202.589 83.2863 203.047 83.9736Z" stroke="#7C2BF1" stroke-miterlimit="10" stroke-linecap="round" stroke-linejoin="round"/>
<path d="M183.847 69.374C183.555 68.9442 183.609 68.4533 183.891 68.086C184.415 67.5975 185.103 67.6544 185.462 68.0459C185.753 68.3669 185.862 68.7057 185.73 69.1264C185.591 69.5649 185.268 69.8035 184.847 69.8553C184.44 69.902 184.087 69.7324 183.847 69.374Z" stroke="#7C2BF1" stroke-miterlimit="10" stroke-linecap="round" stroke-linejoin="round"/>
<path d="M189.936 71.0193C190.354 71.0984 190.707 71.5252 190.75 71.9545C190.778 72.2451 190.663 72.4819 190.549 72.7274C189.968 73.2885 189.455 73.2316 188.962 72.7857C188.605 72.4638 188.518 71.9364 188.745 71.5109C188.944 71.1435 189.452 70.9304 189.936 71.0193Z" stroke="#7C2BF1" stroke-miterlimit="10" stroke-linecap="round" stroke-linejoin="round"/>
<path d="M198.975 79.0404C199.509 79.4232 199.608 79.9194 199.312 80.5402C199.139 80.9063 198.405 81.1221 197.993 80.9075C197.527 80.6695 197.004 80.1467 197.496 79.3548C197.529 79.3183 197.571 79.2813 197.599 79.2406C197.837 78.8668 198.518 78.7104 198.975 79.0404Z" stroke="#7C2BF1" stroke-miterlimit="10" stroke-linecap="round" stroke-linejoin="round"/>
<path d="M195.123 76.3713C194.691 76.7113 193.889 76.6254 193.586 76.061C193.346 75.6198 193.331 75.2327 193.673 74.7708C194.184 74.3614 194.713 74.3086 195.126 74.6321C195.649 75.0459 195.768 75.8593 195.123 76.3713Z" stroke="#7C2BF1" stroke-miterlimit="10" stroke-linecap="round" stroke-linejoin="round"/>
<path d="M187.762 88.0134C187.907 87.6696 187.827 87.3124 187.801 86.9648C187.761 86.4227 187.675 85.8788 187.422 85.389C187.182 84.911 186.623 84.6983 186.182 84.9324C185.899 85.0879 185.667 85.3446 185.673 85.6974C185.676 86.017 185.554 86.1354 185.24 86.1761C184.881 86.2233 184.503 86.6245 184.456 86.9301C184.396 87.3111 184.597 87.6665 185.003 87.8993C185.401 88.1243 185.843 88.1601 186.287 88.1585C186.76 88.1512 187.25 88.2303 187.7 88.0124" fill="#7C2BF1"/>
<path d="M177.951 79.2028C177.822 79.4682 177.611 79.6834 177.514 79.9698C177.136 81.0798 177.279 82.1051 178.062 83.046C178.202 83.2136 178.345 83.3678 178.5 83.5083C182.263 86.9095 186.022 90.3152 189.793 93.7073C190.909 94.7074 192.4 94.885 193.642 94.041C194.833 93.2342 195.139 91.5607 194.505 90.3404C194.333 90.0104 194.106 89.7309 193.828 89.4797C191.808 87.6624 189.797 85.8359 187.786 84.0182C185.926 82.3368 184.054 80.6778 182.223 78.9733C181.336 78.1465 179.829 77.9296 178.742 78.5736C178.465 78.7381 178.199 78.9287 177.985 79.175" stroke="#7C2BF1" stroke-miterlimit="10" stroke-linecap="round" stroke-linejoin="round"/>
<defs>
<linearGradient id="paint0_linear_1864_7385" x1="123.509" y1="0.503053" x2="98.6702" y2="242.853" gradientUnits="userSpaceOnUse">
<stop stop-color="#F0FDDD"/>
<stop offset="0.833164" stop-color="#F0FDDD" stop-opacity="0"/>
</linearGradient>
</defs>
</svg>
