<svg width="240" height="240" viewBox="0 0 240 240" fill="none" xmlns="http://www.w3.org/2000/svg">
<path d="M211.808 41.3913C251.566 94.0621 250.937 170.552 199.25 211.066C143.304 254.919 62.5024 249.165 19.4686 192.155C-20.8133 138.79 5.95089 65.412 58.3192 24.3635C106.111 -13.0979 175.046 -7.31025 211.808 41.3913Z" fill="url(#paint0_linear_2622_12184)"/>
<path d="M159.109 116.868C146.159 124.553 130.361 115.498 131.104 115.34C155.585 110.036 157.748 94.6448 157.748 94.6448C152.861 82.7446 139.539 86.5756 139.539 86.5756C139.153 103.463 118.982 104.414 118.982 104.414C117.687 98.9349 117.758 86.1414 117.758 86.1414C111.644 81.882 110.407 83.6899 110.407 83.6899C112.335 66.7829 120.099 61.3324 120.099 61.3324C121.392 60.1316 127.174 57.4322 130.143 57.0826L130.25 57.5514C130.25 57.5514 127.248 65.0212 133.001 65.513C137.842 65.9357 140.593 59.9971 141.343 58.1124C147.638 60.0567 153.646 64.4083 157.642 71.7282C167.097 89.0463 159.109 116.868 159.109 116.868Z" fill="#CBAAF9"/>
<path d="M160.509 109.581L191.976 130.33C198.078 134.353 197.293 143.51 190.601 146.443L153.777 162.593C150.352 164.095 146.597 164.693 142.873 164.33C139.15 163.967 135.582 162.655 132.515 160.52L118.373 150.668" stroke="#7C2BF1" stroke-miterlimit="10"/>
<path d="M160.509 116.272L159.45 115.573M114.54 154.447L132.52 167.208C135.588 169.342 139.155 170.654 142.879 171.017C146.603 171.38 150.358 170.782 153.782 169.281L190.607 153.131C195.416 151.023 197.174 145.701 195.518 141.38" stroke="#7C2BF1" stroke-miterlimit="10"/>
<path d="M187.892 145.298L154.046 160.143C150.899 161.523 147.448 162.072 144.026 161.739C140.604 161.405 137.325 160.199 134.506 158.238L121.537 149.158C123.322 147.794 125.323 146.736 127.457 146.026C132.804 144.217 138.021 142.049 143.074 139.538C146.91 137.647 150.279 134.936 152.941 131.597C155.604 128.258 157.493 124.375 158.475 120.224C159.153 117.352 159.749 114.447 160.237 111.526L190.024 131.148C195.631 134.845 194.04 142.604 187.892 145.298Z" fill="#C1F672"/>
<path d="M100.68 188.322C100.68 188.322 106.614 185.871 107.751 184.023C107.751 184.023 107.965 188.219 106.855 189.652C105.744 191.085 99.1083 194.874 98.7517 194.399C98.395 193.925 100.68 188.322 100.68 188.322Z" fill="#C1F672"/>
<path d="M82.4124 198.321C82.4124 198.321 83.4921 199.781 87.323 198.321C91.1539 196.861 99.4886 191.483 99.4886 191.483C99.4886 191.483 97.1634 197.704 96.3209 198.388C95.4784 199.072 79.5609 206.842 79.5609 206.842C79.5609 206.842 72.4448 207.85 75.1266 202.807L82.4124 198.321Z" fill="#C1F672"/>
<path d="M105.321 117.037C96.5482 120.439 87.265 128.434 89.9352 150.572L90.6775 156.324" stroke="#7C2BF1" stroke-miterlimit="10"/>
<path d="M122.273 116.547C122.24 116.453 122.208 116.364 122.173 116.272" stroke="#7C2BF1" stroke-miterlimit="10"/>
<path d="M118.982 103.999C118.65 102.057 118.403 100.174 118.211 98.387C118.211 98.3534 118.207 98.3197 118.199 98.2871C117.189 88.3101 118.211 81.0516 118.211 81.0516" stroke="#7C2BF1" stroke-miterlimit="10"/>
<path d="M142.563 43.446L141.02 44.0455C141.02 44.0935 141.02 44.6929 140.955 45.5325C140.883 46.5352 140.723 47.5297 140.477 48.5047C140.614 47.8399 140.812 46.2607 139.941 45.1617C139.927 45.1393 139.912 45.1179 139.894 45.0983C139.316 44.4048 138.603 44.6795 138.03 45.156C137.635 45.4893 137.289 45.8776 137.004 46.3087C137.104 45.0251 136.873 43.7375 136.333 42.568C135.981 41.7701 135.514 41.0278 134.947 40.3643C135.821 43.3614 134.7 45.3231 134.7 45.3231C131.741 46.0167 129.688 45.8687 128.157 45.6055C126.867 44.4067 127.314 40.0896 127.314 40.0896C126.017 41.1462 126.329 45.2347 126.329 45.2347C126.164 44.1679 126.184 43.0804 126.389 42.0204C125.744 42.9287 125.372 44.0007 125.315 45.1118L125.292 45.1003C125.202 45.0774 125.114 45.0497 125.028 45.0176C124.869 44.9343 124.715 44.8418 124.567 44.741L123.713 44.1646C125.003 37.6073 129.512 33.4843 136.48 34.6947C136.935 34.7728 137.382 34.8885 137.818 35.0405C142.409 37.4248 142.563 43.446 142.563 43.446Z" fill="#C1F672"/>
<path d="M102.8 107.308L101.044 102.039C101.005 101.917 100.935 101.806 100.841 101.718C100.747 101.629 100.633 101.566 100.508 101.534C100.492 101.534 100.475 101.534 100.457 101.523C100.44 101.511 100.436 101.523 100.425 101.523C100.384 101.52 100.344 101.52 100.303 101.523C100.108 101.523 99.921 101.597 99.7788 101.73C99.6361 101.861 99.5223 102.021 99.4443 102.198C99.3664 102.375 99.3259 102.566 99.3257 102.76C99.3259 102.911 99.35 103.062 99.397 103.206C99.7826 104.318 100.469 106.326 100.795 107.24" fill="#C1F672"/>
<path d="M102.403 107.308L100.51 101.534C100.495 101.534 100.477 101.534 100.46 101.523C100.443 101.511 100.439 101.523 100.427 101.523L99.4342 101.331C98.904 101.233 98.3738 101.127 97.8436 101.029C97.2074 100.902 96.5673 100.797 95.933 100.645C95.7832 100.602 95.6293 100.577 95.4741 100.568C95.2786 100.567 95.0906 100.642 94.9497 100.777C94.8059 100.908 94.6911 101.068 94.6131 101.246C94.535 101.424 94.4955 101.617 94.4966 101.811C94.4956 101.961 94.5197 102.109 94.5679 102.251C94.994 103.496 95.8057 105.851 96.0641 106.566L102.403 107.308Z" fill="#C1F672"/>
<path d="M139.836 81.0498C139.644 83.1881 139.543 85.776 139.476 89.0287C139.476 95.9452 131.803 101.672 124.983 102.983L112.478 105.797C110.826 106.116 109.363 105.088 108.214 104.406C107.032 103.705 105.821 102.869 104.969 102.249C103.743 101.355 101.381 102.074 101.865 104.205C101.969 104.61 102.166 104.985 102.44 105.302C102.714 105.619 103.057 105.869 103.444 106.032C103.661 106.129 103.886 106.211 104.115 106.278C104.2 106.299 104.276 106.348 104.331 106.416C104.385 106.485 104.416 106.57 104.417 106.657C104.418 106.745 104.39 106.831 104.338 106.901C104.285 106.971 104.211 107.022 104.126 107.046C103.043 107.419 101.059 107.64 97.8585 106.47C93.7576 104.965 93.4395 114.291 99.0461 115.915H99.0673C104.232 117.471 109.791 117.271 115.129 117.048C121.191 116.819 127.224 116.086 133.164 114.856C136.185 114.218 139.289 113.555 142.054 112.193C146.816 109.847 150.248 107.158 153.512 102.971C157.175 98.2775 158.738 92.12 159.621 86.3466C160.632 79.7414 159.236 74.1641 155.682 68.4791L155.551 68.2716" stroke="#7C2BF1" stroke-miterlimit="10"/>
<path d="M102.8 107.308L101.044 102.039C101.005 101.917 100.935 101.806 100.841 101.718C100.747 101.629 100.633 101.566 100.508 101.534C100.492 101.534 100.475 101.534 100.457 101.523C100.44 101.511 100.436 101.523 100.425 101.523C100.384 101.52 100.344 101.52 100.303 101.523C100.108 101.523 99.921 101.597 99.7788 101.73C99.6361 101.861 99.5223 102.021 99.4443 102.198C99.3664 102.375 99.3259 102.566 99.3257 102.76C99.3259 102.911 99.35 103.062 99.397 103.206C99.7826 104.318 100.469 106.326 100.795 107.24" stroke="#7C2BF1" stroke-miterlimit="10"/>
<path d="M100.51 101.534C100.495 101.534 100.477 101.534 100.46 101.523C100.443 101.511 100.439 101.523 100.427 101.523L99.4342 101.331C98.904 101.233 98.3738 101.127 97.8436 101.029C97.2074 100.902 96.5673 100.797 95.933 100.645C95.7832 100.602 95.6293 100.577 95.4741 100.568C95.2786 100.567 95.0906 100.642 94.9497 100.777C94.8059 100.908 94.6911 101.068 94.6131 101.246C94.535 101.424 94.4955 101.617 94.4966 101.811C94.4956 101.961 94.5197 102.109 94.5679 102.251C94.994 103.496 95.8057 105.851 96.0641 106.566" stroke="#7C2BF1" stroke-miterlimit="10"/>
<path d="M124.716 44.9225C124.716 47.4201 125.204 49.8082 126.407 52.0138C127.371 53.7852 128.786 55.57 130.811 56.156C131.259 56.2849 131.724 56.3497 132.191 56.3481C135.627 56.3328 136.163 52.277 136.163 52.277" stroke="#7C2BF1" stroke-miterlimit="10"/>
<path d="M105.307 102.579C106.741 100.539 108.037 98.3332 108.831 95.9586C109.625 93.5839 109.666 91.0114 109.888 88.5138C110.478 81.8163 111.391 76.2774 113.985 70.0391C116.231 64.6404 123.015 57.6855 129.765 57.0266L130.372 56.9747M140.839 46.3717V46.3833C140.68 47.6225 140.407 48.8446 140.022 50.0336C139.563 51.4521 139.454 52.9602 139.706 54.4294L140.24 57.5245C140.264 57.6625 140.327 57.7908 140.421 57.8948C140.515 57.9987 140.637 58.0742 140.772 58.1124C147.551 60.074 153.568 64.4026 157.069 70.6524C161.436 78.4565 162.232 87.8552 161.88 96.616C161.569 104.211 160.337 111.761 158.588 119.152C157.52 123.669 155.463 127.896 152.565 131.529C149.668 135.163 146.001 138.114 141.827 140.172C136.333 142.906 130.66 145.265 124.847 147.233C121.769 148.249 118.958 149.935 116.616 152.169C114.275 154.403 112.462 157.13 111.31 160.15L97.6488 196.35C97.1467 197.686 96.1565 198.784 94.8763 199.424L81.7853 205.977C80.1323 206.802 78.2465 207.04 76.4391 206.653C75.9706 206.553 75.5431 206.313 75.2129 205.967C74.8824 205.621 74.6643 205.184 74.587 204.712C74.5095 204.241 74.5764 203.757 74.7789 203.324C74.9813 202.891 75.3098 202.529 75.7218 202.284L82.4081 198.321L91.6026 151.612C92.2497 147.444 93.7948 143.466 96.1315 139.951C98.468 136.435 101.541 133.466 105.139 131.246C105.619 130.955 106.119 130.698 106.635 130.478L126.567 121.853" stroke="#7C2BF1" stroke-miterlimit="10"/>
<path d="M135.36 34.243C134.295 33.9899 133.192 33.9339 132.106 34.0778C132.061 34.0788 132.017 34.0826 131.973 34.0893" stroke="#7C2BF1" stroke-miterlimit="10"/>
<path d="M130.533 57.0879C130.533 57.0879 127.006 65.1436 133.313 65.5413C138.971 65.9025 141.048 58.2406 141.048 58.2406" stroke="#7C2BF1" stroke-miterlimit="10"/>
<path d="M140.396 48.7976C140.436 48.6497 141.044 46.4652 139.883 45.0896C138.722 43.714 137.149 46.0733 136.991 46.3096C137.299 42.9226 134.938 40.3539 134.938 40.3539C135.809 43.3529 134.687 45.3125 134.687 45.3125C130.374 46.3192 128.001 45.5526 126.318 45.2222C126.152 44.1559 126.173 43.0692 126.379 42.01C125.733 42.9159 125.36 43.9872 125.305 45.0973H125.278C124.638 44.9277 124.03 44.6516 123.482 44.2808L122.627 43.7044C123.919 37.1492 128.427 33.0224 135.395 34.2328C142.362 35.4432 142.557 43.4278 142.557 43.4278L141.005 44.0291C141.005 44.0291 141.018 46.665 140.396 48.7976Z" stroke="#7C2BF1" stroke-miterlimit="10"/>
<path d="M127.419 48.4561V51.6434C127.419 51.6822 127.429 51.7204 127.447 51.7548C127.464 51.7894 127.49 51.8192 127.522 51.8421C127.553 51.8649 127.589 51.8799 127.628 51.8862C127.666 51.8924 127.706 51.8895 127.743 51.8778C127.994 51.7948 128.226 51.6599 128.421 51.482" stroke="#7C2BF1" stroke-miterlimit="10"/>
<path d="M125.506 50.8754C126.515 50.4835 126.89 49.0326 126.343 47.6347C125.796 46.2368 124.534 45.4214 123.526 45.8133C122.517 46.2053 122.142 47.6562 122.689 49.0541C123.236 50.452 124.497 51.2674 125.506 50.8754Z" stroke="#7C2BF1" stroke-miterlimit="10"/>
<path d="M131.577 51.7876C132.586 51.3957 132.961 49.9448 132.414 48.5469C131.867 47.149 130.606 46.3336 129.597 46.7255C128.588 47.1175 128.213 48.5684 128.76 49.9663C129.307 51.3642 130.568 52.1796 131.577 51.7876Z" stroke="#7C2BF1" stroke-miterlimit="10"/>
<path d="M126.57 48.621C126.57 48.621 127.168 47.9409 128.421 48.7382" stroke="#7C2BF1" stroke-miterlimit="10"/>
<path d="M130.249 55.9546C130.249 55.9546 130.683 57.4186 131.959 62.164" stroke="#7C2BF1" stroke-miterlimit="10"/>
<path d="M98.2944 194.639L105.814 190.595C106.244 190.362 106.612 190.028 106.884 189.622C107.155 189.215 107.324 188.749 107.373 188.262C108.623 176.034 108.241 168.303 108.241 168.303" stroke="#7C2BF1" stroke-miterlimit="10"/>
<path d="M91.4698 131.926L62.5327 111.774" stroke="#7C2BF1" stroke-miterlimit="10"/>
<path d="M89.831 137.479L62.5327 118.466" stroke="#7C2BF1" stroke-miterlimit="10"/>
<path d="M200.522 99.1754V115.673C200.522 116.429 200.301 117.17 199.887 117.804C199.473 118.438 198.883 118.938 198.189 119.245L177.656 128.305L171.378 137.812C171.217 138.047 170.984 138.226 170.714 138.321C170.444 138.416 170.15 138.423 169.876 138.341C169.602 138.259 169.361 138.093 169.188 137.865C169.015 137.637 168.919 137.361 168.914 137.076V132.165L166.809 133.093C166.341 133.297 165.829 133.382 165.319 133.34C164.81 133.298 164.319 133.131 163.891 132.853C163.462 132.575 163.11 132.196 162.865 131.749C162.62 131.302 162.491 130.801 162.488 130.292V116.515C162.488 114.796 162.993 113.115 163.939 111.679C164.886 110.242 166.233 109.113 167.815 108.43L196.033 96.2397C196.522 96.0284 197.055 95.9413 197.586 95.9869C198.117 96.0322 198.628 96.2084 199.073 96.4996C199.518 96.7909 199.884 97.188 200.137 97.6551C200.39 98.1221 200.522 98.6445 200.522 99.1754Z" fill="#7C2BF1"/>
<path d="M186.917 117.444C189.124 113.211 188.527 108.55 185.583 107.033C182.639 105.516 178.462 107.718 176.255 111.951C174.048 116.184 174.645 120.845 177.589 122.362C180.533 123.879 184.71 121.677 186.917 117.444Z" fill="#F9F5FF"/>
<path d="M184.167 111.478C184.098 110.296 183.175 110.39 182.721 110.584C182.267 110.779 181.378 111.465 181.446 112.647L181.575 114.864M181.575 114.864L181.661 116.343C181.689 116.836 181.474 117.938 180.386 118.405L184.467 116.652M181.575 114.864L182.935 114.28M181.575 114.864L180.214 115.449" stroke="#7C2BF1" stroke-linecap="round" stroke-linejoin="round"/>
<path d="M193.217 179.07C193.306 179.216 193.306 179.361 193.219 179.505L188.028 187.778C187.962 187.882 187.864 187.943 187.734 187.961C187.668 187.969 187.601 187.96 187.536 187.932C187.493 187.915 187.451 187.886 187.409 187.845L185.234 185.681L183.121 186.804C183.014 186.864 182.901 186.869 182.782 186.819C182.731 186.798 182.692 186.773 182.664 186.743C182.602 186.685 182.562 186.615 182.544 186.533C182.526 186.451 182.534 186.371 182.566 186.294L183.408 184.274L190.966 180.231L182.545 183.003L180.65 181.112C180.53 180.998 180.497 180.86 180.552 180.697C180.608 180.539 180.718 180.451 180.879 180.433L192.828 178.894C192.901 178.884 192.97 178.892 193.035 178.919C193.112 178.951 193.173 179.002 193.217 179.07Z" fill="#7C2BF1"/>
<path d="M152.342 60.6524C163.201 63.7372 181.216 73.9786 181.216 99.8906" stroke="#7C2BF1" stroke-dasharray="6 6"/>
<path d="M98.667 200.577C113.242 205.783 135.435 209.081 180.105 188.076" stroke="#7C2BF1" stroke-dasharray="8 8"/>
<path d="M121 57C109.5 57 101 66.4346 89.5474 64.5715C73.8633 62.0201 71.5 53.4346 74 43.4346C76.5 33.4346 86.5 28.4346 93 30.4346C99.5 32.4346 105.547 38.5715 100.047 50.0715C94.5474 61.5715 80.0474 69.0715 64.5474 69.5715C49.0474 70.0715 42.5 80 42 89.5C41.5 99 45 109 50.5 115.5C56 122 58.1052 134 53.5 146.5C49.8158 156.5 49.1942 162.095 55 171C60.4526 179.363 76.5 191.333 79.5 192.5" stroke="#7C2BF1" stroke-dasharray="8 8"/>
<defs>
<linearGradient id="paint0_linear_2622_12184" x1="123.509" y1="0.503053" x2="98.6702" y2="242.853" gradientUnits="userSpaceOnUse">
<stop stop-color="#F0FDDD"/>
<stop offset="0.833164" stop-color="#F0FDDD" stop-opacity="0"/>
</linearGradient>
</defs>
</svg>
