<svg width="240" height="240" viewBox="0 0 240 240" fill="none" xmlns="http://www.w3.org/2000/svg">
<g clip-path="url(#clip0_2622_12365)">
<path d="M41.3939 28.1863C94.0725 -11.5636 170.575 -10.9613 211.066 40.7437C254.929 96.6946 249.217 177.489 192.151 220.522C138.81 260.803 65.419 234.043 24.3665 181.685C-13.0516 133.885 -7.30889 64.955 41.3939 28.1863Z" fill="url(#paint0_linear_2622_12365)"/>
<path d="M197.943 49.6974L196.217 54.4153" stroke="#CBAAF9" stroke-miterlimit="10"/>
<path d="M192.974 63.2585L149.221 182.619" stroke="#CBAAF9" stroke-miterlimit="10" stroke-dasharray="9.38 9.38"/>
<path d="M147.604 187.035L145.877 191.743" stroke="#CBAAF9" stroke-miterlimit="10"/>
<path d="M155.244 140.59L153.508 145.298" stroke="#CBAAF9" stroke-miterlimit="10"/>
<path d="M183.5 38L137.5 165.5" stroke="#CBAAF9" stroke-miterlimit="10" stroke-dasharray="10.28 10.28"/>
<path d="M225.322 77.6428L223.595 82.3607" stroke="#CBAAF9" stroke-miterlimit="10"/>
<path d="M220.352 91.2039L176.599 210.554" stroke="#CBAAF9" stroke-miterlimit="10" stroke-dasharray="9.38 9.38"/>
<path d="M174.982 214.981L173.256 219.689" stroke="#CBAAF9" stroke-miterlimit="10"/>
<path d="M216.066 53.1303L158.919 210.444" stroke="#CBAAF9" stroke-miterlimit="10" stroke-dasharray="9.53 9.53"/>
<path d="M157.282 214.94L155.566 219.658" stroke="#CBAAF9" stroke-miterlimit="10"/>
<path d="M115.216 205.866L113.509 210.584" stroke="#CBAAF9" stroke-miterlimit="10"/>
<path d="M168.567 33.0245L166.851 37.7424" stroke="#CBAAF9" stroke-miterlimit="10"/>
<path d="M163.577 46.7061L112.937 185.74" stroke="#CBAAF9" stroke-miterlimit="10" stroke-dasharray="9.51 9.51"/>
<path d="M111.3 190.227L109.584 194.935" stroke="#CBAAF9" stroke-miterlimit="10"/>
<path d="M151.547 16L149.821 20.7079" stroke="#CBAAF9" stroke-miterlimit="10"/>
<path d="M146.125 30.8259L140.574 46.0034" stroke="#CBAAF9" stroke-miterlimit="10" stroke-dasharray="10.73 10.73"/>
<path d="M138.727 51.0622L137 55.77" stroke="#CBAAF9" stroke-miterlimit="10"/>
<path d="M29.2458 209.129V161.951C29.243 161.772 29.2772 161.594 29.3462 161.429C29.4155 161.262 29.5141 161.109 29.6373 160.977C29.7675 160.856 29.9167 160.758 30.0791 160.686C30.2444 160.616 30.4216 160.578 30.6011 160.575H77.5369C77.957 160.575 78.3732 160.657 78.7618 160.816C79.1354 160.985 79.4755 161.22 79.7657 161.509C80.0566 161.798 80.2915 162.138 80.4585 162.513C80.6181 162.898 80.7 163.311 80.6994 163.727V191.773" stroke="#CBAAF9" stroke-miterlimit="10"/>
<path d="M29.2461 209.129V185.128H80.7199V191.813" stroke="#CBAAF9" stroke-miterlimit="10"/>
<path d="M68.0697 210.102H29.7681" stroke="#CBAAF9" stroke-miterlimit="10"/>
<path d="M54.9876 201.359C55.7294 201.353 56.4528 201.128 57.0665 200.711C57.6802 200.295 58.1568 199.706 58.4361 199.019C58.7153 198.332 58.7848 197.577 58.6358 196.851C58.4867 196.124 58.1257 195.458 57.5984 194.937C57.0711 194.415 56.4011 194.061 55.6729 193.92C54.9447 193.779 54.1909 193.856 53.5068 194.143C52.8226 194.429 52.2386 194.912 51.8285 195.53C51.4185 196.148 51.2007 196.874 51.2026 197.615C51.2026 198.11 51.3008 198.6 51.4915 199.057C51.6822 199.514 51.9616 199.929 52.3136 200.277C52.6656 200.625 53.0832 200.9 53.5422 201.086C54.0012 201.272 54.4925 201.365 54.9876 201.359Z" stroke="#CBAAF9" stroke-miterlimit="10"/>
<path d="M54.9877 177.389C55.7299 177.383 56.4536 177.157 57.0676 176.74C57.6815 176.323 58.158 175.734 58.437 175.046C58.716 174.358 58.7849 173.603 58.635 172.877C58.4851 172.15 58.1231 171.484 57.5948 170.963C57.0665 170.441 56.3955 170.088 55.6667 169.948C54.9378 169.808 54.1838 169.887 53.4998 170.175C52.8158 170.463 52.2325 170.948 51.8237 171.567C51.4148 172.186 51.1987 172.913 51.2027 173.655C51.204 174.149 51.3031 174.638 51.4944 175.094C51.6857 175.55 51.9654 175.963 52.3172 176.31C52.6691 176.657 53.0862 176.931 53.5446 177.117C54.0029 177.302 54.4934 177.394 54.9877 177.389Z" stroke="#CBAAF9" stroke-miterlimit="10"/>
<path d="M54.9878 226.635C55.7274 226.629 56.4488 226.404 57.0614 225.99C57.6741 225.576 58.1506 224.99 58.4314 224.306C58.7121 223.621 58.7845 222.87 58.6395 222.144C58.4944 221.419 58.1384 220.753 57.6161 220.229C57.0938 219.706 56.4285 219.348 55.7036 219.201C54.9787 219.054 54.2265 219.125 53.5415 219.404C52.8565 219.682 52.2691 220.157 51.853 220.769C51.437 221.38 51.2108 222.101 51.2029 222.84C51.1975 223.339 51.2917 223.834 51.4799 224.296C51.6681 224.758 51.9465 225.178 52.2989 225.532C52.6513 225.885 53.0706 226.164 53.5323 226.354C53.994 226.543 54.4888 226.639 54.9878 226.635Z" stroke="#CBAAF9" stroke-miterlimit="10"/>
<path d="M77.5371 160.606H24.8184V155.396C25.5111 155.235 84.9966 155.396 84.9966 155.396V160.606H77.5371Z" stroke="#CBAAF9" stroke-miterlimit="10"/>
<path d="M64.8166 140.078L62.397 153.65C62.3373 154.041 62.1375 154.398 61.8347 154.654C61.5375 154.898 61.1653 155.033 60.7806 155.035H48.1004C47.7108 155.034 47.3342 154.895 47.0368 154.643C46.7393 154.392 46.54 154.044 46.4739 153.66L44.2451 140.118L64.8166 140.078Z" stroke="#CBAAF9" stroke-miterlimit="10"/>
<path d="M67.1257 138.522C67.0907 138.933 66.9035 139.317 66.6009 139.597C66.2982 139.877 65.9018 140.035 65.4892 140.038H43.6126C43.2033 140.038 42.8089 139.884 42.5082 139.606C42.2044 139.331 42.0146 138.951 41.9761 138.542C41.9532 138.315 41.9806 138.085 42.0564 137.87C42.1281 137.651 42.2443 137.449 42.3978 137.278C42.5535 137.111 42.7415 136.978 42.9504 136.886C43.1592 136.795 43.3846 136.747 43.6126 136.746H65.4892C65.7167 136.743 65.9423 136.788 66.1518 136.876C66.3592 136.97 66.5466 137.103 66.704 137.268C66.8568 137.437 66.9731 137.635 67.0457 137.851C67.1182 138.067 67.1455 138.295 67.1257 138.522Z" stroke="#CBAAF9" stroke-miterlimit="10"/>
<path d="M55.2189 136.786C55.2189 136.094 56.9859 127.431 55.5201 119.722C54.7169 115.506 52.9399 111.601 49.3657 109.443" stroke="#CBAAF9" stroke-miterlimit="10"/>
<path d="M55.54 119.762C55.54 119.762 55.9416 113.93 60.9807 113.528" stroke="#CBAAF9" stroke-miterlimit="10"/>
<path d="M56.0723 128.655C57.51 127.652 59.2399 127.154 60.9909 127.24" stroke="#CBAAF9" stroke-miterlimit="10"/>
<path d="M56.0721 124.52C56.0721 124.52 52.4076 120.183 46.5645 123.606" stroke="#CBAAF9" stroke-miterlimit="10"/>
<path d="M53.5021 122.773C53.5021 122.773 45.2595 115.244 43.6431 125.423C44.53 125.884 45.5148 126.125 46.5144 126.125C47.514 126.125 48.4989 125.884 49.3858 125.423C52.8194 123.907 53.5021 122.773 53.5021 122.773Z" stroke="#CBAAF9" stroke-miterlimit="10"/>
<path d="M57.347 115.305C57.3213 114.246 57.6727 113.213 58.3384 112.389C59.0041 111.565 59.9408 111.005 60.9814 110.808C64.917 109.694 67.1358 114.331 67.1358 114.331C67.1358 114.331 64.1038 117.684 57.347 115.305Z" stroke="#CBAAF9" stroke-miterlimit="10"/>
<path d="M58.2309 127.24C58.2309 127.24 58.1003 123.807 62.6684 124.52C63.9166 124.654 65.0939 125.166 66.043 125.988C66.9921 126.809 67.6677 127.901 67.9794 129.117C67.9794 129.117 60.4898 131.867 58.2309 127.591" stroke="#CBAAF9" stroke-miterlimit="10"/>
<path d="M52.759 112.665C52.759 112.906 49.3154 112.354 49.0945 112.294C48.3037 112.041 47.5736 111.629 46.9499 111.081C46.3262 110.533 45.8224 109.863 45.4702 109.112C45.2292 108.64 43.8437 105.99 44.2353 105.528C44.2353 105.528 52.4177 102.898 52.759 112.665Z" stroke="#CBAAF9" stroke-miterlimit="10"/>
<path d="M53.2108 65.0353H55.8713C59.0878 65.034 62.2731 65.6662 65.2451 66.896C68.2172 68.1258 70.9178 69.9289 73.1927 72.2024C75.4676 74.476 77.2722 77.1753 78.5034 80.1463C79.7346 83.1173 80.3683 86.3017 80.3683 89.5176V132.841H28.7339V89.5176C28.7392 83.0278 31.3194 76.8053 35.9083 72.2154C40.4971 67.6255 46.7198 65.0433 53.2108 65.0353Z" stroke="#CBAAF9" stroke-miterlimit="10"/>
<path d="M44.7875 122.773H36.4043V93.2516C36.4043 88.4384 38.3167 83.8223 41.7209 80.4188C45.125 77.0153 49.742 75.1032 54.5562 75.1032C59.3703 75.1032 63.9873 77.0153 67.3915 80.4188C70.7956 83.8223 72.708 88.4384 72.708 93.2516V122.773H56.3834" stroke="#CBAAF9" stroke-miterlimit="10"/>
<path d="M89.3537 189.816C89.3537 189.153 89.2935 176.656 89.2935 175.984C89.2935 157.394 105.508 142.317 125.487 142.317H166.328" stroke="#CBAAF9" stroke-miterlimit="10"/>
<path d="M93.1491 232.979H42.7194C41.7008 232.982 41.0003 232.979 39.9092 232.014C39.1076 231.386 38.5413 230.505 38.3019 229.516C37.4887 226.022 35.29 219.949 29.7682 209.5L29.2461 208.496C26.3747 203.106 22.65 196.601 17.851 188.752C-1.75664 156.751 18.855 128.274 28.7341 117.423" stroke="#CBAAF9" stroke-miterlimit="10"/>
<path d="M80.3682 89.1562C80.3682 89.1562 95.4278 97.0461 111.722 89.1562" stroke="#CBAAF9" stroke-miterlimit="10"/>
<path d="M169.732 112.825C169.732 112.825 169.732 112.564 169.662 112.434L169.732 112.825Z" fill="#7C2BF1"/>
<path d="M107.546 229.365L127.987 229.616C127.987 229.064 127.987 228.562 127.987 228.231C127.917 226.926 126.029 188.159 126.029 188.159C126.093 183.557 127.304 179.044 129.551 175.027C131.798 171.01 135.012 167.616 138.9 165.153C138.9 165.153 140.336 174.267 143.82 187.166C147.149 198.979 152.07 210.285 158.447 220.772C162.313 226.795 164.321 228.632 163.829 229.044H177.704L174.15 220.12C171.709 213.795 169.696 207.312 168.126 200.717C165.957 191.131 161.771 174.618 165.475 160.877C169.18 147.135 172.503 129.247 169.792 112.896C169.853 113.257 169.873 115.044 165.114 115.435C159.813 115.887 160.245 118.447 159.753 119.711C159.261 120.976 158.387 130.623 140.125 136.655L137.484 137.86C137.484 137.86 128.007 141.875 127.133 143.049C126.26 144.224 124.593 144.957 124.383 143.3C124.172 141.644 123.509 139.074 122.013 142.146C120.517 145.218 107.767 166.759 105.418 175.11C103.068 183.462 107.576 196.19 107.576 196.19L114.704 229.465C114.704 229.465 110.257 229.174 107.546 229.365Z" fill="#C1F672"/>
<path d="M123.62 139.295L109.805 165.203C105.397 173.464 104.062 179.557 106.03 188.732L114.744 229.415H106.713C106.448 229.414 106.185 229.465 105.94 229.566C105.691 229.667 105.465 229.816 105.276 230.006C105.086 230.196 104.936 230.421 104.835 230.67C104.734 230.915 104.683 231.178 104.685 231.443C104.684 231.711 104.735 231.977 104.835 232.226C104.937 232.474 105.087 232.699 105.277 232.888C105.471 233.072 105.695 233.222 105.94 233.33C106.185 233.431 106.448 233.482 106.713 233.48H128.208L125.969 191.321C125.758 187.166 126.33 183.009 127.656 179.065C129.625 173.356 133.599 168.556 138.84 165.554" stroke="#7C2BF1" stroke-miterlimit="10"/>
<path d="M120.778 51.8556L110.236 70.2654L119.533 76.0774L125.888 55.2083L123.188 51.695C123.044 51.5031 122.854 51.3511 122.635 51.2533C122.417 51.1518 122.176 51.1068 121.936 51.1226C121.696 51.1384 121.463 51.2144 121.26 51.3436C121.058 51.47 120.892 51.6463 120.778 51.8556Z" stroke="#7C2BF1" stroke-miterlimit="10"/>
<path d="M111.973 71.6702C111.973 71.6702 106.1 94.3558 126.25 128.274" stroke="#7C2BF1" stroke-miterlimit="10"/>
<path d="M114.232 156.892C113.148 158.739 112.224 160.014 111.843 160.215C110.457 160.887 111.11 156.792 111.592 154.714M111.592 154.714C111.765 154.364 111.89 153.993 111.963 153.609C111.963 153.338 111.793 153.86 111.592 154.714ZM111.592 154.714C111.046 155.979 110.422 157.209 109.724 158.398C108.873 159.982 107.755 161.408 106.421 162.614C106.211 162.809 105.958 162.953 105.684 163.037C105.409 163.12 105.119 163.14 104.835 163.095C101.984 162.242 105.427 155.778 106.421 154.061C106.582 153.78 106.682 153.63 106.682 153.63C107.879 151.928 108.912 150.116 109.765 148.219C110.823 145.866 111.692 143.432 112.365 140.941" stroke="#7C2BF1" stroke-miterlimit="10"/>
<path d="M114.543 129.308C115.562 120.382 115.605 111.372 114.674 102.436" stroke="#7C2BF1" stroke-miterlimit="10"/>
<path d="M112.084 133.764V133.834C112.081 133.811 112.081 133.788 112.084 133.764Z" fill="#7C2BF1"/>
<path d="M125.889 55.2082C127.425 56.0012 128.901 56.8243 130.356 57.6675C131.36 58.2697 132.364 58.8921 133.368 59.5144L133.87 59.8256C181.057 89.7585 171.6 137.278 165.365 160.897C158.397 187.326 179.421 233.49 179.421 233.49H156.731C156.179 233.488 155.65 233.272 155.255 232.888C154.956 232.6 154.748 232.231 154.655 231.827C154.562 231.422 154.589 230.999 154.733 230.61C154.836 230.342 154.989 230.097 155.185 229.887C155.382 229.683 155.618 229.52 155.877 229.405C156.139 229.295 156.418 229.234 156.701 229.224L163.899 229.144C153.608 214.89 144.914 194.734 141.239 177.058C140.155 171.838 139.402 170.272 138.88 165.554C137.858 156.252 137.603 146.882 138.117 137.539" stroke="#7C2BF1" stroke-miterlimit="10"/>
<path d="M120.417 52.4983C118.536 51.6283 116.598 50.7818 114.604 49.9586C114.604 49.9586 116.521 42.6911 112.596 38.8565" stroke="#7C2BF1" stroke-miterlimit="10"/>
<path d="M88.6309 47.2883C87.1954 51.4742 87.2456 56.2121 87.4464 60.2274L92.6662 59.7756" stroke="#7C2BF1" stroke-miterlimit="10"/>
<path d="M92.667 59.836C92.667 59.836 92.667 70.4462 102.978 68.6895C104.232 68.4977 105.438 68.0684 106.532 67.4247C111.481 64.4133 111.08 57.1257 108.64 52.6588C107.907 51.3237 103.299 43.8253 107.194 43.4338C111.552 42.9921 111.21 49.3863 111.11 49.9686H114.604" stroke="#7C2BF1" stroke-miterlimit="10"/>
<path d="M84.625 46.6662C84.6852 47.2384 85.2173 47.419 85.7193 47.4291H85.89C86.7835 47.4291 87.7172 47.3689 88.6309 47.2886C90.2227 47.1773 91.8056 46.9627 93.3696 46.6461L94.223 46.4353C94.3352 46.4268 94.4463 46.4066 94.5543 46.3751C96.9092 45.9138 99.2277 45.2831 101.492 44.4879C104.493 43.4123 107.432 42.1724 110.297 40.7739C110.518 40.6534 110.779 40.5329 111.009 40.4024C111.231 39.8768 111.31 39.3018 111.238 38.7359C111.166 38.1699 110.945 37.6332 110.598 37.1802C109.826 36.2152 108.774 35.5136 107.586 35.1726C104.969 34.3675 102.171 34.3675 99.5541 35.1726C96.9674 35.9774 94.5144 37.1614 92.2753 38.6859C90.6297 39.7276 89.0627 40.8885 87.5867 42.1591C87.1349 42.6008 86.7434 43.0525 86.3418 43.4942C85.7372 44.166 85.2302 44.9195 84.8358 45.7327C84.6966 46.0241 84.6245 46.3432 84.625 46.6662Z" fill="#C1F672"/>
<path d="M101.452 44.488C99.1878 45.2832 96.8693 45.9139 94.5144 46.3752L94.1831 46.4354L93.3297 46.6361C91.7867 46.9588 90.2236 47.1768 88.6512 47.2886C87.7275 47.3689 86.8039 47.4191 85.9103 47.4292H85.7296C85.2276 47.4292 84.7257 47.2384 84.6453 46.6663C84.6362 46.3435 84.7051 46.0232 84.8461 45.7327C85.2347 44.9217 85.7386 44.1711 86.3421 43.5043C88.5422 41.022 91.0963 38.8776 93.9221 37.1401C96.1726 35.614 98.6352 34.4268 101.231 33.6168C103.846 32.7997 106.648 32.7997 109.263 33.6168C110.451 33.9572 111.503 34.6589 112.275 35.6244C112.618 36.0792 112.836 36.6157 112.909 37.1808C112.981 37.746 112.904 38.3202 112.686 38.8466C112.661 38.9173 112.627 38.9847 112.586 39.0474C112.016 39.8244 111.23 40.4176 110.327 40.7538C107.444 42.1715 104.481 43.4184 101.452 44.488Z" stroke="#7C2BF1" stroke-miterlimit="10"/>
<path d="M101.452 44.4878C101.602 46.666 101.452 50.4102 103.319 53.1807C103.943 54.0939 104.292 55.167 104.323 56.2724C104.323 58.0994 103.781 60.4784 100.749 60.7093C98.3896 60.8799 95.8294 59.4344 92.6167 59.8259C93.2726 59.668 93.8468 59.273 94.2287 58.717C94.6106 58.1609 94.7731 57.4832 94.6849 56.8145" stroke="#7C2BF1" stroke-miterlimit="10"/>
<path d="M112.375 133.162C112.334 133.262 112.287 133.359 112.234 133.453L112.084 133.774V133.835L111.572 134.899L111.09 135.902C110.959 136.174 110.819 136.455 110.688 136.736C110.558 137.017 110.487 137.147 110.387 137.348L109.714 138.763C109.603 139.086 109.578 139.432 109.644 139.767C109.714 140.093 109.87 140.395 110.096 140.64C110.219 140.787 110.369 140.91 110.538 141.002C110.769 141.129 111.023 141.208 111.286 141.232C111.549 141.256 111.813 141.226 112.064 141.142C112.314 141.053 112.543 140.913 112.736 140.731C112.927 140.55 113.077 140.331 113.178 140.088L115.126 136.314L116.351 133.925L115.166 136.304L114.112 138.402C114.028 138.591 113.994 138.798 114.011 139.004C114.031 139.21 114.104 139.407 114.222 139.576C114.335 139.748 114.491 139.886 114.674 139.978C114.857 140.073 115.06 140.121 115.266 140.118C116.913 140.018 117.967 138.332 118.77 137.107L119.021 136.726C119.47 135.807 120.248 135.09 121.2 134.718C121.46 134.657 121.726 134.62 121.993 134.608C123.338 134.527 124.332 135.049 125.818 135.32C126.25 135.401 126.682 135.471 127.123 135.531" stroke="#7C2BF1" stroke-miterlimit="10"/>
<path d="M146.52 133.734L146.892 133.574C150.716 131.907 154.024 129.245 156.47 125.865C166.027 112.745 160.415 91.5953 152.654 78.8473C147.11 70.0324 139.448 62.7445 130.366 57.6473" stroke="#7C2BF1" stroke-miterlimit="10"/>
<path d="M127.957 87.6304L137.344 102.466C142.123 110.025 140.466 118.949 133.629 124.71C130.505 127.188 126.679 128.618 122.696 128.796C120.818 128.906 118.047 129.047 116.17 129.187L114.544 129.308C113.39 129.375 112.253 129.615 111.17 130.02C110.268 130.401 109.502 131.045 108.972 131.867C107.941 133.266 107.082 134.782 106.411 136.384C106.143 137.216 106.037 138.092 106.1 138.964C106.123 139.48 106.321 139.972 106.662 140.359C106.879 140.574 107.162 140.708 107.466 140.741C107.832 140.75 108.193 140.649 108.502 140.453C108.811 140.256 109.055 139.972 109.202 139.637C109.353 139.4 109.484 139.151 109.594 138.894C109.805 138.442 110.066 137.89 110.367 137.318C110.457 137.117 110.558 136.916 110.658 136.705C110.759 136.495 110.929 136.143 111.07 135.872L111.552 134.869L112.064 133.805V133.744L112.214 133.423L112.355 133.132L112.506 132.831" stroke="#7C2BF1" stroke-miterlimit="10"/>
<path d="M109.885 63.0276L111.762 67.6351" stroke="#7C2BF1" stroke-miterlimit="10"/>
<path d="M122.676 128.796C122.676 128.796 128.388 133.152 127.947 142.156L146.882 133.574" stroke="#7C2BF1" stroke-miterlimit="10"/>
<path d="M127.956 142.156C127.956 142.156 126.32 144.736 124.944 142.156C123.769 139.705 122.783 137.168 121.993 134.567" stroke="#7C2BF1" stroke-miterlimit="10"/>
<path d="M160.636 116.65L169.552 114.231" stroke="#7C2BF1" stroke-miterlimit="10"/>
<path d="M118.057 149.715C118.057 149.715 114.222 144.756 111.18 145.489" stroke="#7C2BF1" stroke-miterlimit="10"/>
<path d="M179 233L42 233" stroke="#7C2BF1" stroke-miterlimit="10"/>
<path d="M175.465 93.4826C175.527 93.4175 175.607 93.3721 175.696 93.3521L190.022 89.889C190.11 89.8625 190.204 89.8626 190.291 89.8894C190.379 89.9162 190.456 89.9685 190.514 90.0395C190.575 90.1103 190.615 90.1974 190.627 90.2901C190.64 90.3828 190.625 90.4771 190.585 90.5615L189.239 93.5729L178.406 94.0849L188.807 95.3597L190.655 97.3673C190.727 97.4406 190.773 97.536 190.785 97.6384C190.815 97.7332 190.815 97.8346 190.785 97.9295C190.758 97.9776 190.724 98.0215 190.685 98.06C190.634 98.1135 190.571 98.1535 190.501 98.1763C190.431 98.1991 190.356 98.204 190.283 98.1905L187.382 97.8391L185.836 101.262C185.811 101.317 185.777 101.368 185.735 101.413C185.672 101.47 185.597 101.511 185.514 101.533C185.444 101.553 185.371 101.556 185.299 101.542C185.227 101.528 185.16 101.498 185.103 101.453L175.555 94.2656C175.478 94.2119 175.418 94.1364 175.384 94.0488C175.35 93.9612 175.343 93.8654 175.364 93.7737C175.365 93.6683 175.4 93.566 175.465 93.4826Z" fill="#7C2BF1"/>
<path d="M127 16H122V234H127V16Z" fill="#7C2BF1"/>
<path d="M132.334 5.37036C132.334 5.37036 188.306 11.1923 191.809 39.4187C193.747 55.0678 210 46 205 38.5C198.5 30 146.932 38.0737 169.722 57.6475C183.456 69.442 205.165 70.7527 216.5 78C235.455 90.1157 235.372 103.49 193.586 98.2205" stroke="#7C2BF1" stroke-dasharray="8 8"/>
</g>
<defs>
<linearGradient id="paint0_linear_2622_12365" x1="123.53" y1="0.494447" x2="98.6907" y2="242.844" gradientUnits="userSpaceOnUse">
<stop stop-color="#F0FDDD"/>
<stop offset="0.833164" stop-color="#F0FDDD" stop-opacity="0"/>
</linearGradient>
<clipPath id="clip0_2622_12365">
<rect width="240" height="240" fill="white"/>
</clipPath>
</defs>
</svg>
