<svg width="120" height="120" viewBox="0 0 120 120" fill="none" xmlns="http://www.w3.org/2000/svg">
<circle cx="60" cy="60" r="60" fill="#559B09"/>
<g clip-path="url(#clip0_6107_18165)">
<path d="M60 31C44.5 31 32 43.6 32 59C32 74.4 44.6 87 60 87C75.4 87 88 74.4 88 59C88 43.6 75.4 31 60 31Z" fill="#C6EED7"/>
<path d="M45 66.5003C45 66.5003 41.3 67.4003 38.5 65.2003V47.8003L45 44.8003V66.5003Z" fill="#FDB47E"/>
<path d="M40.3 50.4004H38.5V53.0004V65.2004C39.1 65.6004 39.7 66.0004 40.3 66.2004V55.1004C42.2 56.4004 44.5 56.3004 44.5 56.3004V50.4004H40.3Z" fill="#E48544"/>
<path d="M77.5 45.8003H44.5V62.3003H77.5V45.8003Z" fill="#008E3F"/>
<path d="M55.1 50.2003C67.2 50.0003 67.1 45.8003 67.1 45.8003H44.5V56.3003C52.8 55.9003 55.1 50.2003 55.1 50.2003Z" fill="#006A2F"/>
<path d="M74.9 45.8003H71.5H47.1H44.5V48.4003V56.3003V59.7003V62.3003H47.1H50.5H74.9H77.5V59.7003V51.8003V48.4003V45.8003H74.9ZM51.1 59.7003C50.9 57.6003 49.2 56.0003 47.2 55.8003V48.5003H71C71.2 50.6003 72.9 52.2003 74.9 52.4003V59.7003H51.1Z" fill="#00B14F"/>
<path d="M47.1 55.7003V48.4003H64.8C67.1 47.2003 67.1 45.8003 67.1 45.8003H47.1H44.5V48.4003V56.3003C45.6 56.2003 46.7 56.1003 47.6 55.8003C47.4 55.8003 47.3 55.8003 47.1 55.7003Z" fill="#008E3F"/>
<path d="M77.5 62.3003H44.5V72.2003H77.5V62.3003Z" fill="#008E3F"/>
<path d="M77.5 65.3003H44.5V65.9003H77.5V65.3003Z" fill="#006A2F"/>
<path d="M77.5 68.6001H44.5V69.2001H77.5V68.6001Z" fill="#006A2F"/>
<path d="M63.7998 45.8003H58.2998V62.3003H63.7998V45.8003Z" fill="#4DC884"/>
<path d="M63.7998 62.3003H58.2998V72.2003H63.7998V62.3003Z" fill="#00B14F"/>
<path d="M63.7002 48.9003V45.8003H58.2002V50.0003C60.6002 49.9003 62.4002 49.5003 63.7002 48.9003Z" fill="#00B14F"/>
<path d="M41.1004 52.0003C48.4004 53.5003 53.5004 47.6003 53.5004 47.6003C53.5004 47.6003 54.3004 48.1003 59.6004 48.0003C62.2004 48.0003 63.6004 47.3003 64.5004 46.7003C65.2004 46.2003 64.6004 45.6003 63.8004 45.4003C60.6004 44.6003 53.4004 42.6003 51.1004 42.2003C48.1004 41.6003 38.4004 47.4003 38.4004 47.4003V51.4003" fill="#FDB47E"/>
<path d="M38.5 65.8003V47.8003C38.5 47.2003 38.1 46.8003 37.5 46.8003H34.8C33 50.5003 32 54.6003 32 59.0003C32 61.7003 32.4 64.3003 33.1 66.8003H37.5C38.1 66.8003 38.5 66.3003 38.5 65.8003Z" fill="#4B4B4B"/>
<path d="M35 61.5C35.8284 61.5 36.5 60.8285 36.5 60C36.5 59.1716 35.8284 58.5 35 58.5C34.1716 58.5 33.5 59.1716 33.5 60C33.5 60.8285 34.1716 61.5 35 61.5Z" fill="white"/>
<path d="M57.3003 69.5999C56.7003 69.6999 56.2003 69.9999 55.7003 70.3999L54.3003 71.3999C54.0003 71.5999 54.1003 71.9999 54.4003 72.0999L55.0003 72.2999H57.3003H58.3003V69.5999C58.2003 69.5999 58.1003 69.5999 58.1003 69.5999C57.8003 69.4999 57.5003 69.4999 57.3003 69.5999Z" fill="#006A2F"/>
<path d="M76.0998 65.4003C73.7998 65.5003 69.8998 65.8003 68.6998 66.0003C66.9998 66.4003 66.6998 67.2003 66.9998 67.7003C67.1998 68.3003 69.0998 68.9003 70.8998 69.2003C70.9998 69.2003 71.1998 69.2003 71.2998 69.2003C69.2998 70.1003 67.2998 71.0003 67.2998 71.0003L63.7998 70.4003V72.2003H76.5998V69.0003V65.3003L76.0998 65.4003Z" fill="#006A2F"/>
<path d="M58.7998 69.5C58.5998 69.5 58.3998 69.5 58.2998 69.5V72.2H62.7998H63.7998V70.4L58.7998 69.5Z" fill="#008E3F"/>
<path d="M85.4998 63.8003C83.1998 63.0003 78.5998 64.1003 77.0998 64.4003C76.9998 64.4003 76.8998 64.4003 76.6998 64.4003C76.6998 64.4003 70.5998 64.7003 69.0998 65.0003C67.5998 65.3003 67.4998 66.0003 67.5998 66.5003C67.7998 67.0003 69.3998 67.5003 70.8998 67.7003C72.3998 67.9003 74.9998 68.1003 74.9998 68.1003C76.0998 68.2003 67.7998 72.1003 67.7998 72.1003L60.3998 70.8003C59.4998 70.6003 58.4998 70.9003 57.7998 71.5003L57.1998 71.9003C56.9998 72.1003 57.0998 72.4003 57.2998 72.5003L67.0998 75.3003C67.2998 75.4003 67.5998 75.4003 67.7998 75.4003L78.6998 73.5003C79.0998 73.4003 79.4998 73.4003 79.9998 73.5003L83.3998 74.4003C85.2998 71.5003 86.6998 68.3003 87.3998 64.8003C86.7998 64.4003 86.1998 64.0003 85.4998 63.8003Z" fill="#FDB47E"/>
<path d="M75.1 68.1001C75.2 68.2001 74.5 68.6001 73.6 69.2001C73.6 69.2001 73.6 69.2001 73.5 69.2001C73.8 69.2001 74.6 69.0001 74.9 69.0001C75.6 69.0001 76.2 68.8001 77 68.8001C77.3 68.8001 77.7 68.8001 78 68.8001C78.1 68.8001 78.3 68.8001 78.4 68.8001C78.5 68.7001 78.6 68.7001 78.6 68.7001C77.6 68.5001 75.8 68.2001 75.1 68.1001Z" fill="#E48544"/>
</g>
<circle cx="99" cy="20" r="16.5" fill="white" stroke="#559B09"/>
<path fill-rule="evenodd" clip-rule="evenodd" d="M105.601 16.4006L97.0011 25.0007L92.3818 20.0206L93.3789 19.0957L97.0379 23.0406L104.64 15.439L105.601 16.4006Z" fill="#219653"/>
<defs>
<clipPath id="clip0_6107_18165">
<rect width="56" height="56" fill="white" transform="translate(32 31)"/>
</clipPath>
</defs>
</svg>
