<svg width="107" height="28" viewBox="0 0 107 28" fill="none" xmlns="http://www.w3.org/2000/svg">
<g clip-path="url(#clip0_7504_6709)">
<path d="M94.116 26.6836C93.9745 26.8337 93.8329 26.9667 93.6801 27.1196C93.4373 27.3434 93.1314 27.4868 92.8041 27.5304C92.4768 27.5739 92.144 27.5155 91.8511 27.3631C91.7973 27.3433 91.7435 27.3206 91.7266 27.2668C91.768 27.2188 91.8124 27.1734 91.8596 27.131C92.474 26.5138 93.0883 25.8881 93.7112 25.2737C93.8987 25.0934 94.0623 24.8898 94.1982 24.6679C94.218 24.6395 94.2321 24.6226 94.2491 24.6226C94.2661 24.6226 94.2803 24.6424 94.3029 24.6792C94.4181 24.8501 94.4971 25.0428 94.5351 25.2454C94.5872 25.5011 94.5763 25.7657 94.5033 26.0163C94.4303 26.2669 94.2974 26.4959 94.116 26.6836Z" fill="#B5F456"/>
<path d="M93.9934 23.4985C93.9983 23.7367 93.9549 23.9733 93.8659 24.1942C93.7768 24.4151 93.644 24.6157 93.4753 24.7839C92.7789 25.4945 92.0796 26.1994 91.3718 26.8931C91.2388 27.025 91.081 27.1291 90.9075 27.1996C90.7341 27.2701 90.5483 27.3054 90.3611 27.3036C89.9746 27.3093 89.6014 27.1629 89.322 26.8959C89.121 26.6921 88.92 26.5024 88.7303 26.3014C88.4601 26.027 88.3086 25.6574 88.3086 25.2722C88.3086 24.8871 88.4601 24.5175 88.7303 24.2431L89.7127 23.2551L90.8055 22.1622C91.0389 21.9254 91.3326 21.757 91.6549 21.6753C91.8981 21.6125 92.1514 21.5996 92.3997 21.6374C92.648 21.6752 92.8861 21.7628 93.0996 21.8951C93.3131 22.0274 93.4976 22.2015 93.6419 22.407C93.7863 22.6125 93.8876 22.8452 93.9396 23.0909C93.9712 23.2246 93.9893 23.3612 93.9934 23.4985Z" fill="#B5F456"/>
<path d="M90.4359 21.7828C89.7451 22.4821 89.0487 23.1729 88.3607 23.8637C88.084 24.1352 87.7121 24.2876 87.3245 24.2884C86.9392 24.2884 86.5696 24.1357 86.2968 23.8637C86.1071 23.6712 85.9061 23.4815 85.7164 23.2805C85.4427 23.0056 85.2891 22.6335 85.2891 22.2457C85.2891 21.8578 85.4427 21.4857 85.7164 21.2109L87.7803 19.1413C88.1597 18.7818 88.6042 18.6006 89.3657 18.6006C89.9886 18.6006 90.8068 19.2489 90.9399 20.1719C90.9956 20.4611 90.9788 20.7597 90.8909 21.0408C90.8029 21.322 90.6466 21.5769 90.4359 21.7828Z" fill="#B5F456"/>
<path d="M84.9533 14.4387C84.9571 14.6828 84.9116 14.9252 84.8197 15.1514C84.7278 15.3775 84.5912 15.5829 84.4182 15.7551L82.3514 17.8219C82.0754 18.0976 81.7012 18.2525 81.311 18.2525C80.9208 18.2525 80.5466 18.0976 80.2705 17.8219L79.7043 17.2556C79.432 16.9801 79.2793 16.6083 79.2793 16.2209C79.2793 15.8334 79.432 15.4616 79.7043 15.1861C80.3895 14.4868 81.0887 13.796 81.7767 13.108C81.9453 12.9374 82.1465 12.8024 82.3682 12.711C82.59 12.6195 82.8279 12.5736 83.0677 12.5758H83.1045C83.3489 12.5742 83.5912 12.6215 83.8171 12.7147C84.043 12.808 84.2481 12.9454 84.4202 13.1189C84.5924 13.2923 84.7282 13.4984 84.8197 13.725C84.9113 13.9517 84.9566 14.1943 84.9533 14.4387Z" fill="#B5F456"/>
<path d="M87.4503 18.7477C87.2918 18.9289 87.1106 19.0874 86.9407 19.2573L85.3864 20.8173C85.1998 21.021 84.9577 21.1657 84.69 21.2335C84.5636 21.2622 84.4345 21.2773 84.3049 21.2788C83.9449 21.2782 83.5987 21.1405 83.3367 20.8937C83.113 20.6814 82.8922 20.469 82.6798 20.2454C82.4258 19.966 82.2869 19.6008 82.2911 19.2231C82.2953 18.8455 82.4423 18.4835 82.7025 18.2098C83.113 17.7936 83.515 17.3916 83.9284 16.9782L84.3389 16.5649L84.7437 16.1374C85.0014 15.8729 85.333 15.6923 85.695 15.6193C85.8289 15.5844 85.9673 15.57 86.1055 15.5768H86.1282C86.5543 15.5802 86.9662 15.7309 87.2939 16.0033C87.6216 16.2758 87.8449 16.6533 87.9259 17.0717C87.995 17.3685 87.9875 17.6779 87.9043 17.971C87.8211 18.2642 87.6649 18.5314 87.4503 18.7477Z" fill="#B5F456"/>
<path d="M105.999 9.34295C105.878 11.4334 104.959 13.3976 103.431 14.8297C103.416 14.8385 103.402 14.8489 103.389 14.8608C103.368 14.8558 103.349 14.8466 103.333 14.834C103.316 14.8213 103.303 14.8054 103.292 14.7872C101.973 13.4906 94.8867 6.37308 94.7479 6.19189C94.8017 6.10695 94.8867 6.05599 94.9489 5.97106C94.9788 5.9389 94.9998 5.89949 95.0097 5.85674C95.0197 5.81399 95.0183 5.76939 95.0057 5.72734C94.9931 5.68529 94.9698 5.64725 94.938 5.61701C94.9062 5.58676 94.867 5.56534 94.8244 5.55488C94.8009 5.55102 94.777 5.55102 94.7536 5.55488C94.6968 5.55889 94.643 5.58182 94.6007 5.62C94.5469 5.66246 94.5045 5.71625 94.4507 5.75872L91.0901 9.12778C90.9979 9.22308 90.8986 9.31111 90.7928 9.39108C90.5406 9.57326 90.2467 9.68945 89.9381 9.72907C89.6294 9.7687 89.3158 9.73049 89.0257 9.61794C88.7356 9.50538 88.4782 9.32205 88.2771 9.08464C88.0759 8.84723 87.9373 8.56327 87.8739 8.25862C87.787 7.88953 87.8363 7.50147 88.0126 7.1658C88.189 6.82068 88.4172 6.50464 88.6893 6.22869C88.9526 5.94558 89.2272 5.68794 89.4933 5.42465C90.2945 4.61777 91.0901 3.82222 91.8828 3.01534C92.3463 2.54369 92.8653 2.13014 93.4286 1.7838C94.2832 1.24724 95.2311 0.876496 96.223 0.690977C96.5488 0.62534 96.8791 0.583705 97.211 0.566406H98.2812C99.4018 0.627249 100.497 0.924416 101.495 1.4384C102.935 2.17216 104.129 3.31172 104.93 4.71643C105.73 6.12113 106.102 7.72948 105.999 9.34295Z" fill="#B5F456"/>
<path d="M102.878 17.3268C102.731 17.4853 102.595 17.6354 102.425 17.7826C102.131 18.0623 101.741 18.2184 101.335 18.2186C100.91 18.219 100.503 18.051 100.202 17.7514L99.9929 17.5391C97.7828 15.3214 95.5697 13.1008 93.3539 10.8774C93.3046 10.8238 93.2516 10.7736 93.1954 10.7274C93.1487 10.6923 93.0923 10.6725 93.034 10.6708C92.9843 10.671 92.9357 10.6857 92.8941 10.713C92.8526 10.7403 92.8198 10.779 92.7997 10.8245C92.7797 10.87 92.7732 10.9203 92.7811 10.9694C92.789 11.0184 92.811 11.0642 92.8443 11.1011C92.8868 11.152 92.949 11.2058 93.0028 11.2596L99.6843 17.9638C99.7495 18.0289 99.8231 18.0912 99.8853 18.1648C100.161 18.4621 100.314 18.8524 100.314 19.2576C100.314 19.6628 100.161 20.0531 99.8853 20.3504C99.7042 20.5429 99.5258 20.7213 99.3333 20.9167C99.0673 21.1775 98.7092 21.3229 98.3367 21.3215C98.1467 21.3217 97.9586 21.2843 97.7832 21.2114C97.6078 21.1385 97.4485 21.0316 97.3147 20.8968C97.2552 20.8317 97.1873 20.7694 97.1137 20.693L90.3472 13.8983C90.2963 13.8461 90.2424 13.797 90.1858 13.751C90.1425 13.7188 90.0898 13.7019 90.0358 13.7029C89.9843 13.701 89.9339 13.7181 89.8942 13.751C89.8531 13.7798 89.8217 13.8204 89.804 13.8674C89.7863 13.9143 89.7832 13.9656 89.7952 14.0143C89.806 14.059 89.8284 14.1 89.8603 14.1332L90.0273 14.3031L96.8249 21.1262C96.9475 21.2432 97.0559 21.3743 97.1476 21.5169C97.3039 21.7589 97.4009 22.0344 97.4307 22.3209C97.4462 22.5137 97.4171 22.7074 97.3458 22.8871C97.2618 23.0991 97.1357 23.2917 96.9749 23.4534C96.8192 23.6119 96.6607 23.7818 96.4993 23.9318C96.3456 24.0833 96.1633 24.2029 95.9631 24.2836C95.7629 24.3642 95.5487 24.4044 95.3329 24.4018C95.2489 24.406 95.1648 24.406 95.0809 24.4018C94.8949 24.3761 94.7174 24.3073 94.5628 24.2008C94.5212 24.1738 94.4882 24.1354 94.4676 24.0903C94.447 24.0452 94.4398 23.9951 94.4467 23.946C94.4467 23.8497 94.4835 23.7648 94.4892 23.6629C94.5543 23.3678 94.5246 23.0596 94.4043 22.7824C94.2717 22.4142 94.0546 22.0822 93.7704 21.8133C93.4862 21.5443 93.1428 21.3458 92.7679 21.2337C92.5619 21.1683 92.347 21.1349 92.1308 21.1347C92.0246 21.1348 91.9186 21.1433 91.8138 21.1601C91.7515 21.1601 91.6977 21.1601 91.6354 21.18C91.4967 21.18 91.4344 21.1177 91.4344 20.9676C91.437 20.9143 91.4436 20.8613 91.4542 20.8091C91.528 20.2339 91.3896 19.6515 91.0649 19.171C90.7403 18.6905 90.2516 18.3449 89.6904 18.1988C89.4948 18.1451 89.293 18.1175 89.0902 18.1167C88.9716 18.1174 88.8532 18.1278 88.7363 18.1478C88.7223 18.1449 88.7078 18.1449 88.6938 18.1478L88.6146 18.1195C88.4589 18.1195 88.3994 18.0289 88.4277 17.8364C88.5091 17.346 88.4359 16.8424 88.2183 16.3955C88.0007 15.9486 87.6494 15.5804 87.2131 15.3421C86.8652 15.1548 86.4759 15.0575 86.0807 15.059C85.9529 15.0592 85.8252 15.0677 85.6985 15.0845C85.673 15.0845 85.6475 15.0987 85.6249 15.0987H85.6051C85.5799 15.099 85.5549 15.0944 85.5316 15.085C85.5083 15.0757 85.487 15.0618 85.4691 15.0441C85.4512 15.0265 85.437 15.0054 85.4272 14.9822C85.4175 14.959 85.4125 14.9341 85.4125 14.909C85.4066 14.8696 85.4066 14.8295 85.4125 14.7901C85.4635 14.4678 85.4474 14.1385 85.365 13.8228C85.2827 13.5071 85.136 13.2118 84.9341 12.9555C84.8831 12.8904 84.8322 12.8309 84.7784 12.7743C84.6189 12.6077 84.4358 12.4655 84.2348 12.3525C84.1697 12.3156 84.1017 12.2817 84.0338 12.2505C83.8922 12.1898 83.7453 12.1424 83.5949 12.109L83.3571 12.0665C83.2548 12.0529 83.1517 12.0463 83.0485 12.0467C82.4523 12.0465 81.8784 12.2733 81.4433 12.6809C81.3159 12.7969 81.1998 12.913 81.0837 13.0319L79.3709 14.7504C79.3058 14.8127 79.2775 14.8439 79.2492 14.8439C79.2208 14.8439 79.1897 14.8127 79.1274 14.7504C78.2811 13.9255 77.6222 12.9282 77.1952 11.8261C76.7683 10.7241 76.5834 9.54316 76.653 8.36337C76.6948 7.41354 76.9058 6.47878 77.2758 5.60301C77.9616 3.95786 79.164 2.58053 80.7015 1.67905C81.5057 1.19449 82.3911 0.85972 83.3147 0.690977C83.6564 0.623168 84.0028 0.581524 84.3509 0.566406H85.4522C86.3499 0.613842 87.2328 0.814938 88.0625 1.16095C89.1376 1.60497 90.1071 2.2706 90.9078 3.11443C90.9304 3.13425 90.9389 3.1569 90.9616 3.17672C90.9078 3.23051 90.8597 3.2843 90.8059 3.33526C89.8622 4.26954 88.9307 5.20382 88.0115 6.13809C87.7001 6.43977 87.4767 6.8205 87.3651 7.23946C87.2536 7.65843 87.2581 8.09986 87.3782 8.51645C87.4984 8.93304 87.7296 9.30909 88.0472 9.6043C88.3647 9.89952 88.7566 10.1028 89.1808 10.1923C89.3585 10.2303 89.5398 10.2493 89.7215 10.2489C90.0318 10.2498 90.3388 10.1869 90.6237 10.0641C90.9086 9.94141 91.1653 9.76147 91.3778 9.53547C92.3177 8.60119 93.2378 7.66691 94.1778 6.73547C94.2316 6.68167 94.2768 6.59674 94.3363 6.59674C94.3958 6.59674 94.4637 6.693 94.5175 6.74396C97.2656 9.48828 100.01 12.242 102.75 15.0052C102.827 15.0788 102.901 15.1525 102.974 15.2374C103.216 15.5375 103.339 15.9155 103.321 16.3003C103.304 16.6851 103.146 17.0501 102.878 17.3268Z" fill="#B5F456"/>
<path d="M12.9804 1.24844H17.4253V14.8379C17.463 16.2348 17.0902 17.6121 16.3529 18.7992C15.6157 19.9863 14.5465 20.9311 13.2776 21.5166C11.8478 22.1775 10.2858 22.5029 8.711 22.4678C7.13341 22.5034 5.56855 22.178 4.13587 21.5166C2.86596 20.9328 1.7963 19.9877 1.06061 18.7993C0.324932 17.6109 -0.0441292 16.2321 -0.000429447 14.8351V1.24561H4.44446V14.4585C4.42982 15.1997 4.60941 15.9317 4.96539 16.5819C5.31896 17.1997 5.83885 17.7059 6.4659 18.0428C7.15655 18.409 7.92946 18.5922 8.711 18.575C9.49361 18.5938 10.2678 18.4105 10.9589 18.0428C11.5871 17.7085 12.1068 17.2016 12.4566 16.5819C12.8183 15.9335 13.0019 15.2009 12.9889 14.4585L12.9804 1.24844Z" fill="white"/>
<path d="M25.3693 13.0998V22.1595H20.998V6.4806H25.1655V9.24946H25.3495C25.6809 8.35288 26.2976 7.58997 27.1048 7.07797C27.9987 6.51935 29.0381 6.23854 30.0917 6.2711C31.0925 6.24772 32.0812 6.49416 32.954 6.98454C33.772 7.46728 34.432 8.17748 34.8537 9.02863C35.3268 10.0081 35.5588 11.0866 35.5303 12.174V22.1708H31.159V12.9554C31.159 11.9947 30.9127 11.2464 30.4201 10.7103C30.1553 10.4334 29.8337 10.2169 29.4775 10.0757C29.1213 9.93451 28.7388 9.87189 28.3562 9.89213C27.8124 9.88078 27.275 10.0105 26.7962 10.2687C26.3466 10.5264 25.9824 10.9103 25.7487 11.3728C25.4893 11.911 25.3594 12.5024 25.3693 13.0998Z" fill="white"/>
<path d="M38.9768 22.1709V6.48072H43.348V22.1709H38.9768ZM41.1709 4.45646C40.5515 4.46882 39.9519 4.23812 39.5005 3.81379C39.2836 3.61836 39.1103 3.37948 38.9918 3.11267C38.8732 2.84587 38.8122 2.5571 38.8126 2.26515C38.8104 1.97376 38.8708 1.6853 38.9894 1.41915C39.1081 1.15301 39.2824 0.915361 39.5005 0.722181C39.9493 0.292405 40.5496 0.0573416 41.1709 0.0681866C41.4768 0.0601442 41.7813 0.112518 42.067 0.222311C42.3526 0.332103 42.6138 0.497157 42.8356 0.708025C43.0577 0.901498 43.2351 1.14099 43.3553 1.40988C43.4756 1.67877 43.5359 1.97062 43.5321 2.26515C43.5341 2.56024 43.473 2.85235 43.3529 3.12189C43.2328 3.39143 43.0564 3.63216 42.8356 3.82794C42.385 4.24836 41.7869 4.47419 41.1709 4.45646Z" fill="white"/>
<path d="M55.3255 6.48059V9.74773H45.5977V6.48059H55.3255ZM47.8229 22.1708V5.3453C47.7856 4.35854 48.0165 3.38012 48.4911 2.51416C48.9231 1.77641 49.566 1.18481 50.337 0.815477C51.1691 0.428767 52.0779 0.235199 52.9954 0.249249C53.6113 0.244593 54.2262 0.295763 54.8328 0.40213C55.3991 0.504052 55.8096 0.597479 56.0842 0.685245L55.3056 3.96371C55.0963 3.90103 54.8836 3.84999 54.6686 3.81083C54.4186 3.76292 54.1645 3.73922 53.9099 3.74005C53.2644 3.74005 52.8161 3.88915 52.5651 4.18737C52.2919 4.53963 52.1569 4.97969 52.1857 5.42458V22.1708H47.8229Z" fill="white"/>
<path d="M60.6971 28.0537C60.1743 28.0569 59.6522 28.0133 59.1371 27.9234C58.7297 27.8603 58.3302 27.754 57.9452 27.6064L58.9305 24.3477C59.3783 24.4947 59.844 24.5804 60.3149 24.6025C60.6957 24.6287 61.0747 24.5293 61.3936 24.3194C61.7453 24.058 62.0074 23.694 62.1438 23.2775L62.3986 22.6151L56.7363 6.47754H61.3341L64.5984 18.0003H64.7626L68.0552 6.47754H72.6842L66.5661 23.8664C66.2967 24.6656 65.8905 25.4118 65.3657 26.0719C64.8627 26.7082 64.2101 27.2101 63.466 27.5327C62.5907 27.902 61.6466 28.0796 60.6971 28.0537Z" fill="white"/>
</g>
<defs>
<clipPath id="clip0_7504_6709">
<rect width="106.527" height="28" fill="white"/>
</clipPath>
</defs>
</svg>
