<svg width="282" height="294" viewBox="0 0 282 294" fill="none" xmlns="http://www.w3.org/2000/svg">
<g clip-path="url(#clip0_8770_8391)">
<path d="M184.245 94.6851L204.175 103.985L193.245 118.625C193.245 118.625 190.895 123.325 189.825 123.625C188.755 123.925 175.935 122.845 175.935 122.845L170.355 120.405C170.355 120.405 172.805 117.405 173.775 115.905C174.745 114.405 181.775 110.035 181.775 110.035L182.655 103.185L182.945 97.1851L184.245 94.6851Z" fill="#310077"/>
<path d="M105.995 292.825L84.2051 284.275L94.1351 275.785L103.005 279.815L108.875 284.575L109.595 287.115L105.995 292.825Z" fill="#310077"/>
<path d="M281.755 106.465L281.525 105.465L281.235 105.145L281.455 104.625L281.235 103.305L280.425 102.865L280.245 102.685L280.035 102.225L279.565 101.985H279.425L278.835 101.465L277.735 101.185L277.315 101.365L276.685 100.565L276.035 100.145L275.265 99.275L274.995 99.195L274.925 98.535L274.675 97.635L274.155 97.005L274.085 96.685L273.935 96.275L274.135 95.795L272.795 95.085L272.715 94.695L272.985 94.275L272.935 93.275L272.315 92.535L271.405 92.085L270.955 92.265L270.445 91.325H268.985L267.635 91.455L267.215 91.645L266.635 91.355L266.035 91.615L264.755 91.855V92.505V92.415L264.445 92.565L264.065 92.655L263.755 92.875L263.635 92.975L263.105 93.035L263.055 93.265L262.245 93.655H261.845L261.405 94.005H261.085L260.615 93.715L260.015 93.565L256.225 91.335L256.455 91.815L255.575 91.915L254.965 92.465L254.665 92.925H254.495L253.945 93.005L253.285 93.355L253.135 93.535H252.415L251.695 95.685L251.745 95.745L251.315 96.165L251.075 96.235L250.355 96.525L250.245 96.685H250.145L249.515 96.805L249.155 97.095L248.955 97.295L248.665 97.385V97.555L248.285 97.785L248.095 97.955L247.815 97.875L247.255 98.275H247.025L245.635 98.375L244.115 99.295L243.675 99.685L243.315 99.875L242.235 100.755L242.125 101.505V101.665V101.755L241.315 102.325L241.125 102.545H240.985L240.525 102.795L239.525 103.265L238.825 103.735L238.405 104.095L238.015 104.605L237.645 105.415L237.725 106.215L237.535 106.325L237.375 106.505L236.375 106.285L236.215 106.475L234.925 106.085L234.485 106.865H234.005L233.255 107.255L232.885 107.635H232.755H232.595L232.385 107.505L231.625 107.315L229.045 107.405L228.885 108.635L228.485 109.205L228.335 110.205L228.645 111.385L228.945 111.895L229.145 112.055V112.115L229.665 112.705L230.075 112.835L230.535 113.585L231.795 113.455L232.505 113.205H232.615L232.535 113.325L232.245 113.685L232.115 113.865L231.955 114.235L231.865 114.585L231.815 114.935V115.425L232.035 116.085L230.805 116.435V116.495L230.255 116.855L229.865 116.735H229.735L229.515 116.395L228.765 116.175H228.105L227.535 116.265L226.875 116.715L226.745 116.945L226.365 116.855H225.665H225.375H224.725L224.215 117.095L222.035 117.225L221.265 117.135L220.585 116.785L219.585 116.065L218.645 115.915L217.925 116.155L217.645 116.385H217.095L216.095 116.995L215.915 117.465L215.185 117.535L214.845 117.635L214.765 117.565H214.305H213.705L213.465 117.765L213.275 117.685L212.695 117.215L212.015 116.955L211.335 116.845H211.035L210.125 116.215L209.355 116.415L208.745 116.475L208.525 116.645L208.175 116.255L207.745 115.935L207.245 115.685L206.865 115.215V115.085L206.625 114.625L207.165 114.205L207.555 112.545L206.645 111.935L206.415 111.625L206.185 111.475V110.925L206.245 110.685L206.505 110.265L206.995 108.075V107.655L206.905 107.115L206.685 106.695L206.585 105.785L206.295 105.495L206.145 105.305L205.795 105.005L205.165 104.575L204.635 104.415H204.475L204.135 104.005L202.895 103.935L202.075 104.585L201.945 104.705L201.515 104.825L200.925 105.255L199.485 105.475H199.375H199.105L198.295 105.745L197.675 106.585L197.595 107.445L197.775 108.105L198.065 108.565V108.645L197.865 109.425L197.375 110.265L197.035 111.025V111.345V111.585V111.805V111.915V112.075L196.965 112.445V112.945L197.025 113.125L196.725 113.795V114.485V114.545L196.635 114.775V114.935V115.255V115.485L196.715 115.795L196.925 116.165L197.015 116.255L197.235 116.745L197.755 117.065L197.845 117.235L197.965 117.555L198.105 117.835L198.255 118.065V118.395L198.335 118.775L198.255 119.025L197.845 119.825V119.895L196.435 120.255L196.185 120.165L195.565 120.405L194.565 120.745L194.475 120.815L194.115 120.605L193.465 120.485H192.855L192.255 120.665L192.045 120.785L191.735 120.475L191.195 120.645V120.515V120.395L190.985 118.935H189.215L188.665 119.395L188.505 119.565L188.065 119.715L187.285 120.185L186.825 120.255L186.285 120.005L185.965 119.715L185.525 119.475L185.285 119.415H185.175L184.625 119.115L184.235 118.975L184.025 118.755L183.225 118.585L182.675 118.675L182.395 118.765H182.275H182.205L181.695 118.445L180.855 118.165L180.245 118.355H179.885L179.545 118.555V118.405L179.245 117.685L178.745 117.075L177.745 116.505L177.065 116.265L175.825 116.755L175.355 117.015H174.735L174.555 117.175V116.845L173.155 116.255L172.585 116.315H172.525L172.155 115.765L171.565 115.435L171.305 115.345L171.135 115.045L170.235 114.845V114.685V114.075L170.105 113.495L169.865 112.895L169.425 112.245L168.715 111.745L166.245 111.285L166.165 111.105L165.325 110.455H165.265L165.175 110.045L163.755 109.725L162.865 110.095L162.575 110.465L162.335 110.385L161.875 110.525H161.415L160.755 110.795L160.605 110.715L159.735 110.385L158.545 110.225H157.395L156.395 110.585L156.315 110.755L155.635 110.485H154.465H154.255L153.895 110.275L153.385 110.115H153.025V109.805L152.835 109.135L152.585 108.725L152.295 108.315L151.295 107.915L149.855 108.285H149.645L149.345 107.985L148.605 107.605L147.505 106.695L147.095 106.535H147.045L146.605 106.155L146.005 105.955L145.005 105.855L144.135 106.245L143.865 105.955L143.425 105.595L142.925 105.405H142.845V105.345L142.375 105.015L141.915 104.775L141.635 104.325L141.295 103.955L140.845 103.625L140.155 103.385H140.025L139.865 103.195L139.625 102.415L139.105 101.755L138.475 101.415L137.795 101.285V101.225L136.715 100.605L136.635 100.435L135.795 100.055H135.535L135.375 99.895L134.935 99.595H134.845L134.715 99.355L134.095 98.905H133.975L133.725 98.365H132.185L131.545 98.725L131.095 98.345L130.985 98.195L130.405 97.835H130.165L130.005 97.625L130.335 96.845V96.615L130.745 96.495L131.065 96.115H131.265L131.375 95.685L131.505 95.535V95.335L131.835 94.125L131.905 93.625V93.255L131.775 92.675L131.615 92.545L131.735 92.455L131.955 92.225L132.075 92.045L132.295 91.685L132.495 91.455L132.805 90.835V90.095L132.715 89.795L133.195 89.385L133.785 88.645L134.095 88.135H134.255L134.625 87.895L134.865 87.665L135.225 87.425L135.495 87.115L135.735 86.725L136.335 86.275L136.485 86.045L136.985 85.875H137.725L138.315 84.405L137.995 83.645L137.575 82.965L136.835 82.575L136.105 82.365L135.755 82.215L135.645 82.005L135.365 81.645L134.905 81.275L133.845 80.665L133.275 80.465H132.855L132.385 80.275L131.455 79.745H131.345L131.665 79.155L130.995 78.155L130.755 78.015L130.565 77.715L129.895 77.205H129.265L128.815 76.835L128.125 76.555L127.985 76.295L127.605 75.825L127.065 75.565L126.195 75.345L125.665 75.285L125.115 75.435H124.795H124.555L124.335 75.195L123.825 74.915L123.575 74.455L123.015 74.145L122.835 73.385L122.525 73.195L122.245 72.685V72.585L122.095 72.195L121.885 71.765L121.575 71.545L121.455 71.215L120.865 70.855L120.585 70.615L119.895 70.245L118.775 70.465L119.045 69.625L118.365 68.725L117.825 68.165V67.955L117.885 67.755L117.945 67.315L118.175 66.795L118.265 66.025L117.915 65.245L117.525 64.855L117.065 64.575L116.395 63.655L116.255 63.335L115.805 62.705L115.665 62.085L115.845 61.765L115.725 61.355H115.805L116.075 61.965L116.985 62.745L117.215 62.995L117.755 63.455L118.855 63.805L119.475 63.455H119.545H119.705L120.565 63.375L121.255 62.375V62.145L121.515 62.225L122.515 61.955L123.075 61.315L123.945 60.605L124.495 59.935L124.815 59.305L124.975 58.535L124.855 57.535L124.335 56.935L124.255 56.535L123.885 55.815L123.505 55.465V55.115L123.605 54.965L123.875 54.395L123.765 52.905L122.545 52.245H121.725L120.895 51.795H120.765L120.595 51.585L120.185 51.325L119.865 51.175L119.725 50.935V50.685V50.405H119.835L120.655 49.035V48.225L120.525 47.735V47.555L120.435 46.925L120.085 46.425L119.915 46.225H120.205L120.735 45.945L122.735 46.095L123.615 45.715L124.135 45.045L124.345 44.845L124.825 44.325L124.905 43.805L125.425 42.955L125.365 42.005V41.845L125.765 41.755L126.295 41.645L127.095 40.515V40.015H127.195L127.735 39.435V39.335L128.045 39.395L129.135 39.065L129.705 38.305L129.895 37.445L129.975 37.235L130.485 36.635L130.775 36.115L130.935 35.455V33.675L131.245 33.325L131.635 32.695L131.795 31.795L131.675 31.295L132.175 30.845L132.525 30.065L132.605 29.185L132.245 27.935L130.985 27.125L130.695 27.215L130.525 27.055L129.075 26.685L128.565 27.235V27.175L127.405 25.755L126.655 26.245L126.355 26.095H126.035L126.275 25.465L125.815 24.695L125.565 24.345L125.225 24.155L125.055 23.845L124.175 23.555L123.495 22.765L122.725 22.425L122.025 22.325L121.365 22.385L120.425 22.775L119.345 22.885L118.345 23.265L117.835 23.075L117.245 22.885H116.495L115.715 23.255L115.305 23.735L115.115 24.105L114.505 24.535L113.805 24.615L113.175 24.955L112.895 25.165H112.795L112.495 25.245L112.025 25.475L111.625 25.875V25.955H111.495L110.985 26.285L110.645 26.665L110.485 26.605L109.335 26.685L108.835 27.355H108.515H108.055L107.575 27.525L107.475 27.605V27.585L106.545 25.515L105.895 25.715L105.425 25.065H104.305L103.635 25.155L103.465 25.095L103.395 24.935L102.395 24.145L101.495 23.825L101.055 23.715V22.795L100.705 21.685L100.095 20.685L99.0951 19.935H98.0151L97.5851 19.775L97.1851 18.905L95.7051 18.375H95.5051L95.2451 18.105L93.9451 23.815C93.9451 23.815 90.3751 18.255 88.2451 20.575C86.1151 22.895 85.3751 24.225 81.2451 23.705C77.1151 23.185 76.5451 17.185 74.7451 12.705L74.2251 12.495L73.4551 12.355L71.5651 12.285L71.3751 13.945V14.095H71.1751L70.8251 13.975L70.4651 13.905L69.9651 13.855L68.9651 14.245H68.7851L68.6251 14.145L68.2451 14.045L67.7651 13.975L67.2051 14.235L67.0051 14.395H66.9451L66.6351 14.455L66.3951 14.595L66.0151 14.845L65.8351 15.235L65.7051 15.565V16.335L65.7551 16.545L65.6351 16.605L65.5451 16.685L65.3051 16.865L65.1951 17.015L64.9451 17.145L64.6951 17.285L64.5351 17.435L64.2451 17.745L64.1251 18.195V18.285L63.9151 18.455L63.7051 18.715L63.4651 18.835L63.2151 19.005H63.0451L62.7551 19.065L62.3351 19.205L61.9851 19.485L61.8051 19.655L61.6751 19.815L61.5851 19.935L61.4851 20.095L61.3851 20.315L61.3151 20.495L61.1851 21.095V21.445V21.495L61.0851 21.715V21.835V21.975V22.205V22.285V22.545L61.1351 22.735L61.2151 22.985V23.085L61.2951 23.245V23.295L60.2951 25.065L63.0551 26.285L64.0551 26.395L64.3651 26.465H64.5751H64.7451H64.9751L65.4951 26.365L65.7351 26.075H65.9551L66.0551 26.135L66.1951 26.185V26.375V26.605V26.705L66.2851 26.965L66.4051 27.155L66.5251 27.315L66.7051 27.505L67.5651 28.095L67.6351 28.165L67.7651 28.285L67.8951 28.375L67.9551 28.525L68.2351 28.755L68.3451 28.855L68.6751 29.005L68.8951 29.065L69.5251 30.065L70.2451 29.685L70.4751 29.855L71.2351 29.735L71.2451 29.885L71.1851 30.105V30.385V30.455V30.625V30.855V31.155L71.2851 31.435L71.4051 31.645V31.795V32.185L71.6051 32.525L71.7551 32.765L71.9251 32.915L72.0651 33.025L72.1651 33.085L72.4451 33.265H72.8551H73.0451H73.2051L73.3951 33.215H73.4751L73.8251 33.345H73.8951V33.405L74.1851 33.545L74.3551 33.615V33.725V33.945V34.015V34.145V34.235L74.2851 34.335H74.2151L73.9651 34.455L73.6551 34.715L73.2851 34.785H73.1151L72.8551 34.905H72.7651L72.3751 35.055L72.1251 35.215L71.8251 35.445L71.6151 35.645L71.4151 35.895L71.2451 36.225L71.1651 36.445L70.9751 36.755L70.8751 36.925V37.065L70.8251 37.215H70.6451L70.2851 37.285L69.9951 37.365L69.8051 37.465L69.5651 37.605L69.4151 37.775L69.2651 37.945L69.1851 38.095L69.0651 38.345V38.605V38.745V38.915V39.145V39.215V39.275V39.645V39.925L68.7251 40.525L68.9951 41.525L69.4151 42.145L69.5051 42.425L69.5751 42.495L69.6251 42.775V43.235V43.555L69.7951 44.245L69.8651 44.775V45.025L70.3751 46.025L70.2351 46.895L70.4551 47.675L70.3551 47.895V48.225V48.295L70.2751 48.685L70.5551 49.435L70.6851 49.545V50.045L70.6151 50.285L70.2651 50.865V51.275H70.1451L70.2451 53.105L70.3351 53.735L70.1751 53.885L71.1751 55.255L71.7651 55.655L72.2151 55.855L72.3051 56.025L73.1451 56.505L73.5451 56.565H73.9551H74.0951L74.2451 56.765L76.8351 58.115L76.8951 58.255L77.2451 58.725L77.8151 59.105L78.5751 59.245L78.9151 59.155L79.3251 59.385H79.4951V59.545L79.5751 60.205L79.9751 61.305L80.5951 62.045L81.5151 62.375L82.3051 62.325L82.4851 62.265L83.0551 62.555L84.0051 62.455H84.1151L84.6751 62.805L85.3051 62.955L85.4751 63.095L84.9851 63.345L84.8451 63.485L84.5351 63.365L82.6451 63.785L82.7251 64.145L82.0351 63.895L81.3451 64.895L80.6951 64.765L80.1551 65.765L79.3451 66.405L79.0051 66.755L78.7251 67.315V67.625L78.5551 67.915L77.9251 68.685L78.5951 69.575L78.9551 70.245L79.2251 71.245L79.1351 71.395L78.7151 72.455L78.5951 72.935V73.345L78.4751 73.685L78.4151 74.205L78.4851 74.685L78.6151 75.095L78.7251 75.275L78.4351 75.415L78.1951 75.635L77.6851 75.745L77.2051 76.075L76.9451 76.405L76.7651 76.715L76.0751 77.715L76.1351 77.875L75.8151 78.265V78.365V78.415H75.7351L75.2451 78.685L74.9851 78.925L74.6951 79.275L74.3851 79.935V80.025L74.0451 80.395L72.3751 79.865L72.8351 81.685L72.7351 81.795L72.6351 82.075L71.9051 83.205L73.1951 83.905L72.4951 84.495H72.4351L70.8951 84.845L68.9751 85.745L68.4751 86.325L67.2451 90.435L65.7451 93.335L65.2251 94.045L64.9151 94.565L64.7151 95.045L60.3251 97.355L59.8451 97.685L58.9751 98.755L58.6351 99.435L58.0951 101.505L57.9851 101.825L57.8751 102.015L57.7051 102.195L56.5651 103.135L55.6951 104.275L55.4751 104.725L55.3651 105.155V105.775L53.5951 106.315H53.1151L52.4151 106.255L51.4151 106.345L50.5051 106.535L49.6851 106.825L47.6851 107.825L47.3551 107.895L47.2451 107.725L47.1251 107.445V107.015L46.8651 106.295L46.5251 105.895L46.2451 105.685L45.9551 105.345L45.5351 105.015L45.0651 104.765L44.5851 104.615L44.0251 104.535L43.5051 104.665L43.2351 104.775H42.9451L42.4951 104.915L42.0351 105.235L41.5351 105.795L40.9551 106.215L39.8951 107.315L39.6451 107.765L39.0251 109.685L38.2451 110.445L37.7151 111.295L36.8851 112.095L36.3051 112.505L35.3051 113.505L34.7851 114.405L34.4651 115.405L34.0451 118.105L34.2151 119.105L34.9551 119.935L36.4751 120.565L36.6451 120.685L37.3951 121.355L38.2451 121.685H40.1451V122.065V122.315V122.405L40.0151 122.895V123.365V123.625V123.735L39.5051 124.585L39.3851 125.085V125.495L39.3051 126.035V126.505L39.5751 127.325L39.9851 128.015L40.4651 128.595L40.7651 128.855L40.9051 129.265L41.2351 129.845L41.7551 130.235L42.3751 130.465L43.1251 130.625H44.4351V131.765L44.5951 132.535L44.9351 133.045L45.1251 133.245V133.505L45.4051 134.035L45.8651 134.545L46.3451 134.965L46.6151 136.205L46.8651 136.885L47.1651 137.535L47.6551 138.295L47.2451 139.045L47.0851 139.745L47.1751 140.745L47.2551 140.815V140.915L46.6451 141.325L46.5351 141.455L45.8651 140.025H44.4851L43.1351 140.355L42.7651 140.615H42.3351L41.8151 140.855L41.6651 140.965H41.5651L41.0451 141.145H40.6051L39.9351 141.515L39.5851 142.095L39.4651 142.455H38.0951H37.9651L37.2751 141.715L36.5351 141.375L33.5351 141.295L32.8651 141.545L32.5951 141.405L31.9651 141.225L31.4251 141.315L31.1651 141.125L30.6651 140.925H30.3251V140.865L28.2451 140.845L27.5551 142.345V144.395H26.2451H26.0551L25.8851 144.275L25.2151 144.395L24.1451 144.685V144.875L23.9151 145.065L23.5451 145.445V145.545L23.3951 145.635L22.9451 146.345L22.8951 146.505L22.8351 146.725V146.805V147.055L22.7451 147.285L22.6651 147.925L22.7651 148.175L22.2451 149.545L23.2451 150.465L23.8651 150.645L24.5151 150.735H24.8151L24.7351 150.925L25.1751 151.545V151.595L25.3651 151.815L25.4551 152.115L25.7751 152.225L25.7051 152.355L26.4651 153.705H26.7051L27.1051 154.205L27.3251 154.465L27.4751 154.555L27.7051 154.745L29.4051 155.915L30.9151 156.565L31.6851 157.115C31.6851 157.115 43.3851 150.115 48.2751 151.545C53.1651 152.975 51.7951 165.795 51.7951 165.795L41.5251 175.125L41.8151 175.315L42.2351 175.705L42.8051 175.935L43.1051 176.255L43.5351 176.535H43.7051L44.1251 176.815L45.4651 177.375L45.6051 177.485L45.7751 177.595L46.2451 177.855H46.5751L46.9351 177.985H47.3951L49.1051 177.875L49.4351 177.645H49.7151L49.9551 177.465L50.2651 177.535L50.4951 177.275L52.0251 176.505L52.4551 176.425L53.5351 176.075L54.2451 175.685L54.5651 175.615L55.1251 175.205L55.4051 175.105L56.1151 174.915L56.6051 174.605L56.7551 174.475L57.4051 174.075H57.5951L58.0451 173.965L58.7651 173.585L58.9651 173.455L59.0551 173.385L59.2551 173.275L59.9251 172.575V171.575V171.495L60.0751 171.325L60.2551 170.985L60.6551 170.565L61.0151 169.935V169.875L61.1551 170.345L60.6351 171.735L61.5551 171.575V171.685L61.7151 172.155L61.7751 172.215L61.6651 172.335V173.425L62.0851 173.975L62.2751 174.175L62.0451 175.595L63.4651 174.925L63.9651 175.535L64.0451 175.885L63.7051 176.125L64.1951 176.915L64.0351 177.405V177.845V177.995L63.7651 178.385L63.6151 178.705H63.2851L63.0951 179.815L63.0351 179.905L62.8251 180.325L62.7751 180.655V180.765V181.305V181.465L62.7251 181.825L62.5851 182.215L62.5151 182.565V182.685L62.3151 182.775L62.2151 183.265L61.3651 182.705L62.0251 184.995V185.265L62.1151 185.395L62.2451 185.825L62.4051 187.295H62.5151L62.7351 188.295L62.8451 188.425V188.685L62.9651 189.295L63.0251 189.495L63.0951 189.675V190.155L63.1951 192.355L62.9951 192.875L62.9051 193.075L63.7451 195.125V195.285V195.825L63.9751 196.665L64.1451 196.805L64.0551 197.295V197.875L64.1251 198.305L64.2451 198.585V198.765L64.3351 199.025L64.4551 199.265V199.425L63.9451 200.775L64.6751 200.955L65.0651 201.865L65.2051 202.395V202.755L65.7151 203.585L65.7751 203.945L66.0051 204.375L65.8951 204.845L66.0851 205.385V205.665V205.755V205.905L65.0851 205.445L66.9051 209.165L66.9651 209.235L67.0551 209.415V209.615L67.1651 209.805L67.0451 210.065L67.2051 210.325V210.685L66.9251 211.105L67.3551 211.685V211.785L67.2651 211.895L67.4551 212.895L67.5751 213.185L67.4851 213.625L67.6351 214.025L66.6351 214.545L67.6351 215.375V215.555L67.7151 215.845L67.9251 216.435H67.9851L68.0651 216.865L68.1251 216.935L68.0551 217.745L68.4651 217.925L68.5951 218.305V218.425L68.6551 218.635L68.7151 218.775L68.8451 218.995V219.055L68.6751 219.215L68.9751 220.135L69.1751 220.615L69.2851 220.695V220.765V220.845L69.6951 221.425L69.9851 221.725L70.4251 222.075L70.5651 222.355V222.645L70.7351 223.455L71.2451 223.685V223.735L71.4251 224.135L70.0951 224.045L72.2451 226.495L72.3351 227.115L72.6951 226.985L73.1051 227.295H73.1651L73.3151 227.795V227.875L72.7851 229.555L74.0351 229.915L74.2251 230.495L74.4251 231.005L74.6051 231.115L74.8451 231.975L75.4051 232.485L75.5151 232.535L75.6951 232.825H75.8551L76.3651 233.825L76.3051 234.045L77.3051 234.905V235.035L77.4051 235.525L77.4851 235.645V236.115L77.5551 236.215V236.375L77.8751 237.065L78.0051 237.255V237.705L78.1751 238.125V238.425L78.4251 238.975L78.7451 239.405L78.8751 239.625L79.0951 239.905L79.1551 240.075L79.2551 240.265V240.695L79.5151 241.605L79.6251 241.885V242.055V242.505V242.865L79.7851 243.285H79.6751L79.7251 243.715L79.6251 243.935L79.9451 244.705L80.0451 244.865L80.1551 245.255V245.605L80.2951 246.235L80.3651 246.435V246.685V246.815L80.3151 246.945L80.9451 249.575V249.685L81.0151 249.965H81.1351L81.2151 250.295L81.4451 250.565L82.1251 252.305L82.3051 252.575V252.675V252.775L82.4751 253.145L82.5451 253.215V253.335L83.1251 254.335L83.1851 254.475L82.9851 258.135L84.1151 256.935V257.045L84.4751 257.385L84.6151 257.295L84.7051 257.375L84.8351 257.485L84.9851 257.655L85.2451 258.185L85.4051 258.355V258.445L86.2351 259.445L86.4551 259.345L86.8851 259.815L86.9651 259.935L87.2151 260.545L87.1451 260.835L87.5051 261.345V261.625L87.9951 262.365L88.4351 262.525L88.5251 262.745V262.895L88.6351 263.185L88.7151 263.285L89.4251 265.015L89.8051 266.345L89.9451 267.155L90.1451 267.655L90.2151 268.045L90.3351 268.235V268.355L90.8551 269.415L90.9551 269.895L91.3051 270.345L91.3651 270.405V270.605L91.5051 271.115L91.8451 271.575V271.665L92.0051 272.415L92.2051 272.955L92.3051 273.155V273.395V273.445V273.735L92.6651 274.645L92.8151 275.195L92.9051 275.795L93.0251 275.985L93.1451 276.365L93.2751 277.365L93.2151 277.595L93.4551 279.205L93.9551 280.865L94.6851 282.545L95.0851 283.345L94.6151 283.625L95.2951 283.905V284.075V284.135V284.255L95.9051 285.175L96.3351 285.545L96.7851 286.415L96.9151 286.215L97.0651 286.465L97.3151 286.705L97.3751 286.825L97.9851 287.545L98.1351 287.905L98.7251 288.445L99.4051 289.445L99.8451 289.935L101.075 290.835L101.935 291.615L102.315 291.885L102.505 291.935L102.735 292.165L103.085 292.325L104.425 292.735L105.235 292.885L107.235 292.645L107.165 292.055L107.785 291.955L108.405 291.655L108.725 291.205L110.155 290.345H110.255L110.805 290.245L111.325 289.515L111.445 289.105L111.555 289.005L111.785 288.695L111.985 288.285L112.055 287.745H112.955L112.335 286.465L112.895 285.805L112.635 284.605L113.635 283.755L113.795 283.655L113.905 283.605H114.015L115.205 283.455L115.565 283.365L116.175 283.065L116.635 282.875L116.885 282.695L117.125 282.635L117.365 282.505H117.725L118.305 283.375L118.875 283.115L119.155 283.215L120.275 282.475H121.245L121.485 282.615L122.075 283.125L122.755 283.445L123.155 285.255L124.895 283.625L125.345 283.145V282.525V281.905L123.645 280.485L123.145 279.485L121.915 279.045L121.855 278.985V279.065L121.105 279.425H120.395H120.305L119.895 279.065V278.715L119.985 278.625L120.225 278.275L120.305 277.955L120.525 277.635L120.845 277.355L121.225 276.875L121.285 276.675L121.375 276.575L121.575 276.155L121.965 275.625L122.155 275.435L123.955 274.235L122.815 273.365V273.065H123.235H123.415L123.865 273.175H124.035L125.845 273.565L126.515 273.375H126.605L126.805 273.305L127.535 273.155L127.985 272.225L128.065 271.145V269.395L127.985 269.045V267.675L127.915 266.095L128.005 265.635V264.005L127.825 263.005V262.415V261.945L127.765 261.855L127.675 260.985L127.175 260.405V260.355L127.255 260.055V259.665L127.345 259.235L127.455 259.135L127.685 258.055L127.895 257.565V257.425L128.065 257.035V256.685L128.165 256.565L128.435 255.995L128.535 255.885L129.105 254.995L129.275 254.815L129.485 254.455L129.635 254.365L129.945 253.965L130.255 253.375V253.265L130.515 252.815L130.795 252.115L130.885 251.795V251.595V251.405L131.025 251.185L131.195 250.775L131.245 250.405L131.405 249.955L131.535 249.105L131.585 248.025L131.695 247.385L131.835 247.145L132.025 247.225L132.105 246.085L132.165 245.175L132.225 244.815V244.345V244.095V243.755H132.155L132.055 243.375L131.885 242.945V242.845L131.665 242.345L131.715 241.985H131.505L131.385 241.715L131.245 241.225L131.325 241.065L131.405 240.155L131.185 239.445L130.535 238.075L130.465 237.885L130.295 236.975V236.925L130.605 236.005L130.705 235.875L130.775 234.995V234.355L130.865 233.895V233.835V233.565L130.915 232.815L130.665 232.575L130.555 232.325L130.475 231.925L130.075 231.395L129.805 230.025V229.685L129.655 229.265V229.125V228.685L129.885 227.755L129.985 226.885L130.165 226.475L130.375 226.265L130.585 225.985L130.745 225.695L131.745 224.345L131.275 224.105L131.385 223.835L131.865 223.365L132.275 223.255L132.635 222.995H132.715L132.945 222.865L133.565 222.685V225.865L135.745 224.005L135.995 224.145L137.105 223.775L137.215 223.675H137.345L137.785 223.225L138.245 222.685V222.075L138.345 222.005L138.585 221.765L139.075 221.665L139.435 220.585V220.165L139.575 219.915L139.685 219.365L139.915 218.855V218.675L140.995 218.325L141.315 218.415H141.415H141.585H141.775L142.125 218.575H142.205H142.255L142.675 218.655H142.845H143.135L143.985 218.455L144.285 218.205L144.755 217.975H145.015H145.325L145.655 217.825H145.875L146.235 217.555H146.295L146.955 217.225L147.235 217.025L147.415 216.935H147.605L148.075 216.655L148.445 216.285L150.655 215.605L149.655 214.605V214.535L149.785 214.075V213.555L149.915 213.055V212.385V211.825L149.805 211.235L149.695 211.045L149.865 210.985L150.275 210.495L150.395 210.285L152.195 209.175L152.565 209.075L152.885 208.865L153.235 208.775H153.305H153.585L154.265 208.275L154.435 208.215L154.755 208.035L154.995 207.795L155.275 207.665L155.515 207.485L156.245 207.215L156.465 207.065L157.875 206.465L157.715 205.985L158.125 205.645V205.455L158.735 204.765L159.055 204.285V204.125L159.435 203.865V203.625L159.665 203.465L159.785 203.315L159.945 203.145L160.155 202.915V202.835L160.245 202.655L161.495 201.875L164.225 200.625L165.005 200.005L165.135 199.545L165.195 199.485L165.255 199.295L165.355 199.215L165.455 199.085L165.855 198.795L166.005 198.565L166.265 198.305L166.755 197.915L166.695 197.825L166.965 197.545L167.085 197.365L167.445 197.115L167.855 196.665L167.925 196.425L168.805 195.475L168.885 195.175L169.285 194.565L169.495 194.475L169.895 194.015L170.095 193.685L170.535 193.115L170.635 192.845L170.775 192.635L170.935 192.385V192.275L171.465 191.595L172.395 190.775L173.075 190.295L174.075 189.295L174.405 189.045L174.795 188.875L175.435 189.175L175.535 188.375L176.305 188.005L177.065 187.605L177.375 187.405L178.095 187.035L178.355 186.975H178.535H178.825L179.285 186.795L179.495 186.655H179.685L180.685 186.335L181.465 186.285L181.845 186.085L183.235 185.565L186.805 183.565H186.675L189.185 182.065H187.185L187.425 181.925L187.805 181.615L187.745 181.535L188.125 181.165L188.515 180.605L188.955 179.505L188.755 179.155L189.095 178.885L189.545 178.745L190.045 178.365L190.375 178.035L190.555 177.815L190.295 177.555L190.415 177.225L190.525 176.795L190.425 176.275L190.285 175.945L190.185 175.795L189.985 175.085L189.085 173.025V172.655L189.205 172.315L189.485 171.875L190.605 170.665L190.855 170.485L191.295 170.255H191.395H191.645L192.485 170.095L193.645 169.615L194.775 169.305H195.255L195.885 169.125L196.455 168.705L197.005 168.415L197.335 169.055L198.135 169.425H198.445H198.575H198.715L199.125 170.335L199.545 170.055H199.605L200.235 170.105H200.465L200.735 170.055L201.105 169.905L202.205 170.545L203.405 170.155L204.055 170.615L204.145 170.085H204.335L205.445 170.505L205.775 170.365L206.865 170.145L207.045 169.595H207.415L208.415 169.115L208.715 168.115V167.475L208.665 167.075L208.535 166.875L208.345 166.465L208.205 166.315L208.155 166.045L208.395 165.905L208.555 164.815L208.455 163.945V163.825L208.715 163.485L208.655 162.605L208.545 162.165L208.645 162.095L207.955 160.895L208.045 160.455L207.935 159.825L207.765 159.405L207.605 158.725V158.365L207.445 157.895L207.385 157.785V157.685L207.495 157.305L207.555 156.975V156.565L207.445 155.835L206.785 155.195V155.125L206.715 155.005V154.685L206.905 154.475L207.165 154.265L207.445 153.935L207.565 153.655L207.685 153.325V153.055V152.375L206.815 151.605H206.295L205.775 151.425L206.015 150.785L206.125 149.685L204.605 148.435L204.445 148.565L204.315 148.415V148.315L204.185 148.205V148.135V147.885L204.605 147.545L205.055 147.105L205.405 146.655L205.515 145.945V145.625L205.635 145.425L205.565 144.085L205.705 143.835L205.765 143.655L205.925 143.055L205.755 142.745V142.685L205.675 142.105L205.115 141.335L204.405 140.905L202.895 140.565L202.685 141.055H202.625L202.175 140.695L200.245 139.585V139.345L200.045 138.915L200.325 138.315L200.535 138.375L201.335 138.455L202.055 137.895L202.305 137.445L202.635 137.015L202.905 136.455V136.355L202.995 136.235L203.235 135.595V135.475L203.485 135.415L203.755 135.325L204.205 135.495L204.905 135.565H205.505L205.665 135.435H205.775L208.775 135.625L207.775 133.995L208.025 133.605L208.105 133.275V132.895L207.975 132.275L207.275 131.415H206.615V130.825L206.245 130.245L206.065 130.085L205.955 129.945L205.615 129.655L203.215 128.715V129.205L203.135 129.155V128.805L202.485 128.065L201.855 127.645L201.275 126.955L200.515 126.565L200.625 126.475L200.905 125.615V125.385L201.465 125.195L202.075 124.815L202.465 124.015V123.955L203.775 124.955L204.295 124.765L205.295 125.245L205.955 124.985L206.605 125.205H206.705V125.285L207.175 125.835L207.665 126.045L208.085 126.555L208.405 126.695L208.535 126.855L208.945 127.135L209.425 127.355L210.225 127.445H210.465L211.235 127.865L212.345 127.625V127.855L212.575 129.085L212.785 129.605V129.685L212.725 130.205V130.835L212.545 131.505L212.465 132.125V132.695L212.605 133.305L213.105 134.235L214.275 134.435L214.615 134.305L216.305 135.025L217.675 135.325L218.475 135.665H219.205L220.055 135.475L220.805 135.545H221.015L221.515 135.625H221.765H221.945H222.005L222.115 135.685L222.765 135.765L224.145 135.575L224.435 135.465L225.585 135.285H226.085H226.235H226.295L227.825 135.765H228.295H228.565L228.855 135.715H228.925L229.505 135.865H229.995L230.775 135.745H230.905L231.265 135.445L232.165 135.335L232.785 135.425L233.145 135.315L233.395 135.535L233.885 135.705H233.815L233.505 136.795L233.645 137.465V137.555L233.245 138.675L233.135 139.205L232.695 139.645L232.535 140.315L231.275 140.205L231.215 140.885L230.875 140.995L230.755 141.675L229.995 141.515L229.795 141.805L228.865 141.455L228.335 142.995V143.045L227.815 142.925L226.445 143.045L225.945 144.205H225.845L225.455 144.555L225.235 144.865L224.815 145.605L224.675 146.105V146.565L224.405 146.665L223.905 147.755L224.035 148.435L223.975 148.875L224.115 149.455L224.415 150.015L224.505 150.405L224.765 150.915L224.925 151.055L225.065 151.535V151.595L225.165 152.035L225.255 152.335L225.445 153.745L225.655 154.465L226.285 155.325L227.655 155.695L228.055 156.135L228.235 156.205L228.975 157.085L230.095 156.445L230.255 156.335H230.375L230.765 156.245L231.225 155.945L231.375 155.785L231.475 155.695L231.695 155.455V155.375L232.035 155.015L232.225 154.745L232.505 154.095L232.325 153.465L232.225 153.225L232.095 152.545L232.015 152.365L232.175 152.085L232.535 151.925L232.915 151.655L233.215 151.325L233.655 150.575V150.015H233.775L233.985 150.325L234.035 150.485V150.935L234.115 151.195L234.205 151.445L234.305 151.595L234.395 151.945L234.465 152.035V152.175L234.395 152.315L234.295 152.745V153.405L234.525 154.755V155.455L234.675 156.175L235.215 156.985V157.105L235.355 157.745L235.705 158.235L235.775 158.295V158.585V159.225L235.865 159.645L235.945 159.865L236.355 162.375L235.905 162.775L236.335 164.165L236.445 164.745L236.645 166.515L238.335 165.875L238.505 165.805H238.595L239.245 165.685L239.325 165.625L239.605 165.465L240.885 166.725L241.765 165.945H241.815H242.185L242.445 165.795L242.655 165.665L242.805 165.505L242.885 165.405L243.125 165.045L243.245 164.685V164.515L243.955 164.165L243.895 164.005L245.305 163.575L244.815 162.695L244.875 162.525L244.935 162.255V161.985L244.845 160.645L244.605 159.805L244.305 159.475V159.305V158.735L244.145 158.175L244.045 158.005L244.255 157.435L244.475 157.175L244.825 156.625V156.255L245.315 156.005L245.725 155.645L246.015 155.255L246.565 154.125V153.585V153.465L246.645 152.785V152.535L246.755 152.355L246.815 152.195L246.885 151.925V151.575V151.395V150.915V150.815L247.175 148.915V148.245L247.005 147.795L246.835 147.555L246.685 147.265L247.415 147.075L247.795 146.945L247.885 146.855L248.035 147.045L248.875 147.465L249.715 147.355L249.895 147.435L250.355 147.545L250.495 147.625L251.035 148.245L252.405 148.325L253.245 147.395L253.355 146.655V146.565L253.745 146.035L253.855 145.555V145.465L253.935 145.365L254.065 144.795V144.485V144.325L254.505 143.265L254.585 142.905L254.705 142.755L254.945 142.375V142.155L255.205 141.785V141.605L255.365 141.505L255.525 140.845L255.925 140.585L256.245 139.915L256.295 139.725L256.605 139.545L256.975 139.075L257.175 138.605L257.255 138.155V138.085L257.455 137.825L257.735 137.305L257.885 136.565L258.225 135.955L258.315 135.095L258.195 134.275L257.715 133.405L257.065 133.095L257.255 132.545L257.305 132.465L257.355 132.415H257.515L258.035 132.255L258.585 131.815L258.745 131.565L258.855 131.505L259.475 131.145L259.565 130.605L259.975 129.995L260.695 129.495L260.975 128.635V128.085L260.885 127.625L260.975 127.565L261.515 126.975L261.865 126.535L262.205 125.895L262.245 124.785L261.825 124.345L261.905 124.155L261.635 123.525L261.375 123.065H261.325V122.965L261.465 122.575L261.525 122.065L261.465 121.755L261.545 121.665L261.745 121.335L261.835 121.125H262.005L262.535 120.965L262.865 120.795L263.595 120.555L264.105 120.245L264.595 119.615L264.675 119.455H264.945L265.765 119.035L265.955 118.675L266.555 118.425L266.925 117.955L267.155 117.575V117.515L267.555 117.445L268.145 117.125L268.625 116.655L268.945 116.195L269.255 115.585L269.405 115.375L269.655 115.195L269.975 115.055L271.975 114.705H272.215L272.445 114.785L273.075 114.725L273.525 114.575L273.985 114.315H274.345V115.095L275.135 115.755L276.255 116.285L276.495 116.525L276.835 116.675L277.235 116.815H277.565L277.945 116.985L278.605 116.725L279.105 116.465L279.375 115.935L279.495 115.595L279.545 115.435L279.645 114.905L279.275 114.105L278.995 113.675L278.715 113.385L277.495 111.765V111.295L277.445 111.015V110.885L277.745 110.615L277.875 110.445H278.265L278.955 109.665L279.025 109.595H279.105L279.165 109.535L280.465 109.065L280.735 108.915L281.095 108.655L281.505 107.925L281.445 107.535L281.505 107.415L281.755 106.465ZM61.0051 166.215H60.7951L60.6451 165.945H60.7151L61.1751 166.225V166.075V166.425L61.1051 166.575L61.0051 166.215ZM61.6251 169.215V169.315L61.1651 169.595L61.3351 168.965L61.5151 168.725V168.665L61.8551 168.815L61.6251 169.215Z" fill="#310077"/>
<path d="M250.955 81.5551L270.445 91.2951L271.005 98.3751L267.485 103.175C267.485 103.175 265.045 98.865 263.765 98.285C262.485 97.705 257.895 96.425 257.895 96.425C257.895 96.425 251.145 94.855 250.955 93.785C250.765 92.715 249.875 90.1651 249.875 90.1651L250.955 81.5551Z" fill="#310077"/>
<path d="M220.625 159.525L237.175 166.595C237.175 166.595 241.955 154.725 242.055 154.235C242.155 153.745 243.125 147.005 243.125 147.005C243.125 147.005 242.055 140.735 241.175 139.565C239.595 137.628 237.585 136.088 235.305 135.065C232.73 134.36 230.115 133.805 227.475 133.405L221.415 137.025L221.115 139.565L221.215 149.835L220.625 159.525Z" fill="#310077"/>
<path d="M102.645 12.785L122.645 22.345L125.095 25.985L128.035 28.045V32.685L121.775 39.235C119.879 38.7666 118.029 38.1308 116.245 37.335C114.975 36.555 112.825 29.415 112.825 29.415L111.565 25.975L100.975 22.795L99.5151 17.795L102.645 12.785Z" fill="#310077"/>
<path d="M261.585 97.915L261.365 96.915L261.065 96.595L261.295 96.075L261.075 94.755L260.255 94.315L260.085 94.185L259.875 93.725L259.395 93.485L259.265 93.435L258.665 92.915L257.575 92.635L257.155 92.815L256.515 92.015L255.875 91.595L255.105 90.725L254.825 90.645L254.765 89.985L254.515 89.085L253.985 88.455L253.915 88.135L253.765 87.725L253.965 87.245L252.625 86.535L252.545 86.145L252.815 85.725V84.725L252.185 83.985L251.285 83.535L250.825 83.715L250.325 82.775H248.865L247.505 82.905L247.085 83.095L246.505 82.805L245.905 83.065L244.625 83.305V83.955V83.865L244.315 84.015L243.925 84.105L243.615 84.325L243.495 84.425L242.975 84.485L242.915 84.715L242.115 85.105H241.705L241.275 85.455H240.955L240.475 85.165L239.875 85.015L236.095 82.785L236.315 83.265L235.435 83.365L234.835 83.915L234.525 84.375H234.245L233.695 84.455L233.045 84.805L232.895 84.985H232.165L231.515 87.235V87.295L231.085 87.715L230.845 87.785L230.135 88.075L230.015 88.175H229.925L229.295 88.295L228.935 88.585L228.725 88.785L228.445 88.875L228.385 89.045L227.995 89.275L227.805 89.445L227.525 89.365L226.965 89.765H226.735L225.345 89.865L223.825 90.785L223.395 91.175L223.025 91.365L221.955 92.245L221.845 92.995V93.155L221.795 93.245L220.985 93.815L220.805 94.035L220.665 94.085L220.205 94.335L219.245 94.685L218.545 95.155L218.115 95.515L217.735 96.025L217.365 96.835L217.445 97.635L217.255 97.745L217.085 97.925L216.085 97.705L215.935 97.895L214.635 97.505L214.195 98.285H213.725L212.975 98.675L212.605 99.055H212.465H212.245L212.035 98.925L211.285 98.735L208.705 98.825L208.545 100.055L208.145 100.625L207.995 101.625L208.305 102.805L208.605 103.315L208.805 103.475V103.535L209.325 104.125L209.735 104.255L210.195 105.005L211.465 104.875L212.175 104.625H212.275L212.195 104.745L212.075 105.095L211.955 105.275L211.795 105.645L211.695 105.995V106.345V106.835L211.915 107.495L210.695 107.845V107.905L210.145 108.265L209.755 108.145H209.625L209.405 107.805L208.655 107.585H207.985L207.415 107.675L206.765 108.125L206.635 108.355L206.255 108.265H205.555H205.255H204.615L204.105 108.505L201.925 108.635L201.155 108.545L200.475 108.195L199.475 107.475L198.535 107.325L197.815 107.565L197.535 107.795L196.985 107.845L196.035 108.455L195.855 108.925L195.125 108.995L194.785 109.095L194.705 109.025H194.245H193.645L193.405 109.225L193.225 109.145L192.635 108.675L191.965 108.415L191.285 108.305H190.985L190.065 107.675L189.295 107.875L188.685 107.935L188.475 108.105L188.115 107.715L187.695 107.395L187.115 107.135L186.735 106.665V106.535L186.495 106.075L187.025 105.655L187.415 103.995L186.515 103.385L186.275 103.075L186.045 102.925V102.375L186.125 102.165L186.375 101.745L186.875 99.555V99.135L186.785 98.595L186.575 98.175L186.485 97.265L186.195 96.975L186.035 96.785L185.685 96.485L185.055 96.055L184.535 95.895H184.375L184.035 95.485L182.785 95.415L181.965 96.065L181.845 96.185L181.405 96.305L180.825 96.735L179.375 96.955H179.265H179.005L178.185 97.225L177.575 98.065L177.495 98.925L177.675 99.585L177.955 100.045V100.125L177.755 100.905L177.245 101.685L176.895 102.445V102.765V103.005V103.225V103.335L176.835 103.495L176.765 103.865V104.365L176.825 104.545L176.535 105.215V105.905V105.965L176.455 106.195V106.355V106.675V106.905L176.535 107.215L176.745 107.585L176.845 107.675L177.065 108.165L177.575 108.485L177.665 108.655L177.785 108.975L177.925 109.265L178.075 109.485V109.815L178.145 110.195L178.055 110.445L177.645 111.245V111.315L176.235 111.675L175.995 111.585L175.375 111.825L174.375 112.165L174.295 112.235L173.935 112.025L173.275 111.905H172.665L172.065 112.085L171.855 112.205L171.545 111.895L171.005 112.065V111.935V111.815L170.795 110.365H169.025L168.475 110.825L168.315 110.995L167.875 111.145L167.095 111.615L166.645 111.695L166.105 111.435L165.785 111.145L165.345 110.905L165.095 110.845H164.995L164.435 110.545L164.055 110.405L163.845 110.185L163.035 110.015L162.495 110.105L162.215 110.195H162.155H162.045H161.965L161.455 109.875L160.615 109.595L160.015 109.785H159.655L159.315 109.985V109.835L159.135 108.985L158.645 108.375L157.645 107.805L156.965 107.565L155.725 108.055L155.255 108.315H154.635L154.455 108.475V108.145L153.045 107.555L152.485 107.615H152.415L152.045 107.065L151.465 106.735L151.205 106.645L151.025 106.345L150.125 106.145V106.065V105.455L149.995 104.875L149.755 104.275L149.315 103.625L148.615 103.125L146.275 102.695L146.195 102.515L145.345 101.865H145.285L145.205 101.455L143.775 101.135L142.885 101.505L142.595 101.875L142.365 101.795L141.905 101.935H141.435L140.775 102.205L140.635 102.125L139.765 101.795L138.565 101.635H137.245L136.245 101.995L136.165 102.165L135.485 101.895H134.315H134.105L133.745 101.685L133.235 101.525H132.885V101.215L132.695 100.545L132.445 100.135L132.155 99.725L131.155 99.325L129.715 99.695H129.505L129.215 99.395L128.465 99.015L127.375 98.105L126.965 97.945L126.515 97.565L125.925 97.365L124.925 97.265L124.055 97.655L123.785 97.365L123.345 97.005L122.845 96.815H122.765V96.755L122.285 96.425L121.835 96.185L121.565 95.735L121.225 95.365L120.775 95.045L120.085 94.795H119.945L119.785 94.605L119.555 93.825L119.035 93.165L118.245 92.785L117.565 92.655V92.595L116.485 91.975L116.395 91.805L115.565 91.425H115.295L115.145 91.265L114.695 90.965H114.605L114.485 90.725L113.865 90.275H113.745L113.485 89.735H111.945L111.315 90.095L110.855 89.715L110.745 89.565L110.165 89.205H109.925L109.775 88.995L110.095 88.215V87.985L110.515 87.865L110.825 87.485H111.025L111.145 87.055L111.265 86.905V86.705L111.605 85.495L111.675 84.995V84.625L111.555 84.045L111.385 83.915L111.505 83.825L111.725 83.595L111.855 83.415L112.065 83.055L112.275 82.825L112.585 82.205V81.465L112.495 81.165L112.985 80.755L113.565 80.015L113.885 79.505L114.045 79.455L114.405 79.215L114.655 78.985L115.005 78.745L115.285 78.435L115.525 78.045L116.115 77.595L116.265 77.365L116.765 77.195L117.515 77.145L118.105 75.675L117.775 74.915L117.355 74.235L116.615 73.845L115.895 73.635L115.535 73.485L115.425 73.275L115.145 72.915L114.685 72.545L113.625 71.935L113.055 71.735H112.645L112.165 71.545L111.235 71.015H111.125L111.445 70.425L110.785 69.425L110.535 69.285L110.345 68.985L109.675 68.475H109.045L108.605 68.115L107.905 67.825L107.775 67.565L107.395 67.095L106.745 66.685L105.875 66.465L105.335 66.405L104.785 66.555H104.475H104.235L104.015 66.315L103.515 66.035L103.255 65.575L102.695 65.265L102.525 64.505L102.205 64.315L102.105 64.155V64.055L101.965 63.665L101.755 63.235L101.445 63.015L101.315 62.685L100.725 62.325L100.455 62.085L99.7551 61.715L98.6351 61.935L98.9151 61.095L98.2251 60.195L97.6851 59.635V59.425V59.225L97.7551 58.785L97.9851 58.265L98.0651 57.495L97.7251 56.715L97.3251 56.325L96.8751 56.055L96.2451 54.975L96.0451 54.685L95.6051 54.055L95.4751 53.435L95.6551 53.115L95.4851 52.685H95.5651L95.8351 53.295L96.7351 54.075L96.9651 54.325L97.5051 54.785L98.6051 55.135L99.2251 54.785H99.3051H99.4751L100.335 54.705L101.015 53.705V53.475L101.265 53.555L102.265 53.285L102.825 52.645L103.705 51.935L104.255 51.265L104.565 50.635L104.735 49.865L104.605 48.865L104.085 48.265L104.015 47.865L103.635 47.145L103.255 46.795V46.445L103.355 46.295L103.625 45.725L103.515 44.235L102.285 43.575H101.475L100.635 43.125H100.505L100.345 42.915L99.9251 42.655L99.6151 42.505L99.4751 42.265V42.155V41.875H99.5951L100.405 40.505V39.695L100.275 39.205V39.025L100.185 38.395L99.8251 37.895L99.6451 37.685H99.9351L100.475 37.405L102.475 37.555L103.355 37.175L103.885 36.505L104.095 36.305L104.565 35.785L104.645 35.265L105.165 34.415L105.105 33.415V33.255L105.505 33.165L106.025 33.055L106.835 31.925V31.425L106.945 31.375L107.475 30.795V30.695L107.775 30.755L108.865 30.425L109.445 29.665L109.625 28.805L109.715 28.595L110.225 27.995L110.515 27.475L110.665 26.815V25.035V24.985L110.975 24.635L111.375 24.005L111.525 23.105L111.405 22.605L111.905 22.165L112.255 21.375L112.335 20.495L112.085 19.355L110.825 18.545L110.545 18.635L110.375 18.475L108.925 18.125L108.415 18.675V18.615L107.245 17.225L106.495 17.715L106.205 17.565H105.875L106.125 16.935L105.665 16.165L105.405 15.815L105.075 15.625L104.895 15.315L104.025 15.025L103.345 14.235L102.585 13.895L101.875 13.795L101.215 13.855L100.285 14.245L99.2051 14.355L98.2051 14.735L97.6951 14.545L97.0851 14.435H96.3451L95.5551 14.805L95.1451 15.285L94.9651 15.655L94.3451 16.085L93.6451 16.165L93.0251 16.505L92.7351 16.715L92.6451 16.765L92.3451 16.845L91.8751 17.075L91.4651 17.475V17.555H91.3251L90.8151 17.885L90.4851 18.265L90.2451 18.195L89.1051 18.275L88.6051 18.945L88.2451 18.895H87.7751L87.3051 19.065L87.2051 19.145V18.995L86.2451 16.965L85.6051 17.165L85.1251 16.515H84.0251L83.3551 16.605L83.1751 16.545L83.1051 16.385L82.1051 15.595L81.2051 15.275L80.7651 15.165V14.245L80.4951 13.105L79.8951 12.165L78.8951 11.415H77.8451L77.4151 11.255L77.0251 10.385L75.5451 9.855H75.3451L74.7051 8.935L73.3951 8.735L72.6551 7.315L72.2451 6.885L71.5851 6.285L70.8851 5.785L69.8851 5.325L68.6351 5.075H68.5351V4.985L68.2451 4.305L67.6951 3.685L66.9951 3.385L65.9951 3.175L65.7551 2.965L65.3551 2.685L64.7551 2.565L63.8651 2.695H63.4451L63.0451 2.805L62.5151 2.365H61.9851L61.8051 2.105L60.7551 1.875L60.1251 2.125L59.4951 2.285L59.1351 2.475H58.6451L57.8651 2.695L57.4851 3.015L56.7551 3.475L56.6051 3.685H56.2551L55.5851 3.845L54.9251 4.355V4.425L54.5151 4.165L54.0051 3.955L53.2451 3.755L51.3251 3.685L51.1251 5.345V5.495H50.9451L50.6051 5.375L50.2451 5.305H49.7451L48.7451 5.695H48.5751L48.4051 5.595L48.1451 5.535L47.6551 5.465L47.0551 5.685L46.8651 5.845H46.7751L46.4651 5.905L46.2451 6.055L45.8651 6.305L45.6651 6.685L45.5351 7.015V7.785L45.5951 7.995L45.4651 8.055L45.3451 8.125L45.1151 8.305L45.0051 8.455L44.7451 8.585L44.4951 8.725L44.3451 8.875L44.0451 9.185L43.9651 9.685V9.775L43.7651 9.945L43.5451 10.205L43.2451 10.285L43.0051 10.455H42.8451L42.5551 10.515L42.1251 10.655L41.7751 10.935L41.5951 11.105L41.4651 11.265L41.3851 11.385L41.2851 11.545L41.1751 11.765L41.1051 11.945L40.9751 12.545V12.895L40.8751 13.115V13.235V13.375V13.605V13.945L40.9251 14.135L41.0151 14.385V14.485L41.0851 14.645V14.695L40.0851 16.465L42.8551 17.685L43.8551 17.795L44.1651 17.865H44.3851H44.5451H44.7751L45.2951 17.765L45.5351 17.475H45.7551L45.8551 17.535L45.9951 17.585V17.775V18.005V18.105L46.0751 18.365L46.1951 18.555L46.3151 18.715L46.5051 18.905L47.3551 19.495L47.4351 19.565L47.5551 19.685L47.6851 19.775L47.7451 19.925L48.0351 20.155L48.1451 20.255L48.4651 20.405L48.6951 20.465L49.3251 21.465L50.0451 21.085L50.2851 21.265L51.0351 21.135V21.285L50.9751 21.505V21.795V21.855V22.025V22.255V22.555L51.0651 22.835L51.1851 23.045V23.195L51.2451 23.685L51.4451 24.025L51.6051 24.265L51.7651 24.415L51.9051 24.525L52.0051 24.585L52.2451 24.685H52.6551H52.8451H53.0051H53.2451H53.3151L53.6651 24.825H53.7351L53.7851 24.885L54.0651 25.025L54.2351 25.095H54.2451V25.205V25.425V25.495V25.625V25.685L54.1751 25.785H54.1051L53.8551 25.905L53.5451 26.165L53.1751 26.235H53.0051L52.7351 26.355H52.6351L52.2451 26.685L51.9951 26.845L51.6851 27.075L51.4851 27.275L51.2851 27.525L51.1051 27.855L51.0351 28.075L50.8351 28.385L50.7351 28.555V28.695V28.845H50.5551L50.1951 28.915L49.8951 28.995L49.7151 29.095L49.4751 29.235L49.3151 29.405L49.1751 29.575L49.0851 29.725L48.9751 29.975V30.235V30.375V30.545V30.775V30.845V30.905V31.275V31.555L48.6451 32.155L48.9151 33.155L49.3251 33.775L49.4251 34.055L49.4851 34.125V34.405V34.865V35.185L49.6551 35.875L49.7251 36.405V36.655L50.2451 37.655L50.0951 38.525L50.3251 39.305L50.2251 39.525V39.855V39.925L50.1351 40.315L50.4251 41.065L50.5451 41.175V41.675L50.4751 41.915L50.1351 42.495V42.905H50.0151L50.2051 44.615L50.3051 45.245L50.1451 45.395L51.1451 46.765L51.7251 47.165L52.1751 47.365L52.2651 47.535L53.1151 48.015L53.5151 48.075H53.9151L54.0551 48.025L54.2051 48.225L56.7951 49.575L56.8651 49.715L57.2051 50.185L57.7751 50.565L58.5451 50.705L58.8751 50.615L59.2851 50.845H59.2451L59.1851 51.005L59.2451 51.685L59.6351 52.785L60.2651 53.525L61.1851 53.855H61.9751L62.2451 53.685L62.8051 53.975L63.8051 53.875H63.9151L64.4751 54.225L65.1051 54.375L65.2751 54.515L64.7851 54.765L64.6451 54.905L64.3351 54.785L62.4451 55.205L62.5351 55.565L61.8451 55.315L61.1551 56.315L60.4951 56.185L59.9651 57.185L59.1451 57.825L58.8051 58.175L58.5251 58.735V59.045L58.3551 59.345L57.7251 60.105L58.3951 60.995L58.7651 61.665L59.0251 62.665L58.9351 62.815L58.5151 63.875L58.3851 64.355V64.765L58.2751 65.105L58.2151 65.625L58.2851 66.105L58.4051 66.515L58.5151 66.695L58.2351 66.835L57.9851 67.055L57.4851 67.165L57.0051 67.495L56.7351 67.825L56.5651 68.135L55.8651 69.135L55.9251 69.295L55.6051 69.685V69.785H55.5251L55.2151 69.995L54.9651 70.245L54.6751 70.585L54.3651 71.245V71.335L54.0351 71.705L52.3651 71.175L52.8651 72.905L52.7551 73.015L52.6551 73.295L51.9351 74.425L53.2151 75.125L52.5151 75.715L50.9651 76.065L49.0551 76.965L48.5551 77.545L47.0551 81.885L45.5651 84.785L45.0451 85.495L44.7351 86.015L44.5351 86.495L40.1451 88.805L39.6751 89.135L38.8051 90.195L38.4651 90.875L37.9351 92.945L37.8151 93.265L37.7051 93.455L37.5351 93.635L36.4051 94.575L35.5351 95.685L35.3151 96.135L35.1951 96.565L35.1451 97.185L33.3751 97.725H32.9051L32.2051 97.665L31.2051 97.755L30.2951 97.945L29.4651 98.235L27.4651 99.235L27.1451 99.305L27.0251 99.135L26.9051 98.855L26.9551 98.425L26.6851 97.705L26.3451 97.305L26.0951 97.095L25.7951 96.755L25.3751 96.425L24.9151 96.175L24.4251 96.025L23.8651 95.945L23.3551 96.075L23.0751 96.185L22.7951 96.235L22.3451 96.375L21.8851 96.695L21.3751 97.255L20.7951 97.675L19.7351 98.775L19.4951 99.225L18.8651 101.065L18.0851 101.825L17.5651 102.675L16.7351 103.475L16.1451 103.885L15.1451 104.885L14.6251 105.785L14.3151 106.785L13.8951 109.485L14.0651 110.485L14.8051 111.315L16.3251 111.945L16.4951 112.065L17.2451 112.735L18.1151 113.065L20.0051 112.995V113.375V113.625V113.715L19.8851 114.205V114.675V114.935V115.045L19.3751 115.895L19.2551 116.395V116.805L19.1751 117.345V117.815L19.4551 118.635L19.8551 119.325L20.3451 119.905L20.6451 120.165L20.7751 120.575L21.1151 121.155L21.6251 121.545L22.2551 121.775L22.9951 121.935H24.3051L24.2451 123.145L24.4051 123.915L24.7551 124.425L24.9351 124.625V124.885L25.2151 125.415L25.6751 125.925L26.1451 126.345L26.4151 127.585L26.6651 128.265L26.9751 128.915L27.4651 129.675L27.0551 130.425L26.8951 131.125L26.9951 132.125L27.0751 132.195V132.295L26.4651 132.705L26.3651 132.835L25.6951 131.405H24.3051L22.9651 131.735L22.5951 131.995H22.1651L21.6351 132.235L21.4851 132.345H21.4451L20.9151 132.525H20.4851L19.8151 132.895L19.4651 133.475L19.3351 133.835H17.9751H17.8451L17.1551 133.095L16.4051 132.755L13.4051 132.675L12.7451 132.925L12.4751 132.785L11.8451 132.605L11.3051 132.695L11.0351 132.505L10.5451 132.305H10.2051V132.245L8.14509 132.155L7.45509 133.655V135.655H6.05509H5.86509L5.69509 135.535L5.02509 135.655L4.02509 135.925V136.115L3.80509 136.305L3.42509 136.685V136.785L3.24509 137.085L2.78509 137.795V137.955L2.72509 138.175V138.235V138.485L2.64509 138.715L2.55509 139.355L2.65509 139.605L2.21509 140.975L3.21509 141.895L3.83509 142.075L4.49509 142.165H4.78509L4.70509 142.355L5.15509 142.975L5.34509 143.195L5.44509 143.495L5.75509 143.605L5.69509 143.735L6.44509 145.085L6.68509 145.135L7.09509 145.635L7.32509 145.895L7.46509 145.985L7.69509 146.175L9.39509 147.345L10.9151 147.995L11.6851 148.545L12.4551 148.995L13.0651 149.185L13.8451 149.255L14.1051 149.375H14.3451L14.4851 149.445L14.8551 149.535L14.9651 149.595L15.2151 149.675L15.4351 149.725H15.6551H15.7051L16.1451 149.865H16.7951L16.6951 150.085H15.5051L15.4151 150.145L14.4651 150.275L14.3451 151.275H14.2451V151.105L13.7851 150.695L13.3951 150.405L13.0251 150.355L12.8051 149.975L11.5451 149.735L10.9051 150.205L10.5151 150.425L10.1651 150.725L9.94509 151.035L9.76509 151.345L9.61509 151.765V151.955L9.39509 152.475V153.235L9.61509 153.755L9.84509 154.125L10.0151 154.555L10.4051 154.965L10.6451 155.175L10.8551 155.465L11.0051 155.815L11.4151 156.205L11.5851 156.325L11.9451 156.825L12.2151 157.095L12.4951 157.295L13.3751 158.155L13.6151 158.285L14.0051 158.765L14.4151 159.105H14.4851L14.5751 159.255L14.8151 159.455L15.0551 159.755L15.3651 160.085L15.9051 160.405L16.9051 161.505L17.1851 161.745L17.5251 162.275L18.2151 163.105L18.5551 163.425L19.4951 164.645L20.4051 165.375L21.4051 166.375L21.7351 166.585L22.1551 166.975L22.7151 167.205L23.0151 167.525L23.4551 167.805H23.6251L24.0351 168.085L25.3751 168.645L25.5251 168.755L25.6951 168.865L26.1551 169.125H26.4951L26.8551 169.255H27.3151L29.0151 169.145L29.3451 168.915H29.6251L29.8751 168.745L30.1851 168.805L30.4051 168.545L31.9451 167.775L32.3651 167.695L33.4551 167.345L34.0951 166.785L34.4051 166.715L34.9751 166.305L35.2451 166.205L35.9551 166.015L36.4551 165.705L36.5951 165.575L37.2551 165.175H37.4451L37.8951 165.065L38.6151 164.685L38.8151 164.555L38.8951 164.485L39.1051 164.375L39.7751 163.675V162.675V162.595L39.9251 162.425L40.1051 162.085L40.4951 161.665L40.8551 161.035V160.975L41.0051 161.445L40.4751 162.835L41.4051 162.675V162.745L41.5651 163.215L41.6151 163.275L41.5051 163.395V164.485L41.9251 165.035L42.1051 165.235L41.8751 166.655L43.3051 165.985L43.7951 166.595L43.8751 166.945L43.5451 167.185L44.0251 167.975L43.8751 168.465V168.905V169.055L43.6051 169.445L43.4551 169.765H43.2451L43.0551 170.875L42.9851 170.965L42.7851 171.385V171.715L42.7351 171.825V172.685V172.845V173.205L42.5951 173.595L42.5251 173.945V174.125L42.3151 174.215L42.2151 174.705L41.3651 174.145L42.0251 176.435V176.705L42.1151 176.835L42.2351 177.265L42.4051 178.735H42.5151L42.7251 179.735L42.8351 179.865V180.125L42.9551 180.735V180.935L43.0251 181.115V181.595L43.1351 183.795L42.9251 184.315H42.9851L42.8851 184.515L43.7251 186.515V186.675L43.7751 187.215L44.0051 188.055L44.1651 188.195L44.0751 188.685V189.265L44.1351 189.695L44.2651 189.975V190.155L44.3651 190.415L44.4751 190.655V190.815L43.9551 192.165L44.6851 192.345L45.0751 193.255L45.2251 193.785V194.145L45.7251 194.975L45.7851 195.335L46.0151 195.765L45.9051 196.235L46.1051 196.775V197.055V197.145V197.295L45.1051 196.835L46.9151 200.555L46.9751 200.625L47.0751 200.805V201.005L47.1751 201.195L47.0551 201.455L47.2151 201.715V202.055L46.9351 202.475L47.3751 203.055V203.155L47.2851 203.265L47.4751 204.265L47.5951 204.555L47.5151 204.995L47.6651 205.395L46.6651 205.915L47.6651 206.745V206.925L47.7351 207.215L47.9551 207.805H48.0051L48.0851 208.235L48.1451 208.305L48.0751 209.115L48.4951 209.295L48.6151 209.675V209.795L48.6751 210.005L48.7451 210.145L48.8651 210.365V210.425L48.6951 210.585L48.9951 211.505L49.2051 211.985L49.3151 212.065V212.135V212.215L49.7251 212.795L50.0251 213.095L50.4551 213.445L50.5951 213.725V214.015L50.7651 214.825L51.1351 215.085V215.135L51.3251 215.535L49.9951 215.445L52.1151 217.865L52.2051 218.485L52.5651 218.355L52.9651 218.665H53.0251L53.1751 219.165V219.245L52.6451 220.925L53.8951 221.285L54.0851 221.865L54.2951 222.385L54.4751 222.485L54.7051 223.345L55.2651 223.855L55.3751 223.905L55.5551 224.195H55.7151L56.2251 225.195L56.1651 225.415L57.1651 226.275V226.405L57.2651 226.895L57.3451 227.015V227.485L57.4151 227.585V227.745L57.7251 228.435L57.8651 228.625V229.075L58.0351 229.495V229.795L58.2851 230.345L58.6051 230.775L58.7251 230.995L58.9451 231.275L59.0051 231.445L59.1051 231.635L59.1651 232.065L59.4251 232.975L59.5351 233.255V233.425V233.875V234.235L59.6851 234.655H59.5851V235.085L59.4951 235.305L59.8151 236.075L59.9151 236.235L60.0151 236.625V236.975L60.1551 237.605L60.2351 237.805V237.925V238.055L60.1851 238.185L60.8251 240.815V240.925L60.8851 241.205H61.2451L61.3251 241.535L61.5551 241.805L62.2451 243.685L62.4351 243.955V244.055V244.155L62.6051 244.525L62.6751 244.595V244.715L63.2651 245.715L63.3251 245.855L63.1251 249.515L64.2551 248.315V248.425L64.6151 248.765L64.7451 248.675L64.8351 248.755L64.9651 248.865L65.1151 249.035H65.1651L65.4351 249.565L65.5851 249.735V249.825L66.4151 250.825L66.6451 250.725L67.0751 251.195L67.1551 251.315L67.4051 251.925L67.3351 252.215L67.6851 252.725V253.005L68.1751 253.745L68.6151 253.905L68.7051 254.125V254.275L68.8251 254.565L68.8951 254.665L69.6151 256.395L69.9851 257.725L70.1251 258.535L70.3251 259.035L70.4051 259.425L70.5151 259.615V259.735L71.0451 260.795L71.1451 261.275L71.4851 261.725L71.5451 261.785V261.985L71.6951 262.495L72.0351 262.955V263.045L72.1951 263.795L72.3851 264.335L72.4951 264.535V264.775V264.825V265.115L72.8551 266.025L73.0151 266.575L73.0951 267.175L73.2151 267.365L73.3451 267.745L73.4651 268.745V268.975L73.6951 270.585L74.1951 272.245L74.9251 273.925L75.3351 274.725L74.8651 275.005L75.5351 275.285V275.455V275.515V275.635L76.1451 276.555L76.5851 276.925L77.0351 277.795L77.1551 277.595L77.3051 277.845L77.5651 278.085V278.205L78.1851 278.925L78.3251 279.285L78.9151 279.825L79.6051 280.825L80.0451 281.315L81.2651 282.215L82.1251 282.995L82.5051 283.265L82.6951 283.315L82.9251 283.545L83.2851 283.705L84.6151 284.115L85.4351 284.265L87.4351 284.025L87.3551 283.435L87.9851 283.335L88.5951 283.035L88.9151 282.595L90.3451 281.725H90.4451L91.0051 281.625L91.5251 280.895L91.6351 280.485L91.7551 280.385L91.9851 280.075L92.1751 279.665L92.2451 279.125H93.1551L92.5251 277.845L93.0851 277.185L92.8251 275.985L93.8251 275.135L93.9751 275.035L94.0851 274.985H94.2051L95.3851 274.835L96.2451 274.685L96.8551 274.385L97.3151 274.195L97.5651 274.015L97.8051 273.955L98.0551 273.825H98.4151L98.9851 274.695L99.5651 274.435L99.8351 274.535L100.955 273.795H101.075L101.325 273.935L101.905 274.445L102.585 274.765L102.985 276.575L104.725 274.945L105.175 274.465V273.845L105.125 273.225L103.415 271.805L102.915 270.805L101.695 270.365L101.625 270.305V270.385L100.865 270.745H100.145H100.055L99.6551 270.385V270.035L99.7451 269.955L99.9851 269.595L100.075 269.275L100.295 268.955L100.605 268.675L100.995 268.195V267.995L101.085 267.895L101.295 267.475L101.675 266.945L101.865 266.755L103.675 265.555L102.535 264.685V264.395H102.945H103.135L103.575 264.505H103.745L105.555 264.895L106.225 264.705H106.315L106.515 264.635L107.255 264.485L107.695 263.555L107.785 262.475V260.725L107.705 260.375V259.005L107.635 257.425L107.725 256.965V255.335L107.535 254.335V253.745V253.275L107.465 253.185L107.385 252.315L106.875 251.735V251.685L106.945 251.385V250.995L107.025 250.565L107.145 250.475L107.365 249.385L107.585 248.895V248.755L107.745 248.365V248.165L107.845 248.045L108.125 247.475L108.225 247.365L108.795 246.475H108.745L108.925 246.295L109.125 245.935L109.285 245.845L109.585 245.445L109.905 244.855V244.745L110.165 244.295L110.445 243.595L110.525 243.275V243.075V242.885L110.665 242.665L110.845 242.255L110.895 241.885L111.045 241.435L111.175 240.585V239.505L111.295 238.865L111.425 238.625L111.625 238.705L111.705 237.565V237.515V236.605L111.775 236.245V235.775V235.525V235.185H111.695L111.595 234.805L111.425 234.375V234.275L111.215 233.775V233.415H111.015L110.895 233.145L110.745 232.655L110.825 232.495L110.905 231.585L110.695 230.875L110.035 229.505L109.975 229.315L109.795 228.405V228.355L110.095 227.435L110.195 227.305L110.275 226.425V225.785L110.375 225.325V225.265V224.995V224.245L110.125 224.005L110.015 223.755L109.945 223.355L109.545 222.825L109.275 221.455V221.165L109.135 220.745V220.605V220.175L109.375 219.245L109.465 218.375L109.645 217.975L110.245 217.685L110.455 217.405L110.605 217.115L111.605 215.765L111.145 215.535L111.255 215.255L111.735 214.785L112.135 214.675L112.495 214.415H112.575L112.805 214.285L113.425 214.105V217.285L115.605 215.425L115.855 215.565L116.965 215.195L117.075 215.095H117.245L117.695 214.645L118.065 214.185V213.575L118.175 213.505L118.405 213.265L118.895 213.165L119.265 212.085V211.685L119.415 211.435L119.515 210.885L119.745 210.375V210.195L120.815 209.845L121.135 209.935H121.235H121.405H121.605L121.945 210.095H122.025H122.085L122.495 210.175H122.675H122.955L123.815 209.975L124.105 209.725L124.585 209.495H124.845H125.155L125.485 209.345H125.705L126.065 209.075H126.125L126.775 208.745L127.055 208.545L127.235 208.455H127.425L127.895 208.175L128.245 207.685L130.455 207.005L129.455 206.005V205.935L129.575 205.475L129.635 204.955L129.765 204.455V203.785V203.225L129.655 202.645L129.545 202.445L129.715 202.385L130.135 201.895L130.255 201.685L132.055 200.575L132.415 200.475L132.735 200.265L133.095 200.175H133.155H133.435L134.115 199.675L134.295 199.615L134.605 199.435L134.845 199.195L135.115 199.055L135.365 198.875L136.095 198.605L136.305 198.455L137.715 197.855L137.555 197.375L137.965 197.035V196.845L138.565 196.155L138.895 195.675V195.515L139.285 195.255V195.015L139.515 194.855L139.625 194.705L139.795 194.535L139.995 194.305V194.225L140.085 194.045L141.345 193.265L144.065 192.015L144.845 191.395L144.985 190.935L145.035 190.875L145.245 190.685L145.335 190.605L145.435 190.475L145.845 190.185L145.985 189.955L146.245 189.685L146.735 189.295L146.675 189.215L146.955 188.925L147.065 188.745L147.435 188.495L147.845 188.045L147.905 187.805L148.785 186.805L148.875 186.505L149.265 185.905L149.475 185.805L149.885 185.345L150.075 185.015L150.515 184.445L150.625 184.175L150.765 183.965L150.915 183.715V183.605L151.435 182.925L152.375 182.105L153.045 181.625L154.045 180.625L154.375 180.375L154.775 180.205L155.415 180.505L155.505 179.705L156.275 179.335L157.035 178.935L157.355 178.735L158.075 178.365L158.335 178.305H158.395H158.575H158.855L159.325 178.115L159.525 177.975H159.725L160.725 177.655H161.515L161.885 177.455L163.275 176.935L166.855 174.935L166.715 174.885L169.235 173.385L167.235 173.435L167.465 173.295L167.855 172.985L167.795 172.905L168.175 172.535L168.565 171.975L168.995 170.875L168.795 170.525L169.145 170.255L169.595 170.115L170.095 169.735L170.425 169.405L170.605 169.185L170.335 168.925L170.455 168.595L170.565 168.165L170.475 167.645L170.325 167.315L170.235 167.165L170.025 166.455L169.135 164.395V164.025L169.255 163.685L169.545 163.245L170.665 162.035L170.905 161.855L171.345 161.625H171.405H171.495L171.745 161.685L172.585 161.515L173.755 161.035L174.875 160.725H175.355L175.995 160.545L176.555 160.125L177.115 159.835L177.435 160.475L178.235 160.845H178.545L178.685 160.895H178.825L179.235 161.805L179.655 161.525H179.705H180.335H180.575H180.845L181.215 161.375L182.315 162.015L183.515 161.625L184.165 162.085L184.255 161.555H184.445L185.555 161.975L185.885 161.835L186.975 161.615L187.145 161.065H187.515L188.515 160.585L188.825 159.585V158.945V158.545L188.685 158.345L188.505 157.935L188.355 157.785V157.515L188.585 157.375L188.755 156.285L188.645 155.415V155.295L188.915 154.955L188.855 154.075L188.735 153.635L188.845 153.565L188.145 152.365L188.235 151.925L188.135 151.295L187.955 150.875L187.805 150.195L187.745 149.835L187.585 149.365L187.525 149.255V149.155V149.105L187.645 148.725L187.705 148.395V147.985L187.595 147.255L186.925 146.615V146.545L186.855 146.425V146.185L187.055 145.975L187.305 145.765L187.585 145.435L187.715 145.165L187.825 144.825V144.555V143.875L186.945 143.105H186.435L185.915 142.925L186.155 142.285L186.255 141.185L184.745 139.935L184.585 140.065L184.445 139.915V139.815L184.245 139.685V139.615V139.365H184.295L184.725 139.025L185.165 138.585L185.525 138.135L185.635 137.425V137.105L185.755 136.905L185.685 135.565L185.815 135.315L185.875 135.135L186.045 134.535L185.865 134.225V134.155L185.795 133.575L185.225 132.805L184.525 132.375L183.005 132.035L182.805 132.525H182.735L182.285 132.165L180.105 131.015V130.775L179.895 130.345L180.185 129.745L180.395 129.805L181.185 129.885L181.915 129.325L182.155 128.875L182.495 128.445L182.755 127.885V127.785L182.855 127.665L183.085 127.025V126.905L183.345 126.845L183.605 126.755L184.055 126.925L184.755 126.995H185.355L185.525 126.865H185.625L188.625 127.055L187.625 125.425L187.875 125.045L187.955 124.705L188.005 124.325L187.875 123.705L187.165 122.845H186.515V122.255L186.145 121.675L185.975 121.515L185.855 121.375L185.515 121.085L183.125 120.145V120.685L183.045 120.635V120.285L182.385 119.545L181.765 119.125L181.185 118.435L180.425 118.045L180.525 117.955L180.805 117.095V116.865L181.245 116.685L181.855 116.305L182.255 115.505V115.445L183.575 116.445L184.085 116.255L185.135 116.735L185.795 116.475L186.455 116.695H186.555V116.775L187.025 117.325L187.515 117.535L187.925 118.045L188.245 118.185L188.375 118.345L188.785 118.625L189.265 118.845L190.065 118.935H190.305L191.085 119.355L192.185 119.125V119.345L192.415 120.575L192.625 121.095L192.565 121.615V122.245L192.385 122.915L192.305 123.535L192.365 124.105L192.495 124.715L192.995 125.645L194.165 125.845L194.505 125.715L196.195 126.435L197.575 126.735L198.375 127.075H199.105L199.955 126.885L200.705 126.955H200.915L201.415 127.035H201.665H201.845H201.905L202.015 127.095L202.665 127.175L204.045 126.985L204.345 126.875L205.495 126.695H205.985H206.145H206.195L207.735 127.175H208.205H208.465H208.755H208.825L209.415 127.315H209.895L210.675 127.195H210.795L211.165 126.895L212.055 126.785L212.685 126.875L213.035 126.765L213.295 126.985L213.785 127.155H213.715L213.395 128.255L213.535 128.915L213.585 129.005L213.185 130.125L213.065 130.655L212.625 131.095L212.465 131.765L211.205 131.655L211.145 132.335L210.805 132.445L210.685 133.125L209.925 132.965L209.725 133.255L208.805 132.905L208.265 134.445L207.755 134.325L206.375 134.445L205.875 135.605H205.785L205.385 135.955L205.165 136.265L204.755 137.005L204.605 137.505V137.965L204.325 138.065L203.835 139.155L203.955 139.835V140.275L204.095 140.855L204.385 141.415L204.485 141.805L204.745 142.315L204.895 142.455L205.035 142.935V142.995L205.125 143.435L205.215 143.735L205.405 145.145L205.615 145.865L206.255 146.725L207.625 147.095L208.015 147.535L208.195 147.605L208.935 148.485L210.055 147.845L210.215 147.735H210.345L210.725 147.645L211.195 147.345L211.335 147.185L211.435 147.095L211.665 146.855L211.715 146.775L212.045 146.415L212.245 146.145L212.515 145.495L212.335 144.865L212.245 144.625L212.105 143.945L212.035 143.765L212.185 143.485V143.435L212.545 143.275L212.915 143.005L213.215 142.675L213.665 141.925V141.365H213.775L213.995 141.675L214.045 141.835V142.285L214.115 142.545L214.215 142.795L214.305 142.945L214.405 143.295L214.465 143.385V143.685L214.405 143.825L214.295 144.255V144.915L214.515 146.265V146.965L214.665 147.685L215.205 148.495V148.615L215.335 149.255L215.695 149.745L215.755 149.805V150.095V150.735L215.845 151.155L215.925 151.375L216.335 153.885L215.885 154.285L216.325 155.675L216.425 156.255L216.635 158.025L218.325 157.395L218.495 157.315L218.585 157.265L218.745 157.155L218.815 157.095L219.095 156.935L220.385 158.195L221.265 157.415L221.625 157.365L221.895 157.215L222.105 157.085L222.255 156.925L222.335 156.825L222.575 156.465V156.085V155.915L223.285 155.565L223.235 155.405L224.635 154.975L224.145 154.095L224.205 153.925L224.275 153.655V153.385L224.185 152.055L223.955 151.205L223.645 150.875L223.695 150.705V150.135L223.535 149.575L223.435 149.405L223.645 148.835L223.865 148.575L224.225 148.025V147.655L224.715 147.405L225.125 147.045L225.415 146.655L225.975 145.535V144.985V144.865L226.045 144.185V143.935L226.145 143.765L226.205 143.595L226.285 143.325V142.975V142.795L226.235 142.315V142.215L226.525 140.315V139.645L226.355 139.195L226.185 138.955L226.035 138.665L226.755 138.475L227.135 138.345L227.235 138.255L227.375 138.445L228.225 138.865L229.055 138.755L229.245 138.835L229.695 138.945L229.835 139.025L230.385 139.645L231.755 139.725L232.595 138.795L232.695 138.055V137.965L233.085 137.435L233.185 136.955V136.865L233.265 136.765L233.385 136.195V135.885L233.435 135.725L233.875 134.665L233.965 134.305L234.075 134.155L234.315 133.775V133.555L234.575 133.185V133.005L234.735 132.905L234.895 132.245L235.285 131.985L235.615 131.315L235.665 131.125L235.965 130.945L236.345 130.475L236.545 130.005L236.625 129.555V129.485L236.815 129.225L237.095 128.705L237.245 127.965L237.575 127.355L237.675 126.495L237.545 125.675L237.065 124.805L236.415 124.495L236.605 123.945L236.665 123.865H236.835L237.355 123.705L237.905 123.265L238.055 123.015L238.175 122.955L238.795 122.595L238.875 122.055L239.295 121.445L240.005 120.945L240.285 120.085V119.535L240.205 119.075L240.285 119.015L240.825 118.425L241.185 117.985L241.525 117.345L241.465 116.275L241.045 115.825L241.135 115.635L240.855 115.005L240.605 114.545V114.445L240.745 114.055L240.805 113.545L240.735 113.235L240.815 113.145L241.015 112.815L241.105 112.605H241.285L241.805 112.445L242.135 112.285L242.875 112.035L243.375 111.725L243.875 111.095L243.945 110.935H244.215L245.045 110.515L245.225 110.155L245.835 109.905L246.205 109.445L246.425 109.055V108.995L246.815 108.925L247.415 108.605L247.895 108.135L248.205 107.675L248.525 107.065L248.675 106.855L248.915 106.675L249.235 106.535L251.235 106.185H251.485L251.715 106.265L252.335 106.205L252.795 106.055L253.245 105.795H253.605V106.575L254.395 107.235L256.245 107.685L256.485 107.925L256.825 108.075L257.235 108.215H257.555L257.935 108.385L258.595 108.125L259.095 107.865L259.365 107.335L259.485 106.995L259.535 106.835L259.645 106.305L259.275 105.515L258.995 105.085L258.725 104.795L257.495 103.175V102.705L257.435 102.425V102.295L257.745 102.025L257.875 101.855H258.265L258.945 101.075L259.005 101.005H259.085L259.145 100.945L260.455 100.475L260.725 100.325L261.085 100.065L261.485 99.335L261.435 98.945L261.495 98.825L261.585 97.915ZM18.7751 149.785L18.3651 150.175H18.3051L18.1351 150.025L18.6051 149.715L18.9451 149.085H19.2251L19.7251 148.905L20.2551 148.825L20.8051 148.605H21.1351L20.8751 149.115L20.6851 149.355H20.5051H20.4251L20.2151 148.995L18.7751 149.785ZM40.8351 157.685H40.6251L40.4751 157.415H40.5551L41.0151 157.695V157.545V157.895L40.9551 158.045L40.8351 157.685ZM41.4651 160.685V160.785L41.0051 161.065L41.1751 160.435L41.3651 160.195V160.135L41.6951 160.285L41.4651 160.685Z" fill="#CE97FD" stroke="#310077"/>
<path d="M188.145 122.245H192.145L192.385 120.105C192.189 119.746 191.9 119.448 191.547 119.24C191.195 119.032 190.794 118.923 190.385 118.925C189.095 119.025 185.785 117.045 185.145 116.755C184.639 116.564 184.106 116.456 183.565 116.435L180.565 115.895L180.695 117.135L182.065 118.825L188.145 122.245Z" fill="#310077"/>
<g filter="url(#filter0_d_8770_8391)">
<ellipse cx="102" cy="235.824" rx="8" ry="7.82439" fill="#FAF4FE"/>
<path d="M109.5 235.824C109.5 239.859 106.153 243.149 102 243.149C97.8473 243.149 94.5 239.859 94.5 235.824C94.5 231.79 97.8473 228.5 102 228.5C106.153 228.5 109.5 231.79 109.5 235.824Z" stroke="#310077"/>
</g>
<g filter="url(#filter1_d_8770_8391)">
<ellipse cx="80" cy="235.824" rx="8" ry="7.82439" fill="#FAF4FE"/>
<path d="M87.5 235.824C87.5 239.859 84.1527 243.149 80 243.149C75.8473 243.149 72.5 239.859 72.5 235.824C72.5 231.79 75.8473 228.5 80 228.5C84.1527 228.5 87.5 231.79 87.5 235.824Z" stroke="#310077"/>
</g>
</g>
<defs>
<filter id="filter0_d_8770_8391" x="94" y="228" width="18" height="16.6488" filterUnits="userSpaceOnUse" color-interpolation-filters="sRGB">
<feFlood flood-opacity="0" result="BackgroundImageFix"/>
<feColorMatrix in="SourceAlpha" type="matrix" values="0 0 0 0 0 0 0 0 0 0 0 0 0 0 0 0 0 0 127 0" result="hardAlpha"/>
<feOffset dx="2" dy="1"/>
<feComposite in2="hardAlpha" operator="out"/>
<feColorMatrix type="matrix" values="0 0 0 0 0.118578 0 0 0 0 0.0884314 0 0 0 0 0.160784 0 0 0 1 0"/>
<feBlend mode="normal" in2="BackgroundImageFix" result="effect1_dropShadow_8770_8391"/>
<feBlend mode="normal" in="SourceGraphic" in2="effect1_dropShadow_8770_8391" result="shape"/>
</filter>
<filter id="filter1_d_8770_8391" x="72" y="228" width="18" height="16.6488" filterUnits="userSpaceOnUse" color-interpolation-filters="sRGB">
<feFlood flood-opacity="0" result="BackgroundImageFix"/>
<feColorMatrix in="SourceAlpha" type="matrix" values="0 0 0 0 0 0 0 0 0 0 0 0 0 0 0 0 0 0 127 0" result="hardAlpha"/>
<feOffset dx="2" dy="1"/>
<feComposite in2="hardAlpha" operator="out"/>
<feColorMatrix type="matrix" values="0 0 0 0 0.118578 0 0 0 0 0.0884314 0 0 0 0 0.160784 0 0 0 1 0"/>
<feBlend mode="normal" in2="BackgroundImageFix" result="effect1_dropShadow_8770_8391"/>
<feBlend mode="normal" in="SourceGraphic" in2="effect1_dropShadow_8770_8391" result="shape"/>
</filter>
<clipPath id="clip0_8770_8391">
<rect width="281.51" height="292.63" fill="white" transform="translate(0.245117 0.685059)"/>
</clipPath>
</defs>
</svg>
