<svg width="258" height="294" viewBox="0 0 258 294" fill="none" xmlns="http://www.w3.org/2000/svg">
<path fill-rule="evenodd" clip-rule="evenodd" d="M145.632 7.5L134.204 0.5L130.721 9.68009C124.66 10.8913 111.811 13.1682 108.902 12.5869C105.992 12.0055 103.325 8.95339 102.356 7.5L96.9006 12.5869C98.7189 12.2235 101.265 12.6595 96.9006 17.3104C92.5367 21.9613 90.2334 23.3662 89.6273 23.4873C92.0518 26.5152 96.6097 32.8617 95.446 34.0244C94.8681 34.6018 93.8884 34.5484 92.621 34.4793C90.6981 34.3745 88.1128 34.2335 85.2634 36.2045C84.1223 36.9938 83.2354 37.4656 82.5517 37.8293C80.4025 38.9726 80.2598 39.0485 80.5357 44.5615C80.6934 47.712 79.8258 50.1796 79.1775 52.0234C78.3304 54.4327 77.8577 55.777 80.5357 56.1887C85.2634 56.9154 84.1721 62.0023 80.5357 61.2756C77.6266 60.6942 75.4446 57.6421 74.7173 56.1887C75.3234 52.7974 75.8083 45.7243 72.899 44.5615C71.5671 44.0292 69.7091 42.6047 67.889 41.2093C64.7396 38.7946 61.7037 36.467 61.7037 39C61.7037 42.9968 58.8862 46.0149 56.7042 44.5615C55.8915 44.0202 56.1651 44.3358 56.7909 45.0576C57.8454 46.2739 59.8998 48.6437 59.4434 50.0118C59.8246 50.0118 59.7888 50.2362 59.7323 50.5897C59.5988 51.4244 59.3504 52.979 64.2041 54C68.0716 54.8135 68.6247 55.2437 69.3186 55.7833C69.8644 56.2079 70.4973 56.7001 72.899 57.5C76.6683 58.7553 76.4439 60.599 76.3052 61.7384C76.2432 62.248 76.1983 62.6167 76.5355 62.729C76.7207 62.7907 76.6858 62.8523 76.5091 62.9247C78.1382 63.3709 80.052 63.9451 82.0778 64.5815C82.3569 64.5494 82.5606 64.604 82.6669 64.7673C87.5966 66.3282 93.0799 68.2132 96.6997 69.5002C98.0331 71.6668 101.7 77.6 105.7 84C108.711 88.8186 112.63 93.8186 116.691 99C119.372 102.421 122.115 105.921 124.7 109.5C128.03 114.111 132.542 119.51 136.419 124.15C140.109 128.565 143.224 132.293 144.2 134C144.849 135.136 145.919 136.271 147.086 137.51C149.515 140.087 152.362 143.109 152.7 147.5C152.885 149.914 153.416 151.293 154.061 152.97C155.152 155.809 156.571 159.499 157.2 170.5C157.812 181.208 157.675 184.428 157.476 189.095C157.35 192.054 157.2 195.596 157.2 202C157.2 208.898 157.986 213.437 158.573 216.822C159.389 221.533 159.818 224.008 157.2 227.5C154.94 230.514 154.445 232.392 153.816 234.782C153.193 237.151 152.437 240.023 149.7 245C149.398 245.548 149.079 246.098 148.746 246.648C149.271 246.52 149.913 246.382 150.723 246.22C155.087 245.348 155.208 246.583 154.723 247.31C152.42 248.521 147.668 251.452 147.086 253.487C146.79 254.522 147.699 255.437 148.44 256.182C149.519 257.268 150.241 257.995 146.359 258.21C142.962 258.399 141.621 258.098 140.305 257.765C137.683 260.701 135.244 263.103 133.7 264.5L109.509 268.82C109.196 270.884 108.088 271.849 101.628 274C99.2558 274.79 97.5381 275.461 95.9515 276.081C90.9717 278.026 87.2846 279.466 68.7043 282.5C77.8101 285.05 82.3087 287.479 84.9239 288.891C85.8987 289.418 86.6118 289.803 87.2043 290C88.0536 290.283 88.9944 290.759 90.0198 291.278C91.6291 292.092 93.4468 293.011 95.446 293.455C97.234 293.852 99.239 291.538 101.283 289.179C102.981 287.22 104.706 285.229 106.356 284.735C106.74 284.62 107.173 284.48 107.648 284.327C111.671 283.031 118.723 280.759 124.903 284.008C128.239 285.762 129.625 286.754 130.781 286.534C132.018 286.299 132.991 284.672 135.813 281.101C141.268 274.198 146.723 269.111 154.723 272.018C158.607 273.429 160.863 275.525 162.156 276.727C163.526 278 163.815 278.269 163.815 275.651C163.815 273.212 163.815 272.276 164.256 271.963C164.735 271.624 165.733 272.018 167.815 272.018C169.343 272.018 169.173 271.7 169.028 271.428C168.794 270.988 168.624 270.67 175.816 272.018C181.635 273.108 182.089 273.653 182.544 273.653C182.998 273.653 183.453 273.108 189.271 272.018C196.041 270.75 198.503 270.711 200.095 270.686C201.239 270.668 201.933 270.657 203.454 270.201C204.822 269.791 204.698 269.073 204.591 268.453C204.414 267.422 204.283 266.66 211.091 268.021C216.851 269.172 217.644 270.728 218.126 271.673C218.557 272.518 218.739 272.875 222.001 272.018C225.595 271.073 225.746 270.03 225.881 269.093C226.006 268.228 226.118 267.454 228.911 266.931C231.455 266.454 235.181 267.089 238.478 267.651C242.721 268.374 246.253 268.976 245.639 266.931C245.149 265.299 243.486 264.986 242.362 264.775C240.983 264.516 240.415 264.409 243.821 262.207C246.362 260.565 249.639 259.966 252.038 259.527C255.478 258.898 257.113 258.599 252.185 256.03C249.042 253.855 248.985 253.576 248.816 253.409C248.634 253.228 248.321 253.18 243.821 251C240.879 248.965 238.102 247.396 235.946 246.177C231.172 243.479 229.441 242.501 235.704 242C244.796 241.273 251.094 237.863 253.64 231.323C253.757 231.022 253.889 230.692 254.031 230.335C256.985 222.944 264.485 204.178 239.204 197.5C217.205 204.19 224.191 200.011 226.493 198.634C226.817 198.441 227.048 198.303 227.093 198.258C225.762 197.224 225.093 194.929 224.376 192.472C223.329 188.884 222.182 184.95 218.728 184.087C209.709 183.215 215.698 180.454 222.365 180.817C219.213 179.001 213.055 174.35 213.637 170.28C213.754 169.461 213.966 168.661 214.176 167.865C215.27 163.723 216.327 159.721 203.818 153.929C188.908 147.026 173.998 130.312 180.907 123.408C187.817 116.505 154.36 101.607 153.269 101.607C153.064 101.607 152.655 101.824 152.054 102.144C149.446 103.527 143.223 106.831 134.358 102.697C125.862 98.7358 137.436 97.4187 145.378 96.5149C147.634 96.2582 149.597 96.0348 150.723 95.7937C155.814 94.7036 158.724 92.1602 147.086 88.5267C141.489 86.7792 143.127 86.6286 146.739 86.2962C150.637 85.9376 156.836 85.3673 158.724 82.3498C159.958 80.3767 161.862 78.2362 163.84 76.0136C167.689 71.6872 171.816 67.0495 171.816 62.729C171.816 59.0582 173.534 57.1043 175.042 55.3898C176.22 54.0495 177.271 52.8554 177.271 51.1018C174.012 43.8085 173.044 43.3225 166.871 40.2245C165.34 39.4563 163.489 38.5276 161.204 37.2946C153.356 37.2946 149.634 39.6382 146.418 41.6636C143.97 43.2047 141.816 44.5615 138.358 44.5615C134.866 44.5615 131.166 45.8076 127.893 46.9098C123.668 48.3327 120.155 49.5159 118.721 47.4683C117.481 45.6985 120.9 44.0149 124.229 42.3755C127.735 40.6492 131.142 38.9719 128.903 37.2946C125.534 34.7696 122.598 37.4436 122.439 37.288C122.392 37.242 122.587 36.9497 123.085 36.2045C125.267 32.9344 131.449 27.8475 136.54 26.3941C141.631 24.9407 147.086 16.9471 147.086 15.4937C147.086 14.2588 145.249 14.3354 144.027 14.3864C143.811 14.3954 143.614 14.4036 143.45 14.4036C142.577 14.4036 144.541 9.80121 145.632 7.5Z" fill="#310077"/>
<path d="M34.4745 136.352L36.9745 131.352C41.1707 130.093 41.6032 130.683 41.2828 131.312C41.7558 130.884 42.4919 130.252 43.5992 129.353C51.5992 122.853 46.2241 129.852 50.7241 127.352C55.2241 124.852 53.9744 136.352 56.9744 135.852C59.3744 135.452 58.4744 136.852 57.4744 137.852C60.9744 141.186 66.0744 148.652 62.4744 147.852C57.9744 146.852 58.4744 150.352 60.4744 151.852C61.4744 149.352 63.9744 150.685 65.9744 150.352C71.4744 157.852 68.9744 160.352 66.4744 156.852C56.9744 150.352 71.9744 163.352 64.4744 161.852C65.4744 162.852 68.9744 169.352 60.4744 166.352C55.4744 180.852 54.5992 165.852 46.5992 170.852C40.7241 171.852 37.9326 170.019 38.0992 167.352C36.2659 167.685 38.0992 165.652 40.0992 162.852C42.5992 159.352 30.4744 154.352 31.4744 162.852C32.4744 171.352 31.4744 167.352 26.4744 169.352C21.4744 171.352 25.5991 164.352 21.0992 167.352C17.4993 169.752 16.7662 168.019 16.5994 166.352C16.5994 166.207 16.6192 166.104 16.6484 166.033C16.2791 166.031 15.3952 165.813 13.4741 164.852C7.4741 161.852 15.4739 157.852 13.4739 156.352C11.8739 155.152 15.8072 154.519 17.9739 154.352C21.9741 153.686 27.8745 152.152 19.4745 151.352C11.0745 150.552 17.6412 148.019 21.9745 146.852C23.8079 145.352 27.4745 141.752 27.4745 139.352C27.4745 136.952 32.1412 136.352 34.4745 136.352Z" fill="#310077"/>
<path d="M25.9792 131.407L28.4792 126.407C38.4794 123.407 27.4791 132.408 35.4791 125.908C43.4791 119.408 38.9791 128.407 43.4791 125.907C47.9791 123.407 45.4791 131.407 48.4791 130.907C50.8791 130.507 49.9791 131.907 48.9791 132.907C52.4791 136.241 57.5791 143.707 53.9791 142.907C49.4791 141.907 49.9791 145.407 51.9791 146.907C52.9791 144.407 55.4791 145.741 57.4791 145.407C62.9791 152.907 60.4791 155.407 57.9791 151.907C48.4791 145.407 63.4791 158.407 55.9791 156.907C56.9791 157.907 60.4791 164.407 51.9791 161.407C46.9791 175.907 49.4791 161.407 41.4791 166.407C35.0791 170.407 33.8125 166.074 33.9791 163.407C32.1458 163.741 28.9791 163.707 30.9791 160.907C33.4791 157.407 21.9791 149.407 22.9791 157.907C23.9791 166.407 22.9791 162.407 17.9791 164.407C12.9791 166.407 17.9791 160.407 13.4792 163.407C9.87933 165.807 8.64587 163.074 8.47913 161.407C8.47897 160.074 7.27867 156.807 2.47866 154.407C-3.52134 151.407 6.9786 152.907 4.9786 151.407C3.3786 150.207 7.31194 149.574 9.4786 149.407C13.4788 148.741 19.3792 147.207 10.9792 146.407C2.57924 145.607 9.14591 143.074 13.4792 141.907C15.3126 140.407 18.9792 136.807 18.9792 134.407C18.9792 132.007 23.6459 131.407 25.9792 131.407Z" fill="#CE97FD" stroke="#310077"/>
<path d="M124.94 1.5H134.031C132.94 3.80121 130.977 8.40362 131.85 8.40362C132.941 8.40362 135.486 8.04027 135.486 9.49367C135.486 10.9471 130.031 18.9407 124.94 20.3941C119.848 21.8475 113.666 26.9344 111.484 30.2045C109.302 33.4747 112.939 28.0244 117.303 31.2946C121.667 34.5647 104.575 37.8348 107.12 41.4683C109.666 45.1018 118.758 38.5615 126.758 38.5615C134.759 38.5615 135.486 36.3815 149.305 36.3815C163.125 36.3815 165.67 41.105 165.67 45.1018C165.67 49.0987 160.215 50.1887 160.215 56.729C160.215 63.2692 150.76 70.5362 147.123 76.3498C143.487 82.1634 123.849 78.8932 135.486 82.5267C147.123 86.1602 144.214 88.7036 139.123 89.7937C134.032 90.8837 111.848 91.6104 122.758 96.6973C133.668 101.784 140.577 95.6073 141.668 95.6073C142.759 95.6073 176.217 110.505 169.307 117.408C162.397 124.312 177.308 141.026 192.218 147.929C207.128 154.833 202.764 159.193 202.037 164.28C201.455 168.35 207.613 173.001 210.765 174.817C204.098 174.454 198.109 177.215 207.128 178.087C212.947 179.541 212.219 189.715 215.492 192.258C215.129 192.621 196.945 204.975 222.038 197.345C258.041 192.258 244.586 218.782 242.04 225.323C239.494 231.863 232.221 236.223 223.129 236.95C214.038 237.677 219.493 238.767 228.948 245.307C238.403 251.847 232.221 245.67 240.585 250.03C248.95 254.391 238.403 252.21 232.221 256.207C226.039 260.204 232.948 257.297 234.039 260.931C235.13 264.564 223.129 259.841 217.311 260.931C211.492 262.021 217.311 264.201 210.401 266.018C203.491 267.834 210.401 264.201 199.491 262.021C188.581 259.841 195.491 263.111 191.854 264.201C188.218 265.291 189.309 263.838 177.671 266.018C166.034 268.198 175.853 268.198 164.216 266.018C152.578 263.838 160.215 266.018 156.215 266.018C152.215 266.018 152.215 264.564 152.215 269.651C152.215 274.738 151.124 268.924 143.123 266.018C135.123 263.111 129.668 268.198 124.213 275.101C118.758 282.005 120.212 281.642 113.303 278.008C106.393 274.375 98.3924 277.645 94.7557 278.735C91.1191 279.825 87.1188 288.182 83.8458 287.455C80.5728 286.729 82.0275 284.548 79.8455 283.822C77.6635 283.095 56.571 285.639 76.5725 280.188C96.5741 274.738 78.7545 274.375 88.5734 271.105C98.3924 267.834 97.3014 264.201 98.3924 258.387C99.4834 252.574 99.4834 256.934 104.575 257.297C109.666 257.661 105.302 255.481 111.848 251.12C118.394 246.76 117.667 251.12 123.485 251.12C129.304 251.12 128.213 252.574 134.759 252.21C141.305 251.847 134.759 250.03 135.486 247.487C136.068 245.452 140.82 242.521 143.123 241.31C143.608 240.583 143.487 239.348 139.123 240.22C133.668 241.31 135.85 241.31 129.668 244.58C123.485 247.85 126.031 245.67 120.212 244.58C114.394 243.49 120.212 242.037 116.939 241.31C113.666 240.583 108.211 241.673 105.302 240.22C102.393 238.767 110.393 237.677 105.302 236.586C100.211 235.496 98.3924 235.133 90.0281 239.13C81.6638 243.127 84.9368 238.04 82.0275 233.68C79.1182 229.32 82.7548 231.5 90.0281 227.866C97.3014 224.233 97.3014 223.143 106.029 219.146C114.757 215.149 109.302 208.609 109.302 202.795C109.302 196.981 110.393 200.615 107.484 197.345C104.575 194.075 99.4834 201.705 95.4831 202.795C91.4828 203.885 89.3008 199.162 95.4831 198.798C100.429 198.508 103.12 193.832 103.847 191.531C101.18 188.261 96.7923 181.721 100.574 181.721C105.302 181.721 103.12 181.721 107.484 186.444C111.848 191.168 113.303 184.991 119.121 186.444C124.94 187.898 123.849 184.628 131.486 183.538C139.123 182.448 132.941 180.267 135.85 177.361C138.759 174.454 136.941 175.907 133.668 170.82C130.395 165.734 134.395 167.55 139.123 162.463C142.905 158.394 137.547 158.103 134.395 158.467C132.819 159.678 129.304 161.373 127.849 158.467C126.031 154.833 127.486 153.743 123.849 150.836C120.212 147.929 122.031 147.203 120.94 144.659C119.849 142.116 122.758 141.026 123.849 139.936C124.94 138.846 125.304 135.939 126.758 133.759C128.213 131.579 131.85 132.669 134.032 131.215C136.213 129.762 123.849 131.579 122.758 131.215C121.667 130.852 120.94 128.309 117.303 134.849C114.394 140.081 108.09 137.513 105.302 135.576C103.605 133.396 100.793 130.416 103.12 135.939C105.447 141.462 102.878 141.631 101.302 141.026C96.6953 136.908 87.8461 130.343 89.3008 137.029C91.1191 145.386 87.8461 138.119 85.6641 134.849C83.4821 131.579 84.5731 132.669 82.7548 129.762C80.9365 126.855 84.5731 130.489 86.7551 127.582C88.9371 124.675 89.3008 125.765 91.8464 123.222C94.3921 120.678 90.0281 122.132 93.6647 118.498C97.3014 114.865 94.7557 115.228 94.3921 110.868C94.0284 106.508 93.3011 109.051 89.3008 103.964C85.3005 98.8774 82.7548 103.238 82.0275 97.424C81.7755 95.4102 81.829 94.6172 81.8857 94.3502C81.7559 94.4974 81.3391 94.6373 80.2092 93.7905C77.2998 91.6104 78.7545 95.2439 79.1182 101.421C79.4818 107.598 78.3908 103.964 75.8452 107.961C73.2995 111.958 74.7542 110.505 75.1179 115.228C75.4815 119.952 76.2088 117.408 73.6631 120.678C71.1174 123.948 70.7539 121.042 68.2082 119.588C65.6626 118.135 70.7539 112.685 72.2085 110.505C73.6632 108.324 72.9359 109.051 73.6631 105.418C74.3904 101.784 72.9359 103.964 72.2085 100.331C71.4812 96.6973 72.5722 98.8774 73.6631 94.5172C74.7541 90.157 72.2085 94.8806 70.7539 96.6973C69.2992 98.5141 69.6629 98.8774 66.7536 103.238C63.8443 107.598 64.9352 103.238 64.9352 107.961C64.9352 112.685 63.8443 109.051 60.5713 110.505C57.2983 111.958 56.9346 110.505 56.9346 109.778C56.9346 109.051 60.5713 106.508 59.8439 103.964C59.1166 101.421 58.3893 106.871 53.6616 103.238C48.934 99.6041 54.389 102.148 56.9346 98.8774C59.4803 95.6073 57.2983 97.0606 61.2988 98.8774C65.2993 100.694 62.3896 98.5141 68.9356 95.2439C75.4815 91.9738 70.0266 92.3371 71.4812 89.7937C72.9359 87.2502 76.2088 82.5267 77.2998 79.9833C78.3908 77.4398 80.2092 74.5331 76.2088 75.2598C72.2085 75.9864 73.6631 77.4398 73.6631 82.5267C73.6631 87.6136 68.9355 84.3435 60.5713 87.2502C52.207 90.157 55.1163 86.5236 58.3893 84.3435C61.6623 82.1634 59.4803 84.7068 63.8443 81.4367C68.2082 78.1665 59.1166 80.3466 58.3893 76.3498C57.662 72.353 58.3893 73.8063 61.2988 70.5362C64.2083 67.2661 64.9352 70.5362 66.7536 69.0828C68.5719 67.6294 67.4809 66.176 70.0265 61.8158C72.5722 57.4557 70.3902 58.1824 67.4809 59.9991C64.5716 61.8158 63.1171 62.5425 61.2988 59.9991C59.4804 57.4557 66.0262 57.0923 64.9352 56.729C63.8443 56.3656 62.3896 57.0923 56.9346 55.2756C51.4797 53.4588 54.7528 51.6421 47.8432 50.1887C40.9336 48.7353 47.1159 46.1919 47.8432 44.0118C48.5705 41.8317 50.0252 41.8317 52.2072 43.2851C54.3891 44.7385 54.0255 43.6484 54.0255 39.6516C54.0255 35.6548 57.6621 37.1082 61.2988 38.5615C64.2081 39.7243 63.7232 46.7974 63.1171 50.1887C63.8444 51.6421 66.0264 54.6942 68.9355 55.2756C72.5719 56.0023 73.6631 50.9154 68.9355 50.1887C64.2079 49.462 69.2992 45.8285 68.9355 38.5615C68.5718 31.2946 68.9355 33.4747 73.6631 30.2045C78.3908 26.9344 82.3911 29.4778 83.8457 28.0244C85.0095 26.8617 80.4515 20.5152 78.0271 17.4873C78.6332 17.3662 80.9364 15.9613 85.3004 11.3104C89.6644 6.65955 87.1187 6.22353 85.3004 6.58688L90.7554 1.5C91.7251 2.95339 94.392 6.00552 97.3013 6.58688C100.211 7.16824 113.06 4.89125 119.121 3.68009L124.94 1.5Z" fill="#CE97FD" stroke="#310077"/>
<g filter="url(#filter0_d_8769_8080)">
<ellipse cx="134" cy="226.824" rx="8" ry="7.82439" fill="#FAF4FE"/>
<path d="M141.5 226.824C141.5 230.859 138.153 234.149 134 234.149C129.847 234.149 126.5 230.859 126.5 226.824C126.5 222.79 129.847 219.5 134 219.5C138.153 219.5 141.5 222.79 141.5 226.824Z" stroke="#310077"/>
</g>
<g filter="url(#filter1_d_8769_8080)">
<ellipse cx="156" cy="194.824" rx="8" ry="7.82439" fill="#FAF4FE"/>
<path d="M163.5 194.824C163.5 198.859 160.153 202.149 156 202.149C151.847 202.149 148.5 198.859 148.5 194.824C148.5 190.79 151.847 187.5 156 187.5C160.153 187.5 163.5 190.79 163.5 194.824Z" stroke="#310077"/>
</g>
<g filter="url(#filter2_d_8769_8080)">
<ellipse cx="152" cy="141.824" rx="8" ry="7.82439" fill="#FAF4FE"/>
<path d="M159.5 141.824C159.5 145.859 156.153 149.149 152 149.149C147.847 149.149 144.5 145.859 144.5 141.824C144.5 137.79 147.847 134.5 152 134.5C156.153 134.5 159.5 137.79 159.5 141.824Z" stroke="#310077"/>
</g>
<g filter="url(#filter3_d_8769_8080)">
<ellipse cx="185" cy="220.824" rx="8" ry="7.82439" fill="#FAF4FE"/>
<path d="M192.5 220.824C192.5 224.859 189.153 228.149 185 228.149C180.847 228.149 177.5 224.859 177.5 220.824C177.5 216.79 180.847 213.5 185 213.5C189.153 213.5 192.5 216.79 192.5 220.824Z" stroke="#310077"/>
</g>
<g filter="url(#filter4_d_8769_8080)">
<ellipse cx="201" cy="233.824" rx="8" ry="7.82439" fill="#FAF4FE"/>
<path d="M208.5 233.824C208.5 237.859 205.153 241.149 201 241.149C196.847 241.149 193.5 237.859 193.5 233.824C193.5 229.79 196.847 226.5 201 226.5C205.153 226.5 208.5 229.79 208.5 233.824Z" stroke="#310077"/>
</g>
<g filter="url(#filter5_d_8769_8080)">
<ellipse cx="179" cy="238.824" rx="8" ry="7.82439" fill="#FAF4FE"/>
<path d="M186.5 238.824C186.5 242.859 183.153 246.149 179 246.149C174.847 246.149 171.5 242.859 171.5 238.824C171.5 234.79 174.847 231.5 179 231.5C183.153 231.5 186.5 234.79 186.5 238.824Z" stroke="#310077"/>
</g>
<defs>
<filter id="filter0_d_8769_8080" x="126" y="219" width="18" height="16.6488" filterUnits="userSpaceOnUse" color-interpolation-filters="sRGB">
<feFlood flood-opacity="0" result="BackgroundImageFix"/>
<feColorMatrix in="SourceAlpha" type="matrix" values="0 0 0 0 0 0 0 0 0 0 0 0 0 0 0 0 0 0 127 0" result="hardAlpha"/>
<feOffset dx="2" dy="1"/>
<feComposite in2="hardAlpha" operator="out"/>
<feColorMatrix type="matrix" values="0 0 0 0 0.118578 0 0 0 0 0.0884314 0 0 0 0 0.160784 0 0 0 1 0"/>
<feBlend mode="normal" in2="BackgroundImageFix" result="effect1_dropShadow_8769_8080"/>
<feBlend mode="normal" in="SourceGraphic" in2="effect1_dropShadow_8769_8080" result="shape"/>
</filter>
<filter id="filter1_d_8769_8080" x="148" y="187" width="18" height="16.6488" filterUnits="userSpaceOnUse" color-interpolation-filters="sRGB">
<feFlood flood-opacity="0" result="BackgroundImageFix"/>
<feColorMatrix in="SourceAlpha" type="matrix" values="0 0 0 0 0 0 0 0 0 0 0 0 0 0 0 0 0 0 127 0" result="hardAlpha"/>
<feOffset dx="2" dy="1"/>
<feComposite in2="hardAlpha" operator="out"/>
<feColorMatrix type="matrix" values="0 0 0 0 0.118578 0 0 0 0 0.0884314 0 0 0 0 0.160784 0 0 0 1 0"/>
<feBlend mode="normal" in2="BackgroundImageFix" result="effect1_dropShadow_8769_8080"/>
<feBlend mode="normal" in="SourceGraphic" in2="effect1_dropShadow_8769_8080" result="shape"/>
</filter>
<filter id="filter2_d_8769_8080" x="144" y="134" width="18" height="16.6488" filterUnits="userSpaceOnUse" color-interpolation-filters="sRGB">
<feFlood flood-opacity="0" result="BackgroundImageFix"/>
<feColorMatrix in="SourceAlpha" type="matrix" values="0 0 0 0 0 0 0 0 0 0 0 0 0 0 0 0 0 0 127 0" result="hardAlpha"/>
<feOffset dx="2" dy="1"/>
<feComposite in2="hardAlpha" operator="out"/>
<feColorMatrix type="matrix" values="0 0 0 0 0.118578 0 0 0 0 0.0884314 0 0 0 0 0.160784 0 0 0 1 0"/>
<feBlend mode="normal" in2="BackgroundImageFix" result="effect1_dropShadow_8769_8080"/>
<feBlend mode="normal" in="SourceGraphic" in2="effect1_dropShadow_8769_8080" result="shape"/>
</filter>
<filter id="filter3_d_8769_8080" x="177" y="213" width="18" height="16.6488" filterUnits="userSpaceOnUse" color-interpolation-filters="sRGB">
<feFlood flood-opacity="0" result="BackgroundImageFix"/>
<feColorMatrix in="SourceAlpha" type="matrix" values="0 0 0 0 0 0 0 0 0 0 0 0 0 0 0 0 0 0 127 0" result="hardAlpha"/>
<feOffset dx="2" dy="1"/>
<feComposite in2="hardAlpha" operator="out"/>
<feColorMatrix type="matrix" values="0 0 0 0 0.118578 0 0 0 0 0.0884314 0 0 0 0 0.160784 0 0 0 1 0"/>
<feBlend mode="normal" in2="BackgroundImageFix" result="effect1_dropShadow_8769_8080"/>
<feBlend mode="normal" in="SourceGraphic" in2="effect1_dropShadow_8769_8080" result="shape"/>
</filter>
<filter id="filter4_d_8769_8080" x="193" y="226" width="18" height="16.6488" filterUnits="userSpaceOnUse" color-interpolation-filters="sRGB">
<feFlood flood-opacity="0" result="BackgroundImageFix"/>
<feColorMatrix in="SourceAlpha" type="matrix" values="0 0 0 0 0 0 0 0 0 0 0 0 0 0 0 0 0 0 127 0" result="hardAlpha"/>
<feOffset dx="2" dy="1"/>
<feComposite in2="hardAlpha" operator="out"/>
<feColorMatrix type="matrix" values="0 0 0 0 0.118578 0 0 0 0 0.0884314 0 0 0 0 0.160784 0 0 0 1 0"/>
<feBlend mode="normal" in2="BackgroundImageFix" result="effect1_dropShadow_8769_8080"/>
<feBlend mode="normal" in="SourceGraphic" in2="effect1_dropShadow_8769_8080" result="shape"/>
</filter>
<filter id="filter5_d_8769_8080" x="171" y="231" width="18" height="16.6488" filterUnits="userSpaceOnUse" color-interpolation-filters="sRGB">
<feFlood flood-opacity="0" result="BackgroundImageFix"/>
<feColorMatrix in="SourceAlpha" type="matrix" values="0 0 0 0 0 0 0 0 0 0 0 0 0 0 0 0 0 0 127 0" result="hardAlpha"/>
<feOffset dx="2" dy="1"/>
<feComposite in2="hardAlpha" operator="out"/>
<feColorMatrix type="matrix" values="0 0 0 0 0.118578 0 0 0 0 0.0884314 0 0 0 0 0.160784 0 0 0 1 0"/>
<feBlend mode="normal" in2="BackgroundImageFix" result="effect1_dropShadow_8769_8080"/>
<feBlend mode="normal" in="SourceGraphic" in2="effect1_dropShadow_8769_8080" result="shape"/>
</filter>
</defs>
</svg>
