<svg width="258" height="293" viewBox="0 0 258 293" fill="none" xmlns="http://www.w3.org/2000/svg">
<path fill-rule="evenodd" clip-rule="evenodd" d="M145.631 7L134.204 0L130.721 9.18009C124.66 10.3913 111.81 12.6682 108.901 12.0869C105.992 11.5055 103.325 8.45339 102.355 7L96.9 12.0869C98.7183 11.7235 101.264 12.1595 96.9 16.8104C92.536 21.4613 90.2328 22.8662 89.6267 22.9873C92.0512 26.0152 96.6091 32.3617 95.4454 33.5244C94.8675 34.1018 93.8878 34.0484 92.6204 33.9793C90.6975 33.8745 88.1122 33.7335 85.2628 35.7045C84.1217 36.4938 83.2348 36.9656 82.5511 37.3293C80.4019 38.4726 80.2592 38.5485 80.5351 44.0615C80.6928 47.212 79.8252 49.6796 79.1769 51.5234C78.3298 53.9327 77.8571 55.277 80.5351 55.6887C85.2628 56.4154 84.1715 61.5023 80.5351 60.7756C77.626 60.1942 75.444 57.1421 74.7167 55.6887C75.3228 52.2974 75.8077 45.2243 72.8984 44.0615C71.5665 43.5292 69.7085 42.1047 67.8884 40.7093C64.739 38.2946 61.7031 35.967 61.7031 38.5C61.7031 42.4968 58.8856 45.5149 56.7036 44.0615C55.8909 43.5202 56.1645 43.8358 56.7903 44.5576C57.8447 45.7739 59.8992 48.1437 59.4428 49.5118C59.824 49.5118 59.7882 49.7362 59.7316 50.0897C59.5982 50.9244 59.3498 52.479 64.2035 53.5C68.071 54.3135 68.6241 54.7437 69.3179 55.2833C69.8637 55.7079 70.4967 56.2001 72.8984 57C76.6677 58.2553 76.4433 60.099 76.3046 61.2384C76.2426 61.748 76.1977 62.1167 76.5349 62.229C76.7201 62.2907 76.6852 62.3523 76.5085 62.4247C78.1376 62.8709 80.0514 63.4451 82.0772 64.0815C82.3563 64.0494 82.56 64.104 82.6663 64.2673C87.596 65.8282 93.0793 67.7132 96.6991 69.0002C98.0325 71.1668 101.699 77.1 105.699 83.5C108.711 88.3186 112.629 93.3186 116.69 98.5C119.371 101.921 122.114 105.421 124.699 109C128.03 113.611 132.541 119.01 136.419 123.65C140.109 128.065 143.224 131.793 144.199 133.5C144.848 134.636 145.918 135.771 147.085 137.01C149.514 139.587 152.361 142.609 152.699 147C152.885 149.414 153.415 150.793 154.06 152.47C155.152 155.309 156.571 158.999 157.199 170C157.811 180.708 157.674 183.928 157.476 188.595C157.35 191.554 157.199 195.096 157.199 201.5C157.199 208.398 157.986 212.937 158.572 216.322C159.389 221.033 159.818 223.508 157.199 227C154.939 230.014 154.445 231.892 153.816 234.282C153.192 236.651 152.437 239.523 149.699 244.5C149.398 245.048 149.079 245.598 148.745 246.148C149.271 246.02 149.912 245.882 150.722 245.72C155.086 244.848 155.208 246.083 154.723 246.81C152.42 248.021 147.668 250.952 147.086 252.987C146.79 254.022 147.699 254.937 148.439 255.682C149.518 256.768 150.24 257.495 146.358 257.71C142.961 257.899 141.621 257.598 140.304 257.265C137.682 260.201 135.243 262.603 133.699 264L109.508 268.32C109.196 270.384 108.088 271.349 101.628 273.5C99.2552 274.29 97.5374 274.961 95.9509 275.581C90.9711 277.526 87.284 278.966 68.7037 282C77.8095 284.55 82.3081 286.979 84.9233 288.391C85.8981 288.918 86.6112 289.303 87.2037 289.5C88.0529 289.783 88.9937 290.259 90.0192 290.778C91.6285 291.592 93.4462 292.511 95.4454 292.955C97.2334 293.352 99.2384 291.038 101.283 288.679C102.98 286.72 104.705 284.729 106.355 284.235C106.74 284.12 107.172 283.98 107.647 283.827C111.67 282.531 118.723 280.259 124.902 283.508C128.238 285.262 129.624 286.254 130.78 286.034C132.018 285.799 132.991 284.172 135.812 280.601C141.267 273.698 146.722 268.611 154.723 271.518C158.607 272.929 160.862 275.025 162.155 276.227C163.526 277.5 163.814 277.769 163.814 275.151C163.814 272.712 163.814 271.776 164.256 271.463C164.734 271.124 165.733 271.518 167.815 271.518C169.343 271.518 169.173 271.2 169.028 270.928C168.793 270.488 168.623 270.17 175.815 271.518C181.634 272.608 182.088 273.153 182.543 273.153C182.998 273.153 183.452 272.608 189.271 271.518C196.04 270.25 198.503 270.211 200.094 270.186C201.239 270.168 201.932 270.157 203.454 269.701C204.821 269.291 204.698 268.573 204.591 267.953C204.414 266.922 204.283 266.16 211.091 267.521C216.85 268.672 217.644 270.228 218.126 271.173C218.557 272.018 218.739 272.375 222.001 271.518C225.594 270.573 225.745 269.53 225.881 268.593C226.006 267.728 226.118 266.954 228.91 266.431C231.455 265.954 235.181 266.589 238.478 267.151C242.721 267.874 246.253 268.476 245.639 266.431C245.149 264.799 243.485 264.486 242.361 264.275C240.982 264.016 240.415 263.909 243.821 261.707C246.361 260.065 249.638 259.466 252.038 259.027C255.477 258.398 257.112 258.099 252.185 255.53C249.042 253.355 248.984 253.076 248.816 252.909C248.633 252.728 248.32 252.68 243.821 250.5C240.879 248.465 238.102 246.896 235.946 245.677C231.171 242.979 229.441 242.001 235.704 241.5C244.795 240.773 251.094 237.363 253.639 230.823C253.757 230.522 253.888 230.192 254.031 229.835C256.985 222.444 264.485 203.678 239.204 197C217.204 203.69 224.191 199.511 226.492 198.134C226.816 197.941 227.047 197.803 227.092 197.758C225.761 196.724 225.092 194.429 224.375 191.972C223.329 188.384 222.181 184.45 218.728 183.587C209.709 182.715 215.697 179.954 222.364 180.317C219.213 178.501 213.055 173.85 213.636 169.78C213.753 168.961 213.965 168.161 214.175 167.365C215.269 163.223 216.327 159.221 203.817 153.429C188.907 146.526 173.997 129.812 180.907 122.908C187.816 116.005 154.359 101.107 153.268 101.107C153.064 101.107 152.655 101.324 152.053 101.644C149.446 103.027 143.222 106.331 134.358 102.197C125.861 98.2358 137.436 96.9187 145.377 96.0149C147.633 95.7582 149.596 95.5348 150.722 95.2937C155.814 94.2036 158.723 91.6602 147.086 88.0267C141.489 86.2792 143.126 86.1286 146.738 85.7962C150.637 85.4376 156.835 84.8673 158.723 81.8498C159.957 79.8767 161.862 77.7362 163.839 75.5136C167.689 71.1872 171.815 66.5495 171.815 62.229C171.815 58.5582 173.533 56.6043 175.041 54.8898C176.22 53.5495 177.27 52.3554 177.27 50.6018C174.012 43.3085 173.043 42.8225 166.87 39.7245C165.339 38.9563 163.489 38.0276 161.204 36.7946C153.356 36.7946 149.634 39.1382 146.417 41.1636C143.97 42.7047 141.815 44.0615 138.358 44.0615C134.866 44.0615 131.166 45.3076 127.893 46.4098C123.668 47.8327 120.154 49.0159 118.72 46.9683C117.48 45.1985 120.899 43.5149 124.229 41.8755C127.735 40.1492 131.141 38.4719 128.903 36.7946C125.533 34.2696 122.597 36.9436 122.438 36.788C122.392 36.742 122.587 36.4497 123.084 35.7045C125.266 32.4344 131.448 27.3475 136.539 25.8941C141.631 24.4407 147.086 16.4471 147.086 14.9937C147.086 13.7588 145.248 13.8354 144.026 13.8864C143.81 13.8954 143.613 13.9036 143.449 13.9036C142.576 13.9036 144.54 9.30121 145.631 7Z" fill="#310077"/>
<path d="M34.4739 135.852L36.9739 130.852C41.1701 129.593 41.6026 130.183 41.2822 130.812C41.7551 130.384 42.4913 129.752 43.5986 128.853C51.5986 122.353 46.2235 129.352 50.7235 126.852C55.2235 124.352 53.9738 135.852 56.9738 135.352C59.3738 134.952 58.4738 136.352 57.4738 137.352C60.9738 140.686 66.0738 148.152 62.4738 147.352C57.9738 146.352 58.4738 149.852 60.4738 151.352C61.4738 148.852 63.9738 150.185 65.9738 149.852C71.4738 157.352 68.9738 159.852 66.4738 156.352C56.9738 149.852 71.9738 162.852 64.4738 161.352C65.4738 162.352 68.9738 168.852 60.4738 165.852C55.4738 180.352 54.5986 165.352 46.5986 170.352C40.7235 171.352 37.932 169.519 38.0986 166.852C36.2653 167.185 38.0986 165.152 40.0986 162.352C42.5986 158.852 30.4738 153.852 31.4738 162.352C32.4738 170.852 31.4738 166.852 26.4738 168.852C21.4738 170.852 25.5985 163.852 21.0986 166.852C17.4987 169.252 16.7655 167.519 16.5988 165.852C16.5988 165.707 16.6186 165.604 16.6478 165.533C16.2785 165.531 15.3946 165.313 13.4735 164.352C7.47349 161.352 15.4733 157.352 13.4733 155.852C11.8733 154.652 15.8066 154.019 17.9733 153.852C21.9735 153.186 27.8739 151.652 19.4739 150.852C11.0739 150.052 17.6406 147.519 21.9739 146.352C23.8072 144.852 27.4739 141.252 27.4739 138.852C27.4739 136.452 32.1406 135.852 34.4739 135.852Z" fill="#310077"/>
<path d="M25.9786 130.907L28.4786 125.907C38.4787 122.907 27.4785 131.908 35.4785 125.408C43.4785 118.908 38.9785 127.907 43.4785 125.407C47.9785 122.907 45.4785 130.907 48.4785 130.407C50.8785 130.007 49.9785 131.407 48.9785 132.407C52.4785 135.741 57.5785 143.207 53.9785 142.407C49.4785 141.407 49.9785 144.907 51.9785 146.407C52.9785 143.907 55.4785 145.241 57.4785 144.907C62.9785 152.407 60.4785 154.907 57.9785 151.407C48.4785 144.907 63.4785 157.907 55.9785 156.407C56.9785 157.407 60.4785 163.907 51.9785 160.907C46.9785 175.407 49.4785 160.907 41.4785 165.907C35.0785 169.907 33.8118 165.574 33.9785 162.907C32.1452 163.241 28.9785 163.207 30.9785 160.407C33.4785 156.907 21.9785 148.907 22.9785 157.407C23.9785 165.907 22.9785 161.907 17.9785 163.907C12.9785 165.907 17.9785 159.907 13.4786 162.907C9.87872 165.307 8.64526 162.574 8.47852 160.907C8.47836 159.574 7.27805 156.307 2.47805 153.907C-3.52195 150.907 6.97799 152.407 4.97799 150.907C3.37799 149.707 7.31133 149.074 9.47799 148.907C13.4782 148.241 19.3786 146.707 10.9786 145.907C2.57863 145.107 9.1453 142.574 13.4786 141.407C15.312 139.907 18.9786 136.307 18.9786 133.907C18.9786 131.507 23.6453 130.907 25.9786 130.907Z" fill="#CE97FD" stroke="#310077"/>
<path d="M124.939 1H134.031C132.94 3.30121 130.976 7.90362 131.849 7.90362C132.94 7.90362 135.486 7.54027 135.486 8.99367C135.486 10.4471 130.031 18.4407 124.939 19.8941C119.848 21.3475 113.666 26.4344 111.484 29.7045C109.302 32.9747 112.938 27.5244 117.302 30.7946C121.666 34.0647 104.574 37.3348 107.12 40.9683C109.665 44.6018 118.757 38.0615 126.758 38.0615C134.758 38.0615 135.486 35.8815 149.305 35.8815C163.124 35.8815 165.67 40.605 165.67 44.6018C165.67 48.5987 160.215 49.6887 160.215 56.229C160.215 62.7692 150.759 70.0362 147.123 75.8498C143.486 81.6634 123.848 78.3932 135.486 82.0267C147.123 85.6602 144.214 88.2036 139.122 89.2937C134.031 90.3837 111.847 91.1104 122.757 96.1973C133.667 101.284 140.577 95.1073 141.668 95.1073C142.759 95.1073 176.216 110.005 169.306 116.908C162.397 123.812 177.307 140.526 192.217 147.429C207.127 154.333 202.763 158.693 202.036 163.78C201.454 167.85 207.612 172.501 210.764 174.317C204.097 173.954 198.109 176.715 207.127 177.587C212.946 179.041 212.219 189.215 215.492 191.758C215.128 192.121 196.945 204.475 222.038 196.845C258.04 191.758 244.585 218.282 242.039 224.823C239.494 231.363 232.22 235.723 223.129 236.45C214.037 237.177 219.492 238.267 228.947 244.807C238.403 251.347 232.22 245.17 240.585 249.53C248.949 253.891 238.403 251.71 232.22 255.707C226.038 259.704 232.948 256.797 234.039 260.431C235.13 264.064 223.129 259.341 217.31 260.431C211.491 261.521 217.31 263.701 210.4 265.518C203.491 267.334 210.4 263.701 199.491 261.521C188.581 259.341 195.49 262.611 191.854 263.701C188.217 264.791 189.308 263.338 177.671 265.518C166.033 267.698 175.852 267.698 164.215 265.518C152.578 263.338 160.215 265.518 156.214 265.518C152.214 265.518 152.214 264.064 152.214 269.151C152.214 274.238 151.123 268.424 143.123 265.518C135.122 262.611 129.667 267.698 124.212 274.601C118.757 281.505 120.212 281.142 113.302 277.508C106.392 273.875 98.3918 277.145 94.7551 278.235C91.1185 279.325 87.1182 287.682 83.8452 286.955C80.5722 286.229 82.0269 284.048 79.8449 283.322C77.6629 282.595 56.5704 285.139 76.5719 279.688C96.5734 274.238 78.7539 273.875 88.5728 270.605C98.3918 267.334 97.3008 263.701 98.3918 257.887C99.4828 252.074 99.4828 256.434 104.574 256.797C109.665 257.161 105.301 254.981 111.847 250.62C118.393 246.26 117.666 250.62 123.485 250.62C129.303 250.62 128.212 252.074 134.758 251.71C141.304 251.347 134.758 249.53 135.486 246.987C136.067 244.952 140.819 242.021 143.123 240.81C143.607 240.083 143.486 238.848 139.122 239.72C133.667 240.81 135.849 240.81 129.667 244.08C123.485 247.35 126.03 245.17 120.212 244.08C114.393 242.99 120.212 241.537 116.939 240.81C113.666 240.083 108.211 241.173 105.301 239.72C102.392 238.267 110.393 237.177 105.301 236.086C100.21 234.996 98.3918 234.633 90.0275 238.63C81.6632 242.627 84.9362 237.54 82.0269 233.18C79.1175 228.82 82.7542 231 90.0275 227.366C97.3008 223.733 97.3008 222.643 106.029 218.646C114.757 214.649 109.302 208.109 109.302 202.295C109.302 196.481 110.393 200.115 107.483 196.845C104.574 193.575 99.4828 201.205 95.4825 202.295C91.4821 203.385 89.3002 198.662 95.4825 198.298C100.428 198.008 103.119 193.332 103.847 191.031C101.18 187.761 96.7916 181.221 100.574 181.221C105.301 181.221 103.119 181.221 107.483 185.944C111.847 190.668 113.302 184.491 119.121 185.944C124.939 187.398 123.848 184.128 131.485 183.038C139.122 181.948 132.94 179.767 135.849 176.861C138.759 173.954 136.94 175.407 133.667 170.32C130.394 165.234 134.395 167.05 139.122 161.963C142.904 157.894 137.546 157.603 134.395 157.967C132.819 159.178 129.303 160.873 127.849 157.967C126.03 154.333 127.485 153.243 123.848 150.336C120.212 147.429 122.03 146.703 120.939 144.159C119.848 141.616 122.757 140.526 123.848 139.436C124.939 138.346 125.303 135.439 126.758 133.259C128.212 131.079 131.849 132.169 134.031 130.715C136.213 129.262 123.848 131.079 122.757 130.715C121.666 130.352 120.939 127.809 117.302 134.349C114.393 139.581 108.089 137.013 105.301 135.076C103.604 132.896 100.792 129.916 103.119 135.439C105.447 140.962 102.877 141.131 101.301 140.526C96.6947 136.408 87.8455 129.843 89.3002 136.529C91.1185 144.886 87.8455 137.619 85.6635 134.349C83.4815 131.079 84.5725 132.169 82.7542 129.262C80.9359 126.355 84.5725 129.989 86.7545 127.082C88.9365 124.175 89.3002 125.265 91.8458 122.722C94.3915 120.178 90.0275 121.632 93.6641 117.998C97.3008 114.365 94.7551 114.728 94.3915 110.368C94.0278 106.008 93.3005 108.551 89.3002 103.464C85.2999 98.3774 82.7542 102.738 82.0269 96.924C81.7749 94.9102 81.8284 94.1172 81.8851 93.8502C81.7553 93.9974 81.3385 94.1373 80.2085 93.2905C77.2992 91.1104 78.7539 94.7439 79.1176 100.921C79.4812 107.098 78.3902 103.464 75.8446 107.461C73.2989 111.458 74.7536 110.005 75.1172 114.728C75.4809 119.452 76.2082 116.908 73.6625 120.178C71.1168 123.448 70.7533 120.542 68.2076 119.088C65.662 117.635 70.7533 112.185 72.2079 110.005C73.6626 107.824 72.9353 108.551 73.6625 104.918C74.3898 101.284 72.9353 103.464 72.2079 99.8308C71.4806 96.1973 72.5716 98.3774 73.6625 94.0172C74.7535 89.657 72.2079 94.3806 70.7533 96.1973C69.2986 98.0141 69.6623 98.3774 66.753 102.738C63.8436 107.098 64.9346 102.738 64.9346 107.461C64.9346 112.185 63.8436 108.551 60.5707 110.005C57.2977 111.458 56.934 110.005 56.934 109.278C56.934 108.551 60.5707 106.008 59.8433 103.464C59.116 100.921 58.3887 106.371 53.661 102.738C48.9334 99.1041 54.3884 101.648 56.934 98.3774C59.4797 95.1073 57.2977 96.5606 61.2982 98.3774C65.2986 100.194 62.389 98.0141 68.9349 94.7439C75.4809 91.4738 70.0259 91.8371 71.4806 89.2937C72.9353 86.7502 76.2082 82.0267 77.2992 79.4833C78.3902 76.9398 80.2085 74.0331 76.2082 74.7598C72.2079 75.4864 73.6625 76.9398 73.6625 82.0267C73.6625 87.1136 68.9349 83.8435 60.5707 86.7502C52.2064 89.657 55.1157 86.0236 58.3887 83.8435C61.6617 81.6634 59.4797 84.2068 63.8436 80.9367C68.2076 77.6665 59.116 79.8466 58.3887 75.8498C57.6613 71.853 58.3887 73.3063 61.2982 70.0362C64.2076 66.7661 64.9346 70.0362 66.753 68.5828C68.5713 67.1294 67.4803 65.676 70.0259 61.3158C72.5716 56.9557 70.3896 57.6824 67.4803 59.4991C64.571 61.3158 63.1165 62.0425 61.2982 59.4991C59.4798 56.9557 66.0256 56.5923 64.9346 56.229C63.8436 55.8656 62.389 56.5923 56.934 54.7756C51.479 52.9588 54.7522 51.1421 47.8426 49.6887C40.9329 48.2353 47.1152 45.6919 47.8426 43.5118C48.5699 41.3317 50.0246 41.3317 52.2065 42.7851C54.3885 44.2385 54.0249 43.1484 54.0249 39.1516C54.0249 35.1548 57.6615 36.6082 61.2982 38.0615C64.2075 39.2243 63.7226 46.2974 63.1165 49.6887C63.8438 51.1421 66.0258 54.1942 68.9349 54.7756C72.5713 55.5023 73.6625 50.4154 68.9349 49.6887C64.2073 48.962 69.2986 45.3285 68.9349 38.0615C68.5712 30.7946 68.9349 32.9747 73.6625 29.7045C78.3902 26.4344 82.3905 28.9778 83.8451 27.5244C85.0089 26.3617 80.4509 20.0152 78.0265 16.9873C78.6326 16.8662 80.9358 15.4613 85.2998 10.8104C89.6638 6.15955 87.1181 5.72353 85.2998 6.08688L90.7548 1C91.7245 2.45339 94.3914 5.50552 97.3007 6.08688C100.21 6.66824 113.06 4.39125 119.121 3.18009L124.939 1Z" fill="#CE97FD" stroke="#310077"/>
<g filter="url(#filter0_d_7643_11108)">
<ellipse cx="134.604" cy="173.681" rx="8" ry="7.82439" fill="#FAF4FE"/>
<path d="M142.104 173.681C142.104 177.716 138.756 181.005 134.604 181.005C130.451 181.005 127.104 177.716 127.104 173.681C127.104 169.646 130.451 166.356 134.604 166.356C138.756 166.356 142.104 169.646 142.104 173.681Z" stroke="#310077"/>
</g>
<g filter="url(#filter1_d_7643_11108)">
<ellipse cx="51.1992" cy="140.427" rx="8" ry="7.82439" fill="#FAF4FE"/>
<path d="M58.6992 140.427C58.6992 144.462 55.3519 147.751 51.1992 147.751C47.0466 147.751 43.6992 144.462 43.6992 140.427C43.6992 136.392 47.0466 133.103 51.1992 133.103C55.3519 133.103 58.6992 136.392 58.6992 140.427Z" stroke="#310077"/>
</g>
<g filter="url(#filter2_d_7643_11108)">
<ellipse cx="156.604" cy="165.856" rx="8" ry="7.82439" fill="#FAF4FE"/>
<path d="M164.104 165.856C164.104 169.89 160.756 173.18 156.604 173.18C152.451 173.18 149.104 169.89 149.104 165.856C149.104 161.821 152.451 158.531 156.604 158.531C160.756 158.531 164.104 161.821 164.104 165.856Z" stroke="#310077"/>
</g>
<g filter="url(#filter3_d_7643_11108)">
<ellipse cx="168.604" cy="203.022" rx="8" ry="7.82439" fill="#FAF4FE"/>
<path d="M176.104 203.022C176.104 207.056 172.756 210.346 168.604 210.346C164.451 210.346 161.104 207.056 161.104 203.022C161.104 198.987 164.451 195.697 168.604 195.697C172.756 195.697 176.104 198.987 176.104 203.022Z" stroke="#310077"/>
</g>
<g filter="url(#filter4_d_7643_11108)">
<ellipse cx="203.604" cy="226.495" rx="8" ry="7.82439" fill="#FAF4FE"/>
<path d="M211.104 226.495C211.104 230.53 207.756 233.82 203.604 233.82C199.451 233.82 196.104 230.53 196.104 226.495C196.104 222.461 199.451 219.171 203.604 219.171C207.756 219.171 211.104 222.461 211.104 226.495Z" stroke="#310077"/>
</g>
<g filter="url(#filter5_d_7643_11108)">
<ellipse cx="98.1992" cy="78.8107" rx="8" ry="7.82439" fill="#FAF4FE"/>
<path d="M105.699 78.8107C105.699 82.8455 102.352 86.1351 98.1992 86.1351C94.0466 86.1351 90.6992 82.8455 90.6992 78.8107C90.6992 74.776 94.0466 71.4863 98.1992 71.4863C102.352 71.4863 105.699 74.776 105.699 78.8107Z" stroke="#310077"/>
</g>
<defs>
<filter id="filter0_d_7643_11108" x="126.604" y="165.856" width="18" height="16.6489" filterUnits="userSpaceOnUse" color-interpolation-filters="sRGB">
<feFlood flood-opacity="0" result="BackgroundImageFix"/>
<feColorMatrix in="SourceAlpha" type="matrix" values="0 0 0 0 0 0 0 0 0 0 0 0 0 0 0 0 0 0 127 0" result="hardAlpha"/>
<feOffset dx="2" dy="1"/>
<feComposite in2="hardAlpha" operator="out"/>
<feColorMatrix type="matrix" values="0 0 0 0 0.320261 0 0 0 0 0 0 0 0 0 0.777778 0 0 0 1 0"/>
<feBlend mode="normal" in2="BackgroundImageFix" result="effect1_dropShadow_7643_11108"/>
<feBlend mode="normal" in="SourceGraphic" in2="effect1_dropShadow_7643_11108" result="shape"/>
</filter>
<filter id="filter1_d_7643_11108" x="43.1992" y="132.603" width="18" height="16.6489" filterUnits="userSpaceOnUse" color-interpolation-filters="sRGB">
<feFlood flood-opacity="0" result="BackgroundImageFix"/>
<feColorMatrix in="SourceAlpha" type="matrix" values="0 0 0 0 0 0 0 0 0 0 0 0 0 0 0 0 0 0 127 0" result="hardAlpha"/>
<feOffset dx="2" dy="1"/>
<feComposite in2="hardAlpha" operator="out"/>
<feColorMatrix type="matrix" values="0 0 0 0 0.320261 0 0 0 0 0 0 0 0 0 0.777778 0 0 0 1 0"/>
<feBlend mode="normal" in2="BackgroundImageFix" result="effect1_dropShadow_7643_11108"/>
<feBlend mode="normal" in="SourceGraphic" in2="effect1_dropShadow_7643_11108" result="shape"/>
</filter>
<filter id="filter2_d_7643_11108" x="148.604" y="158.031" width="18" height="16.6489" filterUnits="userSpaceOnUse" color-interpolation-filters="sRGB">
<feFlood flood-opacity="0" result="BackgroundImageFix"/>
<feColorMatrix in="SourceAlpha" type="matrix" values="0 0 0 0 0 0 0 0 0 0 0 0 0 0 0 0 0 0 127 0" result="hardAlpha"/>
<feOffset dx="2" dy="1"/>
<feComposite in2="hardAlpha" operator="out"/>
<feColorMatrix type="matrix" values="0 0 0 0 0.118578 0 0 0 0 0.0884314 0 0 0 0 0.160784 0 0 0 1 0"/>
<feBlend mode="normal" in2="BackgroundImageFix" result="effect1_dropShadow_7643_11108"/>
<feBlend mode="normal" in="SourceGraphic" in2="effect1_dropShadow_7643_11108" result="shape"/>
</filter>
<filter id="filter3_d_7643_11108" x="160.604" y="195.197" width="18" height="16.6489" filterUnits="userSpaceOnUse" color-interpolation-filters="sRGB">
<feFlood flood-opacity="0" result="BackgroundImageFix"/>
<feColorMatrix in="SourceAlpha" type="matrix" values="0 0 0 0 0 0 0 0 0 0 0 0 0 0 0 0 0 0 127 0" result="hardAlpha"/>
<feOffset dx="2" dy="1"/>
<feComposite in2="hardAlpha" operator="out"/>
<feColorMatrix type="matrix" values="0 0 0 0 0.118578 0 0 0 0 0.0884314 0 0 0 0 0.160784 0 0 0 1 0"/>
<feBlend mode="normal" in2="BackgroundImageFix" result="effect1_dropShadow_7643_11108"/>
<feBlend mode="normal" in="SourceGraphic" in2="effect1_dropShadow_7643_11108" result="shape"/>
</filter>
<filter id="filter4_d_7643_11108" x="195.604" y="218.671" width="18" height="16.6489" filterUnits="userSpaceOnUse" color-interpolation-filters="sRGB">
<feFlood flood-opacity="0" result="BackgroundImageFix"/>
<feColorMatrix in="SourceAlpha" type="matrix" values="0 0 0 0 0 0 0 0 0 0 0 0 0 0 0 0 0 0 127 0" result="hardAlpha"/>
<feOffset dx="2" dy="1"/>
<feComposite in2="hardAlpha" operator="out"/>
<feColorMatrix type="matrix" values="0 0 0 0 0.320261 0 0 0 0 0 0 0 0 0 0.777778 0 0 0 1 0"/>
<feBlend mode="normal" in2="BackgroundImageFix" result="effect1_dropShadow_7643_11108"/>
<feBlend mode="normal" in="SourceGraphic" in2="effect1_dropShadow_7643_11108" result="shape"/>
</filter>
<filter id="filter5_d_7643_11108" x="90.1992" y="70.9863" width="18" height="16.6489" filterUnits="userSpaceOnUse" color-interpolation-filters="sRGB">
<feFlood flood-opacity="0" result="BackgroundImageFix"/>
<feColorMatrix in="SourceAlpha" type="matrix" values="0 0 0 0 0 0 0 0 0 0 0 0 0 0 0 0 0 0 127 0" result="hardAlpha"/>
<feOffset dx="2" dy="1"/>
<feComposite in2="hardAlpha" operator="out"/>
<feColorMatrix type="matrix" values="0 0 0 0 0.320261 0 0 0 0 0 0 0 0 0 0.777778 0 0 0 1 0"/>
<feBlend mode="normal" in2="BackgroundImageFix" result="effect1_dropShadow_7643_11108"/>
<feBlend mode="normal" in="SourceGraphic" in2="effect1_dropShadow_7643_11108" result="shape"/>
</filter>
</defs>
</svg>
