<svg width="240" height="241" viewBox="0 0 240 241" fill="none" xmlns="http://www.w3.org/2000/svg">
<path d="M211.808 41.3913C251.566 94.0621 250.937 170.552 199.25 211.066C143.304 254.919 62.5024 249.165 19.4686 192.155C-20.8133 138.79 5.95089 65.412 58.3192 24.3635C106.111 -13.0979 175.046 -7.31025 211.808 41.3913Z" fill="url(#paint0_linear_7758_22024)"/>
<path d="M101 78C89.5 78 86.0474 71.4346 74.5948 69.5715C58.9107 67.0201 56.5474 58.4346 59.0474 48.4346C61.5474 38.4346 71.5474 33.4346 78.0474 35.4346C84.5474 37.4346 90.5948 43.5715 85.0948 55.0715C79.5948 66.5715 65.0948 74.0715 49.5948 74.5715C34.0948 75.0715 27.5474 85 27.0474 94.5C26.5474 104 30.0474 114 35.5474 120.5C41.0474 127 43.1526 139 38.5474 151.5C34.8632 161.5 34.2416 167.095 40.0474 176C45.5 184.363 62 206 122.5 197.5" stroke="#7C2BF1" stroke-dasharray="8 8"/>
<path d="M213.564 155.277C213.679 155.402 213.708 155.544 213.651 155.703L210.182 164.832C210.138 164.947 210.054 165.026 209.93 165.07C209.866 165.091 209.799 165.095 209.729 165.081C209.684 165.072 209.637 165.051 209.588 165.02L207.031 163.324L205.179 164.839C205.086 164.919 204.976 164.946 204.849 164.92C204.796 164.91 204.752 164.892 204.719 164.869C204.647 164.824 204.594 164.764 204.56 164.686C204.527 164.609 204.518 164.53 204.534 164.448L204.965 162.302L211.584 156.856L203.87 161.225L201.641 159.742C201.501 159.654 201.441 159.525 201.463 159.354C201.487 159.189 201.577 159.081 201.732 159.031L213.148 155.18C213.217 155.156 213.286 155.151 213.356 155.164C213.438 155.181 213.507 155.218 213.564 155.277Z" fill="#7C2BF1"/>
<path d="M125.062 194.896C140.375 197.144 162.784 196.03 202.471 166.678" stroke="#7C2BF1" stroke-dasharray="8 8"/>
<path d="M156.606 124.412C156.279 124.922 155.779 125.296 155.198 125.465C154.616 125.634 153.994 125.586 153.445 125.331C152.896 125.075 152.458 124.629 152.214 124.075C151.969 123.522 151.933 122.898 152.113 122.32C152.294 121.742 152.678 121.249 153.194 120.933C153.71 120.616 154.324 120.498 154.921 120.6C155.517 120.702 156.057 121.017 156.439 121.486C156.821 121.956 157.02 122.548 156.998 123.153C156.983 123.601 156.847 124.035 156.606 124.412Z" fill="white"/>
<g opacity="0.72">
<path opacity="0.72" d="M180.832 48.471C179.909 53.3719 177.6 57.9071 174.179 61.5331C172.514 63.3792 170.696 65.079 168.745 66.6186C167.666 67.3849 162.058 71.8783 160.978 71.321C153.593 67.5939 144.293 58.224 143.144 49.0631C142.952 47.628 142.952 46.1756 143.144 44.7439C143.551 42.2778 144.829 40.0381 146.749 38.4358C148.665 36.83 151.092 35.9662 153.593 36.001C155.23 36.0602 156.833 36.5061 158.264 37.2968C159.699 38.091 160.926 39.2091 161.849 40.564C162.894 39.3031 164.21 38.2965 165.701 37.6138C167.192 36.9311 168.815 36.5966 170.452 36.628C171.925 36.6767 173.374 37.0286 174.708 37.6626C176.043 38.293 177.234 39.1917 178.206 40.3029C179.178 41.4105 179.913 42.7097 180.365 44.1135C180.818 45.5207 180.975 47.0011 180.832 48.471Z" fill="#7C2BF1"/>
</g>
<path d="M154.514 136.215C154.153 136.761 153.624 137.175 153.007 137.393C152.39 137.611 151.72 137.622 151.096 137.423C150.473 137.225 149.931 136.828 149.553 136.294C149.175 135.759 148.981 135.116 149.001 134.461C149.02 133.936 149.174 133.425 149.449 132.978C149.659 132.641 149.934 132.349 150.258 132.119C150.581 131.889 150.947 131.726 151.334 131.638C151.722 131.551 152.122 131.541 152.513 131.609C152.904 131.678 153.277 131.823 153.612 132.037C153.946 132.251 154.235 132.529 154.462 132.855C154.688 133.181 154.848 133.549 154.932 133.938C155.016 134.326 155.022 134.728 154.951 135.118C154.879 135.509 154.73 135.882 154.514 136.215Z" fill="white"/>
<path d="M138.371 147.193L137.791 150.231L136.716 150.483C136.589 150.448 136.477 150.465 136.432 150.473C136.368 150.484 136.306 150.501 136.254 150.519C136.131 150.558 135.977 150.623 135.822 150.691L135.119 150.856C134.957 150.81 134.789 150.756 134.609 150.698C134.538 150.675 134.466 150.652 134.391 150.628C134.073 150.527 133.721 150.423 133.378 150.375L133.337 150.369L133.295 150.37L125.591 150.571C125.211 150.573 124.839 150.462 124.517 150.252C124.489 150.024 124.496 149.794 124.539 149.569C130.053 148.693 135.656 147.759 138.371 147.193Z" fill="#7C2BF1" stroke="#7C2BF1"/>
<path d="M145.177 129.823L145.26 129.585L143.404 134.875L142.729 136.564H128L131.413 127.282C131.598 126.779 131.934 126.344 132.374 126.037C132.815 125.729 133.339 125.565 133.876 125.564H143.667C144.893 125.564 145.835 126.661 145.622 127.869C145.006 131.375 144.884 130.658 145.177 129.823Z" fill="#7C2BF1"/>
<path d="M140 129.564H133" stroke="white" stroke-linecap="round" stroke-linejoin="round"/>
<path d="M139 132.564H132" stroke="white" stroke-linecap="round" stroke-linejoin="round"/>
<path d="M145.241 176.709C143.994 173.711 142.541 170.802 140.891 168.004C141.559 164.479 142.015 158.305 140.566 155.502C139.494 153.431 135.17 153.117 132.184 153.16C129.879 150.127 128.015 148.564 128.015 148.564C128.015 148.564 114.137 150.802 110.969 150.82C107.801 150.838 107.803 152.586 107.803 152.586C107.803 152.586 105.596 159.214 103.101 162.506C100.605 165.798 93.8928 169.797 84.2203 171.337C74.5479 172.877 66.9404 170.979 65.1959 170.013C63.4514 169.047 63.3942 169.979 66.5168 176.101C69.6395 182.223 74.4471 186.625 82.5216 188.076C87.5019 188.93 92.6083 188.711 97.4963 187.434C97.4963 187.434 110.273 184.228 114.021 181.783C117.768 179.339 118.354 182.663 118.354 182.663L117.988 232.6L127.878 234.564L136.422 193.661L145.534 208.835L155 204.961C153.885 199.136 148.159 183.772 145.241 176.709Z" fill="white"/>
<path d="M118.961 109.512C118.763 110.875 118.183 112.153 117.288 113.2C116.601 114.077 115.727 114.79 114.729 115.287C114.495 115.4 114.251 115.493 114.001 115.564C114.001 114.788 113.988 113.998 113.945 113.229C113.786 110.345 113.204 107.342 111.366 105.125C110.481 104.066 109.365 103.224 108.103 102.664C108.139 102.131 108.181 101.603 108.215 101.071C108.311 100.16 108.307 99.2419 108.202 98.3324C108.083 97.7805 108.015 97.2187 108 96.6544C108.02 96.1286 107.944 94.1106 108.361 93.6743C109.055 93.9636 109.8 94.1157 110.553 94.1217C112.239 94.1083 113.578 93.0747 114.48 91.7524C114.812 91.6441 115.157 91.5808 115.506 91.5645C116.527 91.7166 113.479 94.4618 114.474 94.1508C113.827 94.3499 113.354 95.321 113.05 95.8758C112.602 96.735 112.342 97.7462 112.781 98.6546C113.211 99.5227 114.111 100.27 114.749 100.984C115.609 101.886 116.414 102.84 117.159 103.841C118.336 105.479 119.196 107.49 118.961 109.512Z" fill="#C1F672"/>
<path d="M132 153.594C135.744 153.421 139.1 153.978 140.539 156.33C141.264 157.52 141.087 161.714 140.34 167.564" stroke="#7C2BF1" stroke-miterlimit="10"/>
<path d="M68 177.564C68.0083 177.575 68.0151 177.586 68.0203 177.598C69.6524 180.917 72.5228 183.783 76.1947 185.789C89.1328 192.85 108.593 184.576 115.592 181.133C115.872 180.996 116.181 180.932 116.492 180.948C116.803 180.963 117.105 181.058 117.369 181.222C117.633 181.386 117.851 181.615 118.002 181.887C118.153 182.159 118.231 182.464 118.231 182.775V235.725L133.204 239.509C133.436 239.568 133.677 239.58 133.914 239.544C134.15 239.508 134.377 239.424 134.581 239.298C134.784 239.173 134.96 239.007 135.097 238.812C135.235 238.616 135.331 238.395 135.381 238.161C135.48 237.707 135.396 237.233 135.148 236.84C134.9 236.447 134.508 236.167 134.055 236.059L127.596 233.937C127.895 231.844 132.276 212.703 136 193.618" stroke="#7C2BF1" stroke-miterlimit="10"/>
<path d="M127.744 148.564C131.565 151.832 134.309 156.857 136.877 161.126C143.136 171.526 147.817 182.846 151.453 194.429C152.552 197.929 153.563 201.465 154.518 205L161.817 203.487C162.231 203.351 162.682 203.384 163.072 203.579C163.463 203.774 163.762 204.116 163.906 204.531C164.05 204.946 164.028 205.402 163.843 205.8C163.659 206.199 163.328 206.509 162.921 206.664L147.268 212.564C147.268 212.564 142.689 203.925 136.288 193.728C126.908 178.768 109.575 155.711 105 160.629" stroke="#7C2BF1" stroke-miterlimit="10"/>
<path d="M114 96.5404C114 96.5404 129.425 95.4734 139.999 74.5645C139.999 74.5645 143.341 76.8676 148 84.0726C148 84.0726 134.928 110.571 114.449 117.564" stroke="#7C2BF1" stroke-miterlimit="10"/>
<path d="M112 72.5645L112.942 73.9014L113.51 74.715C114.086 75.9676 114.593 77.2469 115.027 78.5478L115.056 78.6402L116.135 82.4883C116.137 82.4927 116.137 82.4973 116.135 82.5015C116.497 83.0587 116.997 83.5269 117.593 83.8671C117.734 83.9381 117.865 84.0245 117.984 84.1243C118.632 84.7313 116.924 84.9072 116.571 85.1073C116.415 85.2073 116.287 85.3408 116.198 85.4965C116.109 85.6524 116.061 85.8259 116.059 86.0023C114.031 93.8811 115.336 91.8119 114.464 93.5645C115.221 92.9663 117.101 91.0642 117.101 91.0642C117.336 90.9213 117.558 90.4925 117.711 90.2792C118.197 89.5826 118.616 88.8466 118.962 88.0803C120.037 85.7914 120.285 83.2384 119.669 80.8061C118.696 77.0261 116.427 73.2439 112 72.5645Z" fill="#C1F672"/>
<path d="M114.343 115.564C116.915 114.946 119.172 113.029 119.817 110.228C120.418 107.633 119.468 104.969 117.997 102.881C116.632 100.953 113.789 99.3354 114.012 96.6006C114.085 95.7141 114.506 94.9385 115.056 94.2515C115.254 94.0121 115.458 93.7905 115.682 93.5645" stroke="#7C2BF1" stroke-miterlimit="10"/>
<path d="M109 93.5645V102.564" stroke="#7C2BF1" stroke-miterlimit="10"/>
<path d="M113 82.5645C113.552 82.5645 114 82.1169 114 81.5645C114 81.0123 113.552 80.5645 113 80.5645C112.448 80.5645 112 81.0123 112 81.5645C112 82.1169 112.448 82.5645 113 82.5645Z" fill="#7C2BF1"/>
<path d="M113 78.5645C113 78.5645 110.317 79.9229 111.166 82.5645" stroke="#7C2BF1" stroke-miterlimit="10"/>
<path d="M115.261 93.5967C116.018 93.3228 116.826 92.4555 117.376 91.8872C117.985 91.2406 118.529 90.5367 119.001 89.7851C120.328 87.6718 121.022 85.2253 120.999 82.7333C120.977 80.2416 120.24 77.8079 118.875 75.7185C117.929 74.2669 116.67 72.9796 115.091 72.2493C113.775 71.6325 112.303 71.4258 110.867 71.6558C111.669 72.3075 112.389 73.054 113.01 73.8789C113.945 75.0998 114.6 76.5101 114.928 78.0101C114.979 78.2726 115.022 78.5328 115.068 78.7975C115.298 80.208 115.426 81.6368 116.121 82.7917C116.476 83.3747 116.965 83.8654 117.548 84.2228C117.686 84.2963 117.813 84.386 117.929 84.4899C118.56 85.1198 116.897 85.3001 116.553 85.5078C115.669 86.0214 115.997 87.4958 115.88 88.3494C115.739 89.3457 115.44 90.3134 114.992 91.2161C114.834 91.5368 114.654 91.8463 114.453 92.1428C113.535 93.4963 112.159 94.5553 110.429 94.5645C109.659 94.5576 108.898 94.4024 108.187 94.108C106.968 93.6152 105.878 92.8526 105 91.8781" stroke="#7C2BF1" stroke-miterlimit="10"/>
<path d="M114 88.2796C114 88.2796 111.907 89.5972 111 86.5645" stroke="#7C2BF1" stroke-miterlimit="10"/>
<path d="M143.802 78.5645L149.006 76.1293C149.481 75.9072 149.897 75.5803 150.219 75.1748L152.648 72.122C152.928 71.7513 153.048 71.2899 152.983 70.8352C152.917 70.3805 152.671 69.9684 152.297 69.6863C151.923 69.404 151.45 69.274 150.979 69.3237C150.508 69.3735 150.075 69.5987 149.772 69.9522L149.328 70.4539L150.265 68.3064C150.329 68.1588 150.359 67.9998 150.354 67.8399C150.348 67.68 150.307 67.523 150.233 67.3798C150.16 67.2367 150.055 67.1105 149.927 67.0099C149.798 66.9093 149.649 66.8366 149.489 66.7967L148.009 66.9863L152.637 60.8649C153.293 59.9974 152.655 58.9493 151.695 58.6527C150.59 58.3115 149.567 59.0162 148.881 59.7967C146.058 63.0168 143.919 66.7409 141.932 70.4874C141.264 71.7466 140.62 73.0162 140 74.2962" stroke="#7C2BF1" stroke-linejoin="round"/>
<path d="M147.873 67.5645C147.873 67.5645 145.295 70.7059 149 70.5595" stroke="#7C2BF1" stroke-miterlimit="10"/>
<path d="M138.656 150.665L130.197 150.637" stroke="#7C2BF1" stroke-miterlimit="10"/>
<path d="M129.453 129.936L127 136.564L130.807 126.196C130.983 125.717 131.303 125.304 131.723 125.012C132.143 124.719 132.643 124.564 133.156 124.564L147 124.564" stroke="#7C2BF1" stroke-miterlimit="10"/>
<path d="M143 136.564L147 124.564" stroke="#7C2BF1" stroke-miterlimit="10"/>
<path d="M63.5152 130.564C56.5309 149.04 59.7323 167.401 59.7323 167.401C70.2818 173.169 85.2395 172.668 95.9534 167.599C99.7432 165.801 103.83 163.092 105.484 159.123C106.697 156.216 107.96 153.332 109 150.385" fill="#CBAAF9"/>
<path d="M63.5152 130.564C56.5309 149.04 59.7323 167.401 59.7323 167.401C70.2818 173.169 85.2395 172.668 95.9534 167.599C99.7432 165.801 103.83 163.092 105.484 159.123C106.697 156.216 107.96 153.332 109 150.385" stroke="#7C2BF1" stroke-miterlimit="10"/>
<path d="M58 188.564H118" stroke="#7C2BF1" stroke-miterlimit="10"/>
<path d="M111 136.564V138.564" stroke="#7C2BF1" stroke-miterlimit="10"/>
<path d="M68 177.564C68 177.564 64.9819 172.761 64 169.564" stroke="#7C2BF1" stroke-miterlimit="10"/>
<rect x="75" y="126.564" width="29" height="26" fill="#CBAAF9"/>
<path d="M103.559 101.564C105.184 101.665 106.777 102.053 108.264 102.711C109.541 103.276 110.671 104.125 111.567 105.193C113.429 107.432 114.019 110.458 114.18 113.367C114.223 114.151 114.243 114.947 114.237 115.723C114.203 122.611 113.05 129.427 111.158 136.091C117.034 136.091 122.607 136.091 128.285 136.091H142.544L143.198 134.464L143.719 133.155H145.92C146.262 133.155 146.6 133.239 146.902 133.4C147.204 133.561 147.462 133.794 147.651 134.078C147.841 134.361 147.958 134.688 147.991 135.027C148.023 135.366 147.971 135.709 147.839 136.023L145.976 140.456C145.414 141.789 144.522 142.961 143.385 143.863C142.248 144.764 140.901 145.366 139.468 145.615L139.271 145.651L138.751 145.741C135.998 146.307 129.841 147.294 123.832 148.21C118.336 149.056 112.96 149.839 110.417 150.203C109.453 150.342 108.468 150.446 107.468 150.509C101.531 150.873 95.402 149.559 93.8141 142.836C92.7797 138.53 93.0065 133.888 93.0541 129.406" fill="#CBAAF9"/>
<path d="M103.559 101.564C105.184 101.665 106.777 102.053 108.264 102.711C109.541 103.276 110.671 104.125 111.567 105.193C113.429 107.432 114.019 110.458 114.18 113.367C114.223 114.151 114.243 114.947 114.237 115.723C114.203 122.611 113.05 129.427 111.158 136.091C117.034 136.091 122.607 136.091 128.285 136.091H142.544L143.198 134.464L143.719 133.155H145.92C146.262 133.155 146.6 133.239 146.902 133.4C147.204 133.561 147.462 133.794 147.651 134.078C147.841 134.361 147.958 134.688 147.991 135.027C148.023 135.366 147.971 135.709 147.839 136.023L145.976 140.456C145.414 141.789 144.522 142.961 143.385 143.863C142.248 144.764 140.901 145.366 139.468 145.615L139.271 145.651L138.751 145.741C135.998 146.307 129.841 147.294 123.832 148.21C118.336 149.056 112.96 149.839 110.417 150.203C109.453 150.342 108.468 150.446 107.468 150.509C101.531 150.873 95.402 149.559 93.8141 142.836C92.7797 138.53 93.0065 133.888 93.0541 129.406" stroke="#7C2BF1" stroke-miterlimit="10"/>
<path d="M111.945 74.2358C111.78 75.0882 111.383 75.8765 110.799 76.5102C110.165 77.2161 109.426 77.8173 108.611 78.2917C107.075 79.2226 105.366 79.9264 104.076 81.1829C102.785 82.4478 102.012 84.164 101.913 85.9863C101.823 87.8526 102.478 89.7854 102.876 91.5325C104.139 97.1796 103.734 102.607 103.036 108.29C102.374 113.653 100.965 118.901 98.2319 123.57C95.008 129.072 89.7151 133.477 83.7581 135.737C78.8052 137.62 69.1807 139.289 65.5403 134.052C64.9122 132.399 64.9054 130.508 65.1485 128.726C66.5781 118.276 74.4466 107.55 83.8346 103.203C88.8641 100.873 97.0658 97.2943 94.4159 90.1752C93.5717 87.9306 92.3897 85.9932 92.1646 83.6476C92.1443 83.4344 92.1241 83.2212 92.1038 82.9942C91.7256 77.4915 94.8707 72.2685 99.9632 70.3839C101.629 69.743 103.41 69.473 105.187 69.5917C106.964 69.7103 108.696 70.2149 110.265 71.0717C110.823 71.3737 111.321 71.7761 111.738 72.2594C111.766 72.2922 111.792 72.3275 111.814 72.3648C111.846 72.446 111.871 72.5295 111.891 72.6148C112.015 73.146 112.034 73.6972 111.945 74.2358Z" fill="#C1F672"/>
<path d="M93.5658 89.0399C92.722 86.8083 91.5297 84.8842 91.3035 82.557C91.2809 82.343 91.2605 82.129 91.2447 81.9012C90.8623 76.4363 94.0251 71.2514 99.1402 69.3774C100.815 68.7416 102.605 68.4736 104.391 68.5916C106.177 68.7093 107.917 69.2102 109.495 70.0605C110.053 70.3615 110.553 70.7621 110.97 71.2423L111.076 71.3721C111.446 71.8266 111.714 72.3553 111.864 72.9228C112.013 73.4904 112.04 74.0836 111.943 74.6624C111.778 75.5068 111.381 76.2878 110.798 76.9167C110.158 77.6192 109.415 78.2183 108.595 78.6929C107.052 79.6173 105.337 80.3119 104.036 81.5597C102.737 82.8194 101.962 84.5288 101.869 86.3415C101.776 88.1951 102.436 90.1124 102.83 91.852C104.099 97.4605 103.694 102.848 102.993 108.491C102.328 113.817 100.914 119.031 98.1629 123.667C94.9232 129.132 89.6068 133.509 83.6184 135.752C78.544 137.655 68.5942 139.34 65.0989 133.768C63.9248 131.899 63.8478 129.533 64.151 127.342C65.5876 116.966 73.499 106.309 82.9284 101.994C87.9915 99.6533 96.2331 96.1079 93.5658 89.0399Z" stroke="#7C2BF1" stroke-miterlimit="10"/>
<circle cx="161.383" cy="53.57" r="8.76923" fill="white"/>
<path fill-rule="evenodd" clip-rule="evenodd" d="M161.383 45.1329C156.724 45.1329 152.946 48.9105 152.946 53.5703C152.946 58.2301 156.724 62.0078 161.383 62.0078C166.043 62.0078 169.821 58.2301 169.821 53.5703C169.821 48.9105 166.043 45.1329 161.383 45.1329ZM151.883 53.5703C151.883 48.3237 156.137 44.0703 161.383 44.0703C166.63 44.0703 170.883 48.3237 170.883 53.5703C170.883 58.8169 166.63 63.0703 161.383 63.0703C156.137 63.0703 151.883 58.8169 151.883 53.5703ZM163.738 49.4821C164.22 49.8242 164.583 50.3929 164.589 51.2247C164.591 51.5181 164.355 51.7577 164.061 51.7598C163.768 51.7619 163.528 51.5257 163.526 51.2323C163.523 50.7467 163.331 50.4958 163.123 50.3488C162.889 50.1824 162.592 50.1233 162.403 50.1247C162.213 50.126 161.918 50.1893 161.685 50.359C161.48 50.509 161.292 50.7625 161.295 51.2482L161.309 53.1872L162.424 53.1792C162.718 53.1771 162.957 53.4133 162.959 53.7067C162.962 54.0001 162.725 54.2396 162.432 54.2417L161.316 54.2497L161.324 55.3652C161.327 55.6668 161.257 56.0868 161.044 56.4829L164.095 56.4612C164.388 56.4591 164.628 56.6952 164.63 56.9886C164.632 57.282 164.396 57.5216 164.102 57.5237L159.162 57.5588C158.868 57.5609 158.629 57.3248 158.627 57.0314C158.625 56.738 158.861 56.4984 159.154 56.4963C159.64 56.4929 159.891 56.3007 160.038 56.0934C160.204 55.8589 160.263 55.5624 160.262 55.3728L160.254 54.2572L159.138 54.2652C158.845 54.2673 158.605 54.0311 158.603 53.7377C158.601 53.4443 158.837 53.2047 159.131 53.2027L160.246 53.1947L160.233 51.2557C160.227 50.4239 160.581 49.8501 161.058 49.5012C161.509 49.1719 162.036 49.0647 162.395 49.0621C162.755 49.0596 163.283 49.1593 163.738 49.4821Z" fill="#7C2BF1"/>
<defs>
<linearGradient id="paint0_linear_7758_22024" x1="123.509" y1="0.503053" x2="98.6702" y2="242.853" gradientUnits="userSpaceOnUse">
<stop stop-color="#F0FDDD"/>
<stop offset="0.833164" stop-color="#F0FDDD" stop-opacity="0"/>
</linearGradient>
</defs>
</svg>
