<svg xmlns="http://www.w3.org/2000/svg" width="166" height="189" fill="none"><path fill="#310077" fill-rule="evenodd" d="M93.671 5.491 86.339 1l-2.235 5.89c-3.889.777-12.134 2.238-14 1.865-1.867-.373-3.578-2.331-4.2-3.264l-3.5 3.264c1.166-.233 2.8.047 0 3.031s-4.279 3.886-4.668 3.964c1.556 1.942 4.48 6.015 3.734 6.76-.37.371-1 .337-1.813.292-1.233-.067-2.892-.157-4.72 1.107-.733.507-1.302.81-1.74 1.043-1.38.733-1.471.782-1.294 4.32.101 2.021-.456 3.604-.872 4.787-.543 1.546-.846 2.409.872 2.673 3.033.466 2.333 3.73 0 3.264-1.867-.373-3.267-2.332-3.733-3.264.389-2.176.7-6.714-1.167-7.46-.855-.342-2.047-1.256-3.215-2.151-2.02-1.55-3.968-3.043-3.968-1.418 0 2.565-1.808 4.501-3.208 3.569-.522-.348-.346-.145.055.318.677.78 1.995 2.3 1.702 3.179.245 0 .222.144.186.37-.086.536-.245 1.534 2.869 2.189 2.482.522 2.836.798 3.282 1.144.35.272.756.588 2.297 1.101 2.418.806 2.275 1.989 2.185 2.72-.04.327-.068.563.148.636.119.039.097.078-.016.125 1.045.286 2.273.655 3.573 1.063.179-.02.309.015.377.119a293.708 293.708 0 0 1 9.004 3.037c.856 1.39 3.209 5.197 5.775 9.303 1.932 3.092 4.447 6.3 7.052 9.625 1.72 2.195 3.48 4.44 5.14 6.737 2.136 2.959 5.031 6.423 7.519 9.4 2.367 2.833 4.366 5.225 4.992 6.32.417.73 1.103 1.458 1.852 2.252 1.558 1.654 3.385 3.593 3.602 6.41.12 1.55.46 2.434.873 3.51.7 1.822 1.611 4.189 2.015 11.248.392 6.871.304 8.937.177 11.931a171.27 171.27 0 0 0-.177 8.281c0 4.426.504 7.338.881 9.51.523 3.023.799 4.611-.881 6.852-1.45 1.933-1.768 3.138-2.171 4.672-.4 1.52-.885 3.363-2.642 6.556a28.75 28.75 0 0 1-.612 1.058c.337-.082.749-.171 1.269-.275 2.8-.559 2.878.233 2.567.7-1.478.777-4.527 2.658-4.9 3.963-.19.664.393 1.251.868 1.73.692.696 1.155 1.163-1.335 1.301-2.18.121-3.04-.072-3.885-.286-1.683 1.884-3.247 3.425-4.238 4.321l-15.522 2.772c-.2 1.324-.911 1.943-5.056 3.324-1.523.507-2.625.938-3.643 1.335-3.195 1.248-5.56 2.173-17.482 4.119 5.842 1.636 8.729 3.195 10.407 4.101.625.338 1.083.585 1.463.711.545.182 1.148.487 1.806.82 1.033.522 2.2 1.113 3.482 1.397 1.147.255 2.434-1.23 3.745-2.743 1.09-1.257 2.197-2.535 3.255-2.852.247-.074.524-.163.83-.262 2.58-.831 7.105-2.289 11.07-.204 2.141 1.125 3.03 1.762 3.772 1.621.794-.152 1.419-1.195 3.229-3.486 3.5-4.43 7-7.694 12.134-5.829 2.492.906 3.939 2.251 4.769 3.022.879.817 1.064.989 1.064-.69 0-2.539 0-2.539 1.208-2.414.345.036.788.082 1.359.082.98 0 .871-.204.778-.378-.15-.282-.259-.486 4.355.378 3.734.7 4.025 1.049 4.317 1.049.292 0 .583-.349 4.317-1.049 4.343-.814 5.923-.838 6.945-.854.734-.012 1.179-.019 2.155-.312.878-.263.798-.723.73-1.121-.114-.661-.198-1.15 4.17-.277 3.696.738 4.205 1.736 4.514 2.343.277.542.394.771 2.487.221 2.305-.606 2.402-1.275 2.489-1.877.08-.554.152-1.051 1.944-1.387 1.633-.306 4.023.102 6.139.462 2.722.464 4.989.85 4.595-.462-.315-1.047-1.382-1.247-2.103-1.383-.885-.166-1.249-.235.936-1.648 1.63-1.053 3.733-1.438 5.273-1.72 2.206-.403 3.255-.595.094-2.243-2.017-1.396-2.054-1.575-2.162-1.682-.117-.116-.318-.147-3.205-1.546-1.887-1.305-3.669-2.312-5.053-3.094-3.063-1.732-4.174-2.359-.155-2.68 5.834-.467 9.875-2.655 11.508-6.851.075-.193.16-.405.251-.634 1.896-4.742 6.708-16.783-9.513-21.068-14.116 4.292-9.633 1.611-8.156.728.207-.125.356-.213.384-.242-.853-.663-1.283-2.136-1.743-3.713-.671-2.302-1.408-4.826-3.623-5.379-5.787-.56-1.945-2.332 2.333-2.099-2.022-1.165-5.974-4.149-5.6-6.761.075-.525.211-1.039.345-1.549.703-2.658 1.381-5.226-6.645-8.942-9.567-4.43-19.134-15.154-14.701-19.583 4.434-4.43-17.034-13.989-17.734-13.989-.131 0-.394.14-.78.344-1.672.888-5.666 3.008-11.354.356-5.451-2.542 1.975-3.387 7.071-3.967 1.448-.165 2.707-.308 3.43-.463 3.267-.7 5.133-2.331-2.334-4.663-3.59-1.121-2.54-1.218-.222-1.43 2.5-.231 6.478-.597 7.689-2.533.792-1.266 2.014-2.64 3.283-4.066 2.47-2.776 5.118-5.751 5.118-8.523 0-2.356 1.102-3.61 2.07-4.71.756-.86 1.43-1.626 1.43-2.75-2.091-4.68-2.712-4.992-6.673-6.98-.982-.493-2.17-1.09-3.636-1.88-5.035 0-7.424 1.504-9.488 2.803-1.57.989-2.953 1.86-5.17 1.86-2.242 0-4.616.8-6.715 1.506-2.712.913-4.966 1.672-5.886.359-.796-1.136 1.398-2.216 3.534-3.268 2.25-1.108 4.436-2.184 3-3.26-2.163-1.62-4.047.095-4.148-.004-.03-.03.095-.218.414-.696 1.4-2.098 5.367-5.362 8.634-6.294 3.266-.933 6.766-6.062 6.766-6.994 0-.793-1.179-.744-1.963-.711-.138.006-.265.011-.37.011-.56 0 .7-2.953 1.4-4.43Z" clip-rule="evenodd"/><path fill="#CE97FD" stroke="#310077" d="m16.898 84.995 1.604-3.208c6.416-1.925-.642 3.85 4.491-.32 5.133-4.171 2.246 1.603 5.133 0 2.888-1.605 1.284 3.528 3.209 3.207 1.54-.256.962.642.32 1.284 2.246 2.139 5.518 6.93 3.209 6.416-2.888-.642-2.567 1.604-1.284 2.567.642-1.605 2.246-.749 3.53-.963 3.528 4.812 1.924 6.417.32 4.17-6.095-4.17 3.53 4.171-1.283 3.209.642.642 2.887 4.812-2.567 2.887-3.208 9.304-1.604 0-6.737 3.209-4.106 2.566-4.92-.214-4.812-1.925-1.176.214-3.208.192-1.925-1.604 1.604-2.246-5.775-7.38-5.133-1.925.641 5.454 0 2.887-3.208 4.17-3.209 1.284 0-2.566-2.888-.641-2.31 1.54-3.1-.214-3.208-1.284 0-.855-.77-2.951-3.85-4.491-3.85-1.925 2.887-.963 1.604-1.925-1.027-.77 1.497-1.176 2.887-1.283 2.567-.428 6.353-1.412.963-1.925-5.39-.514-1.176-2.139 1.604-2.888 1.177-.962 3.53-3.272 3.53-4.812 0-1.54 2.994-1.925 4.49-1.925Z"/><path fill="#CE97FD" stroke="#310077" d="M80.395 1.642h5.834c-.7 1.477-1.96 4.43-1.4 4.43.7 0 2.333-.234 2.333.699 0 .933-3.5 6.062-6.767 6.994-3.267.933-7.233 4.197-8.633 6.295-1.4 2.098.933-1.399 3.733.7 2.8 2.098-8.167 4.196-6.534 6.527 1.634 2.332 7.467-1.865 12.6-1.865 5.134 0 5.601-1.399 14.468-1.399s10.5 3.031 10.5 5.596c0 2.564-3.5 3.264-3.5 7.46 0 4.197-6.067 8.86-8.4 12.59-2.334 3.73-14.934 1.631-7.467 3.963 7.467 2.331 5.6 3.963 2.333 4.663-3.266.699-17.5 1.165-10.5 4.43 7 3.263 11.434-.7 12.134-.7.7 0 22.167 9.559 17.734 13.988-4.434 4.43 5.133 15.154 14.7 19.584 9.567 4.429 6.767 7.227 6.3 10.491-.373 2.611 3.578 5.595 5.601 6.761-4.278-.233-8.121 1.539-2.334 2.098 3.734.933 3.267 7.461 5.367 9.093-.233.233-11.9 8.159 4.2 3.264 23.101-3.264 14.467 13.755 12.834 17.951-1.633 4.197-6.3 6.994-12.134 7.461-5.833.466-2.333 1.165 3.734 5.362 6.067 4.196 2.1.233 7.467 3.031 5.366 2.797-1.4 1.398-5.367 3.963-3.967 2.564.466.699 1.166 3.031.7 2.331-7-.7-10.733 0-3.734.699 0 2.098-4.434 3.264-4.433 1.165 0-1.166-7-2.565s-2.567.7-4.9 1.399c-2.334.699-1.633-.233-9.1 1.166-7.467 1.398-1.167 1.398-8.634 0-7.467-1.399-2.567 0-5.134 0-2.566 0-2.566-.933-2.566 2.331 0 3.264-.7-.466-5.834-2.331-5.133-1.865-8.633 1.398-12.133 5.828-3.5 4.43-2.567 4.197-7 1.865-4.434-2.331-9.568-.233-11.901.466-2.334.7-4.9 6.062-7 5.596-2.1-.466-1.167-1.865-2.567-2.332-1.4-.466-14.934 1.166-2.1-2.331s1.4-3.73 7.7-5.828c6.3-2.099 5.6-4.43 6.3-8.16.7-3.73.7-.933 3.967-.7 3.267.233.467-1.165 4.667-3.963s3.733 0 7.467 0c3.733 0 3.033.933 7.233.699 4.2-.233 0-1.398.467-3.03.373-1.306 3.422-3.187 4.9-3.964.311-.466.234-1.259-2.567-.699-3.5.699-2.1.699-6.066 2.797-3.967 2.099-2.334.7-6.067 0-3.734-.699 0-1.631-2.1-2.098-2.1-.466-5.6.233-7.467-.699-1.867-.933 3.266-1.632 0-2.332-3.267-.699-4.434-.932-9.8 1.632-5.367 2.565-3.267-.699-5.134-3.497-1.867-2.797.467-1.398 5.133-3.73 4.667-2.331 4.667-3.031 10.267-5.595 5.6-2.565 2.1-6.761 2.1-10.491 0-3.731.7-1.399-1.166-3.497-1.867-2.099-5.134 2.797-7.7 3.497-2.567.699-3.967-2.332 0-2.565 3.173-.186 4.9-3.186 5.366-4.663-1.71-2.098-4.527-6.294-2.1-6.294 3.034 0 1.634 0 4.434 3.03 2.8 3.031 3.733-.932 7.467 0 3.733.933 3.033-1.165 7.933-1.865 4.9-.699.934-2.098 2.8-3.963 1.867-1.865.7-.933-1.4-4.197-2.1-3.264.467-2.098 3.5-5.362 2.427-2.611-1.01-2.797-3.033-2.564-1.011.777-3.267 1.865-4.2 0-1.167-2.332-.234-3.031-2.567-4.896-2.333-1.865-1.167-2.332-1.867-3.963-.7-1.632 1.167-2.332 1.867-3.031.7-.7.934-2.565 1.867-3.964.933-1.398 3.267-.7 4.667-1.632 1.4-.932-6.534.234-7.234 0-.7-.233-1.167-1.865-3.5 2.332-1.867 3.357-5.911 1.71-7.7.466-1.09-1.399-2.894-3.31-1.4.233 1.493 3.544-.156 3.653-1.167 3.264-2.956-2.642-8.634-6.854-7.7-2.564 1.166 5.362-.934.699-2.334-1.4-1.4-2.097-.7-1.398-1.866-3.263-1.167-1.865 1.166.466 2.566-1.399s1.634-1.166 3.267-2.798c1.633-1.632-1.167-.7 1.167-3.03 2.333-2.332.7-2.099.466-4.896-.233-2.798-.7-1.166-3.266-4.43-2.567-3.264-4.2-.466-4.667-4.197-.162-1.292-.127-1.8-.091-1.972-.083.095-.35.184-1.076-.359-1.867-1.399-.933.933-.7 4.896.233 3.963-.466 1.632-2.1 4.197-1.633 2.564-.7 1.632-.467 4.662.234 3.031.7 1.4-.933 3.497-1.633 2.099-1.867.233-3.5-.7-1.633-.932 1.633-4.429 2.567-5.828.933-1.398.466-.932.933-3.263.467-2.332-.467-.933-.933-3.264-.467-2.332.233-.933.933-3.73.7-2.798-.933.233-1.867 1.398-.933 1.166-.7 1.399-2.566 4.197-1.867 2.797-1.167 0-1.167 3.03 0 3.031-.7.7-2.8 1.633-2.1.932-2.334 0-2.334-.467 0-.466 2.334-2.098 1.867-3.73-.467-1.632-.933 1.865-3.967-.466-3.033-2.332.467-.7 2.1-2.798 1.634-2.098.234-1.166 2.8 0 2.567 1.166.7-.233 4.9-2.331 4.2-2.099.7-1.866 1.634-3.497.933-1.632 3.033-4.663 3.733-6.295.7-1.632 1.867-3.497-.7-3.031-2.566.466-1.633 1.399-1.633 4.663 0 3.264-3.033 1.166-8.4 3.03-5.367 1.866-3.5-.466-1.4-1.864 2.1-1.4.7.233 3.5-1.866 2.8-2.098-3.034-.699-3.5-3.264-.467-2.564 0-1.632 1.867-3.73 1.866-2.098 2.333 0 3.5-.932 1.166-.933.466-1.865 2.1-4.663 1.633-2.798.233-2.332-1.634-1.166s-2.8 1.632-3.966 0c-1.167-1.632 3.033-1.865 2.333-2.098-.7-.233-1.633.233-5.134-.933-3.5-1.165-1.4-2.331-5.833-3.264-4.433-.932-.467-2.564 0-3.963s1.4-1.399 2.8-.466c1.4.932 1.167.233 1.167-2.331 0-2.565 2.333-1.633 4.667-.7 1.866.746 1.555 5.284 1.166 7.46.467.933 1.867 2.891 3.734 3.264 2.333.467 3.033-2.797 0-3.264-3.034-.466.233-2.797 0-7.46-.234-4.663 0-3.264 3.033-5.362 3.033-2.098 5.6-.466 6.534-1.399.746-.746-2.178-4.818-3.734-6.76.389-.079 1.867-.98 4.667-3.964s1.167-3.264 0-3.031l3.5-3.264c.622.933 2.334 2.89 4.2 3.264 1.867.373 10.112-1.088 14-1.865l3.734-1.399Z"/></svg>